<svg id="Layer_1" data-name="Layer 1" xmlns="http://www.w3.org/2000/svg" viewBox="0 0 539.65 148"><defs><style>.cls-1{fill:#020203;}.cls-2{fill:#536cb2;}.cls-3{fill:#ab9dcc;}.cls-4{fill:#747dbb;}</style></defs><title>tipo_kredito_lisand_2</title><path class="cls-1" d="M2,31.3H18V82.7L41.6,56.3H61.8L34.2,87l30.9,33.3h-20L18,90.7v29.6H2Z" transform="translate(129.55 -2.65)"/><path class="cls-1" d="M68,56.3H82v8.1a17.43,17.43,0,0,1,5.5-7.3A12.3,12.3,0,0,1,95,54.6a13.06,13.06,0,0,1,6,1.7L96.4,70.2a10.1,10.1,0,0,0-4.3-1.4c-2.3,0-4.2,1.5-5.8,4.6s-2.4,9.1-2.4,18.1l.1,3.1v25.8H68Z" transform="translate(129.55 -2.65)"/><path class="cls-1" d="M174.5,92.3H122.8a16.75,16.75,0,0,0,6,10.9c3.2,2.7,7.4,4,12.4,4a21.44,21.44,0,0,0,15.5-6.3l13.6,6.4A32.68,32.68,0,0,1,158.1,118a37.86,37.86,0,0,1-16.8,3.5c-10.1,0-18.3-3.2-24.6-9.5s-9.5-14.3-9.5-23.9c0-9.8,3.2-17.9,9.5-24.4S130.9,54,140.4,54c10.1,0,18.3,3.2,24.7,9.7s9.5,15,9.5,25.6Zm-16.1-12a16.21,16.21,0,0,0-6.3-8.7,18.57,18.57,0,0,0-10.9-3.4A19.36,19.36,0,0,0,129.4,72c-2.1,1.6-4.1,4.3-5.9,8.3Z" transform="translate(129.55 -2.65)"/><path class="cls-1" d="M235,31.3h16v89H235v-6.8a33.21,33.21,0,0,1-9.4,6.5,26.13,26.13,0,0,1-10.2,2c-8.2,0-15.4-3.2-21.4-9.6s-9-14.4-9-24c0-9.9,2.9-18,8.7-24.4a27.83,27.83,0,0,1,21.2-9.5,26.42,26.42,0,0,1,10.8,2.2,27.88,27.88,0,0,1,9.3,6.6v-32ZM218,69a16.32,16.32,0,0,0-12.4,5.3c-3.3,3.5-4.9,8-4.9,13.5a19.58,19.58,0,0,0,5,13.7,16.37,16.37,0,0,0,12.4,5.4,16.6,16.6,0,0,0,12.6-5.3c3.3-3.5,5-8.1,5-13.8s-1.7-10.1-5-13.6A16.89,16.89,0,0,0,218,69Z" transform="translate(129.55 -2.65)"/><path class="cls-1" d="M273.6,29.3a9.91,9.91,0,0,1,7.3,3.1,10.11,10.11,0,0,1,3,7.4,10.24,10.24,0,0,1-10.2,10.3,9.61,9.61,0,0,1-7.3-3.1,10.5,10.5,0,0,1-3-7.5,10.07,10.07,0,0,1,10.2-10.2Zm-7.6,27h16v64H266Z" transform="translate(129.55 -2.65)"/><path class="cls-1" d="M298,32.3h16v24h10v14H314v50H298v-50h-8v-14h8Z" transform="translate(129.55 -2.65)"/><path class="cls-1" d="M362.7,54.1a34.15,34.15,0,0,1,17.1,4.5,33.23,33.23,0,0,1,17,29.1,33.78,33.78,0,0,1-4.5,17A32.56,32.56,0,0,1,380,117.1a33.72,33.72,0,0,1-17.2,4.5,32.25,32.25,0,0,1-23.6-9.8,32.6,32.6,0,0,1-9.8-23.9,33.54,33.54,0,0,1,33.3-33.8Zm.3,15.2a16.45,16.45,0,0,0-12.5,5.2,18.67,18.67,0,0,0-5,13.4c0,5.6,1.6,10.1,4.9,13.6a16.45,16.45,0,0,0,12.5,5.2,16.91,16.91,0,0,0,12.6-5.3,18.92,18.92,0,0,0,5-13.5c0-5.5-1.6-10-4.9-13.4A16.52,16.52,0,0,0,363,69.3Z" transform="translate(129.55 -2.65)"/><path class="cls-1" d="M399,29a11.1,11.1,0,1,0,11.1,11.1A11.14,11.14,0,0,0,399,29Zm0,20a8.9,8.9,0,1,1,8.9-8.9A8.92,8.92,0,0,1,399,49Zm4.9-3.5c-2.4-4.2-2.2-4-2.4-4.2a3.69,3.69,0,0,0,1.8-3.2c0-2.3-1.3-3.7-4.4-3.7h-3.5s-.5-.2-.3.1V45.6c-.2.3,0,.5.3.8h1.7a11,11,0,0,1,1-.8V42.4h1.3l2,3.7a.55.55,0,0,0,.5.3h1.6a.67.67,0,0,0,.4-.9Zm-4.3-6.2H398v-3h1.2c1.4,0,1.8.5,1.8,1.4A1.29,1.29,0,0,1,399.6,39.3Z" transform="translate(129.55 -2.65)"/><path class="cls-2" d="M-129.35,102.85V51.35s91.1-7.1,99.3,99.3h-50.5S-78.45,104.05-129.35,102.85Z" transform="translate(129.55 -2.65)"/><path class="cls-3" d="M-81.75,2.65h51.5s7.1,91.1-99.3,99.3V51.35S-82.95,53.45-81.75,2.65Z" transform="translate(129.55 -2.65)"/><path class="cls-4" d="M-129.55,51.35V102s39.8-.7,68.9-25.2C-60.55,76.75-81,51.55-129.55,51.35Z" transform="translate(129.55 -2.65)"/></svg>