<?xml version="1.0" encoding="utf-8"?>
<!-- Generator: Adobe Illustrator 25.2.3, SVG Export Plug-In . SVG Version: 6.00 Build 0)  -->
<svg version="1.1" id="Layer_1" xmlns="http://www.w3.org/2000/svg" xmlns:xlink="http://www.w3.org/1999/xlink" x="0px" y="0px"
	 viewBox="0 0 280.7 15.3" style="enable-background:new 0 0 280.7 15.3;" xml:space="preserve">
<style type="text/css">
	.st0{fill:#90CBB5;}
	.st1{fill:#FFFFFF;}
</style>
<path class="st0" d="M273.2,15.2H8c-4.1,0-7.4-3.3-7.4-7.4v0c0-4.1,3.3-7.4,7.4-7.4l265.2,0c4.1,0,7.4,3.3,7.4,7.4v0
	C280.6,11.9,277.3,15.2,273.2,15.2z"/>
<path class="st1" d="M40.4,1.1L40.4,1.1c-1.6,0-3,1.3-3,3v7.8c0,1.6,1.3,3,3,3l0,0c1.6,0,3-1.3,3-3V4.1C43.4,2.4,42.1,1.1,40.4,1.1z
	"/>
<path class="st1" d="M52,1.1L52,1.1c-1.6,0-3,1.3-3,3v7.8c0,1.6,1.3,3,3,3l0,0c1.6,0,3-1.3,3-3V4.1C55,2.4,53.7,1.1,52,1.1z"/>
<path class="st1" d="M63.7,1.1L63.7,1.1c-1.6,0-3,1.3-3,3v7.8c0,1.6,1.3,3,3,3l0,0c1.6,0,3-1.3,3-3V4.1C66.7,2.4,65.3,1.1,63.7,1.1z
	"/>
<path class="st1" d="M75.3,1.1L75.3,1.1c-1.6,0-3,1.3-3,3v7.8c0,1.6,1.3,3,3,3l0,0c1.6,0,3-1.3,3-3V4.1C78.3,2.4,77,1.1,75.3,1.1z"
	/>
<path class="st1" d="M87,1.1L87,1.1c-1.6,0-3,1.3-3,3v7.8c0,1.6,1.3,3,3,3l0,0c1.6,0,3-1.3,3-3V4.1C89.9,2.4,88.6,1.1,87,1.1z"/>
<path class="st1" d="M98.6,1.1L98.6,1.1c-1.6,0-3,1.3-3,3v7.8c0,1.6,1.3,3,3,3l0,0c1.6,0,3-1.3,3-3V4.1
	C101.6,2.4,100.2,1.1,98.6,1.1z"/>
<path class="st1" d="M110.2,1.1L110.2,1.1c-1.6,0-3,1.3-3,3v7.8c0,1.6,1.3,3,3,3l0,0c1.6,0,3-1.3,3-3V4.1
	C113.2,2.4,111.9,1.1,110.2,1.1z"/>
<path class="st1" d="M121.9,1.1L121.9,1.1c-1.6,0-3,1.3-3,3v7.8c0,1.6,1.3,3,3,3l0,0c1.6,0,3-1.3,3-3V4.1
	C124.9,2.4,123.5,1.1,121.9,1.1z"/>
<path class="st1" d="M145.1,1.1L145.1,1.1c-1.6,0-3,1.3-3,3v7.8c0,1.6,1.3,3,3,3l0,0c1.6,0,3-1.3,3-3V4.1
	C148.1,2.4,146.8,1.1,145.1,1.1z"/>
<path class="st1" d="M156.8,1.1L156.8,1.1c-1.6,0-3,1.3-3,3v7.8c0,1.6,1.3,3,3,3l0,0c1.6,0,3-1.3,3-3V4.1
	C159.8,2.4,158.4,1.1,156.8,1.1z"/>
<path class="st1" d="M168.4,1.1L168.4,1.1c-1.6,0-3,1.3-3,3v7.8c0,1.6,1.3,3,3,3l0,0c1.6,0,3-1.3,3-3V4.1
	C171.4,2.4,170.1,1.1,168.4,1.1z"/>
<path class="st1" d="M180.1,1.1L180.1,1.1c-1.6,0-3,1.3-3,3v7.8c0,1.6,1.3,3,3,3l0,0c1.6,0,3-1.3,3-3V4.1
	C183.1,2.4,181.7,1.1,180.1,1.1z"/>
<path class="st1" d="M191.7,1.1L191.7,1.1c-1.6,0-3,1.3-3,3v7.8c0,1.6,1.3,3,3,3l0,0c1.6,0,3-1.3,3-3V4.1
	C194.7,2.4,193.4,1.1,191.7,1.1z"/>
<path class="st1" d="M203.3,1.1L203.3,1.1c-1.6,0-3,1.3-3,3v7.8c0,1.6,1.3,3,3,3l0,0c1.6,0,3-1.3,3-3V4.1
	C206.3,2.4,205,1.1,203.3,1.1z"/>
<path class="st1" d="M215,1.1L215,1.1c-1.6,0-3,1.3-3,3v7.8c0,1.6,1.3,3,3,3l0,0c1.6,0,3-1.3,3-3V4.1C218,2.4,216.6,1.1,215,1.1z"/>
<path class="st1" d="M226.6,1.1L226.6,1.1c-1.6,0-3,1.3-3,3v7.8c0,1.6,1.3,3,3,3l0,0c1.6,0,3-1.3,3-3V4.1
	C229.6,2.4,228.3,1.1,226.6,1.1z"/>
<path class="st1" d="M238.3,1.1L238.3,1.1c-1.6,0-3,1.3-3,3v7.8c0,1.6,1.3,3,3,3l0,0c1.6,0,3-1.3,3-3V4.1
	C241.2,2.4,239.9,1.1,238.3,1.1z"/>
<path class="st1" d="M249.9,1.1L249.9,1.1c-1.6,0-3,1.3-3,3v7.8c0,1.6,1.3,3,3,3l0,0c1.6,0,3-1.3,3-3V4.1
	C252.9,2.4,251.5,1.1,249.9,1.1z"/>
<path class="st1" d="M28.8,1.1L28.8,1.1c-1.6,0-3,1.3-3,3v7.8c0,1.6,1.3,3,3,3l0,0c1.6,0,3-1.3,3-3V4.1C31.8,2.4,30.4,1.1,28.8,1.1z
	"/>
<path class="st1" d="M17.4,1.1L17.4,1.1c-1.6,0-3,1.3-3,3v7.8c0,1.6,1.3,3,3,3l0,0c1.6,0,3-1.3,3-3V4.1C20.3,2.4,19,1.1,17.4,1.1z"
	/>
<path class="st1" d="M260.5,1.1L260.5,1.1c-1.6,0-3,1.3-3,3v7.8c0,1.6,1.3,3,3,3l0,0c1.6,0,3-1.3,3-3V4.1
	C263.5,2.4,262.2,1.1,260.5,1.1z"/>
<path class="st1" d="M133.5,1.1L133.5,1.1c-1.6,0-3,1.3-3,3v7.8c0,1.6,1.3,3,3,3l0,0c1.6,0,3-1.3,3-3V4.1
	C136.5,2.4,135.2,1.1,133.5,1.1z"/>
</svg>
