<?xml version="1.0" encoding="utf-8"?>
<!-- Generator: Adobe Illustrator 25.2.3, SVG Export Plug-In . SVG Version: 6.00 Build 0)  -->
<svg version="1.1" id="Layer_1" xmlns="http://www.w3.org/2000/svg" xmlns:xlink="http://www.w3.org/1999/xlink" x="0px" y="0px"
	 viewBox="0 0 104.8 105.1" style="enable-background:new 0 0 104.8 105.1;" xml:space="preserve">
<style type="text/css">
	.st0{fill:#F18662;}
</style>
<g>
	<path class="st0" d="M52.5,0.4C23.6,0.4,0.2,23.8,0.2,52.7s23.4,52.2,52.2,52.2s52.2-23.4,52.2-52.2S81.3,0.4,52.5,0.4z M78.1,66.4
		c1,1,1,2.6,0,3.6l-8.3,8.3c-1,1-2.6,1-3.6,0L52.5,64.5L38.7,78.3c-1,1-2.6,1-3.6,0l-8.3-8.3c-1-1-1-2.6,0-3.6l13.8-13.7L26.8,39
		c-1-1-1-2.6,0-3.6l8.3-8.3c1-1,2.6-1,3.6,0l13.7,13.8l13.7-13.8c1-1,2.6-1,3.6,0l8.3,8.3c1,1,1,2.6,0,3.6L64.2,52.7L78.1,66.4z"/>
</g>
</svg>
