<?xml version="1.0" encoding="utf-8"?>
<!-- Generator: Adobe Illustrator 25.2.3, SVG Export Plug-In . SVG Version: 6.00 Build 0)  -->
<svg version="1.1" id="Layer_1" xmlns="http://www.w3.org/2000/svg" xmlns:xlink="http://www.w3.org/1999/xlink" x="0px" y="0px"
	 viewBox="0 0 104.8 105.1" style="enable-background:new 0 0 104.8 105.1;" xml:space="preserve">
<style type="text/css">
	.st0{fill:#78C3A8;}
</style>
<g>
	<path class="st0" d="M104.6,52.5c0,28.8-23.3,52.1-52.1,52.1S0.4,81.3,0.4,52.5S23.8,0.5,52.5,0.5S104.6,23.8,104.6,52.5z
		 M46.5,80.1l38.6-38.6c1.3-1.3,1.3-3.4,0-4.8L80.4,32c-1.3-1.3-3.4-1.3-4.8,0L44.1,63.5L29.4,48.8c-1.3-1.3-3.4-1.3-4.8,0l-4.8,4.8
		c-1.3,1.3-1.3,3.4,0,4.8l21.8,21.8C43.1,81.4,45.2,81.4,46.5,80.1L46.5,80.1z"/>
</g>
</svg>
