<?xml version="1.0" encoding="utf-8"?>
<!-- Generator: Adobe Illustrator 25.2.3, SVG Export Plug-In . SVG Version: 6.00 Build 0)  -->
<svg version="1.1" id="Layer_1" xmlns="http://www.w3.org/2000/svg" xmlns:xlink="http://www.w3.org/1999/xlink" x="0px" y="0px"
	 viewBox="0 0 356 356" style="enable-background:new 0 0 356 356;" xml:space="preserve">
<style type="text/css">
	.st0{opacity:9.000000e-02;fill:#F18661;}
</style>
<g>
	<path class="st0" d="M116.7,117c5.2,4.2,11.4,7.9,18.6,11.3c7.2,3.4,14.5,6.4,22,9c7.5,2.7,13.6,5,18.2,7.1
		c-0.7-2.1-1.7-5.4-3.1-10.1c-1.4-4.6-2.9-9.8-4.7-15.6c-1.7-5.8-3.8-11.7-6.1-17.9c-2.3-6.1-4.7-11.7-7.1-16.8
		c-2.4-5.1-5-9.2-7.6-12.5c-2.7-3.2-5.4-4.9-8.2-4.9c-4.2,0-8,1.4-11.6,4.2c-3.6,2.8-6.8,6.1-9.5,10.1c-2.8,3.9-4.9,8-6.4,12.1
		c-1.5,4.2-2.3,7.6-2.3,10.4C108.9,108.3,111.5,112.9,116.7,117z"/>
	<path class="st0" d="M180.3,95.2c1.8,6.7,3.8,13.5,5.9,20.3l0,0c2,6.5,11,7,13.7,0.8c0.8-1.8,1.6-3.6,2.4-5.5
		c4.5-10.2,9-20.8,13.4-31.7c4.4-11,8.2-21.4,11.5-31.4c3.2-9.9,4.9-17.7,4.9-23.2c0-4.2-1-7.8-3.1-10.9c-2.1-3.1-6-4.7-11.8-4.7
		c-6.5,0-12.4,1.6-17.7,4.7c-5.3,3.1-9.9,7-13.7,11.6c-3.8,4.6-6.8,9.7-8.8,15.1c-2.1,5.4-3.1,10.5-3.1,15.1
		c0,6.2,0.6,12.8,1.9,19.6C176.9,81.7,178.5,88.5,180.3,95.2z"/>
	<path class="st0" d="M217.7,118.5c-2.9,6.4,4,12.8,10.2,9.4c0.7-0.4,1.4-0.8,2.1-1.2c2.5-1.4,5-2.8,7.6-4.2V78.3
		c-1.8,3.4-3.6,6.7-5.3,10c-5.2,10.1-9.8,19.6-13.9,28.6L217.7,118.5z"/>
	<path class="st0" d="M231.2,148.6c-6.1,2.9-5.4,11.7,1,13.6c1.7,0.5,3.5,1.1,5.3,1.6v-18.1c-0.5,0.2-1,0.5-1.5,0.7
		C234.4,147.1,232.8,147.8,231.2,148.6z"/>
	<path class="st0" d="M202.3,245.2c-2.4-10.3-5.1-20.5-8-30.7c-0.9-3-1.7-6.1-2.5-9.1c-1.7-6.6-10.8-7.3-13.7-1.1
		c-1.2,2.5-2.4,5-3.6,7.6c-4.7,9.8-9.3,20-13.7,30.5c-4.4,10.5-8.2,21-11.3,31.6c-3.1,10.5-4.7,20.5-4.7,30c0,4.2,0.7,8.7,2.3,13.7
		c1.5,5,3.8,9.5,6.8,13.7c3,4.2,6.8,7.7,11.3,10.6c4.5,2.9,9.9,4.3,16.1,4.3c6.2,0,11.3-1.4,15.3-4.2c3.9-2.8,6.9-6.1,9-10.1
		c2.1-3.9,3.5-8.2,4.3-12.8c0.8-4.6,1.2-8.9,1.2-12.8c0-9.9-0.9-20.1-2.6-30.4C206.9,265.8,204.8,255.5,202.3,245.2z"/>
	<path class="st0" d="M237.5,190.3c-2.4-1-4.7-2.1-7.1-3c-3.8-1.6-7.3-3.1-10.7-4.6c-5.8-2.5-11.8,2.9-9.9,8.9
		c0.9,2.7,1.7,5.5,2.7,8.5c3,9.8,6.5,20.3,10.6,31.4c4,11.1,8.7,22.3,13.9,33.6c0.2,0.3,0.3,0.7,0.5,1V190.3z"/>
	<path class="st0" d="M165.6,191.4c2.9-6.1,5-10.6,6.4-13.4c-7.6,4.4-16.4,9.1-26.4,14c-9.9,5-19.4,10.4-28.3,16.3
		c-8.9,5.9-16.4,12.4-22.6,19.4c-6.1,7.1-9.2,14.9-9.2,23.4c0,2.1,0.3,4.9,1,8.3c0.7,3.5,1.8,6.8,3.3,9.9c1.5,3.1,3.5,5.8,6.1,8.2
		c2.5,2.3,5.7,3.5,9.4,3.5c3.5,0,7.3-2.1,11.6-6.4c4.3-4.3,8.7-9.8,13.2-16.5c4.5-6.7,9-14.2,13.4-22.4c4.4-8.2,8.4-16.1,12.1-23.8
		C159.4,204.4,162.7,197.6,165.6,191.4z"/>
	<path class="st0" d="M106.4,190.7c7.2-2.9,14.7-6.2,22.7-10.1c8-3.8,15.6-7.6,22.7-11.3c7.2-3.7,12.5-6.4,16-8
		c-3.5-1.2-8-2.8-13.5-4.9c-5.5-2.1-11.3-4.1-17.3-6.1c-6-2-12-3.7-17.9-5.2c-5.9-1.5-10.9-2.3-15.1-2.3c-4.9,0-9,1.2-12.3,3.6
		c-3.4,2.4-6.1,5.4-8.2,8.8c-2.1,3.5-3.6,7.2-4.5,11.1c-0.9,3.9-1.4,7.4-1.4,10.4c0,1.9,0.2,3.8,0.5,5.9c0.3,2.1,1,4.1,1.9,5.9
		c0.9,1.9,2.3,3.4,4,4.5c1.7,1.2,4,1.7,6.8,1.7C94,195.1,99.3,193.6,106.4,190.7z"/>
</g>
</svg>
