<?xml version="1.0" encoding="utf-8"?>
<!-- Generator: Adobe Illustrator 25.2.3, SVG Export Plug-In . SVG Version: 6.00 Build 0)  -->
<svg version="1.1" id="Layer_1" xmlns="http://www.w3.org/2000/svg" xmlns:xlink="http://www.w3.org/1999/xlink" x="0px" y="0px"
	 viewBox="0 0 356 356" style="enable-background:new 0 0 356 356;" xml:space="preserve">
<style type="text/css">
	.st0{fill:#6DD1AF;}
	.st1{fill:#FFFFFF;}
	.st2{fill:#F68660;}
</style>
<g>
	<path d="M279.7,224.51l-1.24-1.45l-48.2-54.6l16.18-15.5l-5.39-5.06l-18.88,16.85c-52.24-8.43-55.95,2.7-55.95,2.7
		c-6.4,5.06-9.1-0.34-9.1-0.34c-18.54-12.81-62.36-0.34-62.36-0.34l-0.67-5.39l-33.71-25.95l-5.73,6.07l30.34,22.25l0.34,9.1
		l-45.5,51.91l-8.76-0.34L8.81,203.85l-4.04,6.4l25.95,23.26l10.11-1.69c7.08,35.39,30,43.82,30,43.82
		c-10.79,34.38,19.55,23.59,19.55,23.59c-7.75,25.62,13.83,18.27,16.85,17.53c-1.35,28.99,28.99,10.11,28.99,10.11
		c4.38,27.64,24.94,9.56,24.94,9.56c18.88,17.65,26.63-0.46,26.63-0.46c27.98,3.71,23.26-16.18,23.26-16.18
		c22.25,5.39,19.21-18.2,19.21-18.2c25.95,3.03,17.86-22.92,17.86-22.92c14.83-9.44,24.27-34.04,24.27-34.04
		c1.01-4.38,37.08-34.38,37.08-34.38l-5.73-6.4L279.7,224.51z M89.34,293.28c-1.96,1.85-5.04,1.76-6.89-0.2l-4.41-4.68
		c-1.85-1.96-1.76-5.04,0.2-6.89l8.11-7.65c1.96-1.85,5.04-1.76,6.89,0.2l4.41,4.68c1.85,1.96,1.76,5.04-0.2,6.89L89.34,293.28z
		 M106.19,311.15c-1.96,1.85-5.04,1.76-6.89-0.2l-4.41-4.68c-1.85-1.96-1.76-5.04,0.2-6.89l16.71-16.25
		c1.96-1.85,5.04-1.76,6.89,0.2l4.41,4.68c1.85,1.96,1.76,5.04-0.2,6.89L106.19,311.15z M125.07,327.5
		c-1.96,1.85-5.04,1.76-6.89-0.2l-4.41-4.68c-1.85-1.96-1.76-5.04,0.2-6.89l19.57-19.11c1.96-1.85,5.04-1.76,6.89,0.2l4.41,4.68
		c1.85,1.96,1.76,5.04-0.2,6.89L125.07,327.5z M153.72,334.73c-1.96,1.85-5.04,1.76-6.89-0.2l-4.41-4.68
		c-1.85-1.96-1.76-5.04,0.2-6.89l13.84-13.38c1.96-1.85,5.04-1.76,6.89,0.2l4.41,4.68c1.85,1.96,1.76,5.04-0.2,6.89L153.72,334.73z
		 M179.23,333.09l-2.79,2.63c-1.96,1.85-5.04,1.76-6.89-0.2l-0.53-0.56c-1.85-1.96-1.76-5.04,0.2-6.89l2.79-2.63
		c1.96-1.85,5.04-1.76,6.89,0.2l0.53,0.56C181.28,328.16,181.19,331.25,179.23,333.09z M230.59,292.83l-31.68-30.67
		c-14.83-4.38-8.43,7.42-8.43,7.42l32.02,29.32c2.7,18.2-12.13,11.12-12.13,11.12l-33.28-33.71c-9.34-3.71-6.83,6.07-6.83,6.07
		l33.71,34.38c1.35,16.18-13.82,11.12-13.82,11.12l-15.5-16.18c-7.08-13.15-21.23-9.44-21.23-9.44
		c-1.35-18.54-18.88-14.49-18.88-14.49c-9.1-24.27-27.98-10.11-27.98-10.11c-11.12-22.25-31.01-6.4-31.01-6.4
		c-34.04-22.92-26.63-45.5-26.63-45.5l44.83-50.22c57.64-12.13,57.97,2.12,57.97,2.12l-35.05,30.57
		c-10.11,10.11-0.67,25.28-0.67,25.28c10.11,12.47,23.26,2.36,23.26,2.36l20.9-22.25l8.43,0.67l64.38,63.37l0.03-0.04l1.65,2.06
		C246.77,298.23,230.59,292.83,230.59,292.83z M265.82,235.73l-23.43,36.55l-1.15,1.1l-2.5-2.46l0,0l0.28-0.32l-66.4-63.03H158.8
		l-22.58,23.59c-22.58,3.71-14.49-15.84-14.49-15.84l45.17-40.78c8.09-9.44,56.63,0,56.63,0l49.15,53.67L265.82,235.73z"/>
	<polygon points="109,35.66 278.45,34.98 278.45,26.89 101.84,26.89 101.84,151.27 109,151.27 	"/>
	<rect x="138.91" y="75.85" width="65.47" height="8.34"/>
	<rect x="138.91" y="107.2" width="42.72" height="8.85"/>
	<path d="M341.4,12.91c-9.61-10.08-20.86-3.74-22.44-2.77c-0.13,0.08-0.23,0.16-0.35,0.25L216.4,95.79
		c-0.42,0.35-0.74,0.81-0.93,1.33l-10.04,28.1c-0.77,2.16,1.01,4.38,3.29,4.09l23.23-2.99c2.32-0.3,3.47-2.97,2.1-4.86
		c-0.62-0.85-1.62-1.32-2.67-1.26l-11.34,0.66c-2.12,0.12-3.72-1.89-3.14-3.93l4.14-14.39c0.17-0.59,0.51-1.11,0.98-1.5l100.57-84.6
		c0.39-0.33,0.87-0.57,1.37-0.67c16.69-3.57,13.74,10.08,12.66,13.8c-0.17,0.57-0.49,1.08-0.94,1.47l-98.95,86.29
		c-1.21,1.06-1.41,2.87-0.44,4.16l0.23,0.31c1.07,1.43,3.12,1.65,4.47,0.49l103.3-88.86c0.33-0.29,0.62-0.65,0.8-1.04
		C350.94,20.12,341.4,12.91,341.4,12.91z"/>
</g>
<g>
	<polygon class="st0" points="8.81,203.85 31.05,224.41 40.11,224.41 84.59,173.68 84.98,163.74 54.65,141.49 	"/>
	<polygon class="st0" points="311.24,26 221.06,102.54 235.81,118.81 324.72,40.62 	"/>
</g>
<path class="st1" d="M231.4,120.19l-10.76,0.63c0,0-4.88,0.14-3.56-4.44l4.31-14.57l14.42,17c0,0-0.16,0.65-0.11,1.03L231.4,120.19z
	"/>
<g>
	<path class="st2" d="M223.51,174.53c-44.15-8.43-54.42-1.67-54.42-1.67l-47.37,42.45c-6.74,19.55,14.49,15.84,14.49,15.84
		l22.58-23.59h13.82l68.42,65.56c18.54-8.76,24.94-37.25,24.94-37.25l6.74-7.75L223.51,174.53z"/>
	<path class="st2" d="M97.66,278.74l-4.41-4.68c-1.85-1.96-4.93-2.05-6.89-0.2l-8.11,7.65c-1.96,1.85-2.05,4.93-0.2,6.89l4.41,4.68
		c1.85,1.96,4.93,2.05,6.89,0.2l8.11-7.65C99.41,283.78,99.5,280.69,97.66,278.74z"/>
	<path class="st2" d="M163.35,309.78c-1.85-1.96-4.93-2.05-6.89-0.2l-13.84,13.38c-1.96,1.85-2.05,4.93-0.2,6.89l4.41,4.68
		c1.85,1.96,4.93,2.05,6.89,0.2l13.84-13.38c1.96-1.85,2.05-4.93,0.2-6.89L163.35,309.78z"/>
	<path class="st2" d="M123.11,288.01l-4.41-4.68c-1.85-1.96-4.93-2.05-6.89-0.2l-16.71,16.25c-1.96,1.85-2.05,4.93-0.2,6.89
		l4.41,4.68c1.85,1.96,4.93,2.05,6.89,0.2l16.71-16.25C124.86,293.06,124.95,289.97,123.11,288.01z"/>
	<path class="st2" d="M144.85,301.5l-4.41-4.68c-1.85-1.96-4.93-2.05-6.89-0.2l-19.57,19.11c-1.96,1.85-2.05,4.93-0.2,6.89
		l4.41,4.68c1.85,1.96,4.93,2.05,6.89,0.2l19.57-19.11C146.6,306.54,146.69,303.45,144.85,301.5z"/>
</g>
</svg>
