<?xml version="1.0" encoding="utf-8"?>
<!-- Generator: Adobe Illustrator 25.2.3, SVG Export Plug-In . SVG Version: 6.00 Build 0)  -->
<svg version="1.1" id="Layer_1" xmlns="http://www.w3.org/2000/svg" xmlns:xlink="http://www.w3.org/1999/xlink" x="0px" y="0px"
	 viewBox="0 0 310.8 354.1" style="enable-background:new 0 0 310.8 354.1;" xml:space="preserve">
<style type="text/css">
	.st0{fill:#FFFFFF;}
</style>
<g>
	<g>
		<path class="st0" d="M221.3,244.4h-15.9c-31.8,14.7-68.4,14.7-100.2,0H89.3c-48.6,0-88,39.4-88,88c0,12.2,9.8,22,22,22h264
			c12.2,0,22-9.8,22-22C309.3,283.8,269.9,244.4,221.3,244.4z M34.3,156.4c6.1,0,11-4.9,11-11v-11c0-60.7,49.3-110,110-110
			s110,49.3,110,110v11c0,30.4-24.6,55-55,55h-22c0-12.2-9.8-22-22-22h-22c-12.2,0-22,9.8-22,22s9.8,22,22,22h66
			c42.5-0.1,76.9-34.5,77-77v-11c0-72.8-59.2-132-132-132s-132,59.2-132,132v11C23.3,151.5,28.2,156.4,34.3,156.4z M144.3,156.4h22
			c15.7,0,30.2,8.4,38.1,22h5.9c18.2,0,33-14.8,33-33v-11c0-48.6-39.4-88-88-88s-88,39.4-88,88c0,27.8,13.1,52.2,33.2,68.4
			c0-0.8-0.2-1.6-0.2-2.4C100.3,176.1,120,156.4,144.3,156.4z"/>
	</g>
</g>
</svg>
