<?xml version="1.0" encoding="utf-8"?>
<!-- Generator: Adobe Illustrator 25.2.3, SVG Export Plug-In . SVG Version: 6.00 Build 0)  -->
<svg version="1.1" id="Layer_1" xmlns="http://www.w3.org/2000/svg" xmlns:xlink="http://www.w3.org/1999/xlink" x="0px" y="0px"
	 viewBox="0 0 356 356" style="enable-background:new 0 0 356 356;" xml:space="preserve">
<style type="text/css">
	.st0{fill:#020203;}
	.st1{fill:#EBAA7C;}
	.st2{fill:#F18662;}
	.st3{fill:#78C3AA;}
	.st4{fill:#FFFFFF;}
</style>
<g>
	<path class="st0" d="M332.9,262.5c2.8-9.5-39.4-27.9-83.5-0.9c-2.4,0.7-4.6,2.2-3.7-0.1c2.7-6.2-1.3-12.7-2.3-14.1
		c-0.1-0.2-0.2-0.3-0.4-0.5c-15.7-16.1-85-45.1-89.4-46.9c-0.2-0.1-0.3-0.1-0.5-0.2c-29.3-7.5-81.3,21.9-89.8,26.8
		c-0.2-1-0.4-1.9-0.6-2.7c-4.5-20.5-38.2-3.1-38.2-3.1l2.8,4.8c27.5-12.7,29.7-2.2,29.7-2.2l23.5,105.9c0,0,0,4-5.2,5.3
		c-5.2,1.4-48.3,8.4-48.3,8.4l1.4,5.7l51.1-8.6c0,0,8.1-3.3,7-7.4c-0.3-1.3-2.3-10.1-5-22.3c39-10.6,85.9,4.2,85.9,4.2
		c64.6,17.9,82.3,6.4,82.3,6.4l70.5-39.4c0.1,0,0.2-0.1,0.2-0.1C333.1,276.7,332.5,267.9,332.9,262.5z M240.3,301.1
		c0,0-21.6,5.9-76.2-9.8c0,0-18.5-11.3-87.9-5.8c-2.5-11.3-5.1-23.1-7.3-33.5l-3.7-19.7c0,0,67.2-35.8,87.8-22.7
		c0,0,63.9,25.1,72.6,34.3c0,0,16.4,12.5,6.1,15.1c0,0-6.7,3.1-41.3-16.8c0,0-17-5.3-19.6,8.5c0,0-2.8,3.9,3.4,13.8
		c6.2,9.9,63,23.3,70.6,9.4c0,0,23.9-23.7,64.2-21.3L240.3,301.1z"/>
	<circle class="st0" cx="50.1" cy="320.6" r="7.7"/>
	<path class="st0" d="M328.4,297.2c-2.5,0-4.6,2.1-4.6,4.6c0,2.5,2.1,4.6,4.6,4.6c2.5,0,4.6-2.1,4.6-4.6
		C333,299.2,330.9,297.2,328.4,297.2z"/>
	<path class="st0" d="M182,342.6v6.2c87.1,26.8,134.8-34.8,134.8-34.8l-0.1-5.7C251.6,374.4,182,342.6,182,342.6z"/>
</g>
<path class="st1" d="M279.9,54.2"/>
<path class="st1" d="M218.1,5.2"/>
<g>
	<circle class="st2" cx="313" cy="198.7" r="7.1"/>
	<path class="st2" d="M274.4,68.3c0,3.9,3.2,7.1,7.1,7.1c3.9,0,7.1-3.2,7.1-7.1c0-3.9-3.2-7.1-7.1-7.1
		C277.6,61.2,274.4,64.4,274.4,68.3z"/>
	<path class="st2" d="M120.8,83.6c3.9,0,7.1-3.2,7.1-7.1c0-3.9-3.2-7.1-7.1-7.1c-3.9,0-7.1,3.2-7.1,7.1
		C113.7,80.5,116.9,83.6,120.8,83.6z"/>
	<path class="st2" d="M253.3,16c21.4,13.4,23.8,38.2,23.8,38.2l5.4-0.9c-4.5-26.5-18.8-36.7-18.8-36.7C243.3-1.4,218,2.5,218,2.5
		l0,5.3C239.5,6.3,253.3,16,253.3,16z"/>
	<path class="st2" d="M104.8,78.2c-26.2,5.8-35.7,20.6-35.7,20.6c-17,21.3-11.8,46.3-11.8,46.3l5.3-0.3c-2.5-21.3,6.5-35.6,6.5-35.6
		c12.3-22,36.9-25.7,36.9-25.7L104.8,78.2z"/>
	<path class="st2" d="M313.2,143.4c-14.1-23.2-39.4-27-39.4-27l-1.5,5c20.9,4.9,31.2,18.3,31.2,18.3c16.4,19.2,11.4,43.5,11.4,43.5
		l5.4,0.7C323.9,157.4,313.2,143.4,313.2,143.4z"/>
	<path class="st2" d="M122.7,97.1c-22.5,0-40.7,18.2-40.7,40.7s18.2,40.7,40.7,40.7c22.5,0,40.7-18.2,40.7-40.7
		S145.2,97.1,122.7,97.1z M137.9,124.9c-1-1.4-3.1-3.9-7.2-5.7c-5-2.1-8.1,0-9.2,2.6c-1.4,3.4,0.2,6,4.8,10.8
		c5.5,5.6,7.4,10.3,4.9,16.1c-2.2,5.1-7.8,8.3-14.9,6.6l-2.9,6.7l-4.1-1.7l2.8-6.5c-3.7-1.7-7.1-4.5-8.6-7.1l3.4-3.7
		c1.7,2.5,4.5,5.2,8.1,6.7c4.6,2,8.8,0.6,10.4-3c1.5-3.5-0.1-6.8-4-10.8c-5.5-5.4-8.3-10.1-5.9-15.7c2.3-5.4,7.8-7.8,14.2-6.2
		l2.8-6.5l4,1.7l-2.7,6.3c3.8,1.8,6,3.9,7.4,5.8L137.9,124.9z"/>
	<path class="st2" d="M258.7,61.2c0-22.5-18.2-40.7-40.7-40.7c-22.5,0-40.7,18.2-40.7,40.7c0,22.5,18.2,40.7,40.7,40.7
		C240.5,101.9,258.7,83.7,258.7,61.2z M229.7,63.7c-2.4-3-6-3.2-11.4-1.7c-7.4,2.2-12.8,2.4-16.6-2.4c-3.6-4.6-3-10.6,1.4-15.4
		l-4.4-5.6l3.4-2.7l4.2,5.4c3.4-2.5,6.4-3.4,8.7-3.7l1.5,4.7c-1.7,0.2-4.9,0.8-8.4,3.6c-4.3,3.3-3.9,7.1-2.1,9.3
		c2.2,2.9,5.4,2.7,11.8,0.9c7.5-2.1,12.6-1.5,16.5,3.4c3.4,4.4,3.6,10.8-1.4,16.2l4.5,5.7l-3.5,2.7l-4.4-5.6
		c-3.2,2.4-7.3,4-10.4,4.2l-1.6-4.7c3-0.2,6.7-1.4,9.8-3.8C231.2,71.2,232.1,66.9,229.7,63.7z"/>
	<path class="st2" d="M257.1,133.2c-22.5,0-40.7,18.2-40.7,40.7s18.2,40.7,40.7,40.7c22.5,0,40.7-18.2,40.7-40.7
		S279.6,133.2,257.1,133.2z M283.7,178l-6.8-0.6c-0.5,4.2-1.9,6.9-3.2,8.9l-4.5-2.1c1-1.4,2.7-4.1,3.1-8.6c0.5-5.4-2.6-7.7-5.4-7.9
		c-3.6-0.3-5.7,2.1-8.7,8c-3.6,6.9-7.5,10.3-13.7,9.7c-5.5-0.5-10.4-4.8-10.9-12.1l-7.3-0.6l0.4-4.4l7.1,0.6c0.4-4,2-8.1,4-10.4
		l4.5,2.1c-1.9,2.4-3.5,5.9-3.9,9.8c-0.4,5,2.2,8.6,6.1,8.9c3.8,0.3,6.5-2.2,9-7.2c3.4-6.9,7-11,13.1-10.5c5.8,0.5,9.8,5,10.3,11.5
		l7.1,0.6L283.7,178z"/>
</g>
<g>
	<path class="st3" d="M178.2,257.7c0,0,47.6,23.1,60,12c0,0,18.9-18-11.5-26.9c0,0,10.5,7,9.2,12.9c0,0,0.3,9.7-39.3-11.6
		c0,0-12.1-10.7-23.8,0.5C172.7,244.5,168.4,252.3,178.2,257.7z"/>
	<path class="st3" d="M332.2,257.7c-3.8-10.4-23.5-6.1-23.5-6.1L241.4,300c-22.2,5.8-76.2-9.8-76.2-9.8
		c-22.5-11.7-88.9-5.8-88.9-5.8l4.1,19.7l1.6,0.7c0,0-1.4,1,10.3-3.6c18.2-7.3,89.4,8.5,89.4,8.5c36.4,14.4,69.6,3.1,69.6,3.1
		l61.4-36.1C335,270.3,332.2,257.7,332.2,257.7z"/>
</g>
<path class="st4" d="M245.7,272.6c-7.6,13.9-64.4,0.4-70.6-9.4c-6.2-9.9-3.4-13.8-3.4-13.8c2.6-13.8,19.6-8.5,19.6-8.5
	c34.6,20,41.3,16.8,41.3,16.8c10.4-2.6-6.1-15.1-6.1-15.1c-8.7-9.2-72.6-34.3-72.6-34.3c-20.6-13.1-87.8,22.7-87.8,22.7l10.1,53.3
	c70.2-5.6,88.9,5.8,88.9,5.8c54.5,15.7,76.2,9.8,76.2,9.8l68.5-48.6C269.6,248.9,245.7,272.6,245.7,272.6z"/>
</svg>
