<?xml version="1.0" encoding="utf-8"?>
<!-- Generator: Adobe Illustrator 25.2.3, SVG Export Plug-In . SVG Version: 6.00 Build 0)  -->
<svg version="1.1" id="Layer_1" xmlns="http://www.w3.org/2000/svg" xmlns:xlink="http://www.w3.org/1999/xlink" x="0px" y="0px"
	 viewBox="0 0 356 356" style="enable-background:new 0 0 356 356;" xml:space="preserve">
<style type="text/css">
	.st0{fill:#FFFFFF;}
	.st1{fill:#77C3A9;}
	.st2{fill:#F18560;}
</style>
<g>
	<path class="st0" d="M136.8,269.7c0,0,0.3-8.6-8.1-8.7c-8.5-0.1-102.8,0-111.4,0c-8.6,0-7.6,8.7-7.6,8.7v53.8c0,0-1.3,8.6,9.1,8.7
		c10.4,0.1,100.4,0,109.9,0c9.5,0,8.1-10.2,8.1-10.2V269.7z"/>
	<path class="st0" d="M314.4,328.2v-84.8c0,0,0.6-14.5-12.4-14.8c-13-0.3-60.9,0.2-73.3,0c-12.4-0.2-10.3,13.6-10.3,13.6v89.1
		c0,0-0.3,13.8,12.5,13.4c16.1-0.6,56.9,0.6,70.8,0.6C315.6,345.3,314.4,328.2,314.4,328.2z"/>
</g>
<g>
	<path class="st1" d="M48.3,162v2.7c7.2,0.6,7.1,6.8,6.8,10.8c0,0.7-0.3,77.9-0.3,77.9l20.2,0v-77.9c0,0-0.9-9.9,6.8-10.3V162v-5.9
		H48.3V162z"/>
	<path class="st1" d="M155.9,156.1c0,0,0,5,0,8.6c0,3.6,6.4-0.4,6.5,10.9l0.3,120.9l19.9,0.4V175.9c0,0-0.9-10.3,6.8-10.7l-0.4-9.1
		L155.9,156.1z"/>
	<path class="st1" d="M257.7,164.7c0,3.6,7.7-0.9,6.8,12.4v43.4h20v-45c0,0-0.9-9.9,6.8-10.3l0.5-9.1H258
		C258,156.1,257.7,161.1,257.7,164.7z"/>
	<rect x="29.2" y="129" class="st1" width="277.7" height="20.4"/>
</g>
<g>
	<circle cx="127.3" cy="112.2" r="4.8"/>
	<path d="M182.5,175.5v121h-19.9l0,0l-0.4-117.6c1.3-15.1-6.4-10.6-6.4-14.2c0-3.6,0-8.6,0-8.6l-10.7,0c0,0-10.2-1-6.6,23.7
		c-0.8,0.5,8.5,0,8.5,0s-0.8-7.7-0.5-10.3c8.1-1.6,7.7,2.8,7.7,2.8l0.2,124.3h-10.1v-32.8c0,0,0.4-10.5-9.9-10.6
		c-4.6-0.1-27.2-0.1-51.8-0.1l1.4-81.5c0,0-0.2-3.6,7.1-2.5c1.2,1.2,0.4,10.5,0.4,10.5l9.1,0c0,0,2.4-23.4-5.8-23.4l-12.9,0v5.9v3.2
		c-7.7,0.5-6.8,10.3-6.8,10.3v77.6c-6.8,0-13.7,0-20.2,0c0-5.4,0.3-76.9,0.3-77.6c0.3-4,0.4-10.2-6.8-10.8V162v-5.9l-10.6,0h-0.3
		c-1.5,0-9.6,1.3-6.3,23.7c-0.8,0.5,8.5,0,8.5,0s-0.8-7.7-0.5-10.3c8.1-1.6,7.4,6.5,7.4,6.5l0.2,77.2c-17.3,0-31.2,0-34.8,0
		c-10.5,0-9.2,10.6-9.2,10.6v65.6c0,0-1.6,10.4,11.1,10.6c12.6,0.2,109.1,0,120.7,0c1.7,0,3.1-0.3,4.2-0.7l70.1,0.1
		c-0.1-1.2-0.1-2.1-0.1-2.1v-6h-64.3c0.3-2.1,0.1-3.8,0.1-3.8v-6.4h64.3v-7.5h-64.3v-10.2h64.3l0.1-6.8h-18.5l1.3-125
		c0,0-0.2-3.6,7.1-2.5c1.2,1.2,0.4,10.5,0.4,10.5l9.1,0c0,0,2.4-23.4-5.8-23.4l-13.2,0l0.4,9.1C181.6,165.6,182.5,175.5,182.5,175.5
		z M128.6,332.1c-9.5,0-99.5,0.1-109.9,0c-10.4-0.1-9.1-8.7-9.1-8.7v-53.8c0,0-1-8.7,7.6-8.7c8.6,0,102.9-0.1,111.4,0
		c8.5,0.1,8.1,8.7,8.1,8.7v52.3C136.8,321.9,138.1,332.1,128.6,332.1z"/>
	<path d="M245,156.1l46.7,0l25.5,0v-34.6H20.4v34.6h16.9c0.2,0,0.3,0,0.3,0h10.6v0h33.5v0h74.1c0,0,0,0,0,0c3.4,0,22.7,0,33.1,0l0,0
		h56.4C245.5,156.1,245.3,156.1,245,156.1z M29.2,149.3V129H307v20.4H29.2z"/>
	<polygon points="132.1,80.3 126.6,74.9 45.2,121 66.2,121 	"/>
	<polygon points="297.8,121 214.9,74.9 210.8,82.4 276.7,121 	"/>
	<rect x="89.3" y="95.9" transform="matrix(0.8355 -0.5495 0.5495 0.8355 -36.5055 79.4343)" width="50.2" height="9.5"/>
	<polygon points="137.5,108.2 137.5,116.3 248.2,116.3 248.2,111.8 250.7,110 248.2,108.4 248.2,108.2 247.8,108.2 208.2,83.3 
		203.1,91.3 231,108.2 	"/>
	<polygon points="300.3,329 223.5,329 223.5,336.1 307.4,336.1 307.4,296.6 300.3,296.6 	"/>
	<rect x="83.1" y="270" width="43.7" height="8.4"/>
	<circle cx="55.3" cy="278.4" r="4.8"/>
	<circle cx="30.2" cy="278.4" r="4.8"/>
	<path d="M268.9,259.8c4.8,0,8.6-3.8,8.6-8.6s-3.9-8.6-8.6-8.6s-8.6,3.9-8.6,8.6S264.1,259.8,268.9,259.8z"/>
	<circle cx="304.5" cy="284.4" r="4.8"/>
	<path d="M355.9,242.9c0-6.3-5-4.9-5-4.9c-7.7-0.1-28.6,0-28.6,0l0,58.6c0,0,0-0.1,0-0.1h-0.1v-59.3c0,0,0.7-16.6-14.3-17
		c-3.3-0.1-8.3-0.1-14.4-0.1l0.1-49.5c0,0-0.2-3.6,7.1-2.5c1.2,1.2,0.4,10.5,0.4,10.5l9.1,0c0,0,2.4-23.4-6.8-22.5l-8.1,0h-49.8
		c-2.2,0.3-7.6,3-4.7,22.8c-0.8,0.5,8.5,0,8.5,0s-0.8-7.7-0.5-10.3c8.1-1.6,7.7,2.8,7.7,2.8l0.1,48.8c-13.6,0-26.1,0.1-32.7,0.1
		c-16.3,0-14.9,14.6-14.9,14.6v1v102.4c0,0-0.6,10,8.5,13.9c-2.1-0.5-3.1-1.5-4.6-3.1l-1.7,0.6c0,0-170.5,1-172.1,0
		c2.8,3.7,6.6,6.9,11.3,6.9c58.1,0,244.7,0,255.3,0c14.3-1,16.7-13.8,16.7-19.9l0,3.6h28.5c0,0,5,1.3,5.2-5.7
		S355.9,249.2,355.9,242.9z M258,156.1h33.7l-0.5,9.1c-7.7,0.5-6.8,10.3-6.8,10.3v44.6c-6.3,0-13.1,0-20,0v-43
		c0.9-13.3-6.8-8.8-6.8-12.4C257.7,161.1,258,156.1,258,156.1z M249.3,228.7h39.9c0,4.1-0.5,26.5-0.5,33.7c0,7.9-5.9,6.6-5.9,6.6
		h-27.9c0,0-5.1,1.3-5.6-5.2C248.8,257.4,249.3,228.7,249.3,228.7z M300.9,345.3c-13.9,0-54.7-1.2-70.8-0.6
		c-12.8,0.5-12.5-13.4-12.5-13.4v-89.1c0,0-2.1-13.8,10.3-13.6c3.2,0.1,8.9,0.1,15.7,0c0,3-0.2,32.7,0.4,40.4
		c0.7,8.1,7.1,6.5,7.1,6.5h35.3c0,0,7.5,1.7,7.5-8.4c0-10.4,0-9.9,0-37.6l-0.1-1.1c3,0,5.5,0,7.3,0.1c13,0.3,12.4,14.8,12.4,14.8
		v84.8C313.6,328.2,314.8,345.3,300.9,345.3z M322.2,336.6c0-5.9,0-37.6,0-39.9L322.2,336.6z M346.8,330.2c-0.2,5.5-3.4,4.9-3.4,4.9
		l-16.3-0.5V243c0,0,9.7-0.1,15.8,0c0,0,3.9-1.2,3.9,3.8C346.8,251.9,346.9,324.6,346.8,330.2z"/>
</g>
<rect x="11.4" y="298.3" class="st2" width="127.1" height="20.4"/>
<polygon class="st2" points="328.8,252.4 328.8,334.6 345.1,335.1 345.1,252.4 "/>
<g>
	<circle class="st2" cx="184.8" cy="6.8" r="4.8"/>
	<path class="st2" d="M172.2,9.9V2.2c0,0-51.7-5.7-54,54h8.1C126.4,56.2,123,9.5,172.2,9.9z"/>
	<path class="st2" d="M172.2,21.2c-19.3,0-35,15.7-35,35s15.7,35,35,35c19.3,0,35-15.7,35-35S191.5,21.2,172.2,21.2z M174.6,76.4
		v6.8h-4.1v-6.6c-3.8-0.1-7.7-1.2-10-2.9l1.6-4.4c2.3,1.6,5.7,2.8,9.4,2.8c4.6,0,7.8-2.7,7.8-6.4c0-3.6-2.5-5.8-7.4-7.8
		c-6.6-2.6-10.8-5.6-10.8-11.3c0-5.4,3.8-9.5,9.8-10.5v-6.6h4V36c3.9,0.1,6.6,1.2,8.5,2.3l-1.6,4.3c-1.4-0.8-4-2.2-8.2-2.2
		c-5,0-6.9,3-6.9,5.6c0,3.4,2.4,5.1,8.1,7.4c6.7,2.7,10.1,6.1,10.1,11.9C184.9,70.5,181.3,75.3,174.6,76.4z"/>
</g>
</svg>
