<?xml version="1.0" encoding="utf-8"?>
<!-- Generator: Adobe Illustrator 25.2.3, SVG Export Plug-In . SVG Version: 6.00 Build 0)  -->
<svg version="1.1" id="Layer_1" xmlns="http://www.w3.org/2000/svg" xmlns:xlink="http://www.w3.org/1999/xlink" x="0px" y="0px"
	 viewBox="0 0 24.8 25" style="enable-background:new 0 0 24.8 25;" xml:space="preserve">
<style type="text/css">
	.st0{fill:#F18563;}
</style>
<g>
	<g>
		<path class="st0" d="M17.2,8c-6.8-5.1-14.3,2.5-9.2,9.2C14.7,22.4,22.3,14.8,17.2,8z M12.5,16.7c-3.2,0-5.6-3.7-3-7.1
			c3.4-2.6,7.1-0.2,7.1,3C16.6,14.9,14.8,16.7,12.5,16.7L12.5,16.7z M20.6,6.1c0,0.8-0.7,1.5-1.5,1.5c-0.8,0-1.5-0.7-1.5-1.5
			s0.7-1.5,1.5-1.5C19.9,4.6,20.6,5.3,20.6,6.1z M24.7,7.6c-0.1-2-0.5-3.7-2-5.1c-1.4-1.4-3.2-1.9-5.1-2c-2-0.1-8.1-0.1-10.1,0
			c-2,0.1-3.7,0.5-5.1,2s-1.9,3.2-2,5.1c-0.1,2-0.1,8.1,0,10.1c0.1,2,0.5,3.7,2,5.1c1.4,1.4,3.2,1.9,5.1,2c2,0.1,8.1,0.1,10.1,0
			c2-0.1,3.7-0.5,5.1-2c1.4-1.4,1.9-3.2,2-5.1C24.8,15.7,24.8,9.6,24.7,7.6L24.7,7.6z M22.1,19.9c-0.4,1.1-1.3,1.9-2.3,2.3
			c-1.6,0.6-5.5,0.5-7.2,0.5s-5.6,0.1-7.2-0.5c-1.1-0.4-1.9-1.3-2.3-2.3c-0.6-1.6-0.5-5.5-0.5-7.2S2.3,7,3,5.4
			c0.4-1.1,1.3-1.9,2.3-2.3c1.6-0.6,5.5-0.5,7.2-0.5s5.6-0.1,7.2,0.5c1.1,0.4,1.9,1.3,2.3,2.3c0.6,1.6,0.5,5.5,0.5,7.2
			S22.7,18.3,22.1,19.9z"/>
	</g>
</g>
</svg>
