<?xml version="1.0" encoding="utf-8"?>
<!-- Generator: Adobe Illustrator 25.2.3, SVG Export Plug-In . SVG Version: 6.00 Build 0)  -->
<svg version="1.1" id="Layer_1" xmlns="http://www.w3.org/2000/svg" xmlns:xlink="http://www.w3.org/1999/xlink" x="0px" y="0px"
	 viewBox="0 0 356 356" style="enable-background:new 0 0 356 356;" xml:space="preserve">
<style type="text/css">
	.st0{fill:#020203;}
	.st1{fill:#F18661;}
	.st2{fill:#040404;}
	.st3{fill:#FFFFFF;}
	.st4{fill:#78C3AA;}
</style>
<path class="st0" d="M69,157.2l-5.1,5.1c0,0-54.3-61.2,2.3-120.2c0,0,74.6-78.5,158.2,0c9.1,10.1,37,47.6,8.6,109.8l-6.9-4.2
	c0,0,29.8-58.2-9.2-102.3c0,0-60.1-67.3-144.8,0.7C72.1,46.1,19.9,95.1,69,157.2z"/>
<path class="st0" d="M48.2,97.4c0,0,33.1-38.9,62.3-1.2h4.7c0,0,25.7-37.8,58.2,0h6.2c0,0,25.4-35.6,57.2-2.5c0,0,1.3,11.3,0,17.8
	c0,0-17.8-51.1-54.3-11.8c0,0,0,13.1-3,13.6h-5.7c0,0-3.7,0.7-3.2-13.6c0,0-26.4-33.3-52.3,0.5c0,0,0.4,13.1-3.2,13.1s-5.9,0-5.9,0
	s-3.7,0.6-3.2-13.6c0,0-22.9-30.8-52.3,1c0,0-5,14.1-3.7,19.1C50,119.8,45.6,104,48.2,97.4z"/>
<path class="st1" d="M48.2,97.4c0,0,4-75.9,96.2-82c0,0,85.6-0.8,92.4,78.3c0,0-27.7-33.2-57.2,2.5h-6.2c0,0-27.1-38-58.2,0h-4.7
	C110.4,96.3,87.1,58.2,48.2,97.4z"/>
<path class="st2" d="M166.9,298.4c-1.1-1.6-2.3-3.2-3.8-5.2l0,0c0,0,0,0,0,0c1.9,2.9,3.9,5.7,6,8.2l0,0
	C168.5,300.5,167.7,299.5,166.9,298.4z"/>
<path class="st2" d="M169.6,175c0,0,39.3,10.2,55.9-10.2c0,0,23,21.7,57.6,11.2c0,0,35.4,65,2.6,117.2h8.7
	c35.5-59-8.8-126.1-8.8-126.1c-36.7,11.2-61.2-11.9-61.2-11.9c-17.6,21.6-59.4,10.8-59.4,10.8c-32.2,57.7-27.3,98.8-10.5,127.1h8.8
	C147,268.1,141.2,230.4,169.6,175z"/>
<path class="st2" d="M281,301.5c-0.4,0-0.8-0.2-1.3,0c-0.4,0.2-0.7,0.8-1.2,1.4c-11.3,13.6-28,25.9-52.3,35.4
	c0,0-34.4-9.1-57.1-36.8h-9.4c24.7,33.7,65.4,46.4,65.4,46.4c30.7-13.2,50.9-29.3,63.6-46.4H281z"/>
<polygon class="st2" points="288.8,301.5 294.3,293.2 285.6,293.2 279.7,301.5 "/>
<polygon class="st2" points="154.3,293.2 159.8,301.5 169.2,301.5 163.2,293.2 "/>
<polygon class="st2" points="159.8,301.5 154.3,293.2 163.2,293.2 169.2,301.5 "/>
<polygon class="st2" points="279.7,301.5 288.8,301.5 294.3,293.2 285.6,293.2 "/>
<g>
	<path class="st3" d="M193.1,84.2c-6.6-52.7-37-68.1-37-68.1C144.2,14,132.5,17,132.5,17c-37.5,24.8-34,67.9-34,67.9
		c4.8,2.6,11.9,11.4,11.9,11.4h4.7c0.7-70.1,30.6-78.1,30.6-78.1c27.8,2.6,27.6,78.1,27.6,78.1h6.2C184.9,89,193.1,84.2,193.1,84.2z
		"/>
	<circle class="st3" cx="224.3" cy="247.5" r="43.8"/>
</g>
<g>
	<path class="st4" d="M277.6,184.6c-31.5,9.6-52.6-10.2-52.6-10.2c-15.1,18.5-51,9.3-51,9.3c-61.2,119.3,51.8,149,51.8,149
		C335.1,290.1,277.6,184.6,277.6,184.6z M224.5,291.4c-24.2,0-43.8-19.6-43.8-43.8c0-24.2,19.6-43.8,43.8-43.8
		c24.2,0,43.8,19.6,43.8,43.8C268.3,271.8,248.7,291.4,224.5,291.4z"/>
</g>
<path class="st2" d="M196,245.9l0.6-0.4c1.4-0.8,3.1-0.4,4,0.9l11.9,16.4c0.6,0.8,1.5,1.3,2.5,1.3h2.1c0.8,0,1.7-0.4,2.2-1
	l28.2-30.5c1.2-1.3,3.1-1.3,4.4-0.1l0,0c1.1,1.1,1.2,2.9,0.2,4.1l-32.9,38c-0.6,0.7-1.4,1.1-2.3,1.1h-2.1c-1,0-1.9-0.5-2.5-1.3
	L195,250.2C194.1,248.8,194.5,246.8,196,245.9z"/>
<path class="st3" d="M138,173.8l16.8,2.8c0,0,2.8-13.2-14.1-10.9C140.6,165.7,133.2,168.7,138,173.8z"/>
<path class="st3" d="M134.7,179.3l16.5,3.1c0,0,0.5,11.2-10.5,11.5C140.6,194,130.2,192.2,134.7,179.3z"/>
<path class="st0" d="M150.8,157.6c-19.7-5.9-24.2,17.3-24.2,17.3V190c11,21.1,23.1,8.5,23.1,8.5l6.3-15.4l7-14
	C159.7,161.9,150.8,157.6,150.8,157.6z M140.6,194c0,0-10.4-1.7-5.9-14.6l16.4,3.1C151.2,182.4,151.7,193.6,140.6,194z M140.6,165.7
	c16.9-2.3,14.1,10.9,14.1,10.9l-16.8-2.8C133.2,168.7,140.6,165.7,140.6,165.7z"/>
<path class="st3" d="M76.5,171.9l1.9-1.2c2.1-1.3,2.5-4.2,0.9-6l0,0c-1.3-1.5-3.5-1.8-5.2-0.7l-1.9,1.2c-2.1,1.4-2.4,4.4-0.7,6.2
	l0,0C72.9,172.7,74.9,172.9,76.5,171.9z"/>
<polygon class="st3" points="160.9,330.8 173.3,330.8 173.3,325.7 160.9,316.5 "/>
<path class="st0" d="M143.1,267c0,0-1.2,3.1-6.4,10.7l-11.1,47.1l3.1,0.1l-0.2,5.6h-14.3V325h2.7l3.1-39.4l2.5-67l-44.1-40.2
	l4.9-7.1l32.7,29.9l6.3-5.7l-39.2-37.8c0,0-10.5-4.8-17,1.3c-4.3,4.1-4.9,11.2-1.5,21.1l49.4,47.6l-4.7,93.8h-3.9l0.5,11.6h3.7
	l4.4,5.2h15.8l5.8-4.7l1.6-10l-4.5-1.6l9.2-37l15.5,25.7v13.8h-5.7v9.1h5.7l1.5,4.7h15.6v-5.2h5.3l0.8-10.4
	C180.7,323,153.3,304.7,143.1,267z M71.6,171.3c-1.8-1.8-1.4-4.8,0.7-6.2l1.9-1.2c1.7-1.1,3.9-0.8,5.2,0.7l0,0
	c1.6,1.9,1.2,4.7-0.9,6l-1.9,1.2C74.9,172.9,72.9,172.7,71.6,171.3z M173.3,330.8h-12.3l0-14.3l12.3,9.1V330.8z"/>
<path class="st1" d="M262.4,147.1v-20.5c0,0,21.9-24.2,40.9,0v11.5h22.9v3.5l18.8,0.2v2.6l3,0.2v2.4H262.4z"/>
<polygon class="st1" points="5,246.5 5,243.3 7.2,243.3 7.2,240.5 27.3,240.5 27.3,225.8 29.8,225.8 29.8,220.7 32.1,220.7 
	32.1,217.9 37.6,217.9 37.6,215.7 53.4,215.7 53.4,217.9 58.1,217.9 58.1,220.4 61.3,220.4 61.3,223.3 63.6,223.3 63.6,235.5 
	66.7,235.5 66.7,233.1 83.7,233.1 83.7,235.2 88.7,235.2 88.7,237.8 92,237.8 92,240.5 94.4,240.5 94.4,246.8 "/>
</svg>
