<?xml version="1.0" encoding="utf-8"?>
<!-- Generator: Adobe Illustrator 25.2.3, SVG Export Plug-In . SVG Version: 6.00 Build 0)  -->
<svg version="1.1" id="Layer_1" xmlns="http://www.w3.org/2000/svg" xmlns:xlink="http://www.w3.org/1999/xlink" x="0px" y="0px"
	 viewBox="0 0 356 356" style="enable-background:new 0 0 356 356;" xml:space="preserve">
<style type="text/css">
	.st0{fill:#F08460;}
	.st1{fill:#1D1D1B;}
	.st2{fill:#77C2A8;}
</style>
<g>
	<path class="st0" d="M102.69,116.74c-3.78-11.4-10.15,0.3-10.15,0.3c-16.53-1.89-13.93,5.67-13.93,5.67
		c-39,16.76-27.72,37.06-27.72,37.06h6.71c2.36-10.62,7.79-8.53,7.79-8.53s14.83,17.03,26.94,19.86c11.62,0.27,12.72,0,12.72,0
		s0.47-8.26,5.67-9.91c5.2-1.65,11.74,4.06,14.4,7.08c9.16,10.64,11.99-19.21,6.85-25.16C120.12,117.75,102.69,116.74,102.69,116.74
		z"/>
	<path class="st0" d="M161.83,230.54c0,0-0.22-0.22-0.35-0.35c0.35,0.35-22.57,17.96-22.57,17.96s65.37,64.6,73.56,72.69
		c26.91,5.67,17.71-20.54,17.71-20.54L161.83,230.54z"/>
	<path class="st0" d="M216.29,219.89h77.05c3.56,0,6.45-2.89,6.45-6.44c0-3.56-2.89-6.45-6.45-6.45h-77.05
		c-3.56,0-6.45,2.89-6.45,6.45C209.84,217,212.73,219.89,216.29,219.89z"/>
	<path class="st0" d="M293.34,234.28H233.3c-3.56,0-6.45,2.89-6.45,6.45c0,3.56,2.89,6.44,6.45,6.44h60.04
		c3.56,0,6.45-2.89,6.45-6.44C299.79,237.17,296.9,234.28,293.34,234.28z"/>
</g>
<g>
	<rect x="73.74" y="184.75" class="st1" width="13.1" height="6.73"/>
	<rect x="97.47" y="184.75" class="st1" width="13.1" height="6.73"/>
	<rect x="86.85" y="206.7" class="st1" width="13.1" height="6.73"/>
	<path class="st1" d="M161.18,221.77c-1.81,3.2-4.75,6.47-8.12,9.57c14.54-15.14,23.49-35.69,23.49-58.34
		c0-46.55-37.73-84.28-84.28-84.28C45.73,88.73,8,126.46,8,173c0,46.54,37.73,84.28,84.28,84.28c13.51,0,26.27-3.2,37.59-8.85
		c5.09,5.02,71.23,70.31,80.83,79.79c37.54,2.83,26.32-30.45,26.32-30.45L161.18,221.77z M15.39,172.14
		c0-42.47,34.43-76.9,76.9-76.9s76.88,34.43,76.88,76.9c0,42.48-34.41,76.92-76.88,76.92S15.39,214.62,15.39,172.14z M212.47,320.78
		c-8.19-8.09-73.56-72.69-73.56-72.69s22.92-17.61,22.57-17.96c0.13,0.13,0.35,0.35,0.35,0.35l68.34,69.76
		C230.18,300.25,239.38,326.45,212.47,320.78z"/>
	<path class="st1" d="M25.35,91.21h7.44c0,0,0.35-33.87,0.35-37.18c0-3.31,3.9-4.6,3.9-4.6s280.81,0,286.48,0
		c5.67,0,4.96,6.02,4.96,6.02v221.32h7.44V50.13c0,0,0-8.85-8.85-8.85c-8.85,0-279.04,0-290.73,0S25.35,52.26,25.35,52.26V91.21z"/>
	<path class="st1" d="M139,147.6c-4.25-17.41-26.44-34.76-30.69-35.95c-0.53-0.15-0.97-0.4-1.34-0.71
		c-2.58-2.24-1.49-8.02-1.49-8.02c-7.56-1.65-10.86,2.83-10.86,2.83c-4.72-0.24-11.33,3.07-11.33,3.07
		c-11.33-0.24-14.64,10.62-14.64,10.62l-15.58,12.98c-17.94,14.87-4.27,39.66-4.27,39.66l-0.69,5.43
		c-7.08,6.14,3.78,16.29,3.78,16.29c13.46,42.78,39.42,40.81,40.84,41.98c28.57-1.88,38.48-39.64,38.48-39.64
		c15.11-10.86,3.07-17.23,3.07-17.23C141.6,161.44,139,147.6,139,147.6z M125.07,196.13c0,0-8.5,33.05-31.87,33.99
		c0,0-23.84-0.47-32.34-33.99c0,0-16.05-13.46-3.54-17c0,0,2.12-28.72,11.33-16.72c0,0,12.98,13.65,25.73,13.89
		c0,0,14.64,1.35,16.53-1.45c0,0-0.24-10.59,8.03-3.98l6.85,5.43C125.78,176.3,139.71,185.04,125.07,196.13z M125.12,168.27
		c-2.66-3.02-9.2-8.73-14.4-7.08c-5.2,1.65-5.67,9.91-5.67,9.91s-1.1,0.27-12.72,0c-12.12-2.83-26.94-19.86-26.94-19.86
		s-5.43-2.09-7.79,8.53h-6.71c0,0-11.28-20.3,27.72-37.06c0,0-2.6-7.55,13.93-5.67c0,0,6.38-11.7,10.15-0.3
		c0,0,17.42,1.01,29.27,26.37C137.11,149.06,134.28,178.91,125.12,168.27z"/>
	<path class="st1" d="M22.63,286.32c7.32,0,121.11,0,121.11,0l-0.24-7.78c0,0-72.46,0-110.37,0v-29.49h-7.8v29.49
		c-8.01,0-13.4,0-14.51,0c-3.07,18.64,3.78,27.38,14.51,27.62c10.99,0,141.06,0,141.06,0v-8.26c0,0-131.26-0.24-138.34-0.24
		S19.47,287.94,22.63,286.32z"/>
	<path class="st1" d="M348.26,277.92c-5.9,0-104.32,0-104.32,0l-0.24,7.79c0,0,85.43,0,92.75,0c3.17,1.62,1.65,11.33-5.43,11.33
		s-78.79,0.24-78.79,0.24v8.26c0,0,70.53,0,81.51,0C344.48,305.29,351.33,296.56,348.26,277.92z"/>
</g>
<g>
	<path class="st2" d="M189.31,107.72l-1.76,9.2c-0.42,2.18,1.85,3.89,3.83,2.89l8.37-4.2c0.79-0.4,1.72-0.38,2.49,0.05l8.21,4.51
		c1.94,1.07,4.27-0.56,3.93-2.75l-1.41-9.26c-0.13-0.87,0.17-1.75,0.81-2.35l6.83-6.41c1.62-1.52,0.79-4.23-1.4-4.59l-9.24-1.52
		c-0.87-0.14-1.61-0.7-1.99-1.5L204,83.31c-0.94-2.01-3.78-2.06-4.8-0.09l-4.3,8.32c-0.4,0.78-1.17,1.32-2.04,1.43l-9.29,1.17
		c-2.2,0.28-3.13,2.96-1.57,4.54l6.58,6.66C189.2,105.97,189.47,106.86,189.31,107.72z"/>
	<path class="st2" d="M222.44,143.47l-9.24-1.52c-0.87-0.14-1.61-0.7-1.99-1.5l-3.99-8.48c-0.94-2.01-3.78-2.06-4.8-0.09l-4.3,8.32
		c-0.4,0.78-1.17,1.32-2.04,1.43l-9.29,1.17c-2.2,0.28-3.13,2.96-1.57,4.54l6.58,6.66c0.62,0.63,0.89,1.52,0.73,2.38l-1.76,9.2
		c-0.42,2.18,1.85,3.89,3.83,2.89l8.37-4.2c0.79-0.4,1.72-0.38,2.49,0.05l8.21,4.51c1.94,1.07,4.27-0.56,3.93-2.75l-1.41-9.26
		c-0.13-0.87,0.17-1.75,0.81-2.35l6.83-6.41C225.45,146.54,224.63,143.83,222.44,143.47z"/>
	<path class="st2" d="M268.83,143.47l-9.24-1.52c-0.87-0.14-1.61-0.7-1.99-1.5l-3.99-8.48c-0.94-2.01-3.78-2.06-4.8-0.09l-4.3,8.32
		c-0.4,0.78-1.17,1.32-2.04,1.43l-9.29,1.17c-2.2,0.28-3.13,2.96-1.57,4.54l6.58,6.66c0.62,0.63,0.89,1.52,0.73,2.38l-1.76,9.2
		c-0.42,2.18,1.85,3.89,3.83,2.89l8.37-4.2c0.79-0.4,1.72-0.38,2.49,0.05l8.21,4.51c1.94,1.07,4.27-0.56,3.93-2.75l-1.41-9.26
		c-0.13-0.87,0.17-1.75,0.81-2.35l6.83-6.41C271.85,146.54,271.02,143.83,268.83,143.47z"/>
	<path class="st2" d="M235.8,107.72l-1.76,9.2c-0.42,2.18,1.85,3.89,3.83,2.89l8.37-4.2c0.79-0.4,1.72-0.38,2.49,0.05l8.21,4.51
		c1.94,1.07,4.27-0.56,3.93-2.75l-1.41-9.26c-0.13-0.87,0.17-1.75,0.81-2.35l6.83-6.41c1.62-1.52,0.79-4.23-1.4-4.59l-9.24-1.52
		c-0.87-0.14-1.61-0.7-1.99-1.5l-3.99-8.48c-0.94-2.01-3.78-2.06-4.8-0.09l-4.3,8.32c-0.4,0.78-1.17,1.32-2.04,1.43l-9.29,1.17
		c-2.2,0.28-3.13,2.96-1.57,4.54l6.58,6.66C235.7,105.97,235.97,106.86,235.8,107.72z"/>
	<path class="st2" d="M313.39,99.4c1.62-1.52,0.79-4.23-1.4-4.59l-9.24-1.52c-0.87-0.14-1.61-0.7-1.99-1.5l-3.99-8.48
		c-0.94-2.01-3.78-2.06-4.8-0.09l-4.3,8.32c-0.4,0.78-1.17,1.32-2.04,1.43l-9.29,1.17c-2.2,0.28-3.13,2.96-1.57,4.54l6.58,6.66
		c0.62,0.63,0.89,1.52,0.73,2.38l-1.76,9.2c-0.42,2.18,1.85,3.89,3.83,2.89l8.37-4.2c0.79-0.4,1.72-0.38,2.49,0.05l8.21,4.51
		c1.94,1.07,4.27-0.56,3.93-2.75l-1.41-9.26c-0.13-0.87,0.17-1.75,0.81-2.35L313.39,99.4z"/>
</g>
</svg>
