<?xml version="1.0" encoding="utf-8"?>
<!-- Generator: Adobe Illustrator 25.2.3, SVG Export Plug-In . SVG Version: 6.00 Build 0)  -->
<svg version="1.1" id="Layer_1" xmlns="http://www.w3.org/2000/svg" xmlns:xlink="http://www.w3.org/1999/xlink" x="0px" y="0px"
	 viewBox="0 0 356 356" style="enable-background:new 0 0 356 356;" xml:space="preserve">
<style type="text/css">
	.st0{fill:#FFFFFF;}
	.st1{fill:#F18661;}
	.st2{fill:#1E1E1C;}
	.st3{fill:#78C3AA;}
	.st4{fill:#F08561;}
</style>
<g>
	<path class="st0" d="M165.9,231.4c0,0-49.5,19.4-56.2,26.5c0,0-12.7,9.7-4.7,11.7c0,0,5.2,2.4,32-13c0,0,13.2-4.1,15.2,6.6
		c0,0,2.2,3-2.6,10.7c-4.8,7.6-48.8,18-54.7,7.3c0,0-18.5-18.4-49.8-16.5l53.1,37.6c0,0,16.7,4.6,59-7.6c0,0,14.5-8.8,68.8-4.5
		l7.9-41.3C233.9,249,181.9,221.3,165.9,231.4z"/>
	<polygon class="st0" points="227,78.9 227,88.9 241.9,105.7 285.1,105.7 299.9,88 299.9,77.8 	"/>
</g>
<path class="st1" d="M274.7,66.8h27c0,0,8.4-7.8,0-13.6c-8-0.4-45.6,0-48.2,0c-2.6,0-5,8-4.9,8.5c0.1,0.5-27.8,0.1-30.7,0
	c-3-0.1-9.8,7.5,0,10.5c1.3,0.1,0.8,0,2.9,0c2.1,0,53.8,0,53.8,0L274.7,66.8z"/>
<g>
	<path class="st2" d="M236.2,245.8c0,0-45.8-27.7-70.5-21.4c-0.1,0-0.2,0.1-0.4,0.1c-3.4,1.4-57.1,23.9-69.3,36.4
		c-0.1,0.1-0.2,0.2-0.3,0.4c-0.7,1.1-3.8,6.1-1.8,10.9c0.8,1.8-1,0.6-2.8,0.1c-34.2-20.9-66.9-6.7-64.7,0.7
		c0.3,4.2-0.2,11.1,9.5,14.9c0.1,0,0.1,0.1,0.2,0.1l54.6,30.5c0,0,13.7,8.9,63.7-5c0,0,37.1-11.7,67.5-3L236.2,245.8z M157.2,294.7
		c-42.3,12.2-59,7.6-59,7.6l-53.1-37.6c31.2-1.9,49.8,16.5,49.8,16.5c5.9,10.7,49.9,0.3,54.7-7.3c4.8-7.6,2.6-10.7,2.6-10.7
		c-2-10.7-15.2-6.6-15.2-6.6c-26.8,15.5-32,13-32,13c-8-2,4.7-11.7,4.7-11.7c6.7-7.1,56.2-26.5,56.2-26.5c16-10.1,68,17.6,68,17.6
		l-7.9,41.3C171.7,285.9,157.2,294.7,157.2,294.7z"/>
	<path class="st2" d="M306.8,87.8l-0.2-13.2l-23.3,0.1v-0.1h23.3c0,0,12.7-16.3,0-25.2c-12.1-0.6-51.7-0.1-55.7,0
		c-4,0.1-7.6,8.7-7.5,9.5c0.2,0.8-24.8,0.1-29.3,0c-4.5-0.1-14.9,11.3,0,15.9c1.9,0.1,1.3,0,4.4,0c1.4,0,13,0,25.4,0l-23.4,0.1v14.3
		l19.1,22.1c5.1,32.5-19.3,45.2-19.3,45.2c-33.1,21-36.2,43.4-36.4,45.4c0,0.1,0.1,0.2,0.1,0.2l6.8,0.9c0.1,0,0.2-0.1,0.2-0.1
		c1.9-22,31.6-39.1,31.6-39.1c22.3-12.9,22.7-45.4,22.5-52.4h41.9h0.8L306.8,87.8z M220.7,72.3c-2.1,0-1.7,0.1-2.9,0
		c-9.8-3.1-3-10.6,0-10.5c3,0.1,30.9,0.5,30.7,0c-0.1-0.5,2.3-8.5,4.9-8.5c2.6,0,40.2-0.4,48.2,0c8.4,5.9,0,13.6,0,13.6h-27
		l-0.1,5.4C274.6,72.3,222.8,72.3,220.7,72.3z M279,74.6L279,74.6l-3,0.1l0.1-0.1H279z M285.1,105.5h-43.2L227,88.7v-9.9l52-0.8v7.3
		c0,1.2,0.9,2.1,2.1,2.1c1.2,0,2.1-0.9,2.1-2.1v-7.4l16.6-0.3v10.2L285.1,105.5z"/>
	<circle class="st2" cx="246.8" cy="318.1" r="5.9"/>
	<path class="st2" d="M223.1,324.9l18.2-82c0,0,1.7-8.1,23,1.7l2.1-3.7c0,0-26.1-13.5-29.6,2.4c-3.5,15.9-17.7,81.1-18.5,84.3
		c-0.8,3.2,5.5,5.7,5.5,5.7l39.6,6.7l1.1-4.4c0,0-33.4-5.5-37.4-6.5C223.1,327.9,223.1,324.9,223.1,324.9z"/>
	<path class="st2" d="M326.5,177.1c0,0-37.9-38.1-39.2-42.6c-1.3-4.4-0.1-23.3-0.1-23.3l-4.6,0.1c0,0-1.3,11.7-1.3,19.2
		c0,13.5,23.4,35.9,22.9,35.3c60.4,46.4,38.7,90.8,38.7,90.8c-14.8,51.1-81.6,35.6-83.5,36.7l-2.2,6.1
		c45.4,16.1,77.7-18.5,77.7-18.5C381.1,226.6,326.5,177.1,326.5,177.1z"/>
	<path class="st2" d="M151.9,216.9c1.3,0,2.4-1,2.5-2.2c0.9-7.4,5.4-31.9,27.7-48.6c0,0,0.1-0.1,0.1-0.1c1.3-1.2,26.3-23.4,30-33
		c0.1-0.2,0.1-0.5,0.2-0.7c0.8-5.7,0.8-10.4,0.8-13.4c0-2-0.7-3.9-1.9-5.5L200,97.9c-1.5-2,0-4.8,2.4-4.8h4.1l0.3-2.2v-1.4
		c0-1.7-1.4-3-3-3h-12c-1.7,0-3,1.4-3,3V92c0,0.7,0.2,1.4,0.7,1.9c3.2,3.9,16.5,20.2,18,22.4c1.5,2.1,0,10.7-0.4,12.8
		c-0.1,0.3-0.2,0.6-0.3,0.9c-1.5,2.6-10.1,16.3-28.7,32.5c0,0-0.1,0.1-0.1,0.1c-1.5,1.2-29.1,23-28.6,51.9
		C149.4,215.8,150.6,216.9,151.9,216.9z"/>
</g>
<g>
	<path class="st3" d="M101.1,278.5c9.6,8.6,46.5-9.3,46.5-9.3c7.6-4.1,4.2-10.2,4.2-10.2c-9.1-8.6-18.5-0.4-18.5-0.4
		c-30.7,16.5-30.5,9-30.5,9c-1-4.6,7.1-10,7.1-10C86.5,264.6,101.1,278.5,101.1,278.5z"/>
	<path class="st3" d="M226.4,290c0,0-51.4-4.6-68.8,4.5c0,0-41.8,12.1-59,7.6l-52.2-37.5c0,0-15.3-3.3-18.2,4.7
		c0,0-2.2,9.8,15.1,14.7l47.6,28c0,0,25.7,8.8,53.9-2.4c0,0,55.1-12.2,69.3-6.6c9,3.6,7.9,2.8,7.9,2.8l1.2-0.6L226.4,290z"/>
</g>
<g>
	<path class="st2" d="M97.8,126.5c7,5.3,14.8-2.6,9.5-9.6C100.4,111.7,92.5,119.6,97.8,126.5z"/>
	<path class="st2" d="M86.1,115.5L86.1,115.5c0.4-3-1.7-5.7-4.7-6.1c-16.1-2.1-63.3-2.9-77,58.1c-0.7,3.1,1.4,6.1,4.5,6.6h0
		c2.9,0.4,5.6-1.5,6.1-4.4c2.6-14.5,14.5-54.5,65.2-49.5C83.1,120.4,85.7,118.4,86.1,115.5z"/>
	<g>
		<path class="st4" d="M341.5,212.5c-3-8.9-6.1-12.4-6.1-12.4s-3.6-10.6-25.8-29.6c-23.3-21.4-27.1-33.7-28-36.4
			c-1.1,2.1,0.9-22.8,0.9-22.8l-7.8-0.4l-0.8,22.8c0,18.6,16.3,28.5,37.9,61.1c30.1,71.6-30.3,100-30.3,100
			c13.2-0.9,17.6-0.7,16.7-0.8c18.8-4.4,32.5-13.5,33.9-17.9C352.8,254,346.8,221.3,341.5,212.5z"/>
		<path class="st4" d="M71.9,131.7c-26.5,0-47.9,21.5-47.9,47.9c0,26.5,21.5,47.9,47.9,47.9c26.5,0,47.9-21.5,47.9-47.9
			C119.8,153.2,98.4,131.7,71.9,131.7z M75.2,207.4v9.3h-5.6v-9c-5.2-0.1-10.5-1.7-13.7-3.9l2.1-6c3.2,2.1,7.9,3.8,12.9,3.8
			c6.3,0,10.6-3.7,10.6-8.8c0-4.9-3.5-8-10.1-10.6c-9.1-3.6-14.7-7.7-14.7-15.5c0-7.4,5.3-13,13.5-14.4v-9h5.5v8.7
			c5.4,0.2,9,1.6,11.6,3.1l-2.2,5.9c-1.9-1.1-5.5-3-11.3-3c-6.9,0-9.5,4.1-9.5,7.7c0,4.6,3.3,7,11.1,10.2
			c9.2,3.8,13.8,8.4,13.8,16.3C89.3,199.3,84.4,205.9,75.2,207.4z"/>
	</g>
</g>
</svg>
