<?xml version="1.0" encoding="utf-8"?>
<!-- Generator: Adobe Illustrator 25.2.3, SVG Export Plug-In . SVG Version: 6.00 Build 0)  -->
<svg version="1.1" id="Layer_1" xmlns="http://www.w3.org/2000/svg" xmlns:xlink="http://www.w3.org/1999/xlink" x="0px" y="0px"
	 viewBox="0 0 356 356" style="enable-background:new 0 0 356 356;" xml:space="preserve">
<style type="text/css">
	.st0{fill:#F18B67;}
	.st1{fill:#040404;}
	.st2{fill:#FFFFFF;}
	.st3{fill:#78C3AA;}
</style>
<path class="st0" d="M259.9,47.1H70.5c-6.9,0-16.7,5.6-16.7,12.4v251.2c0,6.9,9.8,12.4,16.7,12.4h189.3c6.9,0,16.7-5.6,16.7-12.4
	V59.5C276.5,52.6,266.7,47.1,259.9,47.1z M267.6,299.2c0,6.7-3.7,11.9-16,12.4H79.4c-8.9,0-16.7-5.6-16.7-12.4l-1-229.3
	c0,0,1-11.7,18.3-12.3h172.2c15.3,2.6,15.3,11.4,15.3,11.4L267.6,299.2z"/>
<path class="st1" d="M269.2,42.5H61.2c-6.9,0-12.4,5.6-12.4,12.4v261.3c0,6.9,5.6,12.4,12.4,12.4h207.9c6.9,0,12.4-5.6,12.4-12.4
	V54.9C281.6,48.1,276,42.5,269.2,42.5z M276.5,310.7c0,6.9-9.8,12.4-16.7,12.4H70.5c-6.9,0-16.7-5.6-16.7-12.4V59.5
	c0-6.9,9.8-12.4,16.7-12.4h189.3c6.9,0,16.7,5.6,16.7,12.4V310.7z"/>
<path class="st1" d="M260.8,53.5H69.5c-6.3,0-11.4,5.1-11.4,11.4v240.4c0,6.3,5.1,11.4,11.4,11.4h191.3c6.3,0,11.4-5.1,11.4-11.4
	V64.9C272.3,58.6,267.2,53.5,260.8,53.5z M267.6,300.2c0,6.3-5.8,11.4-15.3,11.4H78.1c-6.3,0-15.3-5.1-15.3-11.4V69.1
	c1.4-4.4,1.9-10.1,16-11.9l173.5,0.5c6.3,0,15.3,5.1,15.3,11.4V300.2z"/>
<polyline class="st2" points="85.6,106.4 109,106.4 109,129.8 85.6,129.8 "/>
<rect x="85.6" y="171.3" class="st2" width="23.4" height="23.4"/>
<rect x="85.6" y="236.2" class="st2" width="23.4" height="23.4"/>
<path class="st3" d="M251.8,57.5H79.6c-17.3,0.6-17.3,12.3-17.3,12.3v229.3c0,6.9,7.8,12.4,16.7,12.4h172.2c12.3-0.5,16-5.7,16-12.4
	l0-230.1C267.1,69,267.1,60.2,251.8,57.5z M108.5,259.9H85.1v-23.4h23.4V259.9z M108.5,195.1H85.1v-23.4h23.4V195.1z M108.5,130.2
	H85.1v-23.4h23.4V130.2z"/>
<rect x="40.4" y="30.7" class="st1" width="54.5" height="6.4"/>
<rect x="45.1" y="337.5" class="st1" width="146.9" height="3.3"/>
<rect x="128.5" y="349.3" class="st1" width="103.9" height="2.5"/>
<rect x="28" y="348.1" class="st1" width="50.6" height="2.5"/>
<rect x="238.4" y="348.1" class="st1" width="18.7" height="2.5"/>
<path class="st0" d="M13.4,133.7c0,0,0-1.1,0-12.7c15.1-16.5,22.9,0,22.9,0v12.7H13.4z"/>
<rect x="13.4" y="137.6" class="st2" width="22.9" height="4"/>
<rect x="13.4" y="133.7" class="st1" width="22.9" height="3.9"/>
<rect x="13.4" y="141.6" class="st1" width="22.9" height="4"/>
<rect x="21.6" y="145.7" class="st1" width="6.5" height="72.4"/>
<path class="st3" d="M15,243.5h21.2v-98H13.3c0,37.5,0,120.5,0,120.5l11.4,19.6L36.3,265v-16.2H15h21.2h0L15,243.5z M21.5,145.7H28
	V218h-6.5V145.7z"/>
<path class="st1" d="M257,112c-48.5,0-87.8,39.3-87.8,87.8c0,48.5,39.3,87.8,87.8,87.8c48.5,0,87.8-39.3,87.8-87.8
	C344.8,151.3,305.5,112,257,112z M257,280.6c-44.6,0-80.8-36.2-80.8-80.8c0-44.6,36.2-80.8,80.8-80.8c44.6,0,80.8,36.2,80.8,80.8
	C337.8,244.4,301.6,280.6,257,280.6z"/>
<path class="st3" d="M257,119c-44.6,0-80.8,36.2-80.8,80.8c0,44.6,36.2,80.8,80.8,80.8s80.8-36.2,80.8-80.8
	C337.8,155.2,301.6,119,257,119z M257.7,259.1c-32.2,0-58.4-26.1-58.4-58.4c0-32.2,26.1-58.4,58.4-58.4c32.2,0,58.4,26.1,58.4,58.4
	C316,233,289.9,259.1,257.7,259.1z"/>
<path class="st1" d="M257.7,142.7c-32.2,0-58.4,26.1-58.4,58.4c0,32.2,26.1,58.4,58.4,58.4c32.2,0,58.4-26.1,58.4-58.4
	C316,168.8,289.9,142.7,257.7,142.7z M257.3,251c-27.4,0-49.6-22.2-49.6-49.6s22.2-49.6,49.6-49.6c27.4,0,49.6,22.2,49.6,49.6
	S284.7,251,257.3,251z"/>
<path class="st0" d="M257.7,151.8c-27.4,0-49.6,22.2-49.6,49.6c0,27.4,22.2,49.6,49.6,49.6s49.6-22.2,49.6-49.6
	C307.3,174,285.1,151.8,257.7,151.8z M257.7,235c-18.9,0-34.2-15.3-34.2-34.2s15.3-34.2,34.2-34.2c18.9,0,34.2,15.3,34.2,34.2
	S276.6,235,257.7,235z"/>
<path class="st1" d="M257.7,166.5c-18.9,0-34.2,15.3-34.2,34.2s15.3,34.2,34.2,34.2c18.9,0,34.2-15.3,34.2-34.2
	S276.6,166.5,257.7,166.5z M257.7,227.8c-14.9,0-27-12.1-27-27c0-14.9,12.1-27,27-27c14.9,0,27,12.1,27,27
	C284.7,215.7,272.6,227.8,257.7,227.8z"/>
<path class="st3" d="M257.7,173.7c-14.9,0-27,12.1-27,27c0,14.9,12.1,27,27,27c14.9,0,27-12.1,27-27
	C284.7,185.8,272.6,173.7,257.7,173.7z M257.7,214.5c-8.1,0-14.7-6.6-14.7-14.7c0-8.1,6.6-14.7,14.7-14.7c8.1,0,14.7,6.6,14.7,14.7
	C272.4,207.9,265.8,214.5,257.7,214.5z"/>
<circle class="st3" cx="257.7" cy="199.8" r="11.6"/>
<path class="st1" d="M257.7,185.1c-8.1,0-14.7,6.6-14.7,14.7c0,8.1,6.6,14.7,14.7,14.7c8.1,0,14.7-6.6,14.7-14.7
	C272.4,191.7,265.8,185.1,257.7,185.1z M257.7,211.4c-6.4,0-11.6-5.2-11.6-11.6c0-6.4,5.2-11.6,11.6-11.6c6.4,0,11.6,5.2,11.6,11.6
	C269.3,206.2,264.1,211.4,257.7,211.4z"/>
<polygon class="st1" points="306.9,128.1 327.4,101.6 329.9,103.6 309.7,130 "/>
<polygon class="st1" points="318.4,86.6 322.6,85.3 327.4,101.6 324.8,105 "/>
<polygon class="st1" points="329.9,103.6 345.5,103.6 345.5,107.4 327.4,107.4 "/>
<polygon class="st1" points="321.9,114.1 338.4,114.1 338.4,118.2 318.4,118.6 "/>
<polygon class="st1" points="316,115.8 310.3,97.4 314.9,95.2 319.7,111.6 "/>
<g>
	<path class="st1" d="M81.2,102.9v31.2h31.2v-31.2H81.2z M108.5,130.2H85.1v-23.4h23.4V130.2z"/>
	<path class="st1" d="M81.2,199h31.2v-31.2H81.2V199z M85.1,171.7h23.4v23.4H85.1V171.7z"/>
	<path class="st1" d="M81.2,263.9h31.2v-31.2H81.2V263.9z M85.1,236.5h23.4v23.4H85.1V236.5z"/>
</g>
<path class="st1" d="M95.5,115.7l0.3-0.2c0.6-0.4,1.5-0.2,1.9,0.4l3.4,5.3c0.3,0.4,0.7,0.6,1.2,0.6h1c0.4,0,0.8-0.2,1-0.4l17.4-16
	c0.5-0.6,1.5-0.6,2,0v0c0.5,0.5,0.6,1.3,0.1,1.9l-19.6,19.4c-0.3,0.3-0.7,0.5-1.1,0.5h-1c-0.5,0-0.9-0.2-1.2-0.6l-5.9-8.9
	C94.6,117,94.8,116.1,95.5,115.7z"/>
<path class="st1" d="M95.5,180.6l0.3-0.2c0.6-0.4,1.5-0.2,1.9,0.4l3.4,5.3c0.3,0.4,0.7,0.6,1.2,0.6h1c0.4,0,0.8-0.2,1-0.4l17.4-16
	c0.5-0.6,1.5-0.6,2,0l0,0c0.5,0.5,0.6,1.3,0.1,1.9l-19.6,19.4c-0.3,0.3-0.7,0.5-1.1,0.5h-1c-0.5,0-0.9-0.2-1.2-0.6l-5.9-8.9
	C94.6,181.9,94.8,181,95.5,180.6z"/>
<path class="st1" d="M184.2,25.9c0,0,1.3-19.6-18.6-19.6c-22.6-1-23.6,19.1-23.6,19.1h-24.6V67h95.3V25.4L184.2,25.9z M207.1,61.4
	h-83.8V28.5H147c0,0,0.8-20.1,18.6-19.3c15.6,0,14.7,19.7,14.7,19.7l26.8-0.4V61.4z"/>
<path class="st0" d="M180.2,28.9c0,0,1-19.7-14.7-19.7C147.8,8.4,147,28.5,147,28.5h-23.7v32.9h83.8V28.5L180.2,28.9z M165.2,39.7
	c-4.9,0-8.9-4-8.9-8.9s4-8.9,8.9-8.9c4.9,0,8.9,4,8.9,8.9S170.1,39.7,165.2,39.7z"/>
<path class="st1" d="M175.3,24.1c-0.8-1.4-2-2.6-3.4-3.5c-12.2-6.8-24.6,6.8-15.4,18.9c0,0,0,0,0,0
	C168.5,48.7,182.1,36.3,175.3,24.1z M166.6,39.6c-6,0.9-11.2-4.2-10.3-10.3c0.6-3.8,3.7-6.8,7.4-7.4c6-0.9,11.2,4.2,10.3,10.3
	C173.5,36,170.4,39.1,166.6,39.6z"/>
<rect x="128" y="54.6" class="st1" width="81.2" height="4.4"/>
<rect x="15" y="243.6" class="st1" width="21.3" height="5.1"/>
</svg>
