<?xml version="1.0" encoding="utf-8"?>
<!-- Generator: Adobe Illustrator 25.2.3, SVG Export Plug-In . SVG Version: 6.00 Build 0)  -->
<svg version="1.1" id="Layer_1" xmlns="http://www.w3.org/2000/svg" xmlns:xlink="http://www.w3.org/1999/xlink" x="0px" y="0px"
	 viewBox="0 0 29 23.8" style="enable-background:new 0 0 29 23.8;" xml:space="preserve">
<style type="text/css">
	.st0{fill:#F18563;}
</style>
<g>
	<g>
		<path class="st0" d="M26.1,6c0,0.3,0,0.5,0,0.8c0,7.8-5.9,16.8-16.8,16.8c-3.3,0-6.5-1-9.1-2.6C0.7,21,1.2,21,1.7,21
			C4.4,21,7,20.1,9,18.5c-2.6-0.1-4.8-1.8-5.5-4.1c0.4,0.1,0.7,0.1,1.1,0.1c0.5,0,1.1-0.1,1.6-0.2c-2.7-0.5-4.7-2.9-4.7-5.8V8.4
			c0.8,0.4,1.7,0.7,2.7,0.7C2.5,8.1,1.5,6.3,1.5,4.2c0-1.1,0.3-2.1,0.8-3c2.9,3.6,7.3,5.9,12.2,6.2c-0.1-0.4-0.1-0.9-0.1-1.4
			c0-3.3,2.6-5.9,5.9-5.9c1.7,0,3.2,0.7,4.3,1.9c1.3-0.3,2.6-0.7,3.7-1.4c-0.4,1.4-1.4,2.5-2.6,3.3C26.8,3.7,28,3.4,29,2.9
			C28.2,4.1,27.2,5.2,26.1,6L26.1,6z"/>
	</g>
</g>
</svg>
