<?xml version="1.0" encoding="utf-8"?>
<!-- Generator: Adobe Illustrator 25.2.3, SVG Export Plug-In . SVG Version: 6.00 Build 0)  -->
<svg version="1.1" id="Layer_1" xmlns="http://www.w3.org/2000/svg" xmlns:xlink="http://www.w3.org/1999/xlink" x="0px" y="0px"
	 viewBox="0 0 356 356" style="enable-background:new 0 0 356 356;" xml:space="preserve">
<style type="text/css">
	.st0{fill:#F08561;}
	.st1{fill:#4A2347;}
</style>
<g>
	<path class="st0" d="M268.4,87.4C279.6,84.2,278,76,278,76l-7-17.3c-5.3-13.9-18.6-2.9-18.6-2.9s10.3,18,4,22.8
		c-18.1,6.4-12.2,17.3-12.2,17.3c0.7,9,8.2,9.8,8.2,9.8c0.9-0.1,12.3-0.7,12.3-0.7l-1.8-6.2C261,91,268.4,87.4,268.4,87.4z"/>
	<path class="st0" d="M116.8,192.8c1.8-101.1,71-101.6,71-101.6c-68-27.3-91.5,62.1-90.6,87.5c2,87.8,55.5,79.5,55.5,79.5
		C117.8,242.6,116.8,192.8,116.8,192.8z"/>
	<path class="st0" d="M88.5,105.3c5.7,3.1,10-1.2,10-1.2C92.4,101.9,88.5,105.3,88.5,105.3z"/>
	<path class="st0" d="M132.9,40.8l6.5,8.6l9.1-8.1C139.2,30.7,132.9,40.8,132.9,40.8z"/>
	<path class="st0" d="M192.5,15.1c-3.4-4.9-17.4-0.8-17.4-0.8l0,14.1l15.9,0.5L192.5,15.1z"/>
	<path class="st0" d="M236.2,47.9c-6.5-4.5,2.7-21.3,2.7-21.3c5.6-12.1-3.6-15.6-3.6-15.6l-16.1-2.7c4.6,6-2.1,18.2-2.1,18.2
		c-6.1,15.8-0.9,15.2-1.4,14.9s6.9,8.1,6.9,8.1C230.4,56.1,236.2,47.9,236.2,47.9z"/>
	<path class="st0" d="M254.9,276.2l-7.2-4.8c-11.2-5.5-7.2-13.5-7.2-13.5l4.5-9.2c7.6-8.9,18.5,0.9,18.5,0.9
		c9.7,5.2,14.4-8.2,14.4-8.2l12.4-25.4c3.6-6.7-2.4-12-2.4-12l-11.4-6.1c-7.1-1.9-7.9-8.7-7.9-8.7l2.4-20.4
		c1.1-14.6,16.5-9.9,16.5-9.9c10.6-1.1,8-12,8-12l-2.6-29.7c-2-7.8-9.6-7.4-9.6-7.4l-10.8,0.3l3.5,35.7c-2.7,10.8-12.7,7.6-12.7,7.6
		c-10.8-1.3-11.6,7.6-11.6,7.6l-2.5,18.4c-2.4,9.2,4.8,12,4.8,12l12.7,6.7c7.5,4.9,3.9,11.8,3.9,11.8l-15.2,32
		c-0.2,0-0.2-0.1-0.4-0.1c-6-1.5-11.1,2.8-11.1,2.8l-4.9-3c-9.2-5.8-14,2.1-14,2.1l-2.9,5.6c-5.3,8.9,1,13.4,1,13.4l9.8,6.8
		c10.8,5.8,4.9,13.8,4.9,13.8L221.3,308l8.1,5.9c7.8,5,12.5-1.5,12.5-1.5l14.5-22C263,281.3,254.9,276.2,254.9,276.2z"/>
	<path class="st0" d="M202.5,335.1c-7.4-7.5-2.5-14.2-2.5-14.2l9.1-12.5l-7.8-5.6c-6.5-5.4-12.4,0.6-12.4,0.6l-7.6,10.2
		c-6.6,7.1,1.1,15.7,1.1,15.7c3.2,12-8,13.3-8,13.3l0.7,2.5c2.3,5.8,8.9,5.4,8.9,5.4l10.6-3C206.3,344.8,202.5,335.1,202.5,335.1z"
		/>
	<path class="st0" d="M151.2,323.7l-11.3-2.3l-9,13.9l9.1,6.5c9.5,5.4,14.9-7.4,14.9-7.4L151.2,323.7z"/>
	<path class="st0" d="M112.9,299.1c-4.1-11-14-4.8-14-4.8l2.8,4.3c4,7.9,11.3,5.2,11.3,5.2C113.6,301,112.9,299.1,112.9,299.1z"/>
	<path class="st0" d="M77,230.2c0,0,1,5.9,7.7,6.9C84.8,237.1,83.9,231.8,77,230.2z"/>
	<g>
		<path class="st1" d="M237.2,272.4l-11.4-7.7c-3.8-2.5-5-7.5-2.9-11.5l3.9-7.5c2.3-4.4,7.8-6.1,12.2-3.7l6.6,3.6
			c4.5,2.5,10.1,0.7,12.3-3.9l14.8-30.5c2.1-4.3,0.4-9.5-3.9-11.8l-13.2-6.9c-3.3-1.7-5.2-5.4-4.7-9.1l2.9-21c0.6-4.7,4.8-8,9.5-7.7
			l5.2,0.4c5.5,0.4,10-4.2,9.5-9.7L275,114c-0.4-4.7-4.4-8.2-9.1-8.1l-12,0.3c-4,0.1-7.6-2.5-8.7-6.4l-1.7-5.9
			c-1.2-4.2,0.8-8.7,4.8-10.6l5-2.4c4.3-2,6.3-7,4.5-11.4l-7.1-17.3c-2.1-5.2-8.4-7.1-13.1-4.1l-4,2.6c-3.7,2.4-8.6,1.7-11.5-1.6
			l-5.4-6.2c-2.1-2.4-2.8-5.8-1.7-8.8l5.8-16.7c1.8-5.1-1.3-10.5-6.6-11.6l-10.9-2.3c-5.2-1.1-10.2,2.6-10.7,7.8l-1.8,17.4
			l-15.9-0.5l0.4-11.8c0.2-5.7-4.8-10.1-10.4-9.1l-13.2,2.3c-5.3,0.9-8.6,6.3-7,11.5l4.2,13.3c1.1,3.4,0,7.2-2.7,9.5l-7.1,6
			L127.1,35c-3.7-4.5-10.6-4.3-14.1,0.3L99.5,53.6c-2.3,3.1-2.3,7.3-0.1,10.4l11,15.7c2.3,3.2,2.1,7.6-0.3,10.7l-10.4,13
			c-2.9,3.7-8.2,4.4-12,1.7l-8.1-5.7c-4.9-3.4-11.6-1.2-13.5,4.4l-9.2,26.7c-1.4,4,0.3,8.5,4,10.6l15.8,9.1c3,1.7,4.7,5,4.4,8.5
			l-1.7,19.7c-0.3,3.8-3.1,7-6.8,7.9l-13.3,3.2c-4.5,1.1-7.5,5.5-6.7,10.2l4.2,24.6c0.8,4.8,5.4,8.1,10.2,7.3l7.5-1.2
			c4.9-0.8,9.4,2.5,10.2,7.4l1.9,11.6c0.5,3.3-0.8,6.6-3.5,8.6l-9.7,7.2c-3.8,2.8-4.8,8.1-2.1,12.1l11.6,17.6
			c3,4.6,9.5,5.4,13.5,1.6l1.9-1.8c3.4-3.2,8.7-3.2,12.2,0c3.4,3.2,3.8,8.4,0.9,12l-6.1,7.8c-3.2,4-2.3,9.9,1.9,12.8l12.7,8.9
			c4.2,2.9,10,1.7,12.7-2.6l7.6-12.2l11.3,2.3l5.8,17c1.5,4.5,6.3,7,10.9,5.7l10.6-3c5.7-1.6,8.3-8.3,5.1-13.4l-1.9-2.9
			c-2-3.1-1.9-7.1,0.3-10l8.2-11.3c2.9-4,8.5-4.9,12.4-2l9.1,6.6c4.1,3,9.9,1.9,12.7-2.3l15.2-23.2
			C242.4,280.6,241.2,275.1,237.2,272.4z M147.2,259.3c-34-5.5-55.4-48.3-47.7-95.5c7.6-47.2,41.4-81.1,75.4-75.6
			c34,5.5,55.4,48.3,47.7,95.5C215,230.9,181.2,264.8,147.2,259.3z"/>
	</g>
</g>
</svg>
