<?xml version="1.0" encoding="utf-8"?>
<!-- Generator: Adobe Illustrator 25.2.3, SVG Export Plug-In . SVG Version: 6.00 Build 0)  -->
<svg version="1.1" id="Layer_1" xmlns="http://www.w3.org/2000/svg" xmlns:xlink="http://www.w3.org/1999/xlink" x="0px" y="0px"
	 viewBox="0 0 40.9 34.6" style="enable-background:new 0 0 40.9 34.6;" xml:space="preserve">
<style type="text/css">
	.st0{fill:#4A2347;}
</style>
<g>
	<path class="st0" d="M38.3,5.4H2.7c-1.4,0-2.5-1.1-2.5-2.5v0c0-1.4,1.1-2.5,2.5-2.5h35.7c1.4,0,2.5,1.1,2.5,2.5v0
		C40.9,4.3,39.7,5.4,38.3,5.4z M38.3,20H2.7c-1.4,0-2.5-1.1-2.5-2.5v0c0-1.4,1.1-2.5,2.5-2.5h35.7c1.4,0,2.5,1.1,2.5,2.5v0
		C40.9,18.8,39.7,20,38.3,20z M38.3,34.6H2.7c-1.4,0-2.5-1.1-2.5-2.5v0c0-1.4,1.1-2.5,2.5-2.5h35.7c1.4,0,2.5,1.1,2.5,2.5v0
		C40.9,33.4,39.7,34.6,38.3,34.6z"/>
</g>
</svg>
