<?xml version="1.0" encoding="utf-8"?>
<!-- Generator: Adobe Illustrator 25.2.3, SVG Export Plug-In . SVG Version: 6.00 Build 0)  -->
<svg version="1.1" id="Layer_1" xmlns="http://www.w3.org/2000/svg" xmlns:xlink="http://www.w3.org/1999/xlink" x="0px" y="0px"
	 viewBox="0 0 356 356" style="enable-background:new 0 0 356 356;" xml:space="preserve">
<style type="text/css">
	.st0{fill:#020203;}
	.st1{fill:#78C3A8;}
	.st2{fill:#FFFFFF;}
	.st3{fill:#F18661;}
</style>
<path class="st0" d="M38.8,105.3L38.8,105.3c-2.3,0-4.2-1.9-4.2-4.2v-76c0-1.3,0.6-2.5,1.6-3.3l3.5-2.7c0.7-0.6,1.6-0.9,2.6-0.9h304
	c1.1,0,2.1,0.4,2.8,1.1l4.5,4.2c0.8,0.8,1.3,1.9,1.3,3.1v212.6c0,0.9-0.3,1.9-0.9,2.6l-4.2,5.2c-0.8,1-2,1.6-3.2,1.6H179.9
	c-2.2,0-4-1.8-4-4v0c0-2.2,1.8-4,4-4l161.8,0.7c2.3,0,4.2-1.8,4.2-4.2l0.7-206.9c0-2.3-1.9-4.2-4.2-4.2H47.7c-2.3,0-4.1,1.8-4.2,4.1
	l-0.6,70.9C42.9,103.5,41.1,105.3,38.8,105.3z"/>
<path class="st0" d="M9,39.3"/>
<polygon class="st0" points="64.7,67.3 55.3,67.3 55.3,41.2 336.4,41.2 336.4,219.9 190.8,219.9 190.8,211.4 328.7,211.4 328.7,50 
	64.7,50 "/>
<path class="st1" d="M218.3,151.4l-2.9-2.9c-1.4-2-4.5-1.4-5,1L205,175c-0.4,1.9,1.2,3.6,3.1,3.3l28-4c2.2-0.3,3.1-2.9,1.7-4.6
	L233,164c-1-1.1-0.9-2.8,0.2-3.8l49.5-46.1c0.9-0.9,2.3-1,3.4-0.3l6.9,4.4c1.8,1.1,4.1,0,4.3-2.1l2.6-29.7c0.2-1.7-1.3-3.2-3.1-3
	l-29.5,2.9c-2.2,0.2-3.3,2.7-2,4.4l5.9,7.9c0.9,1.2,0.7,2.8-0.4,3.7l-48.3,49.5C221.3,153,219.3,152.8,218.3,151.4z"/>
<path class="st0" d="M301.8,78.2l-42.4,4.4c-2.1,0.2-3.2,2.6-2,4.4l5.7,8.2c0.8,1.1,0.7,2.6-0.3,3.6l-41.3,41.2l-2.2,2.1l-5.9-5.3
	c-1.6-1.4-4.1-0.6-4.6,1.5l-8.7,41.4c-0.4,1.9,1.2,3.6,3.1,3.3l42.8-5.2c2-0.2,3.1-2.5,2.1-4.2l-5.1-8.4c-0.7-1.1-0.5-2.6,0.5-3.5
	l41.3-39c0.8-0.7,1.9-1,2.9-0.6l10.7,4.2c1.8,0.7,3.7-0.5,3.8-2.4l2.8-42.6C305,79.4,303.5,78,301.8,78.2z M297.7,116
	c-0.2,2.1-2.5,3.2-4.3,2.1l-6.9-4.4c-1.1-0.7-2.5-0.6-3.4,0.3l-49.5,46.1c-1.1,1-1.2,2.7-0.2,3.8l4.9,5.8c1.4,1.7,0.4,4.2-1.7,4.6
	l-28,4c-1.9,0.3-3.5-1.4-3.1-3.3l5.4-25.5c0.5-2.4,3.6-3,5-1l2.9,2.9c1,1.4,3,1.6,4.2,0.4l48.3-49.5c1.1-1,1.2-2.6,0.4-3.7l-5.9-7.9
	c-1.3-1.7-0.2-4.2,2-4.4l29.5-2.9c1.7-0.2,3.2,1.3,3.1,3L297.7,116z"/>
<circle class="st0" cx="292.7" cy="231.5" r="6"/>
<circle class="st0" cx="332.7" cy="311.3" r="6"/>
<circle class="st0" cx="27.7" cy="271.8" r="6"/>
<circle class="st0" cx="111.2" cy="251.6" r="8.5"/>
<circle class="st0" cx="312.2" cy="231.5" r="6"/>
<circle class="st0" cx="330.5" cy="231.5" r="6"/>
<path class="st2" d="M167.1,113.4c0.9-1,13.8-14.5,18.8,3.5c0,0.1,0,0.2-0.1,0.2c-1.4,1.1-15.6,12.5-18.5,13.6
	c-0.1,0.1-0.3-0.1-0.3-0.2v-17C167,113.4,167,113.4,167.1,113.4z"/>
<g>
	<path class="st0" d="M167,103.4v9.4c0,0.2,0.2,0.3,0.4,0.2c2.2-2.3,13.8-13,18.5,3.9c0,0.1,0,0.2-0.1,0.2
		c-1.4,1.1-16.1,12.9-18.6,13.6c-0.1,0-0.1,0.1-0.1,0.2v7.5c0,0.2,0.2,0.3,0.3,0.2L191,124c0.1,0,0.1-0.1,0.1-0.2
		c5.9-30.5-21.8-21.4-24-20.7C167.1,103.2,167,103.3,167,103.4z"/>
	<path class="st0" d="M167,142.4v12.2c0,0,17.3-12.7,15.5,6L167,170.9v8.7c0,0,14.3-5.9,12.5,9.4l-12.5,6.2v10.4
		c0,0,13.9-3.4,10.3,11.4c0,0-5.9,4.7-10.3,2.6v6l12.1-1.6c13.7-12.4,0-24.6,0-24.6c20.2-17.4,0-26.2,0-26.2c4.6-0.5,11.2-8,11.2-8
		C196.8,136.4,167,142.4,167,142.4z"/>
</g>
<path class="st0" d="M55.3,119.9c-0.9-0.5-14.2-7.4-20.7,13.5c0,8.4,3.4,17.3-5.4,30.7c0,0-23.1,37.6-8.8,63.5
	c0,0,9.3,17.4,1.3,24.9L3.8,269.7c-1.2,1.2-1.4,3.1-0.5,4.5h0c1.2,1.8,3.8,2.2,5.4,0.7l17.1-15.8c0,0-2.7,2.6,0.1,0
	c2.7-2.6,5.6-0.3,5.6-0.3c0,0,0.1,0,0.1,0l52.8,54.9c0,0-4.2-4.6,0,0.1c3.6,4,0,6.9,0,6.9c0,0-6.3,7.5-6.3,7.5
	c-1.2,1.5-1.1,3.6,0.3,4.9l0.3,0.2c1.3,1.2,3.4,1.2,4.7,0l12.4-11.1c0,0,0-0.1,0-0.1c0,0,3.7-3.1,0-7.2c-3.7-4,0-0.1,0-0.1
	l-61.1-66.3c0,0,0,0,0,0c-0.1-0.6-5.6-22-8.6-24.6c0,0-10.8-26.2,10.6-57c0,0,8.2-10.5,6.6-34.1c0.9-2.5,2.6-9,11.9-4.9
	c0.1,0,0.1,0,0.1-0.1L55.3,119.9C55.3,120,55.3,120,55.3,119.9z"/>
<path class="st0" d="M97.4,308.5l-5.8-6.7c0,0,43.3-18.7,47.9-30.1h9.1C148.6,271.8,148.8,285.7,97.4,308.5z"/>
<rect x="87.6" y="120" class="st2" width="49.4" height="34.8"/>
<g>
	<path class="st3" d="M160.5,147l0.9-0.4V100H60.9v131.5h100.5v-7.3l-3.1-4c-13.6-7.9-2.9-20.4-2.9-20.4c-9.7-6.3-8.7-11.7-8.7-11.7
		c-0.9-8.1,8.6-12.4,8.6-12.4C142,156.8,160.5,147,160.5,147z M136.5,214.6H88.3v-9.3h48.2V214.6z M136.5,196.2H88.3v-9.3h48.2
		V196.2z M89.4,175.8v-9.3h15.9v9.3H89.4z M119.9,175.8v-9.3h15.9v9.3H119.9z M141.8,157.9H82.9V117h58.9V157.9z"/>
	<g>
		<rect x="94.5" y="125.7" class="st3" width="34.5" height="22.1"/>
		<path class="st0" d="M82.9,117v40.9h58.9V117H82.9z M137,154.7H87.6V120H137V154.7z"/>
		<path class="st0" d="M119.9,166.5v9.3h15.9v-9.3H119.9z M133.2,173.3h-10.6v-4.4h10.6V173.3z"/>
		<path class="st0" d="M89.4,166.5v9.3h15.9v-9.3H89.4z M102.6,173.3H92v-4.4h10.6V173.3z"/>
		<path class="st0" d="M88.3,196.2h48.2v-9.3H88.3V196.2z M91,189.4h42.9v4.4H91V189.4z"/>
		<path class="st0" d="M88.2,214.6h48.2v-9.3H88.2V214.6z M90.9,207.8h42.9v4.4H90.9V207.8z"/>
	</g>
</g>
<g>
	<path class="st0" d="M161.4,170.4v10.9c2.8-1.3,5.6-1.7,5.6-1.7v-8.7C164.1,171.9,162.3,171,161.4,170.4z"/>
	<path class="st0" d="M167,205.6v-10.4c-2.3,0.2-4.1,0.1-5.6-0.3v12.1C164,205.6,167.1,205.6,167,205.6z"/>
	<path class="st0" d="M157.1,255.9l-4.6,4.6c-2.8,2.8-6.6,4.4-10.5,4.4H79.4c-3.7,0-7.2-1.3-9.9-3.8l-3.6-3.2c-3.2-2.8-5-6.9-5-11.1
		V100c0-4,1.6-7.7,4.4-10.5l3.4-3.4c2.8-2.8,6.6-4.4,10.5-4.4h64.3c4.1,0,8,1.7,10.8,4.7l3,3.1c2.6,2.8,4.1,6.4,4.1,10.2v58.3
		c2.5-2.4,5.6-3.6,5.6-3.6V94.9c0-4.2-1.6-8.3-4.5-11.4l-3.3-3.5c-3.1-3.3-7.5-5.2-12-5.2H75.7c-4.4,0-8.6,1.7-11.7,4.8l-3.8,3.8
		c-3.1,3.1-4.8,7.3-4.8,11.7v156.5c0,4.7,2,9.2,5.5,12.4l4,3.6c3,2.7,6.9,4.2,11,4.2h69.5c4.4,0,8.6-1.7,11.7-4.8l5.1-5.1
		c3.1-3.1,4.8-7.3,4.8-11.7v-30.5c-2.3-0.5-4.2-1.6-5.6-2.7v28.4C161.4,249.3,159.9,253.1,157.1,255.9z"/>
	<path class="st0" d="M161.4,146.5l-0.9,0.4c0,0-18.6,9.8-5.2,28.8c0,0-9.5,4.2-8.6,12.4c0,0-1,5.4,8.7,11.7c0,0-10.7,12.5,2.9,20.4
		l3.1,4v-7.2c-1.9-1.5-2.9-3-2.9-3c-0.5-3.6,1-5.7,2.9-6.8V195c-5-1.2-5.9-4.7-5.9-4.7c-0.5-4.8,2.8-7.5,5.9-9v-10.9
		c-0.4-0.3-0.6-0.5-0.6-0.5c-4-5.3-2.1-9.2,0.6-11.8V146.5z"/>
</g>
<rect x="108.5" y="305.3" class="st0" width="209.6" height="8.6"/>
<polygon class="st0" points="278.2,305.3 278.2,288.1 138.2,288.1 138.2,295.3 269.6,295.3 269.6,305.3 "/>
<path class="st0" d="M231.5,248.7h9.1c0,0-2.6,32.1,5.2,39.4h-9.1C236.7,288.1,232,288.9,231.5,248.7z"/>
<path class="st3" d="M184.1,249.9l-0.4,21.2c0.2,0.5,3,9.2,11,9.2c0,0,10,0,10.6-9.4l0.6-21c0-0.7-0.5-1.3-1.2-1.3h-19.3
	C184.7,248.7,184.1,249.2,184.1,249.9z"/>
<path class="st0" d="M209,248.7l-4.1,0c0.7,0.2,0.9,0.5,1.1,1l-0.6,20.2c0.1,10.7-11,10.4-11,10.4c-7-0.2-10.1-7.3-10.7-9.6
	l0.5-20.9c0.1-0.5,0.4-1,1.2-1.1l-4.9,0c-0.9,0-0.5-0.2-0.6,0.8l-0.8,21.9c0,0.2,0,0.4,0.1,0.6c0.6,1.8,4.3,12,15.6,12
	c0,0,14,0,15-13.2l0.8-21.2C210.5,248.5,210,248.7,209,248.7z"/>
<path class="st0" d="M237.2,198.3"/>
</svg>
