<?xml version="1.0" encoding="utf-8"?>
<!-- Generator: Adobe Illustrator 25.2.3, SVG Export Plug-In . SVG Version: 6.00 Build 0)  -->
<svg version="1.1" id="Layer_1" xmlns="http://www.w3.org/2000/svg" xmlns:xlink="http://www.w3.org/1999/xlink" x="0px" y="0px"
	 viewBox="0 0 356 356" style="enable-background:new 0 0 356 356;" xml:space="preserve">
<style type="text/css">
	.st0{fill:#F68661;}
	.st1{fill:#6DD1AF;}
</style>
<g>
	<path class="st0" d="M97.46,142.34c-0.21,0.07-0.45,0.08-0.67,0.12c-0.03,0.02-0.07,0.05-0.07,0.05L97.46,142.34z"/>
	<g>
		<path class="st0" d="M96.17,124.2c0,0,1.44,8.41-1.01,9.99c-2.45,1.58-14.25-10.51-17.99-10.65
			c-3.74-0.14-13.67,19.57-15.97,22.17c-5.33-0.43-9.65-16.12-12.67-18.28c-3.02-2.16-19,7.34-22.45,4.75s5.09-16.6,4.61-21.59
			c-0.58-5.9-19.72-12.53-19.86-15.26s18.57-6.05,20.15-10.51c1.58-4.46-15.83-20.21-11.95-23.03c2.88-2.3,24.07,4.39,25.76,3.6
			c1.69-0.79,9.28-19.14,12.85-19.14c3.56,0,12.77,21.01,15.94,21.88c3.17,0.86,15.4-12.67,17.85-12.38
			c2.45,0.29,5.33,8.49,5.33,8.49l6.62-2.16c0,0-4.21-20.91-19.72-10.94c-9.07,9.03-5.21,6.05-7.48,6.91
			c-4.46-1.01-9.5-17.7-17.42-20.01c0,0-9.07-2.88-17.27,18.14c0,0-20.34-3.45-24.32-1.44c0,0-13.53,3.6,2.88,26.92
			c0,0-18.35,5.83-20.01,12.81c-0.72,5.18,20.73,15.69,21.45,19.72c0.72,4.03-9.36,13.67-2.3,23.61c0,0,6.33,6.76,25.91-1.87
			c0,0,8.79,19.56,16.7,19.14c8.2-0.43,9.79-21.3,15.69-22.74c0,0,12.05,11.52,19.34,10.15c0.73-0.55,9.42-7.34,5.42-18.93
			L96.17,124.2z"/>
		<path class="st0" d="M60.17,79.71c-9.36,0-16.95,7.59-16.95,16.95s7.59,16.95,16.95,16.95s16.95-7.59,16.95-16.95
			S69.53,79.71,60.17,79.71z M60.17,107.74c-6.02,0-10.9-4.88-10.9-10.9c0-6.02,4.88-10.9,10.9-10.9c6.02,0,10.9,4.88,10.9,10.9
			C71.08,102.86,66.19,107.74,60.17,107.74z"/>
	</g>
</g>
<g>
	<rect x="284.9" y="314.91" width="7.37" height="16.24"/>
	<rect x="90.11" y="158.85" transform="matrix(0.9931 -0.1176 0.1176 0.9931 -18.4363 12.6828)" width="16.24" height="7.37"/>
	<path d="M84.49,161.8c0,0-37.78,8.88-47.07,46.66c0,0-4.75,45.77-1.51,87.66h6.26c0,0,0-80.31,2.38-85.28
		c0,0,7.99-32.82,41.02-41.67L84.49,161.8z"/>
	<path d="M281.26,195.5l-4.75,5.47c6.91,9.21,8.49,30.95,8.49,30.95l0.14,71.39h7.11l-0.06-50.95
		C293.21,204.57,281.26,195.5,281.26,195.5z"/>
	<path d="M312.93,45.38c-3.74-16.55-21.3-19.72-21.3-19.72v26.77L280.4,63.95l-13.67-12.95V25.66
		c-15.54,3.45-20.15,17.56-20.15,17.56C237.65,78.2,271.04,90,271.04,90s-0.04,24.32-0.14,27.06c-0.07,1.68,16.96,1.49,17.42,0
		c0.45-1.47,0.58-6.19,0.58-6.19l0.29-21.3l3.17-1.15C319.12,77.19,312.93,45.38,312.93,45.38z M306.83,59.73
		c-2.33,19.1-18.74,24.86-18.74,24.86l-4.58,0.8l-0.19,19.62c0,0,0.19,10.72-0.39,11.62c-0.58,0.9-6.83,0-6.83,0
		s-0.01-21.16,0.1-30.94c-17.38-4.29-23.81-22.22-23.81-27.45c0-5.23,0.05-16.99,8.67-19.48c0,0.76,0,15.07,0,15.07l18.99,17.05
		l18.99-16.06V38.75C299.03,38.75,308.78,42.27,306.83,59.73z"/>
	<rect x="180.27" y="110.73" width="16.24" height="7.37"/>
	<rect x="145.5" y="110.73" width="16.24" height="7.37"/>
	<path d="M151.51,145.68c1.28,1.69,1.28,1.69,3.25,3.25c1.97,1.56,6.82,5.43,14.86,5.43c8.04,0,14.86-5.43,14.86-5.43
		s2.68-1.92,3.25-3.25c0-1.79-1.45-3.25-3.25-3.25c0,0-9.48,5.33-14.86,5.43c-5.38,0.11-14.86-5.43-14.86-5.43
		C152.96,142.43,151.51,143.89,151.51,145.68z"/>
	<path d="M115.02,117.22c9.77,35.41,23.73,57.43,55.7,59.09c46.22,0,51.8-59.09,51.8-59.09c9.93,0.86,12.95-11.66,12.95-11.66
		c1.22-10.2,0.62-14.62-0.37-16.44l0,0c-4.33-74.01-63.49-67.19-63.49-67.19c-60.7-6.26-64.48,67.19-64.48,67.19
		C95.45,98.57,115.02,117.22,115.02,117.22z M171.12,30.57c0,0,54.94-0.39,54.94,57.65c0,0-0.86,8.63-3.02,8.28
		c-2.16-0.35-13.17-3.74-13.17-3.74s-20.51,12.09-66.28-13.82c0,0-11.44-7.34-14.68,12.74c0,0-1.51,5.76-12.52-5.22
		C116.38,86.45,123.31,24.74,171.12,30.57z M113.81,97.89c3.5-4.5,4.89,2.52,4.89,2.52s2.97,5.8,6.33,6.39
		c3.36,0.59,4.41-1.39,8.06-6.39c3.65-5,4.82-13.96,4.82-13.96s40.44,24.28,70.02,15.4c0,0,12.38,5.47,17.27,3.45
		c0,0,4.61-7.77,4.89-3.45c0,0,2.59,8.06-3.74,8.64h-8.35c0,0-7.91,53.3-39.08,56.71c-0.99,0.11-1.73,0.19-2.28,0.24
		c-6.48,1.3-41.01,5.47-52.77-50.4l-8.35-8.24C115.54,108.79,110.31,102.39,113.81,97.89z"/>
	<path d="M205.48,180.17c-39.23,24.31-65.06,3.08-65.06,3.08c-44.19-27.2-80.46,12.09-76.57,43.61v68.22
		c0.86,34.11,25.91,35.41,25.91,35.41h88.52l2.16,0.71h49.08h41.6v-2.14v-2.45V221.24C266.8,163.38,213.69,175.08,205.48,180.17z
		 M131.44,189.33c0,0,29.79,26.34,80.31,0c0,0,0.86,3.74-2.45,19c-3.74,23.99-54.26,46.2-76.79,0
		C129.28,198.25,131.44,189.33,131.44,189.33z M190.09,320.41c0,0-75.78,0.04-96.94,0.04c-21.16,0-20.51-26.84-20.51-26.84v-71.25
		c0.43-31.31,33.03-38.86,33.03-38.86v91.33h84.42V320.41z M114.6,267.34v-82.62v-1.22c0,0,8.94,2.16,8.35,3.24
		c-0.58,1.08-2.16,3.74,1.15,20.73c5.18,16.47,18.17,34.54,44.06,35.41c0,0,39.28,2.45,50.22-33.39c2.88-19.43,2.45-21.3,2.45-21.3
		s5.04-7.48,14.25,1.15v49.82c-9.42-12.28-21.76-6.12-24.88-0.2c-2.67,5.06-8.6,23.11-10.64,29.41L114.6,267.34z M261.97,292.92
		c8.47,4.97,2,14.92,0,15.01c-2,0.09-15.69,0.68-15.69,0.68l0.14,1.3c0,0,8.14,0.18,12.95-0.58c3.11,2.77-0.27,6.72-0.27,6.72
		s-0.8,4.37-17.06,4.37H200.8l0.29-45.77c0,0,3.66-1.39,6.82-6.19l-0.28,0c2.21-3.24,4.23-8.1,4.66-15.3c0,0,1.11-15.94,9.99-14.05
		c0,0,8.57,0.16,5.63,18.44v14.36c0,0,0.07,0,0.1,0v0.3c0,0,21.53-0.83,30.95,0c9.76,5.61,4.05,18.42,0,18.42
		c-4.05,0-12.81,0-12.81,0v2.3C246.14,292.92,257.59,292.82,261.97,292.92z M263.28,263.89H242.7v-74.56h1.44
		c0,0,21.48,3.49,18.14,52.39L263.28,263.89z"/>
</g>
<g>
	<path class="st1" d="M279.3,148.22c9.36,0,16.95-7.59,16.95-16.95s-7.59-16.95-16.95-16.95c-9.36,0-16.95,7.59-16.95,16.95
		S269.94,148.22,279.3,148.22z M279.3,120.55c6.02,0,10.9,4.88,10.9,10.9s-4.88,10.9-10.9,10.9c-6.02,0-10.9-4.88-10.9-10.9
		S273.28,120.55,279.3,120.55z"/>
	<polygon class="st1" points="351,110.15 351,102.09 330.06,102.09 330.06,86.12 350.64,86.12 350.64,78.06 330.06,78.06 
		330.06,61.23 323.29,61.23 323.29,156.04 330.06,156.04 330.06,133.76 351,133.76 351,125.7 330.06,125.7 330.06,110.15 	"/>
	<polygon class="st1" points="233.72,163.1 251.62,163.1 251.62,179.14 259.68,179.14 259.68,163.1 279.85,163.1 279.85,180.66 
		287.91,180.66 287.91,163.1 307.32,163.1 307.32,180.08 315.38,180.08 315.38,163.1 330.97,163.1 330.97,156.33 233.72,156.33 	"/>
	<path class="st1" d="M220.82,188.18c-1.62,31.76-9.4,34.24-11.83,38.49c-31.24,29.32-62.95,10.1-62.95,10.1s-0.18-0.12-0.27-0.17
		c-29.75-19.41-22.82-49.86-22.82-49.86c-0.25-1.35-8.35-3.24-8.35-3.24v83.84l84.95,1.01c2.16-6.09,8.42-32.55,16.21-34.62
		c12.21-6.17,19.31,5.81,19.31,5.81v-50.22C225.9,180.71,221.58,188.52,220.82,188.18z"/>
</g>
</svg>
