<?xml version="1.0" encoding="utf-8"?>
<!-- Generator: Adobe Illustrator 25.2.3, SVG Export Plug-In . SVG Version: 6.00 Build 0)  -->
<svg version="1.1" id="Layer_1" xmlns="http://www.w3.org/2000/svg" xmlns:xlink="http://www.w3.org/1999/xlink" x="0px" y="0px"
	 viewBox="0 0 356 356" style="enable-background:new 0 0 356 356;" xml:space="preserve">
<style type="text/css">
	.st0{fill:#020203;}
	.st1{fill:#78C3AA;}
	.st2{fill:#FFFFFF;}
</style>
<path class="st0" d="M120.8,219.4c0,0,0.6,0,0.6,0l-0.6,1.5L120.8,219.4z"/>
<g>
	<path class="st1" d="M115.3,189.2c4.2-13.1-4.5-15.4-4.5-15.4l-37-14.1c-15-5-17.3,8.3-17.3,8.3C58,171.6,115.3,189.2,115.3,189.2z
		"/>
	<path class="st1" d="M112,193.2l-56.9-19.4c-7.6,6.2-10.1,20-8.8,31.5c2.7,25.9,73.7,43.2,73.7,43.2l0.7-29.2
		C107.6,219.4,112,193.2,112,193.2z"/>
	<path class="st1" d="M243.5,188.5c0.6,0,1.2-0.1,1.7-0.3l46.6-16.9c1.7-0.6,2.9-2,3.3-3.7c2.3-10.5-8.4-9.4-10.9-9.1
		c-0.3,0-0.6,0.1-0.9,0.2l-42.3,15.1c-1.7,0.6-2.9,2-3.3,3.8C235.4,187.5,241.1,188.5,243.5,188.5z"/>
	<path class="st1" d="M299.9,174.6l-56,19.9l-0.1,17.9l-11.7,9.1c1.8,15.9-10.2,15.8-10.2,15.8c-8.7,0.3-11.3-6.6-11.3-6.6
		c-1.5,11.4-12.6,10-12.6,10c-11.9,1.4-12.6-10.5-12.6-10.5c-1.1,12.1-12.6,10.5-12.6,10.5c-13.9,0.6-13.1-12.9-12.8-15.7
		c-0.9,7.8-8.6,9.1-8.6,9.1v12.5c12.8-0.1,20.9,6.8,20.9,6.8c7,4.8,58.5-5.5,58.5-5.5c54.3-11.8,71.9-34,71.9-34
		C316.1,194.3,299.9,174.6,299.9,174.6z"/>
	<path class="st1" d="M159.9,225c0-0.2,0.1-0.3,0.1-0.5C160,224.4,159.9,224.6,159.9,225z"/>
</g>
<g>
	<path class="st2" d="M147.8,194.8c-5.4,0-9.8,4.4-9.8,9.8v15.7c0,5.4,4.4,9.8,9.8,9.8c5.4,0,9.8-4.4,9.8-9.8v-15.7
		C157.6,199.2,153.2,194.8,147.8,194.8z"/>
	<path class="st2" d="M173,194.8c-5.4,0-9.8,4.4-9.8,9.8v22.3c0,5.4,4.4,9.8,9.8,9.8c5.4,0,9.8-4.4,9.8-9.8v-22.3
		C182.8,199.2,178.4,194.8,173,194.8z"/>
	<path class="st2" d="M198.3,194.8c-5.4,0-9.8,4.4-9.8,9.8v22.3c0,5.4,4.4,9.8,9.8,9.8c5.4,0,9.8-4.4,9.8-9.8v-22.3
		C208,199.2,203.6,194.8,198.3,194.8z"/>
	<path class="st2" d="M221.3,202.2c-4.7,0-8.6,3.8-8.6,8.6v13.8c0,4.7,3.8,8.6,8.6,8.6s8.6-3.8,8.6-8.6v-13.8
		C229.9,206,226,202.2,221.3,202.2z"/>
	<path class="st2" d="M248,79.3c0,0-12-49.7-88-41.8c0,0-80.3,16-50.4,75.8c0,0,16.6,23.2,43.4,25.7c0,0,45.8,45.3,42.8,31.4
		c0,0-6.1-25.8,6.9-31.4C215.8,133.3,259.9,120.4,248,79.3z"/>
</g>
<g>
	<path class="st0" d="M171.6,23.1c3.8,0,6.9-3.1,6.9-6.9s-3.1-6.9-6.9-6.9c-3.8,0-6.9,3.1-6.9,6.9S167.7,23.1,171.6,23.1z"/>
	<circle class="st0" cx="216.1" cy="336.6" r="6.9"/>
	<path class="st0" d="M92.1,58.4c18.8-26.7,53-33.1,63.9-34.5c2-0.3,3.4-1.9,3.4-3.9v-1c0-2.3-2.1-4.2-4.4-3.9
		c-39.9,4.6-62.7,30.1-69.3,38.7c-1.2,1.6-1,3.8,0.3,5.1C87.9,60.7,90.7,60.4,92.1,58.4z"/>
	<g>
		<path class="st0" d="M149.9,189.7h-4.1c-5.8,0-10.5,4.7-10.5,10.5v24.5c0,5.8,4.7,10.5,10.5,10.5h4.1c5.8,0,10.5-4.7,10.5-10.5
			v-24.5C160.4,194.4,155.7,189.7,149.9,189.7z M157.6,220.3c0,5.4-4.4,9.8-9.8,9.8s-9.8-4.4-9.8-9.8v-15.7c0-5.4,4.4-9.8,9.8-9.8
			s9.8,4.4,9.8,9.8V220.3z"/>
		<path class="st0" d="M221.9,198.3h-1.1c-4.5,0-8.4,2.9-9.9,6.9v26c0,0.1,0,0.1,0,0.2c1.5,4.1,5.3,7,9.9,7h1.1
			c5.8,0,10.5-4.7,10.5-10.5v-19C232.4,203,227.7,198.3,221.9,198.3z M229.9,224.6c0,4.7-3.8,8.6-8.6,8.6c-4.7,0-8.6-3.8-8.6-8.6
			v-13.8c0-4.7,3.8-8.6,8.6-8.6c4.7,0,8.6,3.8,8.6,8.6V224.6z"/>
		<path class="st0" d="M210.8,208.9c0-1.3,0-2.6,0-3.8v-5c0-5.8-4.7-10.5-10.5-10.5h-4.1c-5.8,0-10.5,4.7-10.5,10.5
			c0-5.8-4.7-10.5-10.5-10.5H171c-5.8,0-10.5,4.7-10.5,10.5v31c0,5.8,4.7,10.5,10.5,10.5h4.1c5.8,0,10.5-4.7,10.5-10.5
			c0,5.8,4.7,10.5,10.5,10.5h4.1c5.8,0,10.4-4.6,10.5-10.3c0-1.3,0-3,0-4.3V208.9z M182.8,226.8c0,5.4-4.4,9.8-9.8,9.8
			c-5.4,0-9.8-4.4-9.8-9.8v-22.3c0-5.4,4.4-9.8,9.8-9.8c5.4,0,9.8,4.4,9.8,9.8V226.8z M208,226.8c0,5.4-4.4,9.8-9.8,9.8h0
			c-5.4,0-9.8-4.4-9.8-9.8v-22.3c0-5.4,4.4-9.8,9.8-9.8h0c5.4,0,9.8,4.4,9.8,9.8V226.8z"/>
		<path class="st0" d="M307.4,241.7c-12.1,14.1-57.6,24.8-57.6,24.8l2.6,7.2c35.7-6.1,58.5-23.9,58.5-23.9L307.4,241.7z"/>
	</g>
	<circle class="st0" cx="316.1" cy="239" r="4.5"/>
	<path class="st0" d="M74.6,129.3c2.1,0.7,4.4-0.5,5-2.7c0.6-2-0.5-4.3-2.5-4.9c-26.4-8.9-44.2,10.8-50.5,19.3
		c-1.4,1.9-0.8,4.6,1.2,5.8l0.5,0.3c1.9,1.2,4.4,0.5,5.5-1.4C46.9,123.7,66.4,126.8,74.6,129.3z"/>
	<path class="st0" d="M39.8,155.6l0.3,0.2c1.4,0.8,3.2,0.4,4-1.1c9.5-16,23.8-13.7,29.7-11.9c1.6,0.5,3.2-0.4,3.7-2
		c0.4-1.5-0.3-3.1-1.8-3.6c-19.3-6.5-32.3,7.9-36.8,14.1C37.9,152.8,38.3,154.8,39.8,155.6z"/>
	<path class="st0" d="M145.7,235.2v17.3c0,0,23.1-1.4,38.5,25.1h6.6c0,0-12.4-30.3-39.2-30.1V235C151.7,235,147.4,235.3,145.7,235.2
		z"/>
	<path class="st0" d="M230.9,302.3c0.3,4.8-8.5,11.3-8.5,11.3h-70.8c0,0-25.3-23.1-24.1-42.7v-55.3h7.7V209h-13.8l-1.6,62.1
		c0,0,0.4,23.7,21.9,42.5h-13.4v37.7h10.4v-30.7h89.1v16.9h8.5v-23.8h-4.6c4.6-1.7,6.1-10.3,6.1-10.3v-51l-7.8,2.2L230.9,302.3z"/>
	<path class="st0" d="M283.1,142.5c12.5-2.9,20.6,4.8,24.4,9.7c1.4,1.8,4.1,1.8,5.5,0c1-1.2,1-3,0.1-4.2
		c-10-14.3-24.3-13.8-31.6-12.4c-2.4,0.5-3.6,3.2-2.3,5.2l0,0.1C280.1,142.2,281.6,142.8,283.1,142.5z"/>
	<path class="st0" d="M326.8,141.2c-19.8-27.7-40.9-22.9-50.3-18.6c-2.5,1.1-2.8,4.5-0.6,6.2l0.1,0.1c1.1,0.8,2.5,0.9,3.7,0.3
		c20.1-9.9,35.5,8.1,41.2,16.3c1.3,1.9,4,2.1,5.6,0.4C327.7,144.6,327.8,142.7,326.8,141.2z"/>
	<path class="st0" d="M120.8,220.9l-0.7,27.7c0,0-71.1-17.3-73.7-43.2c-1.3-11.5,1.2-25.3,8.8-31.5l56.9,19.4c0,0-4.4,26.2,8.8,26.1
		l0.6-9.5h-4.8c0,0-2.3,4,2.9-19c5.2-23-7.2-22.8-7.2-22.8l-35-12.2c-23.7-8.5-27.3,9.4-27.3,9.4c-19,32.6-8.4,46.8-8.4,46.8
		c8.4,28.9,78.5,43.6,78.5,43.6L120.8,220.9z M73.9,159.7l37,14.1c0,0,8.6,2.2,4.5,15.4c0,0-57.3-17.6-58.8-21.2
		C56.6,168,58.9,154.7,73.9,159.7z"/>
	<path class="st0" d="M232,186.1l5.6,16.6c1.4,10.4-5.6,7.1-5.6,7.1v12.2l11.7-9.1l0.1-17.9l56-19.9c0,0,16.1,19.7,2.7,39.2
		c0,0-17.6,22.2-71.9,34c0,0-51.5,10.4-58.5,5.5c0,0-6.7-5.7-17.4-6.7c14.2,1.4,23.8,12.1,23.8,12.1c19.1,2.6,51-5.2,51-5.2l7.8-2.2
		c22.8-0.4,61.7-23.9,61.7-23.9c21.8-14.1,12.3-39.8,12.3-39.8l-8.8-26.4c-7.6-16-21.8-7.6-21.8-7.6l-39.9,13.7
		C226.7,176.3,232,186.1,232,186.1z M283.4,158.7c0.3-0.1,0.6-0.2,0.9-0.2c2.5-0.4,13.2-1.4,10.9,9.1c-0.4,1.7-1.7,3.1-3.3,3.7
		l-46.6,16.9c-0.6,0.2-1.1,0.3-1.7,0.3c-2.5,0-8.1-1-5.8-10.9c0.4-1.7,1.7-3.2,3.3-3.8L283.4,158.7z"/>
	<path class="st0" d="M157.7,30.4c-0.1,0-0.2,0-0.3,0c-3.8,0.8-90.3,19.6-57.2,86c0.1,0.1,0.1,0.2,0.2,0.3
		c1.4,2.1,17.9,25.9,46.6,29c0.5,0.1,1,0.3,1.4,0.6c6.1,5.3,56.8,48.9,53.6,34c0,0-5.7-29.4,7.6-34.6c13.4-5.2,59.2-23,48-67.8
		C257.6,77.9,243.9,21.5,157.7,30.4z M248,79.3c11.9,41.1-32.2,54-45.3,59.7c-13,5.6-6.9,31.4-6.9,31.4c3,13.9-42.8-31.4-42.8-31.4
		c-26.9-2.5-43.4-25.7-43.4-25.7C79.7,53.5,160,37.5,160,37.5C236,29.6,248,79.3,248,79.3z"/>
	<rect x="136.4" y="70.5" class="st0" width="81.2" height="7.5"/>
	<rect x="129.5" y="87.5" class="st0" width="53.8" height="8.1"/>
	<rect x="194.4" y="87.5" class="st0" width="26.7" height="8.1"/>
	<rect x="151.7" y="104.8" class="st0" width="48.1" height="7.3"/>
</g>
</svg>
