<?xml version="1.0" encoding="utf-8"?>
<!-- Generator: Adobe Illustrator 25.2.3, SVG Export Plug-In . SVG Version: 6.00 Build 0)  -->
<svg version="1.1" id="Layer_1" xmlns="http://www.w3.org/2000/svg" xmlns:xlink="http://www.w3.org/1999/xlink" x="0px" y="0px"
	 viewBox="0 0 27.5 27.1" style="enable-background:new 0 0 27.5 27.1;" xml:space="preserve">
<style type="text/css">
	.st0{fill:#F18563;}
</style>
<g>
	<path class="st0" d="M24.3,4.6c-0.7-0.9-1.5-1.7-2.6-2.3C10.5-3.7,1.1,3.7,0.3,13.6c-0.4,6.2,5.1,13.2,11.4,13.3l0-9.4H8.3v-3.9
		h3.4v-3c0-3.4,2-5.2,5.1-5.2c1.5,0,3,0.3,3,0.3V9h-1.7c-1.7,0-2.2,1-2.2,2.1v2.5h3.7l-0.6,3.9h-3.1v9.4
		C25.1,25.5,31.3,14.7,24.3,4.6z"/>
</g>
</svg>
