<?xml version="1.0" encoding="utf-8"?>
<!-- Generator: Adobe Illustrator 25.2.1, SVG Export Plug-In . SVG Version: 6.00 Build 0)  -->
<svg version="1.1" id="Layer_1" xmlns="http://www.w3.org/2000/svg" xmlns:xlink="http://www.w3.org/1999/xlink" x="0px" y="0px"
	 viewBox="0 0 356 356" style="enable-background:new 0 0 356 356;" xml:space="preserve">
<style type="text/css">
	.st0{fill:#FFFFFF;}
	.st1{fill:#F68660;}
	.st2{fill:#050100;}
	.st3{fill:#6DD1AF;}
</style>
<g>
	<path class="st0" d="M250.4,31.2c-45.9,14-76.6-14.8-76.6-14.8c-22.1,27-74.3,13.5-74.3,13.5C10.4,203.7,175,246.9,175,246.9
		C334.2,184.7,250.4,31.2,250.4,31.2z M174.8,239.2c0,0-150.3-39.5-68.9-198.2c0,0,47.7,12.3,67.8-12.3c0,0,28,26.3,69.9,13.6
		C243.7,42.2,320.2,182.4,174.8,239.2z"/>
	<path class="st0" d="M170.3,108.7c-8.3,0-15.1,6.8-15.1,15.1c0,5.7,3.1,10.6,7.7,13.2v27.5h15.7v-28.1c4-2.7,6.7-7.3,6.7-12.6
		C185.4,115.5,178.7,108.7,170.3,108.7z"/>
</g>
<path class="st1" d="M243.7,42.2c-41.9,12.8-69.9-13.6-69.9-13.6C153.6,53.3,106,41,106,41c-81.4,158.7,68.9,198.2,68.9,198.2
	C320.2,182.4,243.7,42.2,243.7,42.2z M178.7,136.3v28.1H163v-27.5c-4.6-2.6-7.7-7.5-7.7-13.2c0-8.3,6.8-15.1,15.1-15.1
	s15.1,6.8,15.1,15.1C185.4,129,182.8,133.6,178.7,136.3z"/>
<g>
	<circle class="st2" cx="313" cy="348.1" r="4.8"/>
	<polygon class="st2" points="252.3,266.9 267.3,266.7 267.3,260.2 237.3,260.2 237.3,308.1 237.3,309.8 252.3,309.8 	"/>
	<path class="st2" d="M231.4,261.6c-7.4-2.6-9.3,7.7-9.3,7.7h9.3C231.4,269.3,231.4,265.2,231.4,261.6z"/>
	<path class="st2" d="M230.7,308.5v-9.3c0,0-4,0-7.7,0C220.5,306.6,230.7,308.5,230.7,308.5z"/>
	<path class="st2" d="M260.7,300.5v9.3c0,0,10.3-1.9,7.7-9.3C264.7,300.5,260.7,300.5,260.7,300.5z"/>
	<path class="st2" d="M305.4,312.7V202.5c0,0,0.2-15.5-21-15.5c-3.1,0-9.8,0-19,0c47.3-78.5-11.7-167.7-11.7-167.7
		c-48.9,14.8-81.4-15.8-81.4-15.8c-23.5,28.7-79,14.4-79,14.4C50.4,94.6,57,149.3,79.3,187c-8.7,0-14.8,0-17.2,0
		c-15.8,0-17.3,15.5-17.3,15.5v111.6c0,0,0,11.4,10.6,14.2H16.2v8.9H334v-8.9h-38.4C306.4,325.4,305.4,312.7,305.4,312.7z
		 M99.6,29.8c0,0,52.2,13.5,74.3-13.5c0,0,30.6,28.8,76.6,14.8c0,0,83.7,153.6-75.4,215.7C175,246.9,10.4,203.7,99.6,29.8z
		 M53.8,307.4V211c0,0,1.3-13,14.6-13c2.2,0,8.7,0,18.2,0c32.9,44.9,86.9,61.7,86.9,61.7c40.9-17.5,67.7-39,84.6-61.7
		c7.8,0,13.5,0,16,0c17.8,0,17.6,13,17.6,13v95.3c0,0,1.1,13.7-12.4,13.7s-198.8,0-212.1,0C53.8,319.9,53.8,307.4,53.8,307.4z"/>
	<path class="st2" d="M49.8,48.2c2.6,0,4.8-2.1,4.8-4.8c0-2.6-2.1-4.8-4.8-4.8c-2.6,0-4.8,2.1-4.8,4.8C45,46.1,47.1,48.2,49.8,48.2z
		"/>
	<circle class="st2" cx="303.1" cy="146.4" r="4.8"/>
	<path class="st2" d="M29.5,30.9l-5.1-3.2C-4.7,78.4,11.9,160,11.9,160l6.8-2.1C4.4,79.7,29.5,30.9,29.5,30.9z"/>
	<path class="st2" d="M44.7,143.5c-9.3-41.9,5.1-84.7,5.1-84.7L43,55c-11.9,34.5-6.9,88.5-6.9,88.5L44.7,143.5L44.7,143.5z"/>
	<path class="st2" d="M331,160c29.1-50.8,12.5-132.4,12.5-132.4l-6.8,2.1c14.3,78.2-10.8,127.1-10.8,127.1L331,160z"/>
	<path class="st2" d="M312.4,132.7c11.9-34.5,6.9-88.5,6.9-88.5h-8.6c9.3,41.9-5.1,84.7-5.1,84.7L312.4,132.7z"/>
	<rect x="47.2" y="344.1" class="st2" width="248.5" height="8"/>
	<rect x="63.7" y="275.8" class="st2" width="58" height="8.3"/>
	<rect x="63.7" y="291" class="st2" width="80" height="8.3"/>
	<rect x="221.6" y="276.2" class="st2" width="10.2" height="5.8"/>
	<rect x="221.6" y="286.7" class="st2" width="10.2" height="5.8"/>
	<rect x="258.6" y="276.2" class="st2" width="10.2" height="5.8"/>
	<rect x="258.6" y="286.7" class="st2" width="10.2" height="5.8"/>
</g>
<path class="st3" d="M53.8,246.7l90.7,0.2c0,0-26.9-14.6-43.8-32.2h-47V246.7z"/>
<path class="st3" d="M291.7,246.9l-91.8-0.2c0,0,25.6-14.1,43.6-32.1c2.3,0,48.2,0,48.2,0V246.9z"/>
</svg>
