<?xml version="1.0" encoding="utf-8"?>
<!-- Generator: Adobe Illustrator 25.2.3, SVG Export Plug-In . SVG Version: 6.00 Build 0)  -->
<svg version="1.1" id="Layer_1" xmlns="http://www.w3.org/2000/svg" xmlns:xlink="http://www.w3.org/1999/xlink" x="0px" y="0px"
	 viewBox="0 0 356 356" style="enable-background:new 0 0 356 356;" xml:space="preserve">
<style type="text/css">
	.st0{fill:#F29581;}
	.st1{fill:#BADCD0;}
	.st2{fill:#7E427D;}
	.st3{fill:#EA4C61;}
	.st4{fill:#F49E8B;}
	.st5{fill:#9C4E50;}
	.st6{fill:#F5A79C;}
	.st7{fill:#4B2347;}
	.st8{fill:#F08460;}
	.st9{fill:#C3E2D8;}
	.st10{fill:#783975;}
	.st11{fill:#76C2A9;}
</style>
<polygon class="st0" points="312.6,202.3 298.4,194 313.8,185.1 327,193 "/>
<polygon class="st1" points="289.8,270.2 290.3,231.1 276.2,222.8 276.3,245.7 283,249.5 283.5,266.4 "/>
<polygon class="st2" points="268.6,258.9 254.5,250.5 269.9,241.7 283,249.5 "/>
<path id="BOCA" class="st3" d="M190.6,255.7c0,0-1-0.7,0.2-0.8c0,0,1.7,0.3,2.3,1.6c0.5,0.9,0,2.4,0,2.4l-0.1,0.4c0,0,0,0.3-0.5,0.2
	C192.3,259.5,193.2,255.3,190.6,255.7z"/>
<g id="nar_x5F_claro">
	<path class="st4" d="M300.1,121.1c0,0,8.3,5.9,8.1-6c0.1-0.2,0.1-0.2,0.1-0.2V81.4c0-0.1,0-0.1-0.1-0.2c0,0,1.3-6-7.7-10
		c-10.3-5.6,0,0-0.1-0.1l-41.5-24c-0.1,0,7.7,4.7-0.2,0c-7.9-4.8-8.2,2.6-8.2,2.6c-0.1,0-0.2,0.1-0.2,0.2l-0.4,36.4c0,0,0,0.1,0,0.1
		c0,0-0.7,6.1,5.2,9c5.9,2.8,0.1,0.1,0.1,0.1l9.8,5.9c0.1,0.1,0.2,0.2,0.1,0.3l-4.4,8.4c-0.1,0.2,0.1,0.4,0.3,0.4l9.9-1.9
		c0,0,0.1,0,0.1,0l9.5,1.3c0,0,0.1,0,0.1,0l19.1,11.3C299.9,121.2,300,121.2,300.1,121.1z"/>
	<polygon class="st4" points="298.4,194 298.5,218 304.7,221.8 305.3,253.3 312,257.1 312.6,202.3 	"/>
	<path class="st4" d="M99.4,246c-2.1,5.1-7.7,1.8-7.7,1.8l-6.5-7.6c-3.8-5.1-6.4,0.3-6.4,0.3l-5.4,6.6c-3.3-0.3-4.7-14.1-4.7-14.1
		c-1.5-6.9-3.9-16.5-3.9-16.5C61,209.2,56,216,56,216l-3.3,4.1c-3.3,3.7-5.7-1.4-5.7-1.4c-2.7-3.7-8.6-12.9-8.6-12.9
		c-4.1-2.3-9.6,1-9.6,1l1.5,0.7c3.3-2.1,7.4,0.4,7.4,0.4c1.4,2.8,6.9,11.4,8.7,13.7c3.7,3.5,6.7,1.1,6.7,1.1l5-5.9
		c4.5-5.3,5.9,3.9,5.9,3.9l3.4,16.5c0.8,4.2,0.8,5.6,1.3,6.8c0.3,0.8,0.6,1.6,1.5,3c2.5,3.9,5.6,1.2,5.6,1.2l5.2-6.8
		c1.6-3.2,3.5,0.9,3.5,0.9l5.6,6.5c3.5,2.8,7,2,7,2c5.4-1.3,4.7-4.9,4.7-4.9H99.4z"/>
	<path class="st4" d="M35,83.4l6.2,0c-0.1-0.7,0.8-1.5,0.8-1.5l0.1-7.8l2.4-0.1l0-2.5l-3.3-5.8c-1,0.9-2,0.5-2,0.5l0,2.9
		c-1.5,1.7-4.3-2.2-4.3-2.2c-0.9-0.9-3.7,1.2-3.7,1.2l-2.4,2.2C34,70,35,83.4,35,83.4z"/>
	<path class="st4" d="M39.3,97.1c0,0-0.3-4.7,1.7-3.1c0,0,3.2,2.3,4.8-1.2c1.1-2.5-0.5-5-0.5-5l-3.6,1.1v-2.1l-6.8,1.5
		c0,0-2.2,0.8-3.9-2.9l-0.5-0.9c0,0-3.8,7.7-1.9,10.7C28.6,95.2,36.8,101.9,39.3,97.1z"/>
	<g>
		<path class="st4" d="M250.5,152.9c-8-6.8-11,6.4-11,6.4c-7.7,11.4-15.7-3.2-15.7-3.2L213.2,126c-3.2-7.1-6.9-1.1-6.9-1.1l-5.7,8
			c-1.5,1.6-4.8,1.6-4.8,1.6v14.4l57.4,33.8l0.1-27.8L250.5,152.9z"/>
		<polygon class="st4" points="215.9,77.5 137.1,32 137.1,53.4 215.9,98.4 		"/>
	</g>
</g>
<g id="cafe">
	<path class="st5" d="M34.9,62.9l-0.1,4c0,0,2.7,3.9,4.3,2.3l0-2.9c2.1,0.7,3.4-2.3,3.4-2.3l0.3-7.4c-1.8-2.3-6.1,2.8-6.1,2.8
		c-0.9,1.9-2.1,1.1-2.1,1.1c-1.5-0.6-0.6,1.9-0.6,1.9L34.9,62.9z"/>
	<path class="st5" d="M42.5,81.6l-1.2,1.1l-0.1,0.6l0.5,3.5c0,0,3.4-1.2,3.5-1.2c2-0.7,0.2-3.7,0.2-3.7L42.5,81.6z"/>
	<path class="st5" d="M50.2,77.3c-0.3,0.2-0.3,3.3-0.3,3.3l-0.5,0l0.1,1.5l1.2-1C51.6,79.5,50.2,77.3,50.2,77.3z"/>
	<path class="st5" d="M38.9,106.9c-1.6,0.2-5.4,0-5.4,0c-1.1,3.8,1.6,14.9,1.6,14.9c1.3,0.8,3.3-0.1,3.3-0.1l0.5-13.4
		c0.3,3.5,2.4,11.3,2.4,11.3c1.1,0.5,2.9,0.1,2.9,0.1L44,105.3C41.7,106.8,38.9,106.9,38.9,106.9z"/>
</g>
<g id="piel">
	<path class="st6" d="M190.8,254.9c3.6,0.8,2.1,4.3,2.1,4.3c0,1.3,2.1,0.9,2.1,0.9c-0.5,4.3,1.7,4.3,1.7,4.3c1.9-0.5,3.3-4,3.3-4
		l0.3-8.8c-5.5,1.2-5.3-3.3-5.3-3.3c-1.4,1.2-4.7,2-4.7,2l-0.2,4.8C190.3,255.1,190.5,254.9,190.8,254.9z"/>
	<path class="st6" d="M191.9,266.5l-2.2-3.5l-2.1,3l-0.2,0.9c-0.9,1.3-2.1,1.8-2.1,1.8l0.4,1.5c1.5,3.5,4.7,1.9,4.7,1.9
		C193.4,270.3,191.9,266.5,191.9,266.5z"/>
	<path class="st6" d="M208.5,287c0,0-2.1-0.1-3.3,2.5c0,0-1.1,3.3,2.5,3.9l1.8-0.3l1.5-2.3C210.9,290.8,210.6,287.6,208.5,287z"/>
	<path class="st6" d="M191.6,310.3l0.6,20.6c0,0,0.8,3.8,3.7-0.2c0,0,3.3-13.4,2.4-16.9C198.3,313.8,195.7,313.8,191.6,310.3z"/>
	<path class="st6" d="M199.5,313.8l0.8,20.3c0,0,1.5,3.5,3.6-0.1c0,0,4-17.5,2-20.2L199.5,313.8z"/>
	<path class="st6" d="M72.2,148.6c0,0-1.1-1-0.2-2.6c0,0,1.5-0.3,1.2-2.7c0,0-0.4-2-1.4-1.7l-1.1,0l-0.1,3.5l-0.8-0.3l-0.1-4.7
		l-1.5-0.7l-0.6,2.8l0.1,6c0,0,1.3,1.3,2.8,1.6l0.1,2.1c0,0,4.1,0.5,6.4-1.2l-0.1-0.9C77,149.9,74.4,150.7,72.2,148.6z"/>
	<path class="st6" d="M64.7,161.5c-0.3,0.6-1.1,0.3-1.1,0.3c-2.4,1.1-0.3,3.6-0.3,3.6l2.5,0.1l0.2-4C65.8,161,64.7,161.5,64.7,161.5
		z"/>
	<path class="st6" d="M59.2,165.7c-4.3,0.1-2.9,4.8-2.9,4.8c0.2,0.3,3.7,1.5,3.7,1.5c-1.5-3.6,1.5-4.6,1.5-4.6
		C61.3,166.7,59.2,165.7,59.2,165.7z"/>
</g>
<g id="m_x5F_claro">
	<path class="st7" d="M161,16c20.9,12.4,89.1,51.9,89.1,51.9v-6.3l-84.2-48.9c-7.6-4-9.8,0.5-9.8,0.5s0,0.5,0,0.7
		C157.4,14,159.4,15,161,16z"/>
	<path class="st7" d="M281.9,193.2l0.4-82.3l-1.8-1.1l-3.4-0.5l0.7,88.9C278.9,197.9,281.9,193.2,281.9,193.2z"/>
	<path class="st7" d="M159.7,89.7c0,0,9.4,7.5,10.6,21.7c0,0,1.5-1.3,3.1,0c0,0-0.3-16-12-24C161.4,87.5,160.6,89.6,159.7,89.7z"/>
	<ellipse transform="matrix(0.8925 -0.451 0.451 0.8925 -30.2961 82.5777)" class="st7" cx="158.1" cy="104.9" rx="6.2" ry="9"/>
	<polygon class="st7" points="283,249.5 268.6,258.9 268.9,283.5 283.8,274.8 	"/>
	<path class="st7" d="M182.7,255.2c-1.5-1.3-2.9-1.1-3.9-0.7c-1,0.5-1.7,1.5-2,2.6c-0.6,3,0.5,5.3,0.5,5.3c0.6,2.2,2.3,4.3,3,5.1
		c0.2,0.2,0.4,0.4,0.7,0.6c2,1.3,3.6,0.8,4.7,0.1c1-0.7,1.5-1.8,1.5-3C187.4,259.4,182.7,255.2,182.7,255.2z"/>
	<path class="st7" d="M200.2,302.6c0,0-2.8-0.3-4.4-4.2c0,0-0.4-1.5-1.1-0.4c0,0-1.7,4.8-4.5,1.5v9.3c0,0,3.1,4.1,7.8,5.1l10,0.1
		l-0.1-13.7C208,300.1,203.4,303.4,200.2,302.6z"/>
	<path class="st7" d="M196.4,336.6c0,0,0.8-5.1-0.5-5.9c0,0-2.4,4-3.7,0.2c0,0-6.8,6.6-4.3,9.4c0,0,4.3,1.1,6.4-3.9
		c0,0,0-1.2,0.6-0.3l0,0.5H196.4z"/>
	<path class="st7" d="M204.1,332.9c0,0-1.4,5.3-3.8,1.2c0,0-5.9,6.9-3.8,9.3c0,0,4.1,0.5,6.3-4.2c0,0,0.3-0.9,0.6-0.4l0.1,0.7l1.3,0
		C204.7,339.4,205.2,333.6,204.1,332.9z"/>
	<path class="st7" d="M89.6,248.4l-5.2-6.1c-2.5-4.3-3.5-0.9-3.5-0.9l-4.9,6.6c-5,4.3-7.5-4.5-7.5-4.5c-1.3-8.9-4.5-22.8-4.5-22.8
		c-1.9-9.5-5.6-4.2-5.6-4.2l-4.5,5.3c-2.9,3.8-7.2,0.1-7.2,0.1c-1.3-0.8-9-14-9-14c-3.2-1.8-5.7-1.4-7.4-0.4l2.4,1.5
		c0.7,0.4,0.9,1.2,0.5,1.9l-0.1,0.1c-0.4,0.6-1.2,0.8-1.8,0.5l-3.3-2.1c-0.3,0.3-0.4,0.5-0.4,0.5l0,8.9l5.3,3.3
		c0.7,0.4,0.9,1.2,0.5,1.9l-0.1,0.1c-0.4,0.6-1.2,0.8-1.8,0.5l-3.9-2.5l0,9.1l5.3,3.2c0.7,0.4,0.9,1.2,0.5,1.9l-0.1,0.1
		c-0.4,0.6-1.2,0.8-1.8,0.5l-3.8-2.4l0,1.7l72.5,41.7l0.1-29.1C94.3,253.9,89.6,248.4,89.6,248.4z"/>
	<polygon class="st7" points="49.4,80.6 49.9,80.6 50.4,72 45.2,74.1 49.6,74.6 	"/>
	<path class="st7" d="M67.4,103.7l7-6.8c1.3-0.3,1.3,0.9,1.3,0.9l0.1,10.5c14.5,17.9,35.7,1.1,35.7,1.1l-0.4-11.9
		c-0.1-1.3,1.1-1,1.1-1l7.2,6.9l0.3,19.1l1.3-1.9l-0.2-18.5c0.3-3.2-5.2-6.8-5.2-6.8l-0.6-4c-10.2,15.9-33.7,9.3-33.7,9.3
		c-6.3-3.7-7.1-5.7-7.1-5.7l0-2.5c-8.2,5.4-8.5,9.9-8.5,9.9l-0.2,16.4l1.6,2.8L67.4,103.7z"/>
	<path class="st7" d="M72,146c-1.4,2.3,1.7,3.7,1.7,3.7c6.3,1.6,7.7-4.2,7.7-4.2l-0.2-8.1c-7.7-10.4-13.6-3.1-13.6-3.1l0.1,4.6
		l0.5,0.7l1.5,0.6l0.1,4.8l0.8,0.3l0.1-3.5l1.7,0C74.4,145.3,72,146,72,146z"/>
	<g>
		<rect x="194.5" y="110.4" class="st7" width="1.5" height="43.4"/>
		<rect x="210.9" y="120" class="st7" width="1.5" height="43.4"/>
		<rect x="235.7" y="132.6" class="st7" width="1.5" height="43.4"/>
		<rect x="253.5" y="144.7" class="st7" width="1.5" height="43.4"/>
		<path class="st7" d="M264.9,189.5l-0.2-49.5c0,0,0.3-2.7-3.8-5.9c-4.9-3-14.1-8.5-14.1-8.5l-49.8-28.9c0,0-2-1.3-3.9-0.6
			c-2.3,0.9-3.7,3.9-3.7,3.9c1.4-1.8,4.6,0.3,4.6,0.3s61.1,35.4,63.3,36.8c2.8,1.2,2.8,5.2,2.8,5.2l-0.3,52.5
			c0.1,2.2-0.8,3.1-1.7,3.4c-3.1-0.5-6-2.5-6-2.5l-63.5-36.3l0.1-12.6l-37.4-21.5l-68.5,39l0.1,9.6c0,0-0.1,0.1-0.2,0.2
			c0.1,0.5,0.3,2.1,0.4,3.5c-0.1-1.7-0.4-3.6-0.4-3.6c-9.8,7.7-15.7,1.4-15.7,1.4l0.1-3.2l-4.9,0l-1.3,1.1l-2.5-0.6
			c-3.6-1.8-5.5,3.7-5.5,3.7l-5.9,14l4.5,4.4c0.6-2.8,5.3-13.3,5.3-13.3c0.1-0.4,0.2-0.7,0.4-1c-1.5,3.4,1.3,6.2,1.3,6.2L81,199.4
			l85.4,49.5c5,5.8,15.2,3.1,15.2,3.1l6.7-4.2c-0.5-1.7,0.5-5.6,0.5-5.6c5.3-7.1,13.2-1.8,13.2-1.8l74.9-43.4L264.9,189.5z
			 M217.4,184.5l14.2,8.3c0.6,0.3,0.6,1.1,0.1,1.5l-4.1,2.9c-0.3,0.2-0.7,0.2-1,0l-14.4-8.7c-0.6-0.4-0.6-1.2,0-1.6l4.3-2.5
			C216.8,184.3,217.2,184.3,217.4,184.5z M168.4,185.2l6.5-3.9c0.4-0.2,0.9-0.2,1.3,0l13.2,7.8c0.8,0.5,0.9,1.7,0,2.2l-6.3,4.1
			c-0.4,0.3-1,0.3-1.4,0l-13.4-8.1C167.6,187,167.6,185.7,168.4,185.2z M165.6,185.6c-0.4,0.3-1,0.3-1.4,0l-13.4-8.1
			c-0.9-0.5-0.8-1.8,0-2.3l6.5-3.9c0.4-0.2,0.9-0.2,1.3,0l13.2,7.8c0.8,0.5,0.9,1.7,0,2.2L165.6,185.6z M184.6,185
			c-0.9-0.5-0.8-1.8,0-2.3l6.5-3.9c0.4-0.2,0.9-0.2,1.3,0l13.2,7.8c0.8,0.5,0.9,1.7,0,2.2l-6.3,4.1c-0.4,0.3-1,0.3-1.4,0L184.6,185z
			 M188.2,179.1l-6.3,4.1c-0.4,0.3-1,0.3-1.4,0l-13.4-8.1c-0.9-0.5-0.8-1.8,0-2.3l5.8-3.9c0.4-0.2,0.9-0.2,1.3,0l13.9,7.8
			C189,177.4,189,178.6,188.2,179.1z M170.5,169l-6.3,4.1c-0.4,0.3-1,0.3-1.4,0l-13.4-8.1c-0.9-0.5-0.8-1.8,0-2.3l6.5-3.9
			c0.4-0.2,0.9-0.2,1.3,0l13.2,7.8C171.3,167.3,171.3,168.5,170.5,169z M153.8,168.7c0.8,0.5,0.9,1.7,0,2.2l-6.3,4.1
			c-0.4,0.3-1,0.3-1.4,0l-13.4-8.1c-0.9-0.5-0.8-1.8,0-2.3l6.5-3.9c0.4-0.2,0.9-0.2,1.3,0L153.8,168.7z M146.7,175.7l13.2,7.8
			c0.8,0.5,0.9,1.7,0,2.2l-6.3,4.1c-0.4,0.3-1,0.3-1.4,0l-13.4-8.1c-0.9-0.5-0.8-1.8,0-2.3l6.5-3.9
			C145.8,175.4,146.3,175.4,146.7,175.7z M156,189.4l6.5-3.9c0.4-0.2,0.9-0.2,1.3,0l13.2,7.8c0.8,0.5,0.9,1.7,0,2.2l-6.3,4.1
			c-0.4,0.3-1,0.3-1.4,0l-13.4-8.1C155.1,191.2,155.1,189.9,156,189.4z M173.7,199.7l6.5-3.9c0.4-0.2,0.9-0.2,1.3,0l13.2,7.8
			c0.8,0.5,0.9,1.7,0,2.2l-6.3,4.1c-0.4,0.3-1,0.3-1.4,0l-13.4-8.1C172.8,201.5,172.8,200.2,173.7,199.7z M185.8,197.1
			c-0.9-0.5-0.8-1.8,0-2.3l6.5-3.9c0.4-0.2,0.9-0.2,1.3,0l13.2,7.8c0.8,0.5,0.9,1.7,0,2.2l-6.3,4.1c-0.4,0.3-1,0.3-1.4,0
			L185.8,197.1z M201.8,195.1c-0.9-0.5-0.8-1.8,0-2.3l6.5-3.9c0.4-0.2,0.9-0.2,1.3,0l13.2,7.8c0.8,0.5,0.9,1.7,0,2.2l-6.3,4.1
			c-0.4,0.3-1,0.3-1.4,0L201.8,195.1z M199.9,174.2l14.2,8.3c0.6,0.3,0.6,1.1,0.1,1.5l-4.1,2.9c-0.3,0.2-0.7,0.2-1,0l-14.4-8.7
			c-0.6-0.4-0.6-1.2,0-1.6l4.3-2.5C199.3,174.1,199.6,174.1,199.9,174.2z M182.3,164.1l14.2,8.3c0.6,0.3,0.6,1.1,0.1,1.5l-4.1,2.9
			c-0.3,0.2-0.7,0.2-1,0l-14.4-8.7c-0.6-0.4-0.6-1.2,0-1.6l4.3-2.5C181.7,164,182,164,182.3,164.1z M164.5,153.8l14.2,8.3
			c0.6,0.3,0.6,1.1,0.1,1.5l-4.1,2.9c-0.3,0.2-0.7,0.2-1,0l-14.4-8.7c-0.6-0.4-0.6-1.2,0-1.6l4.3-2.5
			C163.9,153.6,164.2,153.6,164.5,153.8z M142.3,145.9l4.3-2.5c0.3-0.2,0.6-0.2,0.9,0l14.2,8.3c0.6,0.3,0.6,1.1,0.1,1.5l-4.1,2.9
			c-0.3,0.2-0.7,0.2-1,0l-14.4-8.7C141.7,147.1,141.7,146.3,142.3,145.9z M132.1,152.6l6.5-3.9c0.4-0.2,0.9-0.2,1.3,0l13.2,7.8
			c0.8,0.5,0.9,1.7,0,2.2l-6.3,4.1c-0.4,0.3-1,0.3-1.4,0l-13.4-8.1C131.2,154.3,131.2,153.1,132.1,152.6z M111.7,164.5l16.6-9.6
			c0.2-0.1,0.5-0.1,0.7,0l7.8,4.3c0.5,0.3,0.5,1,0,1.3l-7.2,4.7c-0.5,0.3-0.4,1,0,1.2l12.3,7.5c0.5,0.3,0.5,0.9,0,1.2l-6.4,4.2
			c-0.2,0.2-0.5,0.2-0.8,0l-23.2-13.6C111.2,165.5,111.2,164.8,111.7,164.5z M102.8,169.9l6.5-3.9c0.4-0.2,0.9-0.2,1.3,0l13.2,7.8
			c0.8,0.5,0.9,1.7,0,2.2l-6.3,4.1c-0.4,0.3-1,0.3-1.4,0l-13.4-8.1C101.9,171.7,102,170.5,102.8,169.9z M164.6,217.7l-15.2,9.9
			c-0.6,0.4-1.4,0.4-2,0l-41.1-24c-1.3-0.7-1.3-2.6,0-3.3l14.9-8.9c0.6-0.3,1.3-0.4,1.9,0l41.4,23
			C165.7,215.1,165.8,216.9,164.6,217.7z M168.7,210.4l-49.7-28.7c-0.5-0.3-0.5-1-0.1-1.3l6.2-4.5c0.2-0.2,0.6-0.2,0.8,0l49.9,28.5
			c0.5,0.3,0.5,1,0.1,1.3l-6.5,4.6C169.3,210.5,169,210.5,168.7,210.4z M187.5,220.9c-0.4,0.3-1,0.3-1.4,0l-13.4-8.1
			c-0.9-0.5-0.8-1.8,0-2.3l6.5-3.9c0.4-0.2,0.9-0.2,1.3,0l13.2,7.8c0.8,0.5,0.9,1.7,0,2.2L187.5,220.9z M212.1,227.5l-6.3,4.1
			c-0.4,0.3-1,0.3-1.4,0l-14.8-8.8c-0.9-0.5-0.8-1.8,0-2.3l6.5-3.9c0.4-0.2,0.9-0.2,1.3,0l14.6,8.5
			C212.9,225.7,212.9,226.9,212.1,227.5z M221.7,221l-6.5,4.5c-0.2,0.2-0.5,0.2-0.8,0l-23.3-14c-0.5-0.3-0.5-1,0-1.2l6.6-4.2
			c0.2-0.1,0.5-0.2,0.8,0l23.3,13.7C222.1,220.1,222.1,220.7,221.7,221z M231.2,216l-6.3,4.1c-0.4,0.3-1,0.3-1.4,0L203,207.8
			c-0.9-0.5-0.8-1.8,0-2.3l6.5-3.9c0.4-0.2,0.9-0.2,1.3,0l20.3,12.1C232,214.3,232,215.5,231.2,216z M240.6,209.8l-6.3,4.1
			c-0.4,0.3-1,0.3-1.4,0l-13.4-8.1c-0.9-0.5-0.8-1.8,0-2.3l6.5-3.9c0.4-0.2,0.9-0.2,1.3,0l13.2,7.8
			C241.3,208.1,241.4,209.3,240.6,209.8z M249.5,204.5l-4.1,2.9c-0.3,0.2-0.7,0.2-1,0l-14.4-8.7c-0.6-0.4-0.6-1.2,0-1.6l4.3-2.5
			c0.3-0.2,0.6-0.2,0.9,0l14.2,8.3C250,203.3,250,204.1,249.5,204.5z"/>
	</g>
</g>
<g id="naranja">
	<path class="st8" d="M317.2,110.1l-0.5-35.5c-0.3-2.8,0-4.5-6.2-8c0,0-40.2-24-44.1-26.1c-2.8-2.1-5.6,0.1-5.6,0.1l-7.6,4.9
		c2.7-0.3,6.4,2.1,6.4,2.1l42.9,24.9c0,0,5.6,2.3,5.6,8.9c-0.5,10.6,0.8,36.6-0.8,38.9c-0.8,0.9,7.6-3.4,7.6-3.4
		C318.4,115.3,316.9,112.5,317.2,110.1z"/>
	<g>
		<path class="st8" d="M168.7,113.3c0.1,1.6,1.3,10.5-6.8,9.3c0,0-16.3-6.1-14.5-30.1c0,0,2.6-7.3,10.2-2.9c0,0,2.7,1.9,4.1-2.8
			c0,0-3.6-7.5-14.1-3.1c0,0-11.2,7.5-4,26c0.1,0.1,0.1,0.3,0.2,0.4c7.6,18.8,20.2,18.9,20.2,18.9s11.8-0.9,10.9-15.4
			C175,113.6,172.2,107.7,168.7,113.3z"/>
		<polygon class="st8" points="222.6,94.8 222.5,73.7 144,28.5 137.1,32 215.9,77.5 215.9,98.4 		"/>
	</g>
	<polygon class="st8" points="327,193 312.6,202.3 312,257.1 327.7,247.5 	"/>
	<path class="st8" d="M204.8,249c-0.5-7.7-2.8-8.4-2.8-8.4c-8.8-5.1-13.2,1.8-13.2,1.8c-2.2,7.2,1.5,7.9,1.5,7.9
		c3.8-1.1,4.6-2,4.6-2c0.1,4.9,5.3,3.3,5.3,3.3l-0.3,8.8l1.9,0.3c0.9-0.2,4.6,2.7,4.6,2.7c0.1-3.2-1.3-8.2-1.3-8.2
		C203.5,252.3,204.8,249,204.8,249z"/>
	<path class="st8" d="M99,231.5c-1.4-2.2-3.4-0.3-3.4-0.3s-6.3,3.9-8.4,5.2c-2.1,1.3-2.4-1.4-2.4-1.4l-6-26.7
		c-2-4.3-4.6-2.4-4.6-2.4l-10.1,5.8c-1.6,1.6-2.4-0.1-2.4-0.1l-7.3-11.3c-0.2-0.2-0.4-0.6-0.8-1.1c-2.5-3.4-7.5-1.2-7.5-1.2
		L33.8,205c3.5-0.1,4.6,0.8,4.6,0.8l9.7,14.6c2.2,2.3,4.2,0.1,4.2,0.1c4.1-5.2,5.6-6.5,5.6-6.5c4.4-2.9,6.7,2.3,6.7,2.3l3.9,16.5
		c-0.3,1.5,2.1,10.6,2.1,10.6c1.2,3.5,2.7,3.5,2.7,3.5l5.4-6.6l0.8-1.2c2.9-2.7,5.1,0.3,5.1,0.3l7,8.1c6.1,3.5,7.7-1.7,7.7-1.7h2.4
		l9.9-5.7C106.1,243,99,231.5,99,231.5z"/>
	<path class="st8" d="M53.6,198.9l0.8,1.3C55.4,201.4,53.6,198.9,53.6,198.9z"/>
	<path class="st8" d="M83.1,173.9l-0.3-21.5c-0.1-2.8-3.9-3.2-3.9-3.2c-1.3,0.7-1.8,0.7-1.8,0.7l0.1,0.9c-1.5,1.6-6.4,1.2-6.4,1.2
		c-1.7-0.3-2.9,2.1-2.9,2.1c3.2-1.3,4.2,3.5,4.2,3.5v6.7c0,8.4-4.8,7.9-4.8,7.9l-0.1,3.2C75.1,181.9,83.1,173.9,83.1,173.9z"/>
</g>
<g id="verde_c">
	<g>
		<path class="st9" d="M51.9,167.2c0.3,0.1,0.7,0.1,1.1-0.1l-0.4,0.2l0.1,2.1l5,3.1c0,0,0.5,0,0.7,0.3l2.5,0.6l1.4-1.1l-2.2-0.1
			l-3.6-1.3c0,0-0.2-0.1-0.1-0.3c0,0-1.2-4.5,2.9-4.6c0,0,1.9,0.9,2.3,1.6l4.1,0.5l0.2-2.3l-2.5-0.1c0,0-2.1-2.4,0.3-3.6
			c0,0,0.7,0.3,1.1-0.3c0,0,1.1-0.5,1.3,0l0.1,0l-1.6-1.2l-0.1,0.1c0.4-0.3,0.6-0.7,0.6-1.2l-0.1-6.2c0-1-1.1-1.6-2-1.2l-11.4,6.1
			c-0.5,0.2-0.7,0.7-0.7,1.2L51,166C51.1,166.6,51.4,167,51.9,167.2z M57.8,164.3l-2,1.2l-2.7,1.6l0,0L57.8,164.3z"/>
		<path class="st9" d="M263.2,110.7c-3.3,0.1-2.4-0.6-2.4-0.6l4.3-8.7l-11.5-6.8l-26.9,19.2l18.3,10.6L263.2,110.7z"/>
		<polygon class="st9" points="304.7,221.8 291.6,213.9 276.2,222.8 290.3,231.1 		"/>
		<path class="st9" d="M27.7,229.3c0,0-1.7,0.5-1.8,0.8l1.8,1.2L27.7,229.3z"/>
		<path class="st9" d="M196.6,264.4c-1.9-0.3-1.7-4.2-1.7-4.2l-0.5-0.1l0.2,14.3l5.7-9.9l-0.2-4.1
			C198.4,264.5,196.6,264.4,196.6,264.4z"/>
		<path class="st9" d="M114.8,257.2l0.2,12.4l-14.9,8.4l-72.5-41.7l0-1.7l-5-3.2c-10.4,6.1-2.1,13.5-2.1,13.5l66.8,38.9
			c4.5,3.5,12.9,0.3,12.9,0.3l24.8-14.4C128.6,261.4,114.8,257.2,114.8,257.2z"/>
		<path class="st9" d="M115.1,91.2L115,54.9c-4.2-27.9-17.4-33-17.4-33c-14.8-6.2-22.5,30.9-22.5,30.9s-0.6,39.3-0.8,41.6
			c0,0.2-0.1,0.3,0,0.5c0.5,1.8,7.1,5.7,7.1,5.7c23.4,5.5,32.2-6.8,33.5-9l0.5,3.9c5.5,3.9,5.2,6.1,5.2,6.1l0.2,19.1l-1.3,1.9
			l-8.2-13.1c-24.6,17.1-35.7-1.1-35.7-1.1l-8.8,13.2l-1.3-2.7l0.2-16.4c0.4-2.8,3.7-6,3.7-6c-4.4,1.6-10.4,7.5-10.4,7.5
			c-17.5,17,8.4,30.2,8.4,30.2c6.9-7,13.6,3,13.6,3c17.8,1.5,33.3-4.1,33.3-4.1c27.4-10.2,21.3-28.1,21.3-28.1
			C132.2,94.4,117.2,91.5,115.1,91.2z"/>
	</g>
	<path class="st1" d="M190.6,255.7l-0.4-0.3l-0.2,0.1l-7.2-0.2c0,0,5.6,4.3,4.4,10.9l5-6.7C192.3,259.5,193.3,255.4,190.6,255.7z"/>
	<ellipse transform="matrix(0.9276 -0.3735 0.3735 0.9276 -84.7782 86.9733)" class="st1" cx="182" cy="262.3" rx="3.3" ry="5.3"/>
</g>
<g id="oscuro">
	<path class="st10" d="M277.1,109.5l-3.9-0.8l0.5,68.3l-8.8,6.5l-0.1-41.4c0,0,0.7-5.2-2.5-7.2c-4.7-4.3-64-37.8-64-37.8
		s58,33.4,62.7,36.9c4.7,3.5,3.7,8.7,3.7,8.7l0.2,46.6l13.1,8.3L277.1,109.5z"/>
	<path class="st10" d="M156.5,20.2L250,73.7l0.2-5.8l-81.3-47.3c0,0-11-6.9-12.7-6.7c0,0-2.4,0.6-2.5,4.5l-0.6,15.2l3.3,2
		L156.5,20.2z"/>
	<path class="st10" d="M155.6,82.5l0.2-18.5l-3.5-1.9l-0.1,20.2C152.2,82.4,155.5,82.3,155.6,82.5z"/>
	<path class="st10" d="M155.4,96.4l0.1-7.7c0,0-1.1-0.6-3.2-0.6l-0.1,10.4C152.2,98.4,153.5,96.4,155.4,96.4z"/>
	<path class="st10" d="M152.2,114.3l2.8,3.6l0.1-6.6c0,0-2.4-2.3-2.9-4.3V114.3z"/>
	<g>
		<path class="st10" d="M67.8,154.1c-1.9,1.7-1.4,4.6-1.4,4.6l-0.5,6.9l-0.2,2.3l-4.1-0.5c-2.9,1.4-1.5,4.6-1.5,4.6l7.1,0.2
			c4.6,0.2,4.8-7.1,4.8-7.1l0-7.7C70.7,152.6,67.8,154.1,67.8,154.1z"/>
		<path class="st10" d="M64.2,159.3l-0.1-5.4c0-0.9-0.9-1.4-1.7-1l-9.8,5.2c-0.4,0.2-0.6,0.6-0.6,1.1l0.2,5.9c0,0.9,1,1.4,1.7,1
			l9.8-5.7C64,160.1,64.2,159.7,64.2,159.3z"/>
		<g>
			<path class="st10" d="M195,95.8c1.8,0.2,3.2,1.4,3.2,1.4S196.9,96,195,95.8z"/>
			<ellipse transform="matrix(0.3827 -0.9239 0.9239 0.3827 -1.4726 126.5581)" class="st10" cx="94" cy="64.4" rx="6.4" ry="6.4"/>
			<path class="st10" d="M40.7,124.5l-2.3-2.7c0,0-2,1.2-3.5-0.4v3.3l0.9,0.1V124c0,0,2.4,3.2,3.5,3.2
				C39.3,127.2,42.5,128,40.7,124.5z"/>
			<path class="st10" d="M41.3,119.7c-0.9-0.2-0.7,2.1-0.7,2.1l0.8,0.3c0.3-0.7,0.6,0,0.6,0l0.5,0.5l2.6,2.1
				c2.3,0.4,2.1-0.9,2.1-0.9c-0.1-1.1-3-4.1-3-4.1C42.4,120.2,41.3,119.7,41.3,119.7z"/>
			<g>
				<path class="st9" d="M342.9,243.1l-15.2-9.7l0.1,14.1l-15.7,9.6l-6.7-3.8l0.2,7.2l-15.7,9.6l-6.3-3.8l0.3,8.4l-14.9,8.8l-14.1-8
					l-0.3-15.8l-15.2,9.7c0,0-5.8,2.6-1,10.2l20.5,12.6c0,0,10.9,3.3,16.7-1l65.3-38.5C340.8,252.7,347.9,247.9,342.9,243.1z"/>
				<path class="st9" d="M164.3,214.3l-41.4-23c-0.6-0.3-1.3-0.3-1.9,0l-14.9,8.9c-1.3,0.7-1.3,2.6,0,3.3l41.1,24
					c0.6,0.4,1.4,0.3,2,0l15.2-9.9C165.6,216.8,165.5,215,164.3,214.3z"/>
				<path class="st9" d="M142.5,147.1l14.4,8.7c0.3,0.2,0.7,0.2,1,0l4.1-2.9c0.5-0.4,0.5-1.2-0.1-1.5l-14.2-8.3
					c-0.3-0.2-0.6-0.2-0.9,0l-4.3,2.5C141.9,145.9,141.9,146.8,142.5,147.1z"/>
				<path class="st9" d="M159.2,157.7l14.4,8.7c0.3,0.2,0.7,0.2,1,0l4.1-2.9c0.5-0.4,0.5-1.2-0.1-1.5l-14.2-8.3
					c-0.3-0.2-0.6-0.2-0.9,0l-4.3,2.5C158.6,156.5,158.6,157.3,159.2,157.7z"/>
				<path class="st9" d="M177,168.2l14.4,8.7c0.3,0.2,0.7,0.2,1,0l4.1-2.9c0.5-0.4,0.5-1.2-0.1-1.5l-14.2-8.3
					c-0.3-0.2-0.6-0.2-0.9,0l-4.3,2.5C176.4,167,176.4,167.8,177,168.2z"/>
				<path class="st9" d="M194.5,178.3l14.4,8.7c0.3,0.2,0.7,0.2,1,0l4.1-2.9c0.5-0.4,0.5-1.2-0.1-1.5l-14.2-8.3
					c-0.3-0.2-0.6-0.2-0.9,0l-4.3,2.5C193.9,177.1,193.9,177.9,194.5,178.3z"/>
				<path class="st9" d="M212.2,188.3l14.4,8.7c0.3,0.2,0.7,0.2,1,0l4.1-2.9c0.5-0.4,0.5-1.2-0.1-1.5l-14.2-8.3
					c-0.3-0.2-0.6-0.2-0.9,0l-4.3,2.5C211.6,187.1,211.6,187.9,212.2,188.3z"/>
				<path class="st9" d="M230.1,198.8l14.4,8.7c0.3,0.2,0.7,0.2,1,0l4.1-2.9c0.5-0.4,0.5-1.2-0.1-1.5l-14.2-8.3
					c-0.3-0.2-0.6-0.2-0.9,0l-4.3,2.5C229.5,197.5,229.5,198.4,230.1,198.8z"/>
				<path class="st9" d="M132.3,154.8l13.4,8.1c0.4,0.3,1,0.3,1.4,0l6.3-4.1c0.8-0.5,0.8-1.7,0-2.2l-13.2-7.8
					c-0.4-0.2-0.9-0.2-1.3,0l-6.5,3.9C131.4,153.1,131.4,154.3,132.3,154.8z"/>
				<path class="st9" d="M170.7,166.6l-13.2-7.8c-0.4-0.2-0.9-0.2-1.3,0l-6.5,3.9c-0.9,0.5-0.9,1.8,0,2.3L163,173
					c0.4,0.3,1,0.3,1.4,0l6.3-4.1C171.5,168.3,171.5,167.1,170.7,166.6z"/>
				<path class="st9" d="M139.2,160.8l-6.5,3.9c-0.9,0.5-0.9,1.8,0,2.3l13.4,8.1c0.4,0.3,1,0.3,1.4,0l6.3-4.1c0.8-0.5,0.8-1.7,0-2.2
					l-13.2-7.8C140.2,160.6,139.6,160.6,139.2,160.8z"/>
				<path class="st9" d="M171.9,179l-13.2-7.8c-0.4-0.2-0.9-0.2-1.3,0l-6.5,3.9c-0.9,0.5-0.9,1.8,0,2.3l13.4,8.1
					c0.4,0.3,1,0.3,1.4,0l6.3-4.1C172.7,180.7,172.7,179.5,171.9,179z"/>
				<path class="st9" d="M168.3,187.4l13.4,8.1c0.4,0.3,1,0.3,1.4,0l6.3-4.1c0.8-0.5,0.8-1.7,0-2.2l-13.2-7.8
					c-0.4-0.2-0.9-0.2-1.3,0l-6.5,3.9C167.4,185.6,167.4,186.9,168.3,187.4z"/>
				<path class="st9" d="M200.7,204.9l6.3-4.1c0.8-0.5,0.8-1.7,0-2.2l-13.2-7.8c-0.4-0.2-0.9-0.2-1.3,0l-6.5,3.9
					c-0.9,0.5-0.9,1.8,0,2.3l13.4,8.1C199.7,205.2,200.3,205.2,200.7,204.9z"/>
				<path class="st9" d="M173.9,201.8l13.4,8.1c0.4,0.3,1,0.3,1.4,0l6.3-4.1c0.8-0.5,0.8-1.7,0-2.2l-13.2-7.8
					c-0.4-0.2-0.9-0.2-1.3,0l-6.5,3.9C173,200.1,173,201.3,173.9,201.8z"/>
				<path class="st9" d="M193.7,214.3l-13.2-7.8c-0.4-0.2-0.9-0.2-1.3,0l-6.5,3.9c-0.9,0.5-0.9,1.8,0,2.3l13.4,8.1
					c0.4,0.3,1,0.3,1.4,0l6.3-4.1C194.6,216,194.6,214.8,193.7,214.3z"/>
				<path class="st9" d="M212,225.2l-14.6-8.5c-0.4-0.2-0.9-0.2-1.3,0l-6.5,3.9c-0.9,0.5-0.9,1.8,0,2.3l14.8,8.8
					c0.4,0.3,1,0.3,1.4,0l6.3-4.1C212.9,226.9,212.8,225.7,212,225.2z"/>
				<path class="st9" d="M156.2,191.6l13.4,8.1c0.4,0.3,1,0.3,1.4,0l6.3-4.1c0.8-0.5,0.8-1.7,0-2.2l-13.2-7.8
					c-0.4-0.2-0.9-0.2-1.3,0l-6.5,3.9C155.3,189.8,155.3,191.1,156.2,191.6z"/>
				<path class="st9" d="M139.1,181.6l13.4,8.1c0.4,0.3,1,0.3,1.4,0l6.3-4.1c0.8-0.5,0.8-1.7,0-2.2l-13.2-7.8
					c-0.4-0.2-0.9-0.2-1.3,0l-6.5,3.9C138.3,179.9,138.3,181.1,139.1,181.6z"/>
				<path class="st9" d="M117.3,179.8l6.3-4.1c0.8-0.5,0.8-1.7,0-2.2l-13.2-7.8c-0.4-0.2-0.9-0.2-1.3,0l-6.5,3.9
					c-0.9,0.5-0.9,1.8,0,2.3l13.4,8.1C116.4,180.1,116.9,180,117.3,179.8z"/>
				<path class="st9" d="M231,213.5l-20.3-12.1c-0.4-0.2-0.9-0.2-1.3,0l-6.5,3.9c-0.9,0.5-0.9,1.8,0,2.3l20.6,12.4
					c0.4,0.3,1,0.3,1.4,0l6.3-4.1C231.9,215.2,231.8,214,231,213.5z"/>
				<path class="st9" d="M187.8,176.8L174,169c-0.4-0.2-0.9-0.2-1.3,0l-5.8,3.9c-0.9,0.5-0.9,1.8,0,2.3l13.4,8.1
					c0.4,0.3,1,0.3,1.4,0l6.3-4.1C188.7,178.5,188.7,177.3,187.8,176.8z"/>
				<path class="st9" d="M199.5,192.8l6.3-4.1c0.8-0.5,0.8-1.7,0-2.2l-13.2-7.8c-0.4-0.2-0.9-0.2-1.3,0l-6.5,3.9
					c-0.9,0.5-0.9,1.8,0,2.3l13.4,8.1C198.5,193.1,199.1,193,199.5,192.8z"/>
				<path class="st9" d="M216.2,203l6.3-4.1c0.8-0.5,0.8-1.7,0-2.2l-13.2-7.8c-0.4-0.2-0.9-0.2-1.3,0l-6.5,3.9
					c-0.9,0.5-0.9,1.8,0,2.3l13.4,8.1C215.2,203.3,215.8,203.3,216.2,203z"/>
				<path class="st9" d="M240.6,207.4l-13.2-7.8c-0.4-0.2-0.9-0.2-1.3,0l-6.5,3.9c-0.9,0.5-0.9,1.8,0,2.3l13.4,8.1
					c0.4,0.3,1,0.3,1.4,0l6.3-4.1C241.5,209.1,241.4,207.9,240.6,207.4z"/>
				<path class="st9" d="M111.8,165.8l23.2,13.6c0.2,0.1,0.5,0.1,0.8,0l6.4-4.2c0.5-0.3,0.4-1,0-1.2l-12.3-7.5
					c-0.5-0.3-0.5-0.9,0-1.2l7.2-4.7c0.5-0.3,0.4-1,0-1.3l-7.8-4.3c-0.2-0.1-0.5-0.1-0.7,0l-16.6,9.6
					C111.3,164.8,111.3,165.5,111.8,165.8z"/>
				<path class="st9" d="M176,204.3l-49.9-28.5c-0.3-0.1-0.6-0.1-0.8,0l-6.2,4.5c-0.5,0.3-0.4,1,0.1,1.3l49.7,28.7
					c0.3,0.2,0.6,0.1,0.8,0l6.5-4.6C176.6,205.2,176.5,204.5,176,204.3z"/>
				<path class="st9" d="M221.4,219.7L198.1,206c-0.2-0.1-0.5-0.1-0.8,0l-6.6,4.2c-0.5,0.3-0.5,1,0,1.2l23.3,14
					c0.2,0.1,0.6,0.1,0.8,0l6.5-4.5C221.8,220.6,221.8,219.9,221.4,219.7z"/>
			</g>
			<path class="st10" d="M278.2,197.6l-1.1-0.6L202,240.6c2.7,2.1,2.7,8.7,2.7,8.7l69.5-41C280,204.7,278.2,197.6,278.2,197.6z"/>
			<path class="st10" d="M190.3,250.3c-1.6-0.4-2-2.4-2-2.4l-6.7,4.2c-11.1,2.4-15.2-3.1-15.2-3.1L58.6,186.7l-1.6-2.2
				c-2.5,12.9,17.2,21.3,17.2,21.3c2.8-1.8,4.6,2.4,4.6,2.4l86.2,49.8c8.6,5.7,12.5,4.4,12.5,4.4c-1.3-3.3-0.1-6.7-0.1-6.7
				c2.7-3.2,5.5-0.6,5.5-0.6l7.2,0.2L190.3,250.3z"/>
			<polygon class="st10" points="254.5,250.3 254.8,275.3 262.6,279.3 262.6,279.5 268.9,283.3 268.6,258.6 			"/>
			<path class="st10" d="M206.5,263.3c-4.1-3-4.6-2.7-4.6-2.7l-1.9-0.3l0.2,4.1l-5.7,9.9l-0.2-14.3c-2.1-0.2-4.5,3.3-4.5,3.3
				l2.1,3.2c1.5,5.3-2.3,5.9-2.3,5.9c-3.4,0.4-3.9-2.2-3.9-2.2c-1.3,0.9-2.5,11.4-2.5,11.4c1.1,5,4,1.8,4,1.8l2.5-3.4
				c1,0.7,1.8,4.4,1.8,4.4c-3.3,3.6-3.5,10.3-3.5,10.3c3.7,10.7,6.7,3.5,6.7,3.5c0.5-1.2,1.1-0.3,1.1-0.3
				c3.5,10.1,13.7,1.1,13.7,1.1c0.8-1.2,0.1-5.9,0.1-5.9l-1.8,0.3c-3.8-0.6-2.5-3.9-2.5-3.9c0-0.9,2.3-2.4,2.3-2.4l-0.9-1.6l0.5-7.6
				c-0.1-2.6,1.5-0.9,1.5-0.9l2.8,3.5c1.3,1.1,0.3,2.1,0.3,2.1l-3.3,4.4c2.1,0.6,2.5,3.8,2.5,3.8l5.6-6.8c1.6-4.2-1.3-7.4-1.3-7.4
				C214.8,273.6,206.5,263.3,206.5,263.3z"/>
			<path class="st10" d="M100.9,246c0.2,2.6-1.3,3.1-1.3,3.1l-0.1,29.1l15.6-8.7l-0.2-31.5L100.9,246z"/>
			<path class="st10" d="M34.1,62.3c0,0-1-2.6,0.6-1.9c0,0,1.3,0.8,2.1-1.1c0,0,4.3-5,6.1-2.8c0,0,1.1-5.3-7.4-4.1
				c0,0-4.7,2.2-3.5,7.1l-0.8,8.5c0,0,2.8-2,3.7-1.2l0.1-4L34.1,62.3z"/>
			<path class="st10" d="M49.6,74.4l-7.5-0.3v7.5l3.3,0.2c0,0,2.5,4.4-3.6,4.7l0,2.4l7.5-2.4L49.6,74.4z"/>
			<path class="st10" d="M75.8,97.9c0.1-1.5-1.3-0.9-1.3-0.9l-7,6.8l-0.2,18l8.6-13.3L75.8,97.9z"/>
			<path class="st10" d="M111.6,109.5l8.2,13.1l-0.3-19.1l-7.2-6.9c-1.4-0.4-1.1,1-1.1,1L111.6,109.5z"/>
			<path class="st10" d="M47.1,190.4c0,0-4.8-3.7-8.1-0.9l0.1,1.1l9.4,6.6c0,0,2.1,0.1,2.5,0.1l0.6-2.5c0,0-2.3-2.1-4.4-4.1
				L47.1,190.4z"/>
			<path class="st10" d="M188.7,159.1l65,37.3c3.2,1.3,4.6,1.5,4.6,1.5c2-0.7,1.7-3.1,1.7-3.1l0.2-51.8c0.4-4.3-1.9-5.9-1.9-5.9
				l-63.8-37c-2.1-1.3-3.5-1.5-4.3-1.2c1.7-2.5,3.5-3.2,4.9-3.1c-1.6-0.2-3.6,0.3-5,3.1c-1.8,0.6-1.3,3.6-1.3,3.6l0,38.8l0-0.1
				l-23-12.5c0,0-6.1,1.3-13.6-5.5l0,2.6l36.6,21L188.7,159.1z M253.5,144.5h1.5v43.4h-1.5V144.5z M194.5,110.1h1.5v24.1
				c0.7,0,3.4-0.2,4.6-1.6l5.7-8c0,0,2.2-3.5,4.7-2v-2.9h1.5v4.6c0.3,0.4,0.5,0.9,0.8,1.5l10.6,30.1c0,0,5.6,10.2,11.9,6.9v-30.5
				h1.5v29.5c0.8-0.7,1.5-1.5,2.3-2.7c0,0,3-13.3,11-6.4l2.8,2l-0.1,27.8l-16-9.4v2.7h-1.5v-3.5l-23.3-13.7v4.7h-1.5v-5.6l-14.9-8.8
				v4.8h-1.5V110.1z"/>
		</g>
	</g>
</g>
<g id="v_x5F_oscu">
	<g>
		<g>
			<g>
				<g>
					<path class="st11" d="M44.9,68.6c-2.1-3.8-3.6-3.4-3.6-3.4l3.3,5.8v2.7l0.7,0l1.9-0.9L44.9,68.6z"/>
					<path class="st11" d="M41.1,93.5c0,0-1.2-1.2-1.6,0.7c0,0-0.3,1.5-0.1,2.3c0,0-1.1,3.1-5.8,1.1l-2.4-1.2l0.2,9.8
						c0,0,12,1.4,13.6-2.7V93.5C45,93.5,43.8,95.1,41.1,93.5z"/>
				</g>
				<path class="st11" d="M34.8,87.9l7-1.6l-0.5-3.5l-6.2,0c0,0-1.2-14.9-7.3-12.8c0,0-1,6.5,3.4,15.1C31.3,85.2,32,87.9,34.8,87.9z
					"/>
			</g>
			<g>
				<path class="st11" d="M67.8,133.7c0,0-10.1-5-14.2-15.3c0,0-0.6,9.7,0.9,12.2c0,0,5.7,9,13.3,11.2l0.6-2.8l-0.5-0.7L67.8,133.7z
					"/>
				<g>
					<path class="st11" d="M102.8,63c-0.5-4.1-3.8-7.3-7.8-7.8c-5.9-0.7-11,4.3-10.2,10.2c0.5,4.1,3.8,7.3,7.8,7.8
						C98.5,74,103.5,69,102.8,63z M88.9,69.1c-5.2-6.8,2.5-14.6,9.4-9.4C103.5,66.5,95.8,74.3,88.9,69.1z"/>
					<g>
						<path class="st11" d="M343.8,250c0,0-2.2,2.3-3,2.8l-65.3,38.5c0,0-5.5,4.4-16.7,1l-20.5-12.6c0,0-2.2-3.6-1.9-5.1
							c0,0-0.7,3.7-0.4,10l22.1,14.2c0,0,9.3,4.1,17.4-0.3l68.2-39.9C343.6,258.5,346.2,257.5,343.8,250z"/>
						<g>
							<polygon class="st11" points="304.7,221.8 290.3,231.1 289.8,270.2 305.5,260.6 							"/>
							<path class="st11" d="M20.7,204.8l10.6,6.7c0.6,0.4,1.4,0.2,1.8-0.5l0.1-0.1c0.4-0.7,0.2-1.5-0.5-1.9l-10.7-6.6
								c-0.6-0.4-1.4-0.1-1.8,0.5C19.9,203.5,20.1,204.4,20.7,204.8z"/>
							<path class="st11" d="M32.9,222.2l-10.7-6.6c-0.6-0.4-1.4-0.1-1.8,0.5c-0.4,0.6-0.2,1.5,0.5,1.9l10.6,6.7
								c0.6,0.4,1.4,0.2,1.8-0.5l0.1-0.1C33.8,223.4,33.6,222.5,32.9,222.2z"/>
							<path class="st11" d="M33,234.5l-10.7-6.6c-0.6-0.4-1.4-0.1-1.8,0.5c-0.4,0.6-0.2,1.5,0.5,1.9l10.6,6.7
								c0.6,0.4,1.4,0.2,1.8-0.5l0.1-0.1C33.9,235.8,33.7,234.9,33,234.5z"/>
							<path class="st11" d="M98,284.8c-5.2,1.8-9.9-0.4-9.9-0.4l-65.2-38c-4.4-2.1-5.3-5.9-5.3-5.9v6.7c-0.5,3.4,3.5,5.1,3.5,5.1
								L88.9,291c5.2,2.3,11,0.6,11,0.6l25.2-14.9c1.7-1.5,0.4-7.9,0.4-7.9C124.9,270.8,98,284.8,98,284.8z"/>
						</g>
						<path class="st11" d="M128.1,125.3c-17.7,14-46.7,11.4-46.7,11.4c0,1.4,0.2,8.5,0.2,8.5l18.7-0.8
							c28.8-5.6,34.2-18.6,34.2-18.6c4.2-5.2,1.9-15.3,1.9-15.3C135.8,118.5,128.1,125.3,128.1,125.3z"/>
					</g>
				</g>
			</g>
		</g>
		<path class="st11" d="M273.1,107.8l-12.3,2c0.3,0.1,0.9,0.2,2.3,0.2l-18.1,13.6c8.5,5.1,14.7,8.8,14.7,8.8s5.2,2.7,5.1,6.9
			c0,2-0.1,42.6-0.1,42.6l1,0.7l7.8-6.3L273.1,107.8z"/>
		<path class="st11" d="M249.6,85.6c0-7.5,0.3-12.4,0.3-12.4l-93.5-53.6l-0.2,15.7l66.1,38l0.1,21.1l-6.7,3.6l-59.8-34.1L155.5,82
			c4.3,0.9,6,4.3,6,4.3c-0.1,0.3-0.2,0.6-0.3,0.8c11.5,8,11.9,23.8,11.9,23.9c1,0.8,1.6,2.1,1.6,2.1c0.7,10.9-5.8,14.1-9.1,15.1
			l22.8,12.4l0.2-39.4c0,0,0.1-1.1,1-2.7c1.4-2.3,4.2-5.2,7.6-2.7c1.5,0.4,15.3,8.5,29.5,16.9l26.6-18.9
			C251.5,92.2,249.6,89.5,249.6,85.6z"/>
		<path class="st11" d="M168.7,112.8c0.5-0.9,1.1-1.5,1.6-1.9c-1.2-13.6-9.9-21.1-10.6-21.7c-1.1,0.5-2.1-0.2-2.1-0.2
			c-0.7-0.4-1.3-0.7-1.9-0.9l-0.1,7.7c2.8-0.3,6.2,1.9,8.1,5.7c2.2,4.5,1.6,9.3-1.5,10.9c-2.1,1-4.7,0.3-6.9-1.6l-0.1,6.6
			c3.4,3.4,6.7,4.7,6.7,4.7C170,123.3,168.8,114.4,168.7,112.8z"/>
	</g>
</g>
</svg>
