<?xml version="1.0" encoding="utf-8"?>
<!-- Generator: Adobe Illustrator 25.2.3, SVG Export Plug-In . SVG Version: 6.00 Build 0)  -->
<svg version="1.1" id="Layer_1" xmlns="http://www.w3.org/2000/svg" xmlns:xlink="http://www.w3.org/1999/xlink" x="0px" y="0px"
	 viewBox="0 0 356 356" style="enable-background:new 0 0 356 356;" xml:space="preserve">
<style type="text/css">
	.st0{opacity:0.17;fill:#BF85B9;}
	.st1{opacity:0.21;fill:#BF85B9;}
	.st2{opacity:8.000000e-02;fill:#BF85B9;}
	.st3{fill:#763975;}
	.st4{fill:#4A2347;}
	.st5{opacity:0.25;fill:#BF85B9;}
	.st6{fill:#78C3A9;}
	.st7{fill:#F08561;}
	.st8{fill:#BBDED2;}
	.st9{fill:#F4A090;}
</style>
<g>
	<path class="st0" d="M159.6,185.3l-0.2-1.2l0,1.8C159.6,185.7,159.6,185.3,159.6,185.3z"/>
	<path class="st0" d="M158.1,186.6l0.2,0.7c0,0,0.1,0.5,0.9,0.3l0.1,0l0-1.7c-0.1,0-0.1,0.1-0.2,0.1
		C159.1,186,158.3,185.9,158.1,186.6z"/>
	<path class="st0" d="M178,221.3l-18.7-11l-0.1-16.9l-0.5,0.6c0,0-0.3,0.1-0.6,0l-0.4,0.4c0,0-0.5,0.1-0.6,0l-0.3-0.2
		c0,0,0.1,0.6-0.5,0.7l-0.7,0c0,0,0.1,0.4-0.4,0.6l-1.2,0c0,0-0.4-0.1-0.5-0.6l0-0.6c0,0,0-0.3-0.1-0.4c0,0-0.1,0.2-0.4,0.2
		l-0.5-0.2l-0.1,0.3c0,0-0.2,0.6-0.8,0.4l-0.9-0.4c0,0-0.8-0.2-0.6-0.8l0.2-0.5c0,0-5.4,1-9.3-0.7c0,0,4.2-0.8,1.4-7.9l0.2-0.2l0,0
		l1.9-1.4c0,0-0.7-0.3-0.6-0.8l0.1-1.2c0,0,0.1-0.7,0.8-0.5l1,0.3l0.1-0.8c0,0,0.1-0.2-0.8-0.8c0,0-0.6-0.3-0.1-0.9l0.6-0.6
		c0,0,0.3-0.3,0.7-0.1l0.5,0.8l0.8-0.5l-0.5-0.9c0,0-0.3-0.6,0.4-0.8l0.7-0.3l0.2,0l0.9-0.4c0,0,0.5-0.2,0.7,0.6
		c0.2,0.8,0.4,1.2,0.7,1.2c0,0,0.2-0.6,0.8-0.3l0.2,0.1c0,0,0.2-0.9,0.9-0.6l1,0.6c0,0,0.4,0.3,0.1,0.8c0,0-0.4,0.5,0,0.9l0.4,0.4
		c0,0,0.1-0.2,0.6-0.1l0.5-0.3c0,0,0.3-0.3,0.7,0c0,0,0.1,0,0.1,0.1l1.2,1.4c0,0,0.4,0.4,0,0.8c0,0-0.8,0.3-0.6,0.9
		c0.2,0.6,0.7,1.3,0.7,1.3s0.4,0.2,0.7,0.1l0.8-0.1c0,0,0.4,0,0.5,0.5l0.1,0.7l0.2-19.5c0,0-0.3,0-0.5-0.2l-2.1-2.1
		c0,0-1-0.8-0.2-1.8l1.2-1.4c0,0,0.5-0.6-0.2-1.6l-1.2-1.9c0,0-0.4-0.6-1.3-0.4l-1.7,0.2c0,0-1.4,0.3-1.6-1.1l-0.9-2.8
		c0,0-0.7-1.4,1-1.7l1.4,0c0,0,0.1-0.6,0.9-0.9l0.2-2.4c0,0,0-0.7-0.8-1l-2.5-0.9c0,0-0.7-0.3-0.6-1.4l0-2.4c0,0,0.1-1.3,1.4-1.1
		l2.3,0.6l0.3-1.3c0,0,0.1-0.7-0.8-1.3l-1.1-0.8c0,0-1.1-0.8,0-1.9l1.1-1.1c0,0,0.5-0.6,1.6,0c0,0,1-1.4,1.8-1.1l-0.4-0.6
		c0,0-0.4-0.7,0.4-1.4c0,0,1.4-0.6,1.8-0.8l0.1,0l0.3-33.4l-2.2-1.3c0,0-27.6,9.5-46.4,35.4c0,0,4.7,6.6,5.6,10.1l3.5,27.9
		c0,0,12.7,3.8,21.8,15.3c0,0,3.2,6.8-1.2,8.1c0,0-4.3,0.8-14.4-3c0,0-3.8-1.2-14.5-7.5c-0.2,0-0.5,1.7-2.4,3.2c0,0-1,63.1-0.8,63.6
		l51.4-11.7L178,221.3z"/>
	<path class="st0" d="M134.3,255.9l-23.7,3.8c0,0,6.7,8.8,7.3,8.9l16.3-6.9C134.3,261.7,141.4,255.8,134.3,255.9z"/>
	<path class="st0" d="M289.3,174.2c0,0-5.9-23.3-10.1-28.8c0,0-0.1,5,0.2,7.1l-16.5,9.5l16.6,9V201l-22.3,13.1l-14-8.5l-0.6,30.3
		c0,0,1.6,0.3,1.6,2.7l0.2,4c0,0,0.3,1.6-1.9,1.8c0,0-0.3,12.7-0.5,12.9l-3-2.1c0,0-0.7,0.1-1.1-0.4l-1,1.3c0,0-1.3,1.2-2.8-0.4
		l-0.3-0.2c0,0,0.4,2.8-1.6,2.7l-1.9,0.1c0,0-0.1,1.4-2,1.4l-2.6,0c0,0-1.5,0-1.6-1.7c0,0,0.1-1.9,0-2.3c-0.1-0.4-0.2,0.1-0.2,0.1
		s-0.5,0.9-2.2,0.2l-0.8-0.3c0,0-0.3,2.4-2.4,1.9l-3.6-1.4c0,0-1.4-0.3-0.9-2.2l0.6-2.1c0,0,0.5-0.9-1.1-2.1l-0.9-0.9
		c0,0-1.7,0.1-1.9-0.3c0,0-2,2-2.4,1.8c0,0-0.9,0.2-1.7-0.8l-27,6.6l-26.6,11.4l-27.5,8.7c0,0,12.7,11.8,27.5,17.6
		c0,0,21.1,9.1,40.7,7.5c0,0,22.6-0.3,42.6-11.4c0,0,20.2-11.9,29.1-23.4c0,0,13.2-15.6,18.3-30.4c0,0,5.9-15.4,7-29.1
		C290.7,206.9,292.8,182.9,289.3,174.2z"/>
</g>
<g>
	<polygon class="st1" points="223.2,245.3 177.3,221.5 160,236.8 179.7,255.9 	"/>
	<g>
		<path class="st2" d="M152.3,186.8c0.9,0.4,0.3,1.7,0.3,1.7c1.8,0.9-0.1,1.9-0.1,1.9v0.2c0.4,0.2,1.3,0.1,1.3,0.1
			c2.7-1.8,1.3-5.5,1.3-5.5l0-0.1c-2.1-5-5.7-4.1-5.7-4.1c-0.3,0.1-0.7,0.9-0.7,0.9s-0.1-0.4-0.1,0c0,0.4-0.3,1.7-0.3,1.7
			L152.3,186.8z"/>
		<g>
			<path class="st2" d="M160.1,47.9c-0.4,0-4.7,1-4.7,1l4.7,2.7V47.9z"/>
			<path class="st2" d="M76.7,109.6l0.6,0.7c0,0,2.5-1.7,3.4-4.5c0,0-2.3-3.7-2.4-10.4l0-0.1l-10.6,14
				C67.7,109.3,72,107.9,76.7,109.6z"/>
		</g>
	</g>
</g>
<g>
	<g>
		<path class="st2" d="M314.3,132.2c0,0-7.9-17.4-15.6-26.4c0,0-2.6,4.4-8.7,9.6c0,0-10.6,12.9-10.9,30.1c0,0,16.7,30,11.4,64.5
			c0,0-3.6,42.5-39.6,69.9c0,0-25.6,22.4-62.8,21.7c0,0-38.5-0.8-62.7-25.4l-5.4,1.8c0,0-9,5.2-15.5,4.4l0.1,1.4l-5.2,0.2
			c0,0-2.6-1.7-0.3-5.7c0,0-2.7-8-4-15.9l-12.6,2.2c0,0-4.2,1-5.4,0.8l-1.3,0.9l-5.8,0.1l0.3-6.2c0,0-2-13.1-1.9-30.7L67.8,172
			l-12.1-22.1c0,0-2.6-3.6-1.4-7.4l2.3-13.5c0,0-17.2,38-14.8,69.1c0,0,0.3,30.4,11.9,57.7c0,0,25.3,67.7,97.1,85.8
			c0,0,71.4,21.3,129.8-34.4c0,0,36.2-31,45-86.1C325.6,221.1,334.5,174.3,314.3,132.2z"/>
		<path class="st2" d="M247.7,101.7c18-17.3,9.3-35.7,9.3-35.7l-10.4-5.6l-2.7,1.5l0.7,37.7L247.7,101.7z"/>
		<path class="st2" d="M99.6,111.8l0.1,7.1l2.7,4.3l0,0.1c5.6,3.2,8.6,7.5,8.6,7.5c3.2-5.6,15.4-16.6,15.4-16.6
			c10.6-10.6,31-18.8,31-18.8l-15.8-9.8c-1.6-0.9-1.3-3-1.3-3l0.9-27.8l-0.5-0.2c-0.5-0.4,0-1,0-1l-0.5,0.2c-0.4,0-0.2-0.1-0.8-0.6
			c-4.9,1.6-16.6,7.1-16.6,7.1c-8.1,3.2-23,14.5-23,14.5c4.6,0.9,7,2.5,7,2.5c5.3,3.9,2.6,10.7,2.6,10.7l-2.4,1.3l0.1,19
			C106.1,111.9,99.6,111.8,99.6,111.8z"/>
	</g>
	<path class="st2" d="M83.5,197.9l1.7,27.3l-5.4,29.2l14.4-2.9c-0.1-1.6-0.6-12.3-0.6-12.3L83.5,197.9z"/>
	<path class="st2" d="M110.7,259.9l-2.4,0.1l-0.1,12.6c-1.8,7.9-7.7,5.9-7.7,5.9c6.4,3.1,8.5-5.9,8.5-5.9l1.6-0.3l-0.1-0.7l7.4-3.1
		C116.1,267,110.7,259.9,110.7,259.9z"/>
</g>
<g>
	<path class="st3" d="M199.5,226.6l0.1,0C199.4,226.5,199.4,226.5,199.5,226.6z"/>
	<path class="st3" d="M233,65.4l-68.6-37c-1.8-1-4.1,0.3-4.1,2.4L160,53.6l74.4,42l0-27.7C234.4,66.9,233.9,65.9,233,65.4z"/>
	<path class="st3" d="M201.9,159.4c0,0.3,0.3,0.5,0.6,0.5l0.8,0c0,0,0.1,0,0.1,0l-1.6-1L201.9,159.4z"/>
	<path class="st3" d="M223.1,183.1l0,1.6C223.1,184.2,223.1,183.6,223.1,183.1z"/>
	<path class="st3" d="M192.9,153.3c-1.4,1.2-1.6,3.8-0.5,6.1c1.3,2.6,3.8,3.9,5.6,3.1c1.3-1.1,1.6-3.5,0.6-5.7
		c-0.1-0.2-0.2-0.4-0.3-0.6C197.2,153.8,194.8,152.6,192.9,153.3z"/>
	<path class="st3" d="M187.9,158.1c-0.1-0.3,0.2-0.7,0.5-0.7l0.2,0c0-0.2,0.3-0.4,0.5-0.4l0.4,0c0,0,0,0,0-0.1l0.1-1
		c0-0.2-0.1-0.5-0.4-0.5l-1.1-0.4c-0.2-0.1-0.4-0.3-0.4-0.5l0-1.4c0-0.4,0.3-0.6,0.7-0.5l0.1,0c0-0.3,0.3-0.6,0.7-0.5l0.5,0.1
		c0,0,0,0,0,0c-0.1,0-0.1,0-0.2-0.1l-10.4-6.3l0.3,2c0.1,0.5-0.3,1.1-0.8,1.1l-0.5,0.1c-0.1,0.4-0.4,0.7-0.8,0.7l-0.3,0
		c0,0.1,0,0.2,0,0.4l0.1,0.9c0.1,0.5,0.5,0.8,1,0.8l1.5-0.1c0.5,0,1,0.4,1,0.9l0.1,1.4L187.9,158.1L187.9,158.1z"/>
	<path class="st3" d="M224.3,148.3l-22.1-13.5l23,14C224.9,148.7,224.6,148.5,224.3,148.3z"/>
	<path class="st3" d="M201.6,134.6c0.2,0.1,0.3,0.1,0.5,0.2C202.1,134.8,201.9,134.7,201.6,134.6z"/>
	<path class="st3" d="M201,134.5c0.2,0,0.3,0,0.5,0.1C201.4,134.5,201.2,134.5,201,134.5z"/>
	<path class="st3" d="M201.6,134.6C201.6,134.6,201.6,134.6,201.6,134.6C201.6,134.6,201.6,134.6,201.6,134.6z"/>
	<path class="st3" d="M166.4,116.4c0.4-0.6,0.8-0.9,1.2-1.1C167.1,115.5,166.6,115.9,166.4,116.4z"/>
	<path class="st3" d="M200.6,134.5c-0.6,0.1-1.1,0.5-1.5,1C199.6,134.9,200.1,134.6,200.6,134.5z"/>
	<path class="st3" d="M226.3,149.9c-0.2-0.2-0.4-0.4-0.5-0.7l-0.7-0.4C225.7,149.3,226.1,149.6,226.3,149.9z"/>
	<path class="st3" d="M226.3,149.9c0.1,0.1,0.2,0.2,0.2,0.3C226.5,150.1,226.4,150,226.3,149.9z"/>
	<path class="st3" d="M191,162.2l-10.3-6c-0.2,0.3-0.5,0.5-0.8,0.5h-0.2l10.9,6c0,0,0-0.1,0.1-0.1L191,162.2z"/>
	<path class="st3" d="M199.5,167.3c0,0.1-0.1,0.2-0.1,0.3l21.1,11.7c0.2,0.1,0.3,0.1,0.5,0.2l-21.1-12.2c0,0-0.1,0-0.1,0
		L199.5,167.3z"/>
	<path class="st3" d="M197.1,166.1l0,0.1c0,0.1,0,0.1-0.1,0.2l0.4,0.2C197.5,166.3,197.3,166.1,197.1,166.1z"/>
	<path class="st3" d="M193.7,164.1c-0.1-0.1-0.2-0.1-0.3-0.2l0,0c-0.1,0.1-0.2,0.1-0.2,0.1l1.2,0.7c0-0.1,0-0.1-0.1-0.2L193.7,164.1
		z"/>
	<path class="st3" d="M223.1,211.9l0,3.3l0.1,0.1l0-3.7C223.2,211.7,223.2,211.8,223.1,211.9z"/>
	<path class="st3" d="M221.2,179.7c0.1,0,0.1,0.1,0.1,0.1C221.3,179.8,221.3,179.7,221.2,179.7L221.2,179.7z"/>
	<path class="st3" d="M221.7,180.1c0.9,0.8,1.2,1.9,1.3,2.9l0-0.1C223.1,181.9,222.6,180.9,221.7,180.1z"/>
	<path class="st3" d="M223.1,210.6c0.1,0.2,0.1,0.3,0.1,0.5l-0.2-26.5c-0.1,0.7-0.2,1.2-0.2,1.2L223.1,210.6z"/>
	<path class="st3" d="M159.3,130.5l0-0.1c-0.1,0.1-0.1,0.1-0.2,0.2L159.3,130.5z"/>
	<path class="st3" d="M167.2,133.3c0.4,0.3,0.6,0.8,0.3,1.3l-0.3,0.5c-0.2,0.4-0.1,0.9,0.3,1.2l0.5,0.4c0.3,0.3,0.8,0.3,1.2,0
		l0.8-0.6c-0.2,0-0.5,0-0.7-0.2l-0.5-0.4c-0.4-0.3-0.5-0.8-0.3-1.2l0.3-0.5c0.3-0.5,0.1-1-0.3-1.3l-1.7-1.1c-0.3-0.2-0.7-0.2-1,0
		l0,1L167.2,133.3z"/>
	<path class="st3" d="M172.9,163.1l0.1,1.6c0,0.1,0,0.2,0,0.2l0.4,0c0.6,0,1-0.5,1-1l-0.1-1.1l-0.2-0.1L172.9,163.1z"/>
	<path class="st3" d="M176.3,158.5v1.5c0,0.4,0.2,0.8,0.6,0.9l0.4,0.1c0.6,0.2,0.8,1,0.4,1.5l-0.4,0.5c0.4,0.1,0.7,0,1-0.3l0.7-0.9
		c0.4-0.5,0.2-1.3-0.4-1.5l-0.4-0.1c-0.4-0.1-0.6-0.5-0.6-0.9v-1.5c0-0.1,0-0.1,0-0.2h-0.4C176.8,157.5,176.3,158,176.3,158.5z"/>
	<path class="st3" d="M179.5,156.7h0.2l-0.2-0.1C179.5,156.6,179.5,156.7,179.5,156.7z"/>
	<path class="st3" d="M167.5,163.4l0,0.2l0,0c0.6,0.2,1.2-0.1,1.3-0.7l0-0.2c-0.1,0-0.1-0.1-0.2-0.1
		C168.1,162.6,167.6,162.9,167.5,163.4z"/>
	<path class="st3" d="M180.8,155.7l-0.1-1.6l-1.4-0.8c0,0.1,0,0.1,0,0.2l0.1,2l1.2,0.7C180.8,156.1,180.8,155.9,180.8,155.7z"/>
	<path class="st3" d="M175.9,151.8c0.1,0.5,0.5,0.8,1,0.8l1.2,0l-2.3-1.3L175.9,151.8z"/>
	<path class="st3" d="M170.8,135.9c-0.2,0-0.3,0.1-0.5,0.2l-0.2,0.2c0.2,0,0.3-0.1,0.5-0.2L170.8,135.9z"/>
	<path class="st3" d="M175.4,161.8l-1.1,0.5l0,0.4l1.4,1c0.4,0.3,1,0.2,1.3-0.2l0.4-0.5c-0.1,0-0.3-0.1-0.4-0.2L175.4,161.8z"/>
	<path class="st3" d="M177.7,157.5h0.8c0.5,0,0.9-0.4,0.9-0.8h-0.8C178.2,156.7,177.8,157.1,177.7,157.5z"/>
	<path class="st3" d="M170.7,163.9l0-1.1c0-0.5-0.3-0.9-0.8-1c-0.5-0.1-1,0.3-1.1,0.8l0,0.1c0.4,0.1,0.6,0.5,0.6,0.9l0,1.1
		c0,0.6,0.4,1,1,1l1.7,0c0.5,0,0.8-0.4,0.9-0.8l-1.3,0C171.1,164.9,170.7,164.5,170.7,163.9z"/>
	<path class="st3" d="M178.4,152.6l-0.3,0l1.3,0.7C179.2,152.9,178.8,152.5,178.4,152.6z"/>
	<path class="st3" d="M179.5,156.6c0,0,0-0.1,0-0.1l0-1l-5.6-3.3c-0.1,0.4-0.2,0.7-0.3,1.1L179.5,156.6z"/>
	<path class="st3" d="M190.6,150.4l0.7-0.5l-0.4-0.6c-0.2-0.3-0.6-0.3-0.8-0.1l-0.3,0.3c0.2,0,0.3,0.1,0.4,0.2L190.6,150.4z"/>
	<path class="st3" d="M192.5,148.2l0.3,1c0,0.1,0.1,0.1,0.1,0.2l0.1-1.9c-0.2-0.1-0.4-0.2-0.6-0.1l-0.6,0.3c-0.1,0-0.2,0.1-0.2,0.2
		l0.1-0.1C192.1,147.7,192.4,147.9,192.5,148.2z"/>
	<path class="st3" d="M192.9,164.1L192.9,164.1c0,0,0.1,0,0.2,0L192.9,164.1C192.9,164.1,192.9,164.1,192.9,164.1z"/>
	<path class="st3" d="M196.4,166.5l0,0.1l0,0c0.3,0.1,0.5,0,0.7-0.3l-0.4-0.2C196.5,166.2,196.4,166.3,196.4,166.5z"/>
	<path class="st3" d="M201.8,158.7l-0.3,0c0,0,0,0,0,0l0.3,0.2l0,0C201.8,158.9,201.8,158.8,201.8,158.7z"/>
	<path class="st3" d="M198.7,151.1l1.3,1.5c0.2,0.3,0.2,0.7-0.1,0.8l-0.3,0.2c-0.2,0.2-0.3,0.5-0.2,0.7l0.6,1.2
		c0.1,0.2,0.3,0.3,0.6,0.3l0.9-0.1c0.3,0,0.6,0.2,0.6,0.4l0.4,2.1c0,0.1,0,0.1,0,0.2l0.3,0c0.3,0,0.5-0.3,0.5-0.6l-0.4-2.1
		c-0.1-0.3-0.3-0.5-0.6-0.4l-0.9,0.1c-0.2,0-0.5-0.1-0.6-0.3l-0.6-1.2c-0.1-0.3-0.1-0.6,0.2-0.7l0.3-0.2c0.3-0.2,0.3-0.6,0.1-0.8
		l-1.3-1.5c-0.2-0.2-0.5-0.2-0.7-0.1l-0.2,0.2l0,0.2C198.6,151,198.6,151,198.7,151.1z"/>
	<path class="st3" d="M203.7,160.1c-0.1-0.1-0.2-0.2-0.4-0.2L203.7,160.1z"/>
	<path class="st3" d="M196.7,163.2l-4.6-2.6C193.3,162.4,195.1,163.4,196.7,163.2z"/>
	<path class="st3" d="M199.4,166.3l0.1,0.8l0.3,0.2c0.3,0,0.5-0.3,0.5-0.6l0-0.6l-0.1-0.1L199.4,166.3z"/>
	<path class="st3" d="M201.9,166.3c0.1,0,0.1,0,0.2,0L201.9,166.3L201.9,166.3z"/>
	<path class="st3" d="M192.2,149.4l-0.5-0.9c-0.1-0.2-0.1-0.4,0-0.5l-0.5,0.2c-0.3,0.1-0.4,0.5-0.3,0.8l0.5,0.9l-0.1,0.1l0,0
		L192.2,149.4z"/>
	<path class="st3" d="M190.4,152.3l0.1-0.6c0.1-0.2,0-0.4-0.2-0.6l-0.7-0.5c-0.3-0.2-0.3-0.6-0.1-0.8l0.3-0.3c-0.2,0-0.3,0-0.5,0.2
		l-0.6,0.6c-0.2,0.2-0.2,0.6,0.1,0.8l0.7,0.5c0.2,0.1,0.2,0.3,0.2,0.5c0.1,0,0.1,0.1,0.2,0.1L190.4,152.3z"/>
	<path class="st3" d="M194.8,165.4l0.1-0.3l-0.7-0.4c0.1,0.1,0.1,0.3,0,0.4l-0.2,0.7c-0.1,0.3,0.1,0.6,0.3,0.7l1.2,0.5
		c0.3,0.1,0.7-0.1,0.7-0.4l0,0l-1.2-0.5C194.9,166,194.7,165.7,194.8,165.4z"/>
	<path class="st3" d="M192.1,163.6l-1.6-0.9c-0.1,0.2-0.1,0.5,0.1,0.6l1.1,1.1c0.2,0.2,0.6,0.2,0.8,0l0.3-0.3
		c-0.1,0-0.2-0.1-0.3-0.1L192.1,163.6z"/>
	<path class="st3" d="M198.7,167.3c-0.2,0-0.4-0.1-0.5-0.3l-0.8-0.4c0,0,0,0,0,0l0,0.6c0,0.3,0.2,0.6,0.6,0.6l1,0
		c0.1,0,0.3-0.1,0.4-0.2L198.7,167.3L198.7,167.3z"/>
	<path class="st3" d="M202.4,158.3l-0.2,0c-0.2,0-0.4,0.2-0.5,0.4l0.2,0C202.2,158.7,202.4,158.5,202.4,158.3z"/>
	<path class="st3" d="M198.4,154.6l0,0.9c0,0.3,0,0.5,0.1,0.8c0,0.1,0.1,0.1,0.1,0.2c0.1,0.1,0.1,0.3,0.2,0.4
		c0.2,0.3,0.4,0.5,0.7,0.7l0.5,0.3c-0.1-0.6-0.3-1.2-0.6-1.9C199.1,155.5,198.8,155,198.4,154.6z"/>
	<path class="st3" d="M200.8,165.5l-0.6,0.3l0,0.2l0.8,0.6c0.2,0.2,0.6,0.1,0.7-0.1l0.2-0.3c-0.1,0-0.1,0-0.2-0.1L200.8,165.5z"/>
	<path class="st3" d="M194.9,164.2l-0.5-0.5c-0.2-0.2-0.6-0.2-0.8,0l0,0l1.5,0.8C195.1,164.4,195,164.3,194.9,164.2z"/>
	<path class="st3" d="M189,160.1l1.1-0.1c0.2,0,0.4,0.1,0.5,0.3l0.6,1c0.1,0.2,0.1,0.5-0.1,0.6l-0.2,0.2l0.3,0.2
		c0-0.1,0.1-0.1,0.1-0.2l0.5-0.6c0.2-0.2,0.2-0.4,0.1-0.6l-0.3-0.6l-1.2-0.7l-0.7,0.1c-0.3,0-0.5-0.1-0.6-0.4l-0.2-0.5l-1.1-0.6
		l0.5,1.6C188.5,160,188.7,160.2,189,160.1z"/>
	<path class="st3" d="M198.2,166.1c0-0.3-0.2-0.5-0.5-0.6c-0.2,0-0.4,0.1-0.5,0.2l1,0.6L198.2,166.1z"/>
	<path class="st3" d="M198.2,167l0.6,0.3l0.6,0c0,0,0-0.1,0-0.1l0-0.1l-1.3-0.7l0,0.4C198.2,166.8,198.2,166.9,198.2,167z"/>
	<path class="st3" d="M191.4,162.9l0.7,0.7l0.8,0.5c0.1-0.1,0.2-0.1,0.4-0.1l0.3-0.3l-2.3-1.3C191.2,162.6,191.3,162.8,191.4,162.9z
		"/>
	<path class="st3" d="M194.9,165.1l1.7,1c0.1-0.1,0.2-0.1,0.3-0.1c0,0,0.1,0,0.1,0l0-0.1c0-0.1,0.1-0.2,0.1-0.2l-2.2-1.3
		c0,0.1,0,0.1,0,0.2L194.9,165.1z"/>
	<path class="st3" d="M223.9,215.8l-0.6-0.5l0,8c0.8,0.6,1.5,1.2,2.3,1.9l-0.1,6.8c0,0-1,3.3-6.2,1.8c2.1,0.1,4.1-1.5,4.1-3.9l0-6.6
		c0,0-0.1,0-0.1-0.1l0,5.1c0.5,4.6-2.4,5.4-4.1,5.5c-0.5-0.1-1-0.3-1.5-0.5c0,0,0.5,0.1,1.1,0.1c-0.5-0.1-1-0.2-1.4-0.5l-10.1-5.8
		c-0.9,2.8-0.9,6.2,0.1,9.7l17.1,9.5c3.7-3.8,7.1-11.2,3.7-17.9c-1.1-2.1-1.2-5.7-2.5-4.8l0-7.6
		C225.1,216.2,224.4,216.2,223.9,215.8z"/>
</g>
<g>
	<path class="st4" d="M166.2,76.6c-0.5,0-0.9,0.4-0.9,0.9v5.3c0,0.5,0.4,0.9,0.9,0.9c0.5,0,0.9-0.4,0.9-0.9v-5.3
		C167.1,77,166.7,76.6,166.2,76.6z"/>
	<path class="st4" d="M160.6,70.9c-0.5,0-0.9,0.4-0.9,0.9v7.8c0,0.5,0.4,0.9,0.9,0.9s0.9-0.4,0.9-0.9v-7.8
		C161.5,71.3,161.1,70.9,160.6,70.9z"/>
	<path class="st4" d="M150,64.6c-0.5,0-0.9,0.4-0.9,0.9V72c0,0.5,0.4,0.9,0.9,0.9c0.5,0,0.9-0.4,0.9-0.9v-6.6
		C150.9,65,150.5,64.6,150,64.6z"/>
	<path class="st4" d="M172.2,73c-0.5,0-0.9,0.4-0.9,0.9v11.5c0,0.5,0.4,0.9,0.9,0.9c0.5,0,0.9-0.4,0.9-0.9V74
		C173.2,73.5,172.7,73,172.2,73z"/>
	<path class="st4" d="M200.1,88.6c-0.5,0-0.9,0.4-0.9,0.9v12.1c0,0.5,0.4,0.9,0.9,0.9c0.5,0,0.9-0.4,0.9-0.9V89.5
		C201,89,200.6,88.6,200.1,88.6z"/>
	<path class="st4" d="M211.7,100.5c-0.5,0-0.9,0.4-0.9,0.9v7.2c0,0.5,0.4,0.9,0.9,0.9c0.5,0,0.9-0.4,0.9-0.9v-7.2
		C212.6,100.9,212.2,100.5,211.7,100.5z"/>
	<path class="st4" d="M223.2,105.3c-0.5,0-0.9,0.4-0.9,0.9v8.4c0,0.5,0.4,0.9,0.9,0.9c0.5,0,0.9-0.4,0.9-0.9v-8.4
		C224.1,105.7,223.7,105.3,223.2,105.3z"/>
	<path class="st4" d="M233.5,112.8c-0.5,0-0.9,0.4-0.9,0.9v6c0,0.5,0.4,0.9,0.9,0.9c0.5,0,0.9-0.4,0.9-0.9v-6
		C234.4,113.2,234,112.8,233.5,112.8z"/>
	<path class="st4" d="M228.8,105.8c-0.5,0-0.9,0.4-0.9,0.9v10.9c0,0.5,0.4,0.9,0.9,0.9c0.5,0,0.9-0.4,0.9-0.9v-10.9
		C229.7,106.2,229.3,105.8,228.8,105.8z"/>
	<path class="st4" d="M189.2,78.3c-0.5,0-0.9,0.4-0.9,0.9V95c0,0.5,0.4,0.9,0.9,0.9c0.5,0,0.9-0.4,0.9-0.9V79.2
		C190.1,78.7,189.7,78.3,189.2,78.3z"/>
	<path class="st4" d="M217.6,104.1c-0.6,0-1,0.5-1,1v7.3c0,0.6,0.5,1,1,1c0.6,0,1-0.5,1-1v-7.3C218.6,104.5,218.1,104.1,217.6,104.1
		z"/>
</g>
<path class="st5" d="M137.1,242.1l-44,9.7l-12.6,2.6l2.8,10l45.9-7.8c14.5-3,5.2,5,5.2,5l-23.6,10l-6.5,11.5l48.7-15.8l26.6-11.3
	l-19.7-19.1L137.1,242.1z"/>
<g>
	
		<ellipse transform="matrix(0.7677 -0.6408 0.6408 0.7677 -57.685 141.0257)" class="st3" cx="165.7" cy="150.1" rx="7.9" ry="10.2"/>
	<path class="st3" d="M233.8,213.2l0.4,0.5l0.1-73.1c0,0.1-0.1,0.2-0.1,0.3c0,0-0.5-1.4-3-2.2c-2-0.6-44.8-25.5-71.6-41.9l-0.3,33.6
		c0.1-0.1,0.2-0.1,0.3-0.2l1.1-0.5c0.5-0.2,1.2,0,1.3,0.6l0.6,1.8c0.1,0.3,0.4,0.6,0.7,0.7l0.8,0.2l0.1-0.2c0.2-0.5,0.7-0.7,1.2-0.5
		l0.1-0.3c0.1-0.2,0.2-0.3,0.4-0.5l0.3-14.3c0-0.3,0.1-0.6,0.2-0.8c0,0,0,0,0,0c0,0,0.8-3.5,4.2-2.2c22.9,13.9,22.9,13.9,23.5,14.4
		c0.8,0.6,0.3,2.2,0.2,2.7c0,0-0.1-1-2.5-2.4l-22.1-13.5c0,0-0.9-0.6-2-0.1c0.6-0.2,1.3-0.2,1.9,0.2l23.6,14.4
		c0.4,0.6,1.1,1.1,1,1.9l-1,15.8c0.1,0.1,0.1,0.1,0.2,0.3l0.3,1c0.1,0.2,0.2,0.3,0.4,0.4l0.4,0.1l0.1-0.1c0.1-0.3,0.4-0.4,0.7-0.3
		l0.1-0.1c0.1-0.3,0.5-0.4,0.8-0.3l1,0.6c0.2,0.2,0.3,0.5,0.2,0.7l-0.2,0.3c-0.1,0.2-0.1,0.5,0.1,0.7l0.3,0.2
		c0.1,0.1,0.3,0.1,0.4,0.1l0.1-0.1c0.1-0.1,0.2-0.1,0.3-0.1l0.3-0.2l0.3-14.2c0-0.4,0.2-0.7,0.3-1c-0.1,0.1-0.1,0.2-0.2,0.3
		c0,0,0.8-3.5,4.2-2.2c0,0,22.7,13.8,23.5,14.4c0.8,0.6,0.3,2.2,0.2,2.7c0,0,0,0,0-0.1c0.1,0.2,0.1,0.3,0.1,0.5l-1.2,18.4
		c0,1.7-1.9,2.8-3.3,1.9l-18.5-11.3c0.1,0.1,0.1,0.2,0.1,0.3l0.1,1.7c0,0.3-0.2,0.6-0.5,0.6h-0.2c0,0.3-0.3,0.5-0.5,0.5h-0.5
		c0,0,0,0.1,0,0.1v0.9c0,0.2,0.1,0.4,0.3,0.5l0.2,0.1c0.3,0.1,0.5,0.6,0.2,0.8l-0.4,0.5c-0.1,0.1-0.2,0.2-0.3,0.2l19,10.8
		c0,0,4.7,1.9,4.7,7.8l-0.2,31.1c0.1,0,0.2-0.1,0.2-0.1l1.8-1.3c0.7-0.5,1.7-0.4,2.2,0.2l3.8,4.4c0.7,0.8,0.5,2-0.4,2.5l-0.8,0.5
		c-0.7,0.5-1,1.4-0.6,2.2l1.8,3.5c0.1,0.2,0.3,0.4,0.4,0.5l0-0.5c-0.1-0.1-0.2-0.3-0.2-0.4l-1.6-3c0,0-0.8-1.4,0.9-2.4
		c0,0,0.6-0.2,0.9-0.7l0-2l-4.3-4.8l1.6-1.2C231.6,213.2,232.7,212.3,233.8,213.2z"/>
</g>
<g>
	<polygon class="st6" points="186.4,189.9 185.1,184.8 184.9,184.8 183.5,188.3 183.6,188.4 	"/>
	<path class="st6" d="M199.5,193c-1.1-1.9-3.1-2.8-4.3-2c-1.3,0.8-1.4,2.9-0.2,4.8c1.1,1.9,3.1,2.8,4.3,2
		C200.5,197.1,200.6,194.9,199.5,193z"/>
	<path class="st4" d="M197.4,199.4c0,0,0.1,0,0.1,0C197.5,199.4,197.4,199.4,197.4,199.4z"/>
	<g>
		<path class="st6" d="M169.9,115.2c-1.9-1.3-3.7,0.2-3.8,1.8l-0.4,19c-0.1,0.8,0.3,1.6,1,2l22.8,13.9c1.5,0.9,3.3-0.2,3.3-1.9
			l1.2-18.4c0-0.8,0-1.2-0.5-1.8L169.9,115.2z"/>
		<path class="st6" d="M202.1,134.4c-1.4-0.9-3.2,0-3.3,1.7l-0.4,19c-0.1,0.8,0.1,1.9,0.8,2.3l23.1,14c1.5,0.9,3.6-0.3,3.3-2.3
			l1.2-18.4c0-0.8-0.6-1.3-1-1.9L202.1,134.4z"/>
		<path class="st6" d="M222.9,187.4c1.3-7.1-2.5-8.3-2.5-8.3l-50.2-28c-5.9,2.3-5.1,7.9-5.1,7.9l-0.6,38.5c-0.6,6,2.4,6.4,2.4,6.4
			l50.4,29.2c6.3,2.2,6-4.3,6-4.3L222.9,187.4z M178.5,185.4l-3.6-1.8l0,4.1l-1.1-0.6l-0.1-9.2l5.1,2.5l0,1.1l-3.9-1.9v2.9l3.6,1.8
			V185.4z M180.1,190c-0.3,0.2-0.8,0.1-1.1-0.4c-0.4-0.4-0.4-1-0.1-1.2c0.3-0.2,0.8-0.1,1.1,0.4C180.3,189.3,180.3,189.8,180.1,190z
			 M187.7,194.3l-1-3.5l-3.5-1.8l-0.9,2.4l-1.2-0.7l3.3-7.4l1.5,0.8l3.1,10.7L187.7,194.3z M191.3,195.9c-0.3,0.2-0.8,0.1-1.1-0.4
			c-0.4-0.4-0.4-1-0.1-1.2c0.3-0.2,0.8-0.1,1.1,0.4C191.5,195.2,191.6,195.7,191.3,195.9z M198.5,199.6l2.7,2l-0.4,0.7l-3.7-3.1
			c-1.2-0.5-2.3-1.5-3.1-2.9c-1.6-2.6-1.4-5.7,0.3-6.7c1.8-1.1,4.5,0.2,6.1,2.9c1.6,2.6,1.4,5.7-0.3,6.7c-0.6,0.4-1.4,0.5-2.2,0.3
			C198,199.5,198.3,199.6,198.5,199.6z"/>
	</g>
	<polygon class="st4" points="183.2,188.2 183.1,189 183.2,189.1 183.5,188.3 	"/>
	<polygon class="st4" points="186.4,189.9 186.4,189.9 186.7,190.8 186.7,190.9 	"/>
	<path class="st4" d="M197,199.2L197,199.2c0.2,0.1,0.3,0.1,0.4,0.2C197.2,199.3,197,199.2,197,199.2z"/>
	<path class="st4" d="M197.8,199.5c-0.1,0-0.2-0.1-0.3-0.1C197.6,199.4,197.7,199.5,197.8,199.5z"/>
</g>
<g>
	<g>
		<g>
			<path class="st4" d="M166.3,116c1.6-2.2,3.2-1,3.2-1l22.1,13.5c2.4,1.4,2.5,2.4,2.5,2.4c0.1-0.5,0.6-2.1-0.2-2.7
				c-0.6-0.4-0.6-0.4-23.5-14.4C167.1,112.4,166.3,116,166.3,116z"/>
			<path class="st4" d="M226.5,147.5c-0.8-0.6-23.5-14.4-23.5-14.4c-3.4-1.3-4.2,2.2-4.2,2.2c1.6-2.2,3.2-1,3.2-1l22.1,13.5
				c2.4,1.4,2.5,2.4,2.5,2.4C226.9,149.8,227.4,148.1,226.5,147.5z"/>
			<path class="st4" d="M202.9,243.1c0.1,0.1,0.1,0.1,0.2,0.2C203,243.2,203,243.1,202.9,243.1L202.9,243.1z"/>
		</g>
		<g>
			<path class="st3" d="M200.3,223.7l0-0.4l-2.6-1.5l0,3.1c0,0,0,0,0,0l0-3l-31.3-17.9c-1.3-0.8-2-2.2-1.9-3.6l0.6-36.3l-0.5-0.2
				c-0.5-0.2-0.7-0.7-0.6-1.2l0.4-1.3c0.1-0.3,0-0.7-0.2-1l-0.9-0.9c-0.2-0.2-0.4-0.2-0.6-0.3l0,0c-0.2,0.2-0.5,0.3-0.8,0.3
				l-0.5,0.5c-0.4,0.4-1,0.4-1.4,0l-0.4-0.4l-0.5,49.8c0,1,0.5,2,1.5,2.5l34.6,18.6c0,0-0.5-2.5,2.6-2.2c0.6,0,1.4,0,1.6-0.2
				l0.5-0.6c0.3-0.3,0.3-0.5,0.2-0.7l0,0L200.3,223.7z"/>
			<path class="st3" d="M81.6,180.9c-1-0.8-1.9-1.5-2.7-2.1c-3.8-3.4-11-9.5-10.9-7c0,0-0.3,79.3,2.3,87.6c0,0,6.4,4.9,8.7-0.8
				l6.2-33.8l-1.6-27.3l10.1,41.6c0,0,0.2,25.1,5.6,39.1c0,0,7.1,2.9,8.9-5.3c-1,4.3-5,5.2-5,5.2c-5.1-6.4-2.8-44.4-2.8-44.4
				c3.8-21.9-2.4-45.5-2.4-45.5c10.6-1.4,11.5-3.7,11.5-3.7S96.4,192.8,81.6,180.9z"/>
		</g>
		<g>
			<polygon class="st4" points="174.9,179.8 178.8,181.7 178.9,180.6 173.8,178.1 173.8,187.3 174.9,187.9 174.9,183.8 178.5,185.6 
				178.5,184.4 174.9,182.7 			"/>
			<path class="st4" d="M178.8,188.7c-0.3,0.2-0.2,0.8,0.1,1.2c0.4,0.4,0.9,0.6,1.1,0.4c0.3-0.2,0.2-0.8-0.1-1.2
				C179.6,188.6,179.1,188.4,178.8,188.7z"/>
			<path class="st4" d="M190.1,194.5c-0.3,0.2-0.2,0.8,0.1,1.2c0.4,0.4,0.9,0.6,1.1,0.4c0.3-0.2,0.2-0.8-0.1-1.2
				C190.9,194.5,190.4,194.3,190.1,194.5z"/>
			<path class="st4" d="M184.4,183.5l-3.3,7.4l1.2,0.7l0.9-2.4l3.5,1.8l1,3.5l1.3,0.6l-3.1-10.7L184.4,183.5z M183.6,188.5
				L183.6,188.5l1.3-3.6l0.2,0.1l1.4,5L183.6,188.5z"/>
			<path class="st4" d="M197.1,199.4l3.7,3.1l0.4-0.7l-2.7-2c-0.3,0-0.5,0-0.7-0.1c0.8,0.2,1.6,0.1,2.2-0.3c1.8-1.1,1.9-4.1,0.3-6.7
				c-1.6-2.6-4.3-3.9-6.1-2.9c-1.8,1.1-1.9,4.1-0.3,6.7C194.8,197.9,195.9,198.9,197.1,199.4z M195.2,191.2c1.3-0.8,3.2,0.2,4.3,2
				c1.1,1.9,1,4-0.2,4.8s-3.2-0.2-4.3-2C193.8,194.1,193.9,191.9,195.2,191.2z"/>
			<g>
				<g>
					<path class="st4" d="M221.6,177.2c-1.6-1-10.1-5.9-19.5-11.2l0.1-0.1c0.2-0.3,0.1-0.7-0.2-0.8l-0.2-0.1
						c-0.2-0.1-0.3-0.3-0.3-0.5v-0.9c0-0.3,0.2-0.5,0.5-0.5h0.7c0.3,0,0.6-0.3,0.5-0.6l-0.1-1.7c0-0.3-0.3-0.5-0.6-0.5l-0.8,0
						c-0.3,0-0.5-0.2-0.6-0.5l-0.1-0.5c0-0.3,0.2-0.6,0.5-0.6l0.5-0.1c0.3,0,0.5-0.3,0.5-0.6l-0.4-2c-0.1-0.3-0.3-0.5-0.6-0.4
						l-0.9,0.1c-0.2,0-0.5-0.1-0.6-0.3l-0.6-1.1c-0.1-0.3-0.1-0.6,0.2-0.7l0.3-0.2c0.3-0.2,0.3-0.6,0.1-0.8l-1.3-1.5
						c-0.2-0.2-0.5-0.2-0.7-0.1l-0.6,0.4c-0.2,0.1-0.5,0.1-0.7,0l-0.3-0.2c-0.2-0.2-0.3-0.5-0.1-0.7l0.2-0.3
						c0.1-0.3,0.1-0.6-0.2-0.7l-1-0.6c-0.3-0.2-0.7-0.1-0.8,0.3l-0.1,0.3c-0.1,0.3-0.4,0.4-0.6,0.3l-0.5-0.1c-0.2,0-0.3-0.2-0.4-0.4
						l-0.3-1c-0.1-0.3-0.4-0.5-0.7-0.3l-0.6,0.3c-0.3,0.1-0.4,0.5-0.3,0.8l0.5,0.9l-0.8,0.5l-0.4-0.6c-0.2-0.3-0.6-0.3-0.8-0.1
						l-0.6,0.6c-0.2,0.2-0.2,0.6,0.1,0.8l0.7,0.5c0.2,0.1,0.3,0.4,0.2,0.6l-0.1,0.5l-1.1-0.3c-0.3-0.1-0.7,0.2-0.7,0.5l0,1.4
						c0,0.2,0.1,0.4,0.4,0.5l1.1,0.4c0.2,0.1,0.4,0.3,0.4,0.5l-0.1,1c0,0.3-0.2,0.5-0.5,0.5l-0.6,0c-0.4,0-0.6,0.4-0.5,0.7l0,0
						c-7.9-4.5-14.1-7.9-14.1-7.9c-3.1-1.5-5.5,2.1-5.5,2.1c1.4-1.1,3.8,0.3,3.8,0.3s8.5,4.7,18.4,10.2c-0.1,0.2,0,0.4,0.1,0.6
						l1.1,1.1c0.2,0.2,0.6,0.2,0.8,0l0.3-0.3c0,0,0,0,0,0c0.5,0.3,0.9,0.5,1.4,0.8c0,0.1,0,0.2,0,0.3l-0.2,0.7
						c-0.1,0.3,0.1,0.6,0.3,0.7l1.2,0.5c0.3,0.1,0.7-0.1,0.7-0.4l0-0.2c0-0.1,0.1-0.2,0.2-0.3c0.3,0.2,0.6,0.3,0.9,0.5l0,0.6
						c0,0.3,0.2,0.6,0.6,0.6l0.9,0c0.1,0,0.2,0,0.3-0.1c10,5.5,19.2,10.7,20.9,11.7c3.8,2.2,3,5.4,3,5.4l0.2,44.4
						c0.6,4-3.7,4.9-3.7,4.9c4.7,1.6,5.8-1.9,5.8-1.9l0.3-23.2l0.1-26C225.7,182.9,225.5,179.8,221.6,177.2z M197.5,162.8
						c-0.2,0.1-0.5,0.2-0.7,0.2c-1.6-0.9-3.2-1.8-4.8-2.7c-0.1-0.2-0.2-0.4-0.3-0.6c-1.3-2.6-0.9-5.5,1-6.5c1.9-0.9,4.5,0.4,5.8,3
						C199.9,159,199.4,161.9,197.5,162.8z"/>
					<g>
						<path class="st4" d="M91.1,254.3c-3.2-1.2-11,1.3-11,1.3c-1.4,11.3-9.5,4-9.5,4l-0.4,6.6l5.8-0.1l1.3-0.9
							c11-0.3,13.8-7.7,13.8-7.7C93.6,255.2,91.1,254.3,91.1,254.3z"/>
						<path class="st4" d="M122.7,271.2c-2.3-0.4-13.8,1.4-13.8,1.4c-2.9,10.3-9.6,5.4-9.6,5.4c-2.3,4.3,0.2,6,0.2,6l5.2-0.2
							l-0.1-1.4l1.7,0.1c8.4-0.5,18.2-7,18.2-7C127.8,271.2,122.7,271.2,122.7,271.2z"/>
						<polygon class="st4" points="257.1,214.1 279.4,201 279.4,171 257.3,184.2 						"/>
						<path class="st4" d="M100.3,233.7c0,0-2.3,38,2.8,44.4c0,0,4-0.9,5-5.2l1.3-88.3c0,0-0.9,2.3-11.5,3.7
							C97.9,188.2,104.1,211.8,100.3,233.7z"/>
						<path class="st4" d="M301.3,48.6c-10.8-27.7-39-39.8-39-39.8c-13.9-7.7-23.7-0.5-23.7-0.5c-3.8,1.6-15.4,9.2-20.9,12.9
							c18.8-10.1,47.6,20.3,47.6,20.3c23,25.1,17.8,59.3,17.8,59.3c-1.3,13.3-12.6,23.8-12.6,23.8c-17.8,16.6-15.1,41.5-15.1,41.5
							l23.9-13.7c-2.2-22.4,10.7-37.1,10.7-37.1C320.9,88.9,301.3,48.6,301.3,48.6z"/>
					</g>
				</g>
				<path class="st4" d="M206,41.9c0,0-31.7-18.2-34.3-18.7c-2.6-0.5-10.9,5-10.9,5l73,39.9l-0.4,86.6l-0.7,68.6
					c-0.4-0.1-0.7-0.4-0.9-0.8l-1.8-3.5c-0.4-0.8-0.2-1.7,0.6-2.2l0.8-0.5c0.9-0.5,1-1.7,0.4-2.5l-3.8-4.4c-0.6-0.7-1.5-0.8-2.2-0.2
					l-1.8,1.3c-0.6,0.4-1.4,0.4-2,0l-0.9-0.7c-0.6-0.5-0.8-1.4-0.4-2.1l0.5-0.9c0.4-0.8,0.2-1.7-0.6-2.2l-2.9-1.8
					c-0.9-0.5-2-0.2-2.4,0.8l-0.3,0.8c-0.3,0.8-1.1,1.2-1.9,1l-1.5-0.3c-0.6-0.1-1-0.6-1.2-1.1l-0.9-3.1c-0.3-1-1.3-1.4-2.3-1
					l-1.9,0.8c-0.9,0.4-1.2,1.5-0.8,2.3l1.6,2.8l-2.4,1.7l-1.2-1.8c-0.6-0.9-1.8-1-2.6-0.2l-1.7,1.8c-0.7,0.7-0.6,1.9,0.2,2.5
					l2.1,1.5c0.5,0.4,0.8,1.1,0.6,1.7l-0.4,1.7l-3.4-0.9c-1-0.3-2.1,0.5-2.1,1.6l-0.1,4.2c0,0.7,0.4,1.3,1.1,1.6l3.4,1.2
					c0.7,0.2,1.1,0.9,1.1,1.6l-0.2,3.1c0,0.9-0.8,1.6-1.6,1.6l-1.8,0c-1.1,0-1.9,1.1-1.6,2.1l1.5,5c0.2,0.8,1,1.2,1.7,1.2l3.4-0.3
					c0.6-0.1,1.3,0.2,1.6,0.8l1.9,3.2c0.4,0.6,0.3,1.4-0.2,1.9l-1.6,1.9c-0.6,0.7-0.5,1.6,0.1,2.2l3.3,3.2c0.6,0.6,1.7,0.6,2.3,0
					l1-1c0.6-0.6,1.7-0.6,2.3,0l1.5,1.5c0.4,0.4,0.6,1.1,0.4,1.7l-0.7,2.1c-0.3,0.8,0.2,1.7,1,2l3.6,1.4c1,0.4,2-0.2,2.2-1.2
					l0.1-0.5c0.2-0.9,1-1.4,1.8-1.3c0.8,0.1,1.5,0.8,1.4,1.7l-0.1,1.8c0,0.9,0.7,1.7,1.7,1.7l2.9,0c0.9,0,1.7-0.8,1.6-1.8l-0.2-2.7
					l2-0.9l2.7,1.9c0.7,0.5,1.7,0.4,2.3-0.3l1.1-1.4c1.8,1.3,3.4,2.5,3.9,2.7c0.7-1.2,2.8-157.6,2.8-157.6L243.9,62L206,41.9z
					 M224.3,245.1c-5.7,2.9-13.5-1.2-17.5-9.2c-4-7.9-2.6-16.7,3.1-19.5c5.7-2.9,13.5,1.2,17.5,9.2
					C231.4,233.5,230,242.2,224.3,245.1z"/>
			</g>
		</g>
	</g>
	<g>
		<path class="st7" d="M247.9,101.8l-8.9-5.4l-93.5-53.1c-1.4-0.8-3.7,1.5-3.7,1.5c0.5-0.6,1.5-0.6,2.8-0.2c4.2,2.5,13.9,8,13.9,8
			l85.5,48.1c2.7,1.7,1.4,3.8,1.4,3.8L247.9,101.8z"/>
		<path class="st7" d="M183.1,155l-1.1,0c-1.5,0.3-1.7-0.8-1.7-0.8l-0.2-1.3c0.1-1.5,2-1.3,2-1.3c1.4-0.2,0.9-1.9,0.9-1.9l-0.6-3.5
			c-0.1-0.9-1.1-1-1.1-1l-1.6,0.2c-0.9,0.3-1.5-0.3-1.5-0.3l-1.3-2.3c-1-1.6,1-2.2,1-2.2c1-0.9-0.1-1.8-0.1-1.8l-2.5-2.8
			c-0.8-0.7-1.5,0-1.5,0l-1.1,0.8l3,3.4c0.5,1.3-0.7,1.7-0.7,1.7c-1.2,0.7-0.6,1.6-0.6,1.6l1.1,2.1c0.4,1.1,1.4,0.9,1.4,0.9l1.8-0.3
			c1.1,0,1.3,0.9,1.3,0.9l0.8,4.4c0,0,0,0,0,0c-0.7,0.3-0.9,1.1-0.9,1.1l-0.7,0.1c-1.4,0.1-1.3,1.3-1.3,1.3l0.1,0.8
			c0.1,1.3,1.1,1.3,1.1,1.3l1.5,0c1.5-0.2,1.5,1.1,1.5,1.1l0.1,3.7h1.3c1.2-0.1,1.2-1.1,1.2-1.1l-0.1-3.3
			C184.3,154.9,183.1,155,183.1,155z"/>
	</g>
	<g>
		<g>
			<path class="st6" d="M245.7,104.9c1.1-1.2,0.7-3.1-0.7-3.8l-99.8-56.3c-1.6-0.9-3.6,0.1-3.8,1.9l-1.3,36.5
				c-0.1,1,0.3,1.9,1.2,2.4c11.4,7.2,89.8,55.5,90.1,52.7c0.2-3,3-13.7,3-13.7C236.9,115.8,242.6,108.4,245.7,104.9z M151,72
				c0,0.5-0.4,0.9-0.9,0.9s-0.9-0.4-0.9-0.9v-6.6c0-0.5,0.4-0.9,0.9-0.9s0.9,0.4,0.9,0.9V72z M155.9,76.2c0,0.5-0.4,0.9-0.9,0.9
				c-0.5,0-0.9-0.4-0.9-0.9V64.5c0-0.5,0.4-0.9,0.9-0.9c0.5,0,0.9,0.4,0.9,0.9V76.2z M161.5,79.6c0,0.5-0.4,0.9-0.9,0.9
				c-0.5,0-0.9-0.4-0.9-0.9v-7.8c0-0.5,0.4-0.9,0.9-0.9c0.5,0,0.9,0.4,0.9,0.9V79.6z M167.1,82.9c0,0.5-0.4,0.9-0.9,0.9
				c-0.5,0-0.9-0.4-0.9-0.9v-5.3c0-0.5,0.4-0.9,0.9-0.9c0.5,0,0.9,0.4,0.9,0.9V82.9z M173.1,85.5c0,0.5-0.4,0.9-0.9,0.9
				c-0.5,0-0.9-0.4-0.9-0.9V74c0-0.5,0.4-0.9,0.9-0.9c0.5,0,0.9,0.4,0.9,0.9V85.5z M179,88.5c0,0.6-0.5,1-1,1c-0.6,0-1-0.5-1-1V74.8
				c0-0.6,0.5-1,1-1c0.6,0,1,0.5,1,1V88.5z M184.6,92.1c0,0.5-0.4,0.9-0.9,0.9c-0.5,0-0.9-0.4-0.9-0.9V76.5c0-0.5,0.4-0.9,0.9-0.9
				c0.5,0,0.9,0.4,0.9,0.9V92.1z M190.1,95c0,0.5-0.4,0.9-0.9,0.9c-0.5,0-0.9-0.4-0.9-0.9V79.2c0-0.5,0.4-0.9,0.9-0.9
				c0.5,0,0.9,0.4,0.9,0.9V95z M195.7,98c0,0.5-0.4,0.9-0.9,0.9c-0.5,0-0.9-0.4-0.9-0.9V84.9c0-0.5,0.4-0.9,0.9-0.9
				c0.5,0,0.9,0.4,0.9,0.9V98z M201.1,101.6c0,0.5-0.4,0.9-0.9,0.9c-0.5,0-0.9-0.4-0.9-0.9V89.5c0-0.5,0.4-0.9,0.9-0.9
				c0.5,0,0.9,0.4,0.9,0.9V101.6z M206.8,104.6c0,0.6-0.5,1-1,1c-0.6,0-1-0.5-1-1v-8.4c0-0.6,0.5-1,1-1c0.6,0,1,0.5,1,1V104.6z
				 M212.6,108.6c0,0.5-0.4,0.9-0.9,0.9c-0.5,0-0.9-0.4-0.9-0.9v-7.2c0-0.5,0.4-0.9,0.9-0.9c0.5,0,0.9,0.4,0.9,0.9V108.6z
				 M218.6,112.4c0,0.6-0.5,1-1,1c-0.6,0-1-0.5-1-1v-7.3c0-0.6,0.5-1,1-1c0.6,0,1,0.5,1,1V112.4z M224.1,114.6
				c0,0.5-0.4,0.9-0.9,0.9c-0.5,0-0.9-0.4-0.9-0.9v-8.4c0-0.5,0.4-0.9,0.9-0.9c0.5,0,0.9,0.4,0.9,0.9V114.6z M229.7,117.7
				c0,0.5-0.4,0.9-0.9,0.9c-0.5,0-0.9-0.4-0.9-0.9v-10.9c0-0.5,0.4-0.9,0.9-0.9c0.5,0,0.9,0.4,0.9,0.9V117.7z M233.7,120.6
				c-0.5,0-0.9-0.4-0.9-0.9v-6c0-0.5,0.4-0.9,0.9-0.9c0.5,0,0.9,0.4,0.9,0.9v6C234.6,120.2,234.2,120.6,233.7,120.6z"/>
			<path class="st6" d="M262.9,162l-7.3,4.2c-1.1-0.7-5.5-3.1-8.6-4.9l-14.5,9l24.8,13.9l22.2-13.1L262.9,162z"/>
		</g>
		<path class="st6" d="M245.5,52.2c-6.1-5.1-10.2-1.3-10.2-1.3c-5.5,4.1-4.2,18.2-4.2,18.2l20.5-11.4
			C249.5,55.2,245.5,52.2,245.5,52.2z"/>
		<path class="st6" d="M120.1,168.9l-3.5-27.9c0,0-4.4-13.4-16.1-18.5c0,0-24.1-11.4-23.8-12.8c0,0-11.4-5.1-16.3,8.1
			c-5,13.2-6.2,26.1-6.2,26.1s-1.1,1.3,1.5,6.1L67.8,172c0,0,1.7-2.2,4.4,1.4c0,0,13.6,14,22.8,13.6c0,0,11.7,2,15.8-3.8
			c-1.2,1.4-4.4,2.7-4.4,2.7c-4-2.3-7.4-31.9-7.4-31.9c1,0.1,12.2,28.5,12.2,28.5c0,0.1,0,0.1-0.1,0.2c0.2-0.3,0.4-0.7,0.5-1.1
			c0,0,16.7,11,28.7,10.6c0,0,4.5-0.4,1.4-8.1C141.9,184.1,132.9,172.7,120.1,168.9z M64.9,141.9l0.4-11.8l2.2,11.5l1,15.9
			C68.2,155.7,64.9,141.9,64.9,141.9z"/>
	</g>
	<g>
		<path class="st4" d="M150.9,50.2l-0.5-0.8c-0.1-0.2-0.1-0.4,0-0.6l0.8-1c0.2-0.2,0.5-0.3,0.7-0.1l0.3,0.2c0.3,0.2,0.7,0.1,0.8-0.2
			l0.8-1.7c0.1-0.3,0-0.6-0.2-0.7l-0.6-0.4c-0.2-0.1-0.3-0.4-0.3-0.6l0.1-0.4c0.1-0.3,0.3-0.4,0.6-0.4l0.3,0c0.3,0,0.6-0.2,0.6-0.5
			l0.2-1.1c0.1-0.3-0.2-0.6-0.6-0.6l-0.3,0c-0.3,0-0.5-0.2-0.6-0.4l-0.1-0.5c0-0.2,0-0.4,0.2-0.5l0.8-0.7c0.3-0.2,0.3-0.6,0-0.8
			l-0.5-0.5c-0.2-0.2-0.6-0.2-0.8,0.1l-0.6,0.9l-0.8-0.5l0.4-0.6c0.2-0.3,0.1-0.7-0.3-0.8l-0.8-0.3c-0.3-0.1-0.7,0.1-0.7,0.4
			l-0.2,0.8c-0.1,0.2-0.2,0.4-0.4,0.4l-0.6,0.1l-0.2-1.2c-0.1-0.4-0.4-0.6-0.7-0.4l-1.3,0.5c-0.2,0.1-0.4,0.3-0.3,0.5l0.1,1.2
			c0,0.2-0.1,0.5-0.4,0.6l-1,0.4c-0.3,0.1-0.6,0-0.7-0.3l-0.2-0.6c-0.1-0.3-0.6-0.4-0.8-0.2l-1.3,1.1c-0.2,0.2-0.3,0.5-0.1,0.7
			l0.5,1c0.1,0.2,0.1,0.4,0,0.6l-0.7,1c-0.1,0.2-0.4,0.3-0.6,0.2l-0.8-0.2c-0.3-0.1-0.6,0.1-0.7,0.3l-0.6,1.4
			c-0.1,0.3,0,0.6,0.3,0.7l0.4,0.2c0.3,0.1,0.4,0.4,0.3,0.7l-0.3,0.7c-0.1,0.2-0.3,0.3-0.5,0.3l-0.7,0.1c-0.3,0-0.5,0.3-0.5,0.6
			l0.1,1.3c0,0.3,0.3,0.6,0.7,0.5l0.2,0c0.3-0.1,0.6,0.1,0.6,0.4c0.1,0.3-0.1,0.6-0.3,0.7l-0.6,0.2c-0.3,0.1-0.4,0.4-0.3,0.7
			l0.4,0.9c0.1,0.3,0.5,0.4,0.7,0.3l0.8-0.4l0.5,0.5l-0.2,1.1c-0.1,0.3,0.1,0.6,0.4,0.6l0.7,0.2c0.4,0.1,0.7-0.2,0.7-0.5l0-0.2
			c0-0.2,0.1-0.4,0.3-0.5l0.8-0.3c0.3-0.1,0.6,0,0.7,0.3l0.3,0.6c0.1,0.3,0.5,0.4,0.7,0.3l1.5-0.7c0.3-0.1,0.4-0.5,0.3-0.7l-0.4-0.8
			c-0.1-0.3,0-0.6,0.2-0.7l0.4-0.3c0.3-0.2,0.6-0.1,0.8,0.2l0.2,0.4c0.2,0.3,0.5,0.4,0.8,0.2l1.7-1.1C151,50.8,151,50.5,150.9,50.2z
			 M149,47.9c-1.9,2.2-4.7,3-6.3,1.6c-1.6-1.4-1.4-4.3,0.5-6.5c1.9-2.2,4.7-3,6.3-1.6C151.1,42.8,150.8,45.7,149,47.9z"/>
		<g>
			<path class="st4" d="M158.6,188.1l-0.8,0c-0.3,0-0.5-0.2-0.6-0.5l-0.1-0.5c0-0.3,0.2-0.6,0.5-0.6l0.5-0.1c0.3,0,0.5-0.3,0.5-0.6
				l-0.4-2c-0.1-0.3-0.3-0.5-0.6-0.4l-0.9,0.1c-0.2,0-0.5-0.1-0.6-0.3l-0.6-1.1c-0.1-0.3-0.1-0.6,0.2-0.7l0.3-0.2
				c0.3-0.2,0.3-0.6,0.1-0.8l-1.3-1.5c-0.2-0.2-0.5-0.2-0.7-0.1l-0.6,0.4c-0.2,0.1-0.5,0.1-0.7,0l-0.3-0.2c-0.2-0.2-0.3-0.5-0.1-0.7
				l0.2-0.3c0.1-0.3,0.1-0.6-0.2-0.7l-1-0.6c-0.3-0.2-0.7-0.1-0.8,0.3l-0.1,0.3c-0.1,0.3-0.4,0.4-0.6,0.3l-0.5-0.1
				c-0.2,0-0.3-0.2-0.4-0.4l-0.3-1c-0.1-0.3-0.4-0.5-0.7-0.3l-0.6,0.3c-0.3,0.1-0.4,0.5-0.3,0.8l0.5,0.9l-0.8,0.5l-0.4-0.6
				c-0.2-0.3-0.6-0.3-0.8-0.1l-0.6,0.6c-0.2,0.2-0.2,0.6,0.1,0.8l0.7,0.5c0.2,0.1,0.3,0.4,0.2,0.6l-0.1,0.5l-1.1-0.3
				c-0.3-0.1-0.7,0.2-0.7,0.5l0,1.4c0,0.2,0.1,0.4,0.4,0.5l1.1,0.4c0.2,0.1,0.4,0.3,0.4,0.5l-0.1,1c0,0.3-0.2,0.5-0.5,0.5l-0.6,0
				c-0.4,0-0.6,0.4-0.5,0.7l0.5,1.7c0.1,0.3,0.3,0.4,0.6,0.4l1.1-0.1c0.2,0,0.4,0.1,0.5,0.3l0.6,1c0.1,0.2,0.1,0.5-0.1,0.6l-0.5,0.6
				c-0.2,0.2-0.2,0.5,0,0.7l1.1,1.1c0.2,0.2,0.6,0.2,0.8,0l0.3-0.3c0.2-0.2,0.6-0.2,0.8,0l0.5,0.5c0.1,0.1,0.2,0.4,0.1,0.6l-0.2,0.7
				c-0.1,0.3,0.1,0.6,0.3,0.7l1.2,0.5c0.3,0.1,0.7-0.1,0.7-0.4l0-0.2c0.1-0.3,0.3-0.5,0.6-0.4c0.3,0,0.5,0.3,0.5,0.6l0,0.6
				c0,0.3,0.2,0.6,0.6,0.6l0.9,0c0.3,0,0.6-0.3,0.5-0.6l-0.1-0.9l0.6-0.3l0.9,0.6c0.2,0.2,0.6,0.1,0.7-0.1l0.4-0.5
				c0.2-0.3,0.1-0.7-0.2-0.8l-0.2-0.1c-0.2-0.1-0.3-0.3-0.3-0.5v-0.9c0-0.3,0.2-0.5,0.5-0.5h0.7c0.3,0,0.6-0.3,0.5-0.6l-0.1-1.7
				C159.2,188.3,158.9,188.1,158.6,188.1z M153.7,190.7c-1.9,0.9-4.5-0.4-5.8-3c-1.3-2.6-0.9-5.5,1-6.5c1.9-0.9,4.5,0.4,5.8,3
				C156,186.8,155.6,189.7,153.7,190.7z"/>
			<path class="st4" d="M182.1,157c0-0.6-0.5-1.1-1.2-1.1l-1.7,0.1c-0.6,0-1.1-0.4-1.2-1l-0.2-1.1c-0.1-0.6,0.3-1.2,1-1.3l0.9-0.1
				c0.6-0.1,1.1-0.7,1-1.3l-0.7-4.2c-0.1-0.6-0.7-1-1.3-0.9l-1.9,0.3c-0.5,0.1-0.9-0.2-1.2-0.6l-1.3-2.4c-0.3-0.5-0.1-1.2,0.4-1.5
				l0.6-0.3c0.6-0.4,0.7-1.2,0.3-1.7l-2.6-3c-0.4-0.4-1.1-0.5-1.5-0.2l-1.2,0.9c-0.4,0.3-1,0.3-1.4,0l-0.6-0.5
				c-0.4-0.3-0.6-1-0.3-1.4l0.3-0.6c0.3-0.5,0.1-1.2-0.4-1.5l-2-1.2c-0.6-0.4-1.4-0.1-1.6,0.5l-0.2,0.6c-0.2,0.5-0.8,0.8-1.3,0.7
				l-1-0.2c-0.4-0.1-0.7-0.4-0.8-0.8l-0.6-2.1c-0.2-0.6-0.9-1-1.5-0.7l-1.3,0.6c-0.6,0.3-0.9,1-0.5,1.6l1.1,1.9l-1.7,1.1l-0.8-1.2
				c-0.4-0.6-1.2-0.7-1.7-0.2l-1.2,1.2c-0.5,0.5-0.4,1.3,0.1,1.7l1.4,1c0.4,0.3,0.5,0.7,0.4,1.2l-0.3,1.1l-2.3-0.6
				c-0.7-0.2-1.4,0.3-1.4,1.1l0,2.9c0,0.5,0.3,0.9,0.8,1.1l2.3,0.8c0.5,0.2,0.8,0.6,0.8,1.1l-0.1,2.1c0,0.6-0.5,1.1-1.1,1.1l-1.3,0
				c-0.7,0-1.3,0.7-1.1,1.5l1,3.4c0.2,0.5,0.7,0.8,1.2,0.8l2.3-0.2c0.4,0,0.9,0.2,1.1,0.5l1.3,2.1c0.2,0.4,0.2,0.9-0.1,1.3l-1.1,1.3
				c-0.4,0.4-0.4,1.1,0.1,1.5l2.2,2.2c0.4,0.4,1.1,0.4,1.6,0l0.7-0.7c0.4-0.4,1.2-0.4,1.6,0l1,1c0.3,0.3,0.4,0.7,0.3,1.1l-0.5,1.5
				c-0.2,0.6,0.1,1.2,0.7,1.4l2.5,0.9c0.7,0.2,1.4-0.1,1.5-0.8l0.1-0.3c0.1-0.6,0.7-1,1.2-0.9c0.6,0.1,1,0.6,1,1.2l0,1.2
				c0,0.6,0.5,1.2,1.1,1.2l2,0c0.6,0,1.1-0.6,1.1-1.2l-0.1-1.8l1.3-0.6l1.9,1.3c0.5,0.3,1.2,0.2,1.5-0.2l0.9-1.1
				c0.5-0.6,0.2-1.5-0.5-1.7l-0.4-0.2c-0.4-0.2-0.7-0.6-0.7-1v-1.8c0-0.6,0.5-1.1,1.1-1.1h1.4c0.6,0,1.2-0.5,1.1-1.2L182.1,157z
				 M170.8,161.2c-3.9,2-9.2-0.8-11.9-6.2c-2.7-5.4-1.8-11.4,2.1-13.3c3.9-2,9.2,0.8,11.9,6.2C175.6,153.3,174.7,159.3,170.8,161.2z
				"/>
		</g>
	</g>
	<g>
		<path class="st7" d="M178,73.8c-0.6,0-1,0.5-1,1v13.7c0,0.6,0.5,1,1,1c0.6,0,1-0.5,1-1V74.8C179,74.3,178.6,73.8,178,73.8z"/>
		<path class="st7" d="M155,63.7c-0.5,0-0.9,0.4-0.9,0.9v11.6c0,0.5,0.4,0.9,0.9,0.9s0.9-0.4,0.9-0.9V64.6
			C155.9,64.1,155.5,63.7,155,63.7z"/>
		<path class="st7" d="M183.7,75.6c-0.5,0-0.9,0.4-0.9,0.9v15.6c0,0.5,0.4,0.9,0.9,0.9c0.5,0,0.9-0.4,0.9-0.9V76.5
			C184.6,76,184.2,75.6,183.7,75.6z"/>
		<path class="st7" d="M194.8,83.9c-0.5,0-0.9,0.4-0.9,0.9V98c0,0.5,0.4,0.9,0.9,0.9c0.5,0,0.9-0.4,0.9-0.9V84.9
			C195.7,84.4,195.3,83.9,194.8,83.9z"/>
		<path class="st7" d="M205.7,95.3c-0.6,0-1,0.5-1,1v8.4c0,0.6,0.5,1,1,1c0.6,0,1-0.5,1-1v-8.4C206.8,95.7,206.3,95.3,205.7,95.3z"
			/>
	</g>
	<g>
		<path class="st7" d="M99.4,74.8c0,0-12.8-4-20.7,8.8c0,0-1.2,13,0.7,18.9c1.8,5.3,1.8,3.2,1.8,3.2s3.8,2.1,5.8,2.1
			c1.9,0-0.2,0,0.3,0c0.4,0,6.4-0.1,6.4-0.1l3.2-3.8l0.1-7.6l-0.5-1.8c0,0-2.2-7.6,3.3-3.8l-1.2,3.8c0,0,3.9,1.7,5.1-0.9
			c0,0-0.9-2.1,6-5.7C109.5,88.1,114.2,76.5,99.4,74.8z"/>
		<g>
			<polygon class="st7" points="232.3,199 257.1,214.1 257.3,184.2 232.5,170.3 			"/>
			<path class="st7" d="M240.1,22.7C204,5.4,205.2,55,205.2,55l26,14.1C229.7,42.4,243.8,51,243.9,51c30.6,21.1,5.5,49.4,5.5,49.4
				c-22.2,19.1-19.3,51.4-19.3,51.4l25.4,14.4c-1.9-22.8,11.5-38.1,11.5-38.1c15.3-14.4,16-24.7,16-24.7
				C290.5,42.7,240.1,22.7,240.1,22.7z"/>
		</g>
	</g>
	<g>
		<path class="st7" d="M198.4,213.9l1.9,0.6l0.5-2.2C198.3,211.7,198.4,213.9,198.4,213.9z"/>
		<path class="st7" d="M201.9,205.3l1.5,2.1l2.4-1.7l-1.3-2.2C203.5,203.2,201.9,205.3,201.9,205.3z"/>
		<path class="st7" d="M212.8,200.2c-0.5-2.4-2.2-1.9-2.2-1.9l-2.7,1.3c1.3,0.4,1.7,3,1.7,3c0.8,3,1.5,2.4,1.4,2.4s1.9,0.5,1.9,0.5
			c1.9,0.1,1.9-1.7,1.9-1.7C213.3,203.7,212.8,200.2,212.8,200.2z"/>
		<g>
			<path class="st7" d="M223.8,206.1c1.3-1.7,0.2-2.7,0.2-2.7l-2.9-1.8c-2.3-1.5-3.1,1.6-3.1,1.6s3.5,1.6,3.1,3c-2,2.9,0,3.9,0,3.9
				c1.1,1.3,2.3,0.6,2.3,0.6c0.1-0.1,1.8-1.4,1.8-1.4l-0.9-0.7C223.1,207.5,223.8,206.1,223.8,206.1z"/>
			<g>
				<path class="st7" d="M198.8,228.3c1.2-0.1,1.4-1.3,1.4-1.3C199,227.4,198.8,228.3,198.8,228.3z"/>
				<g>
					<path class="st7" d="M212.5,238.4c-10.7-15.4-0.4-23-0.4-23c-13.2,3.3-7,19.2-4.1,23c9.8,13,17,5.9,17,5.9
						C218.1,245.8,212.5,238.4,212.5,238.4z"/>
					<path class="st7" d="M244.1,237.9c0-2.1-1.8-2-1.8-2l-1.6,0.1c-2.3,0.4-2.5-1.2-2.5-1.2l-0.3-1.9c0.2-2.2,2.9-1.9,2.9-1.9
						c2-0.3,1.3-2.8,1.3-2.8l-0.9-5.2c-0.2-1.4-1.7-1.5-1.7-1.5l-2.4,0.3c-1.3,0.5-2.1-0.5-2.1-0.5l-1.8-3.3
						c-1.4-2.3,1.4-3.3,1.4-3.3c1.5-1.3-0.1-2.7-0.1-2.7l-3.6-4.2c-1.1-1-2.2-0.1-2.2-0.1l-1.6,1.2l4.4,5c0.8,1.9-1.1,2.5-1.1,2.5
						c-1.8,1-0.9,2.4-0.9,2.4l1.6,3c0.6,1.6,2,1.3,2,1.3l2.6-0.4c1.7-0.1,1.9,1.3,1.9,1.3l1.2,6.5c0,0,0,0-0.1,0
						c-1.1,0.4-1.4,1.6-1.4,1.6l-1.1,0.1c-2,0.1-1.9,1.8-1.9,1.8l0.2,1.2c0.2,1.9,1.6,1.9,1.6,1.9l2.2,0c2.3-0.3,2.2,1.5,2.2,1.5
						l0.2,5.5h1.9c1.7-0.1,1.7-1.6,1.7-1.6L244.1,237.9z"/>
				</g>
			</g>
		</g>
		<path class="st7" d="M240.8,250.5c-1.9-0.3-1.9-1.9-1.9-1.9l0-2.9h-1.8c-1.6-0.1-1.8,1.4-1.8,1.4l0,2.4c-0.2,1.8,1.9,2.2,1.9,2.2
			c1.8,1.5,0.2,2.9,0.2,2.9l0.4,0.3c1,0.6,1.9-0.2,1.9-0.2l1.3-1.6C242.4,251.5,240.8,250.5,240.8,250.5z"/>
		<path class="st7" d="M231.9,254.3l-2,0.9l0.2,3.1l2.1,0c2-0.2,1.4-2.7,1.4-2.7L231.9,254.3z"/>
		<path class="st7" d="M223.5,254.8c-1.8-1.2-2.6,0.8-2.6,0.8l0.9,0.3c1.5,0.8,2.3-0.5,2.3-0.5C223.8,255,223.5,254.8,223.5,254.8z"
			/>
		<path class="st7" d="M210.6,248.3c0,0,0.8,0.8,1.9,0.2C212.5,248.5,211.8,247.8,210.6,248.3z"/>
		<path class="st7" d="M170.5,134.7c0.9-1.2,0.1-1.9,0.1-1.9l-2-1.3c-1.6-1-2.1,1.1-2.1,1.1s2.4,1.1,2.1,2c-1.4,2,0,2.7,0,2.7
			c0.7,0.9,1.6,0.4,1.6,0.4c0.1-0.1,1.2-1,1.2-1l-0.6-0.5C170,135.6,170.5,134.7,170.5,134.7z"/>
		<path class="st7" d="M162.2,156.8c-7.3-10.5-0.2-15.6-0.2-15.6c-9,2.2-4.8,13.1-2.8,15.6c6.7,8.8,11.6,4,11.6,4
			C166,161.8,162.2,156.8,162.2,156.8z"/>
		<path class="st7" d="M153.4,149.9c0.8-0.1,0.9-0.9,0.9-0.9C153.6,149.2,153.4,149.9,153.4,149.9z"/>
		<path class="st7" d="M153.2,139.9l1.3,0.4l0.3-1.5C153.1,138.4,153.2,139.9,153.2,139.9z"/>
		<path class="st7" d="M158.2,134.5l-0.9-1.5c-0.7-0.2-1.8,1.2-1.8,1.2l1,1.4L158.2,134.5z"/>
		<path class="st7" d="M160.7,132.3c0.5,2.1,1,1.6,1,1.6c-0.1,0,1.3,0.3,1.3,0.3c1.3,0.1,1.3-1.2,1.3-1.2c-1,0-1.3-2.4-1.3-2.4
			c-0.3-1.6-1.5-1.3-1.5-1.3l-1.8,0.9C160.5,130.5,160.7,132.3,160.7,132.3z"/>
		<path class="st7" d="M182.1,164.9c-1.3-0.2-1.3-1.3-1.3-1.3l0-2h-1.2c-1.1-0.1-1.2,1-1.2,1l0,1.6c-0.1,1.2,1.3,1.5,1.3,1.5
			c1.2,1,0.2,2,0.2,2l0.3,0.2c0.7,0.4,1.3-0.1,1.3-0.1l0.9-1.1C183.2,165.6,182.1,164.9,182.1,164.9z"/>
		<path class="st7" d="M176,167.4l-1.3,0.6l0.1,2.1l1.4,0c1.4-0.1,1-1.9,1-1.9L176,167.4z"/>
		<path class="st7" d="M170.2,167.8c-1.2-0.8-1.8,0.5-1.8,0.5l0.6,0.2c1,0.5,1.5-0.3,1.5-0.3C170.4,167.9,170.2,167.8,170.2,167.8z"
			/>
		<path class="st7" d="M160.7,163.5c0,0,0.5,0.5,1.3,0.1C162,163.6,161.5,163.1,160.7,163.5z"/>
		<path class="st7" d="M197.3,150.1c0.4-0.6,0.1-0.9,0.1-0.9l-1-0.6c-0.8-0.5-1,0.5-1,0.5s1.2,0.5,1,1c-0.7,1,0,1.3,0,1.3
			c0.4,0.4,0.8,0.2,0.8,0.2c0,0,0.6-0.5,0.6-0.5l-0.3-0.2C197.1,150.5,197.3,150.1,197.3,150.1z"/>
		<path class="st7" d="M193.4,160.4c-3.5-5.1-0.1-7.6-0.1-7.6c-4.4,1.1-2.3,6.4-1.4,7.6c3.2,4.3,5.6,2,5.6,2
			C195.2,162.9,193.4,160.4,193.4,160.4z"/>
		<path class="st7" d="M188.9,157.1c0.4,0,0.5-0.4,0.5-0.4C188.9,156.8,188.9,157.1,188.9,157.1z"/>
		<path class="st7" d="M189.1,152.4l0.6,0.2l0.2-0.7C189.3,151.8,189.2,152.2,189.1,152.4z"/>
		<path class="st7" d="M189.1,152.4L189.1,152.4C189.1,152.7,189.1,152.6,189.1,152.4z"/>
		<path class="st7" d="M191.4,149.8l-0.4-0.7c-0.3-0.1-0.9,0.6-0.9,0.6l0.5,0.7L191.4,149.8z"/>
		<path class="st7" d="M192.7,148.8c0.3,1,0.5,0.8,0.5,0.8s0.6,0.2,0.6,0.2c0.6,0,0.6-0.6,0.6-0.6c-0.5,0-0.6-1.2-0.6-1.2
			c-0.2-0.8-0.7-0.6-0.7-0.6l-0.9,0.4C192.6,148,192.7,148.8,192.7,148.8z"/>
		<path class="st7" d="M201.4,160.1l0.7,0c0.7-0.1,0.7,0.5,0.7,0.5l0.1,1.8h0.6c0.6,0,0.6-0.5,0.6-0.5l-0.1-1.6
			c0-0.7-0.6-0.7-0.6-0.7l-0.5,0c-0.8,0.1-0.8-0.4-0.8-0.4l-0.1-0.6c0.1-0.7,1-0.6,1-0.6c0.7-0.1,0.4-0.9,0.4-0.9l-0.3-1.7
			c-0.1-0.5-0.5-0.5-0.5-0.5l-0.8,0.1c-0.4,0.2-0.7-0.1-0.7-0.1l-0.6-1.1c-0.5-0.8,0.5-1.1,0.5-1.1c0.5-0.4,0-0.9,0-0.9l-1.2-1.4
			c-0.4-0.3-0.7,0-0.7,0l-0.5,0.4l1.5,1.6c0.3,0.6-0.4,0.8-0.4,0.8c-0.6,0.3-0.3,0.8-0.3,0.8l0.5,1c0.2,0.5,0.7,0.4,0.7,0.4l0.9-0.1
			c0.5,0,0.6,0.4,0.6,0.4l0.4,2.1c0,0,0,0,0,0c-0.4,0.1-0.5,0.5-0.5,0.5l-0.4,0c-0.7,0-0.6,0.6-0.6,0.6l0.1,0.4
			C201,160.1,201.4,160.1,201.4,160.1z"/>
		<path class="st7" d="M201.9,165.8l0.1,0.1c0.3,0.2,0.6-0.1,0.6-0.1l0.4-0.5c0.5-0.6-0.1-0.9-0.1-0.9c-0.6-0.1-0.6-0.6-0.6-0.6
			l0-0.9h-0.6c-0.5,0-0.6,0.5-0.6,0.5l0,0.8c-0.1,0.6,0.6,0.7,0.6,0.7C202.4,165.3,201.9,165.8,201.9,165.8z"/>
		<path class="st7" d="M200.3,166.1l-0.6-0.4l-0.6,0.3l0.1,1l0.7,0C200.5,166.9,200.3,166.1,200.3,166.1z"/>
		<path class="st7" d="M196.9,165.8c-0.6-0.4-0.9,0.3-0.9,0.3l0.3,0.1c0.5,0.3,0.7-0.1,0.7-0.1C197,165.9,196.9,165.8,196.9,165.8z"
			/>
		<path class="st7" d="M192.6,163.7c0,0,0.3,0.3,0.6,0.1C193.3,163.8,193,163.5,192.6,163.7z"/>
		<path class="st7" d="M153,44.8c0,0,0.7,0.3,0.7,0.3l0.1-0.4c0.1-0.5,0.6-0.4,0.6-0.4c0.7,0.2,0.9-0.3,0.9-0.3l0.2-1.1
			c0.2-0.9-0.9-0.7-0.9-0.7s0,1.3-0.5,1.3c-1.2-0.2-1.2,0.5-1.2,0.5C152.6,44.5,153,44.8,153,44.8z"/>
		<path class="st7" d="M142.8,49.4c-1.3-1.9,0.2-4.6,0.2-4.6c3.3-5.3,6.9-3.1,6.9-3.1c-2.7-3.6-6.8,0.4-7.5,1.7
			C139.7,48.1,142.8,49.4,142.8,49.4z"/>
		<path class="st7" d="M144.9,39.6c0,0-0.4,0.1-0.6-0.3C144.4,39.7,144.8,40.2,144.9,39.6z"/>
		<path class="st7" d="M149.6,38.1c0.2-0.7-0.5-0.4-0.8-0.5l0.1,0.7L149.6,38.1z"/>
		<path class="st7" d="M152.7,38.1c0-0.4-0.9-0.6-0.9-0.6l-0.4,0.7l0.8,0.5L152.7,38.1z"/>
		<path class="st7" d="M153.1,40.2c0,0,0.1,0.6,0.1,0.6c0.2,0.6,0.8,0.3,0.8,0.3c-0.2-0.4,0.8-1,0.8-1c0.7-0.5,0.3-0.9,0.3-0.9
			l-0.8-0.6c0.1,0.5-0.7,0.9-0.7,0.9C152.8,40.1,153.1,40.3,153.1,40.2z"/>
		<path class="st7" d="M146.6,53.6l-1.6,0.8l0.2,0.6c0.3,0.5,0.7,0.3,0.7,0.3l1.5-0.7c0.6-0.3,0.4-0.8,0.4-0.8l-0.2-0.5
			c-0.4-0.6,0-0.9,0-0.9l0.5-0.3c0.7-0.2,0.9,0.6,0.9,0.6c0.3,0.6,1,0,1,0l1.5-0.9c0.4-0.2,0.2-0.7,0.2-0.7l-0.4-0.7
			c-0.3-0.3-0.1-0.7-0.1-0.7l0.8-1c0.5-0.7,1.2,0,1.2,0c0.6,0.3,0.8-0.4,0.8-0.4l0.8-1.6c0.1-0.5-0.3-0.7-0.3-0.7l-0.6-0.3l-0.9,2
			c-0.5,0.5-0.9,0-0.9,0c-0.5-0.4-0.9,0-0.9,0l-0.7,0.9c-0.4,0.4-0.1,0.8-0.1,0.8l0.5,0.7c0.2,0.5-0.2,0.7-0.2,0.7l-1.8,1.2
			c0,0,0,0,0,0c-0.3-0.3-0.7-0.2-0.7-0.2l-0.2-0.3c-0.3-0.6-0.8-0.3-0.8-0.3l-0.3,0.2c-0.6,0.3-0.4,0.7-0.4,0.7l0.3,0.7
			C147.2,53.4,146.6,53.6,146.6,53.6z"/>
		<path class="st7" d="M143.4,53.1l-0.7,0.3c-0.6,0.2-0.4,0.9-0.4,0.9c-0.2,0.7-0.8,0.4-0.8,0.4l0,0.2c-0.1,0.4,0.3,0.6,0.3,0.6
			l0.7,0.2c0.7,0.2,0.8-0.4,0.8-0.4c-0.2-0.6,0.3-0.8,0.3-0.8l0.9-0.4l-0.2-0.5C143.9,53,143.4,53.1,143.4,53.1z"/>
		<path class="st7" d="M139.4,53l0.3,0.6c0.3,0.6,1,0.1,1,0.1l0.1-0.7l-0.5-0.5L139.4,53z"/>
		<path class="st7" d="M139.6,50.4c0.1-0.7-0.6-0.7-0.6-0.7l0,0.3c0,0.5,0.4,0.6,0.4,0.6C139.6,50.5,139.6,50.4,139.6,50.4z"/>
		<path class="st7" d="M139.7,45.4c0,0-0.1,0.3,0.2,0.6C139.9,46,140,45.7,139.7,45.4z"/>
		<path class="st7" d="M153.5,177.8c0.4-0.6,0.1-0.9,0.1-0.9l-1-0.6c-0.8-0.5-1,0.5-1,0.5s1.2,0.5,1,1c-0.7,1,0,1.3,0,1.3
			c0.4,0.4,0.8,0.2,0.8,0.2c0,0,0.6-0.5,0.6-0.5l-0.3-0.2C153.3,178.3,153.5,177.8,153.5,177.8z"/>
		<path class="st7" d="M149.5,188.6c-3.5-5.1-0.1-7.6-0.1-7.6c-4.4,1.1-2.3,6.4-1.4,7.6c3.2,4.3,5.8,2.1,5.8,2.1
			C151.5,191.1,149.5,188.6,149.5,188.6z"/>
		<path class="st7" d="M145,185.1c0.4,0,0.5-0.4,0.5-0.4C145.1,184.8,145,185.1,145,185.1z"/>
		<path class="st7" d="M145.2,180.3l0.6,0.2l0.2-0.7C145.2,179.6,145.2,180.3,145.2,180.3z"/>
		<path class="st7" d="M147.1,176.9c-0.3-0.1-0.9,0.6-0.9,0.6l0.5,0.7l0.8-0.5L147.1,176.9z"/>
		<path class="st7" d="M150.5,177c-0.5,0-0.6-1.2-0.6-1.2c-0.2-0.8-0.7-0.6-0.7-0.6l-0.9,0.4c0.4,0.1,0.5,1,0.5,1
			c0.3,1,0.5,0.8,0.5,0.8s0.6,0.2,0.6,0.2C150.5,177.6,150.5,177,150.5,177z"/>
		<path class="st7" d="M159.6,187.7l-0.5,0c-0.8,0.1-0.8-0.4-0.8-0.4l-0.1-0.6c0.1-0.7,1-0.6,1-0.6c0.7-0.1,0.4-0.9,0.4-0.9
			l-0.3-1.7c-0.1-0.5-0.5-0.5-0.5-0.5l-0.8,0.1c-0.4,0.2-0.7-0.1-0.7-0.1l-0.6-1.1c-0.5-0.8,0.5-1.1,0.5-1.1c0.5-0.4,0-0.9,0-0.9
			l-1.2-1.4c-0.4-0.3-0.7,0-0.7,0l-0.5,0.4l1.5,1.6c0.3,0.6-0.4,0.8-0.4,0.8c-0.6,0.3-0.3,0.8-0.3,0.8l0.5,1
			c0.2,0.5,0.7,0.4,0.7,0.4l0.9-0.1c0.5,0,0.6,0.4,0.6,0.4l0.4,2.1c0,0,0,0,0,0c-0.4,0.1-0.5,0.5-0.5,0.5l-0.4,0
			c-0.7,0-0.6,0.6-0.6,0.6l0.1,0.4c0.1,0.6,0.5,0.6,0.5,0.6l0.7,0c0.7-0.1,0.7,0.5,0.7,0.5l0.1,1.8h0.6c0.6,0,0.6-0.5,0.6-0.5
			l-0.1-1.6C160.2,187.6,159.6,187.7,159.6,187.7z"/>
		<path class="st7" d="M159.1,192.5c-0.6-0.1-0.6-0.6-0.6-0.6l0-0.9h-0.6c-0.5,0-0.6,0.5-0.6,0.5l0,0.8c-0.1,0.6,0.6,0.7,0.6,0.7
			c0.6,0.5,0.1,0.9,0.1,0.9l0.1,0.1c0.3,0.2,0.6-0.1,0.6-0.1l0.4-0.5C159.7,192.8,159.1,192.5,159.1,192.5z"/>
		<path class="st7" d="M156.1,193.6l-0.6,0.3l0.1,1l0.7,0c0.7-0.1,0.5-0.9,0.5-0.9L156.1,193.6z"/>
		<path class="st7" d="M153.3,193.8c-0.6-0.4-0.9,0.3-0.9,0.3l0.3,0.1c0.5,0.3,0.7-0.1,0.7-0.1C153.4,193.9,153.3,193.8,153.3,193.8
			z"/>
		<path class="st7" d="M148.8,191.8c0,0,0.3,0.3,0.6,0.1C149.4,191.8,149.2,191.6,148.8,191.8z"/>
	</g>
</g>
<g>
	<path class="st8" d="M99.1,154c0,0,3.4,29.7,7.4,31.9c0,0,4.4-1.7,4.9-3.5C111.3,182.5,100.1,154.1,99.1,154z"/>
	<path class="st8" d="M65.5,130.1l-0.4,11.8c0,0,3.3,13.7,3.6,15.6l-1-15.9L65.5,130.1z"/>
</g>
<g>
	<path class="st9" d="M102.5,93.6c-0.8,2.5-2.9,1.1-2.9,1.1l0.1-3.8c-6.4-4.5-2.9,5.6-2.9,5.6l-0.1,7.6l-3.6,3.7l-6.2,0.1
		c-1.5,0.2-5.8-3.3-5.8-3.3c-0.4,3.3-4,6.2-4,6.2l25.4,12.6l-2.7-4.3l-0.1-7.1c6.9-0.1,7.6-3.5,7.6-3.5l-0.1-19.6
		C104.2,89.4,102.5,93.6,102.5,93.6z"/>
	<path class="st9" d="M152.5,188.5c0.6-1.5-0.3-1.7-0.3-1.7l-4-3.2c1-4.5-1.5-2.9-1.5-2.9l-4.4,3.7c2.8,7.1-1.4,7.9-1.4,7.9
		c3.9,1.8,10.2,0.6,10.2,0.6c1.2-0.2,1.2-2.5,1.2-2.5C154.3,189.3,152.5,188.5,152.5,188.5z"/>
</g>
</svg>
