<?xml version="1.0" encoding="utf-8"?>
<!-- Generator: Adobe Illustrator 25.2.3, SVG Export Plug-In . SVG Version: 6.00 Build 0)  -->
<svg version="1.1" id="Layer_1" xmlns="http://www.w3.org/2000/svg" xmlns:xlink="http://www.w3.org/1999/xlink" x="0px" y="0px"
	 viewBox="0 0 324.2 356" style="enable-background:new 0 0 324.2 356;" xml:space="preserve">
<style type="text/css">
	.st0{fill:#773976;}
	.st1{fill:#4B2448;}
	.st2{fill:#F18661;}
	.st3{fill:#79C4A9;}
	.st4{fill:#F5A791;}
	.st5{opacity:8.000000e-02;fill:#BF86BA;enable-background:new    ;}
	.st6{fill:#BDDFD3;}
	.st7{fill:#F4A091;}
</style>
<text transform="matrix(1 0 0 1 -36.808 -31.7176)" style="fill:#020203; font-family:'MyriadPro-Regular'; font-size:10.7621px;">  </text>
<g>
	<g>
		<path class="st0" d="M226.6,170.7c-2.5-0.8-57-32.4-91.2-53.4l-0.4,43.3c0.1-0.1,0.2-0.2,0.3-0.2l1.5-0.6c0.8-0.3,1.5,0.1,1.8,0.9
			l0.8,2.5c0.1,0.4,0.5,0.8,1,0.9l1.1,0.2l0.1-0.3c0.2-0.6,1-1,1.6-0.8l0.1-0.3c0.1-0.3,0.3-0.4,0.5-0.6l0.4-19.4
			c0-0.4,0.1-0.8,0.3-1.1c0,0,0,0,0,0.1c0,0,1-4.5,5.3-2.8c29.2,17.8,29.2,17.8,29.9,18.3c1,0.7,0.4,2.9,0.2,3.5
			c0,0-0.1-1.2-3.2-3.1l-28.2-17.2c0,0-1.1-0.8-2.5-0.2c0.7-0.3,1.6-0.2,2.4,0.2l30.1,18.4c0.5,0.7,1.3,1.3,1.3,2.4l-1.3,20.1
			c0.1,0.1,0.2,0.2,0.2,0.3l0.4,1.3c0.1,0.2,0.3,0.4,0.5,0.5l0.5,0.1l0.1-0.2c0.1-0.4,0.5-0.5,0.9-0.4l0.1-0.2
			c0.2-0.4,0.6-0.6,1-0.3l1.2,0.8c0.3,0.2,0.4,0.6,0.2,0.9l-0.2,0.4c-0.2,0.3-0.1,0.7,0.2,0.9l0.4,0.3c0.1,0.1,0.3,0.1,0.5,0.1
			l0.1-0.1c0.1-0.1,0.2-0.1,0.3-0.1l0.3-0.2l0.4-18.1c0-0.5,0.2-0.9,0.4-1.2c-0.1,0.1-0.2,0.2-0.3,0.4c0,0,1-4.5,5.3-2.8
			c0,0,28.9,17.6,29.9,18.3c1,0.7,0.4,2.9,0.2,3.5v-0.1c0.1,0.2,0.1,0.4,0.1,0.6l-1.5,23.5c0,2.1-2.3,3.5-4.2,2.4l-23.6-14.4
			c0.1,0.1,0.1,0.2,0.1,0.3l0.1,2.1c0,0.4-0.3,0.7-0.7,0.7h-0.5c0,0-0.3,1.3-0.7,1h-0.8v0.3v1.1c0.2,0.3,0.4,0.5,0.6,0.6l0.2,0.1
			c0.4,0.2,0.6,0.7,0.3,1.1l-0.5,0.7c-0.1,0.1-0.3,0.2-0.4,0.2l24.3,13.8l6.1,9.9l-0.2,39.4c0,0,0,0,0,0l2.7-2c1-0.7,2.2-0.5,3,0.3
			l5.1,5.9c0.9,1.1,0.6,2.6-0.5,3.3l-1.1,0.6c-1,0.6-1.4,1.9-0.7,2.9l2.5,4.6c0.1,0.3,0.3,0.5,0.5,0.6v-1c0,0-0.8-0.3-0.9-0.6
			l-2-3.9c0,0-1.1-1.8,1.1-3.1c0,0,0.7-0.2,1.8-0.9v-2.6l-6-6.1l2-1.5c0,0,1.4-1.1,2.9,0.1l0.1,0.6l0.1-93.3c0,0.1-0.1,0.2-0.1,0.3
			C230.5,173.6,229.9,171.7,226.6,170.7z"/>
		<path class="st0" d="M186.5,282.6h0.1C186.4,282.5,186.5,282.5,186.5,282.6z"/>
		<path class="st0" d="M140.9,201.2l0.5-1.6c0.1-0.4,0-0.9-0.3-1.2l-1.1-1.1c-0.2-0.2-0.5-0.3-0.7-0.3l-0.1,0.1
			c-0.3,0.3-0.6,0.4-1,0.3l-0.7,0.7c-0.5,0.5-1.3,0.5-1.7,0l-0.4-0.4l-0.6,63.7c0,1.3,0.7,2.5,1.8,3.1l43.8,23.5
			c0,0-0.6-3.2,3.3-2.7c0.8,0,1.8,0,2-0.3l0.6-0.7c0.4-0.4,0.3-0.8,0.2-1l-1.7-0.5c-0.8-0.3-1.4-1.1-1.4-2v-3.9l-39.6-22.7
			c-1.6-1-2.5-2.7-2.3-4.6l0.7-46.5l-0.6-0.2C141,202.4,140.7,201.8,140.9,201.2z"/>
		<path class="st0" d="M229.8,77.2l-88-47.4c-2.4-1.2-5.2,0.4-5.3,3.1L136.1,62l95.4,53.8V80.4C231.7,79.1,231,77.9,229.8,77.2z"/>
		<path class="st0" d="M189.6,197.1c0.1,0.3,0.4,0.6,0.7,0.6h1.1h0.1l-2-1.2L189.6,197.1z"/>
		<path class="st0" d="M216.2,227.4v2C216.2,228.9,216.3,228.2,216.2,227.4z"/>
		<path class="st0" d="M178.2,189.5c-1.7,1.5-2,4.8-0.6,7.8c1.6,3.3,4.8,5,7.3,4c1.6-1.4,2-4.4,0.8-7.3c-0.2-0.2-0.3-0.5-0.4-0.7
			C183.6,190.1,180.6,188.5,178.2,189.5z"/>
		<path class="st0" d="M171.9,195.6c-0.1-0.4,0.2-0.9,0.6-0.9h0.2c0,0,0.3-0.7,0.7-1h0.8v0.2l-0.2-1.3c0-0.3-0.2-0.6-0.5-0.7
			l-1.4-0.5c-0.3-0.1-0.5-0.4,0.1-0.7v-1.7c-0.6-0.4-0.2-0.8,0.3-0.3h0.1c0-0.8,0.4-1.1,0.8-1l0.7,0.2l0,0c-0.1,0-0.1,0-0.2-0.1
			l-13.2-8.1l0.4,2.6c0.1,0.7-0.4,1.3-1,1.4l-0.6,0.1c-0.1,0.5-1,0.8-1,0.8h-0.6c0,0.1,0,0.3,0,0.5l0.2,1.1c0.1,0.6,0.6,1.1,1.3,1
			l2-0.1c0.7,0,1.3,0.5,1.4,1.3l0.1,1.9l9.4,5.3L171.9,195.6z"/>
		<path class="st0" d="M218.2,183.1l-28.3-17.3l29.3,17.9C218.9,183.5,218.6,183.3,218.2,183.1z"/>
		<path class="st0" d="M189.3,165.6c0.2,0.1,0.4,0.2,0.6,0.3C189.9,165.8,189.7,165.7,189.3,165.6z"/>
		<path class="st0" d="M188.6,165.4c0.2,0,0.4,0,0.6,0.1C189,165.5,188.8,165.4,188.6,165.4z"/>
		<path class="st0" d="M189.2,165.5C189.3,165.5,189.3,165.6,189.2,165.5C189.3,165.6,189.3,165.5,189.2,165.5z"/>
		<path class="st0" d="M144.3,142.3c0.5-0.7,1-1.1,1.5-1.3C145.1,141.1,144.6,141.6,144.3,142.3z"/>
		<path class="st0" d="M188,165.5c-0.8,0.1-1.4,0.6-1.8,1.2C186.7,166,187.3,165.6,188,165.5z"/>
		<path class="st0" d="M220.8,185.1c-0.2-0.3-0.5-0.6-0.7-0.8l-0.8-0.5C220,184.3,220.5,184.7,220.8,185.1z"/>
		<path class="st0" d="M220.8,185.1c0.1,0.1,0.2,0.2,0.3,0.4C221,185.3,220.9,185.2,220.8,185.1z"/>
		<path class="st0" d="M175.8,200.7l-13.2-7.7c-0.2,0.4-0.6,0.6-1,0.6h-0.2l13.9,7.7c0-0.1,0-0.1,0.1-0.2L175.8,200.7z"/>
		<path class="st0" d="M186.5,207c0,0.1-0.1,0.3-0.2,0.4l26.9,14.9c0.2,0.1,0.4,0.2,0.6,0.3L186.9,207h-0.1H186.5z"/>
		<path class="st0" d="M183.5,205.8v0.1c0,0.1-0.1,0.1-0.1,0.2l0.5,0.3C183.9,206.1,183.7,205.9,183.5,205.8z"/>
		<path class="st0" d="M179.2,203.2c-0.1-0.1-0.3-0.2-0.4-0.2l0,0c-0.1,0.1-0.2,0.1-0.3,0.2l1.5,0.8c0-0.1-0.1-0.1-0.1-0.2
			L179.2,203.2z"/>
		<path class="st0" d="M217.2,264.2v4.2v0.1v-4.8C216.9,263.9,216.8,264.1,217.2,264.2z"/>
		<path class="st0" d="M214.2,223.1c0.1,0,0.1,0.1,0.2,0.1C214.4,223.2,214.3,223.1,214.2,223.1L214.2,223.1z"/>
		<path class="st0" d="M214.4,223.7c1.1,1,1.5,2.5,1.7,3.8v-0.1C216.2,225.9,215.6,224.6,214.4,223.7z"/>
		<path class="st0" d="M216.2,262.6c0.6,0.2,0.6,0.4,0,0.6v-33.8c0.4,0.9,0.3,1.5,0,1.5V262.6z"/>
		<path class="st0" d="M135.4,160.3V160c-0.1,0.1-0.1,0.2-0.2,0.3L135.4,160.3z"/>
		<path class="st0" d="M145.5,163.9c0.5,0.3,0.7,1.1,0.4,1.6l-0.4,0.7c-0.3,0.5-0.2,1.2,0.3,1.5l0.7,0.5c0.4,0.3,1,0.3,1.5,0l1-0.8
			c-0.3,0-0.6,0-0.9-0.2l-0.7-0.5c-0.5-0.4-0.6-1-0.3-1.5l0.4-0.7c0.3-0.6,0.1-1.3-0.4-1.6l-2.2-1.3c-0.4-0.3-0.9-0.2-1.3,0v1.2
			L145.5,163.9z"/>
		<path class="st0" d="M152.7,201.5l0.1,2c0,0.1,0,0.2,0,0.3h0.5c0.7,0,1.2-0.6,1.2-1.3l-0.1-1.4l-0.3-0.2L152.7,201.5z"/>
		<path class="st0" d="M156.9,196v1.9c0.1,0.5,0.4,0.9,0.9,1.1l0.4,0.2c0.8,0.3,1,1.2,0.5,1.9l-0.5,0.6c0.4,0.1,0.9-0.1,1.2-0.4
			l0.9-1.2c0.5-0.6,0.2-1.6-0.5-1.9l-0.4-0.2c-0.5-0.2-0.8-0.6-0.5-1.1V195v-0.3h-0.8C157.6,194.8,157,195.3,156.9,196z"/>
		<path class="st0" d="M161.1,193.7h0.3l-0.2-0.1C161.1,193.6,161.1,193.6,161.1,193.7z"/>
		<path class="st0" d="M145.6,202.3v0.2l0,0c0.8,0.3,1.6-0.2,2-0.9v-0.2c-0.4,0-0.5-0.1-0.6-0.1
			C146.4,201.3,145.8,201.7,145.6,202.3z"/>
		<path class="st0" d="M162.7,192.5l-0.1-2l-1.8-1c0,0.1,0.1,0.2,0.1,0.2l0.1,2.6l1.5,0.9C162.7,193,162.8,192.8,162.7,192.5z"/>
		<path class="st0" d="M156.5,187.5c0.1,0.6,0.6,1.1,1.2,1l1.5-0.1l-2.9-1.6L156.5,187.5z"/>
		<path class="st0" d="M149.9,167.1c-0.2,0-0.4,0.1-0.6,0.2l-0.3,0.2c0.2,0,0.4-0.1,0.6-0.2L149.9,167.1z"/>
		<path class="st0" d="M149.6,193.5c0.1-0.1,0.3-0.1,0.4-0.2c1.5-0.8,2.7-2.1,3.4-3.9l-1.2-0.7C151.9,190.7,150.9,192.4,149.6,193.5
			z"/>
		<path class="st0" d="M142.3,199.1l0.3-0.8c0.1,0.1,0.2,0.1,0.3,0.2l0.1-3.5c0-0.3,0.1-0.6,0.1-0.8c1.7,0.6,3.5,0.5,5-0.3
			c0.5-0.2,0.8-0.5,1.1-0.8c-1.8,0.8-4,0.6-5.9-0.5c0.7-1.9,2.4-5.1,5.6-5.7c0.4,0.4,0.7,0.7,0.7,0.7l2.1,1.1
			c0.1-0.5,0.2-0.9,0.2-1.4l-0.8-0.5c0.3,0,0.5,0.1,0.8,0.2c0,0.1,0,0.2,0,0.3l1.3,0.8c0-0.2,0.1-0.4,0.1-0.6
			c0.3,0.1,0.5,0.2,0.8,0.4l1.7,0.9c-0.3-2-0.9-4.1-1.9-6c-3.6-7.2-10.6-10.9-15.8-8.8c-4,3.4-4.6,10.6-1.3,17.2
			c1.4,2.8,3.4,5.1,5.6,6.7l-0.1,3.8l2,0.8c0.7,0.3,1.4-0.2,1.5-0.8v-0.1l-2.5-0.9C142.4,200.2,142.1,199.6,142.3,199.1z
			 M142.6,194.5C142.6,194.5,142.6,194.6,142.6,194.5C142.6,194.6,142.6,194.6,142.6,194.5L142.6,194.5z"/>
		<path class="st0" d="M155.2,200.2l-1.4,0.6v0.5l1.7,1.2c0.5,0.4,1.3,0.3,1.7-0.2l0.4-0.6c-0.2,0-0.3-0.1-0.5-0.2L155.2,200.2z"/>
		<path class="st0" d="M158.7,194.7h1.1c0.6,0,1.1-0.4,1.2-1h-1.1C159.3,193.7,158.8,194.1,158.7,194.7z"/>
		<path class="st0" d="M150,202.5l0.1-1.3c0-0.6-0.4-1.2-1.1-1.2c-0.6-0.1-1.2,0.3-1.3,1v0.1c0.5,0.2,0.8,0.6,0.8,1.2l-0.1,1.3
			c0,0.7,0.5,1.3,1.2,1.3h2.1c0.6,0,1-0.4,1.1-1h-1.6C150.5,203.8,150,203.2,150,202.5z"/>
		<path class="st0" d="M159.6,188.5h-0.4l1.6,0.9C160.7,189,160.1,188.5,159.6,188.5z"/>
		<path class="st0" d="M161,193.6v-0.1l-0.1-1.2l-7.2-4.2c-0.1,0.5-0.2,0.9-0.4,1.3L161,193.6z"/>
		<path class="st0" d="M175.3,185.7l0.9-0.6l-0.5-0.7c-0.2-0.4-0.8-0.4-1.1-0.1l-0.4,0.4c0.2,0,0.4,0.1,0.5,0.3L175.3,185.7z"/>
		<path class="st0" d="M177.6,183l0.4,1.3c0,0.1,0.1,0.2,0.2,0.2l0.2-2.5c-0.2-0.2-0.5-0.2-0.7-0.1l-0.8,0.3
			c-0.1,0.1-0.2,0.2-0.3,0.3l0.1-0.1C177.1,182.3,177.5,182.5,177.6,183z"/>
		<path class="st0" d="M178.1,202.9L178.1,202.9c0.1,0,0.1,0,0.2,0H178.1C178.2,202.9,178.1,202.9,178.1,202.9z"/>
		<path class="st0" d="M182.4,206.3v0.1l0,0c0.3,0.1,0.7,0,0.8-0.3l-0.5-0.3C182.5,205.9,182.4,206.1,182.4,206.3z"/>
		<path class="st0" d="M189.6,196.7h-0.4l0,0l0.4,0.2l0,0C189.6,196.9,189.6,196.8,189.6,196.7z"/>
		<path class="st0" d="M185.8,186.5l1.6,1.8c0.3,0.3,0.2,0.8-0.2,1l-0.3,0.2c-0.3,0.2-0.4,0.6-0.2,0.9l0.8,1.4
			c0.1,0.3,0.4,0.4,0.7,0.4l1.1-0.2c0.4-0.1,0.7,0.2,0.8,0.6l0.4,2.7c0,0.1,0,0.2,0,0.3h0.3c0.4,0,0.7-0.4,0.6-0.8l-0.4-2.7
			c-0.1-0.4-0.4-0.6-0.8-0.6l-1.1,0.2c-0.3,0-0.6-0.1-0.7-0.4l-0.8-1.4c-0.2-0.3-0.1-0.7,0.2-0.9l0.3-0.2c0.4-0.2,0.4-0.7,0.2-1
			l-1.6-1.8c-0.2-0.3-0.6-0.3-0.9-0.1l-0.3,0.2v0.3C185.7,186.4,185.8,186.5,185.8,186.5z"/>
		<path class="st0" d="M191.9,198.1c-0.1-0.2-0.3-0.3-0.5-0.3L191.9,198.1z"/>
		<path class="st0" d="M183,202.1l-5.8-3.3C178.7,201.1,181,202.4,183,202.1z"/>
		<path class="st0" d="M186.5,206l0.1,1l0.4,0.2c0.3-0.1,0.6-0.4,0.6-0.7l-0.1-0.8l-0.1-0.1L186.5,206z"/>
		<path class="st0" d="M189.7,205.9c0.1,0,0.2,0,0.3,0H189.7L189.7,205.9z"/>
		<path class="st0" d="M177.2,184.4l-0.7-1.2c-0.1-0.2-0.1-0.5,0-0.7l-0.6,0.3c-0.4,0.2-0.5,0.6-0.3,1l0.7,1.2l-0.1,0.1l0,0
			L177.2,184.4z"/>
		<path class="st0" d="M174.9,188.2l0.2-0.7c0.1-0.3,0-0.6-0.3-0.7l-0.9-0.6c-0.3-0.2-0.4-0.7-0.1-1l0.4-0.4c-0.2,0-0.4,0-0.6,0.2
			l-0.7,0.7c-0.3,0.3-0.3,0.8,0.1,1l0.9,0.6c0.2,0.1,0.3,0.4,0.3,0.6c0.1,0,0.2,0.1,0.2,0.1L174.9,188.2z"/>
		<path class="st0" d="M180.5,204.9l0.1-0.4l-0.8-0.5c0.1,0.2,0.1,0.3,0.1,0.5l-0.3,0.9c-0.1,0.3,0.1,0.7,0.4,0.8l1.5,0.6
			c0.4,0.2,0.8-0.1,0.9-0.5v-0.1l-1.5-0.6C180.6,205.7,180.4,205.2,180.5,204.9z"/>
		<path class="st0" d="M177.2,202.6l-1.9-1.1c-0.1,0.3-0.1,0.6,0.1,0.8l1.4,1.3c0.3,0.3,0.7,0.3,1,0l0.4-0.4c-0.1,0-0.3-0.1-0.4-0.2
			L177.2,202.6z"/>
		<path class="st0" d="M185.1,207.4c-0.3,0-0.5-0.2-0.6-0.4l-1-0.5l0,0v0.8c0,0.4,0.3,0.7,0.7,0.7h1.2c0.2,0,0.3-0.1,0.5-0.2
			L185.1,207.4L185.1,207.4z"/>
		<path class="st0" d="M190.3,195.7h-0.2c-0.3,0-0.5,0.3-0.6,1h0.2C190,196.2,190.3,196,190.3,195.7z"/>
		<path class="st0" d="M185.5,191v1.1c0,0.3,0,0.7,0.1,1c0,0.1,0.1,0.1,0.1,0.2c0.1,0.2,0.1,0.3,0.2,0.5c0.2,0.3,0.5,0.6,0.8,0.8
			l0.7,0.4c-0.1-0.8-0.4-1.6-0.8-2.4C186.3,192.2,185.9,191.5,185.5,191z"/>
		<path class="st0" d="M188.4,205l-0.8,0.4v0.3l1,0.7c0.3,0.2,0.7,0.2,0.9-0.1l0.3-0.3c-0.1,0-0.2-0.1-0.3-0.1L188.4,205z"/>
		<path class="st0" d="M180.7,203.3l-0.6-0.6c-0.3-0.3-0.7-0.3-1,0l0,0l1.8,1.1C180.9,203.6,180.9,203.4,180.7,203.3z"/>
		<path class="st0" d="M173.1,198.2l1.4-0.1c0.3,0,0.5,0.1,0.7,0.3l0.8,1.3c0.2,0.3,0.1,0.6-0.1,0.8l-0.2,0.3l0.3,0.2
			c0-0.1,0.1-0.2,0.1-0.2l0.7-0.8c0.2-0.2,0.2-0.5,0.1-0.8l-0.4-0.7l-1.5-0.9l-0.9,0.1c-0.3,0-0.6-0.2-0.7-0.5l-0.3-0.7l-1.3-0.8
			l0.6,2C172.5,198,172.8,198.2,173.1,198.2z"/>
		<path class="st0" d="M184.5,205.8c0-0.4-0.2-0.7-0.6-0.7c-0.3,0-0.5,0.1-0.6,0.3l1.2,0.7L184.5,205.8z"/>
		<path class="st0" d="M185,206.9l0.7,0.1h0.8v0.1V207l-2-0.9v0.5C184.9,206.7,184.9,206.8,185,206.9z"/>
		<path class="st0" d="M176.3,201.7l0.9,0.9l1,0.6c0.1-0.1,0.3-0.1,0.5-0.1l0.3-0.3l-3-1.7C176,201.3,176.1,201.5,176.3,201.7z"/>
		<path class="st0" d="M180.7,204.5l2.2,1.2c0.1-0.1,0.3-0.1,0.4-0.1c0.1,0,0.1,0,0.1,0.1v-0.1c0.1-0.1,0.2-0.2,0.2-0.3l-3.3-1.6
			v0.2L180.7,204.5z"/>
		<path class="st0" d="M217.7,269.3l-1.5-0.6v10.2c0,0,2.8,1.5,3.7,2.5l-0.2,8.7c0,0-1.3,4.2-8,2.4c2.7,0.2,5.3-1.9,5.5-4.9V279
			l-1-0.1v6.4c0,0-2.3,7-4.5,7.1c-0.6-0.2-1.2-0.4-1.9-0.6c0,0,0.6,0.1,1.4,0.1c-0.6-0.1-1.2-0.3-1.8-0.7l-12.9-7.4
			c-1.1,3.6-1.1,8,0.1,12.4l21.9,12.1c4.7-4.9,9.1-14.3,4.7-22.9c-1.3-2.8-1.5-7.3-2.9-6.2v-9.6
			C219.2,269.8,218.4,269.8,217.7,269.3z"/>
		<path class="st0" d="M36.1,224.9c-1.3-1-2.5-1.9-3.4-2.8c-4.8-4.3-14.1-12.2-13.9-8.9c0,0-0.4,101.2,2.9,111.9c0,0,8.2,6.2,11-0.9
			l7.9-43.2l-2-34.9l12.9,53.1c0,0,0.3,32.1,7.2,49.9c0,0,9.1,3.8,11.4-6.7l1.6-112.8C71.7,229.6,55.1,240.1,36.1,224.9z"/>
	</g>
	<path class="st1" d="M137,29.6c0,0,10.6-7.1,14-6.3c3.4,0.7,43.8,23.9,43.8,23.9l48.5,25.7l0.9,48.1c0,0-2.7,199.7-3.6,201.3
		c-1.5-0.8-12.3-8.9-12.2-8.9l1-122.2V80.5L137,29.6z"/>
	<g>
		<path class="st2" d="M248.4,123.6l-11.4-7L117.7,49c-1.7-1-4.7,1.9-4.7,1.9c0.6-0.7,1.9-0.7,3.6-0.3c5.4,3.2,17.8,10.1,17.8,10.1
			l109.1,61.5c3.4,2.1,1.7,4.9,1.7,4.9L248.4,123.6z"/>
		<path class="st2" d="M129.3,75.6c-0.6,0-1,0.5-1,1v13.5c0,0.6,0.5,1,1,1s1-0.5,1-1V76.8C130.3,76.1,129.8,75.6,129.3,75.6z"/>
	</g>
	<g>
		<path class="st1" d="M143.6,92c-0.6,0-1,0.5-1,1v6.2c0,0.6,0.5,1,1,1s1-0.5,1-1V93C144.7,92.4,144.2,92,143.6,92z"/>
		<path class="st1" d="M136.4,84.7c-0.6,0-1,0.5-1,1v9c0,0.6,0.5,1,1,1s1-0.5,1-1v-9C137.4,85.3,137,84.7,136.4,84.7z"/>
		<path class="st1" d="M123.1,76.6c-0.6,0-1,0.5-1,1v7.6c0,0.6,0.5,1,1,1s1-0.5,1-1v-7.6C124.2,77,123.8,76.6,123.1,76.6z"/>
		<path class="st1" d="M151.4,87c-0.6,0-1.2,0.5-0.7,1.2v14.6c-0.5,0.6,0,1.2,0.7,1.2c0.6,0,1.2-0.5,1.3-1.2V88.2
			C152.6,87.6,152.1,87,151.4,87z"/>
	</g>
	<g>
		<path class="st2" d="M158.9,88c-0.7,0-1.3,0.6-2,1.3v17.5c0.7,0.7,1.3,1.3,2,1.3c0.7,0,1.3-0.6,1-1.3V89.2
			C160.1,88.5,159.6,88,158.9,88z"/>
		<path class="st2" d="M166.1,90.2c-0.6,0-1.2,0.5-1,1.2v19.9c-0.2,0.6,0.3,1.2,1,1.2c0.6,0,1.2-0.5,1-1.2V91.4
			C167.3,90.7,166.7,90.2,166.1,90.2z"/>
		<path class="st2" d="M180.3,100.8c-0.6,0-1.2,0.5-0.9,1.2v16.7c-0.3,0.6,0.2,1.2,0.9,1.2c0.6,0,1.2-0.5,1.1-1.2V102
			C181.5,101.4,180.9,100.8,180.3,100.8z"/>
	</g>
	<g>
		<path class="st1" d="M187.5,107.6c-0.6,0-1,0.5-1,1v14c0,0.6,0.5,1,1,1s1-0.5,1-1v-14C188.6,108,188.1,107.6,187.5,107.6z"/>
		<path class="st1" d="M201.9,122.5c-0.6,0-1,0.5-1,1v8.4c0,0.6,0.5,1,1,1s1-0.5,1-1v-8.4C202.9,123,202.4,122.5,201.9,122.5z"/>
		<path class="st1" d="M216.2,128.7c-0.6,0-1,0.5-1,1v9.8c0,0.6,0.5,1,1,1c0.6,0,1-0.5,1-1v-9.8
			C217.2,129.2,216.7,128.7,216.2,128.7z"/>
		<path class="st1" d="M229.5,138.1c-0.6,0-1,0.5-1,1v7c0,0.6,0.5,1,1,1s1-0.5,1-1v-7C230.5,138.6,230,138.1,229.5,138.1z"/>
		<path class="st1" d="M223.3,129.6c-0.6,0-1,0.5-1,1v12.6c0,0.6,0.5,1,1,1s1-0.5,1-1v-12.6C224.5,130.1,223.9,129.6,223.3,129.6z"
			/>
		<path class="st1" d="M173.2,94.6c-0.6,0-1,0.5-1,1v18.3c0,0.6,0.5,1,1,1s1-0.5,1-1V95.7C174.3,95.1,173.9,94.6,173.2,94.6z"/>
		<path class="st1" d="M209.4,126.6c-0.7,0-1.3,0.6-1.4,1.3v9.3c0.1,0.7,0.7,1.3,1.4,1.3c0.7,0,1.3-0.6,1.6-1.3v-9.3
			C210.7,127.2,210.1,126.6,209.4,126.6z"/>
	</g>
	<g>
		
			<rect x="153.7" y="106.7" transform="matrix(0.5059 -0.8626 0.8626 0.5059 -29.1507 194.02)" class="st1" width="2.2" height="31.5"/>
		<path class="st1" d="M144.2,141.7c1.9-2.8,4.1-1.2,4.1-1.2l28.3,17.2c3.1,1.8,3.2,3.1,3.2,3.1c0.2-0.6,0.8-2.8-0.2-3.5
			c-0.8-0.5-0.7-0.5-30-18.3C145.2,137.2,144.2,141.7,144.2,141.7z"/>
		<path class="st1" d="M221.1,182c-1-0.7-30-18.3-30-18.3c-4.3-1.7-5.3,2.8-5.3,2.8c1.9-2.8,4.1-1.2,4.1-1.2l28.3,17.2
			c3.1,1.8,3.2,3.1,3.2,3.1C221.5,184.9,222.1,182.7,221.1,182z"/>
		<path class="st1" d="M214.2,219.8l-63.3-36c-7.2-3.4-8.9,5.1-8.9,5.1c3.4-6.5,8-1.3,8-1.3l63.3,35.1c4.9,1.9,3.2,8.4,2.9,8.4v54.3
			c1.6,8.5-6.2,7-6.2,7c8.4,3.4,9.9-1.6,9.3-1.6v-60.7C220.3,222.2,214.2,219.8,214.2,219.8z"/>
		<path class="st1" d="M190.9,304c0.1,0.1,0.1,0.1,0.2,0.2C191.1,304.1,191,304,190.9,304L190.9,304z"/>
	</g>
	<g>
		<path class="st3" d="M137.9,187.8l0.1,0.1C138.1,187.8,137.9,187.8,137.9,187.8L137.9,187.8z"/>
	</g>
	<g>
		<path class="st3" d="M128.2,67.3C128.2,67.4,128.2,67.4,128.2,67.3C128.2,67.4,128.2,67.4,128.2,67.3L128.2,67.3z"/>
	</g>
	<g>
		<path class="st3" d="M204.6,298.5c0.1,0.1,0.1,0.1,0.2,0.2C204.7,298.6,204.7,298.5,204.6,298.5L204.6,298.5z"/>
	</g>
	<g>
		<path class="st3" d="M220.4,177.3C220.5,177.3,220.5,177.3,220.4,177.3C220.5,177.3,220.5,177.3,220.4,177.3L220.4,177.3z"/>
	</g>
	<path class="st1" d="M176.8,306.8"/>
	<path class="st4" d="M68.9,107.1l0.1,25c0,0-0.8,4.3-9.7,4.4l0.2,9.1l3.5,5.4l-32.4-16.1c0,0,4.6-3.7,5.1-8c0,0,5.4,4.5,7.4,4.2
		l8-0.2l4.6-4.7l0.1-9.7c0,0-4.5-12.9,3.7-7.1l-0.1,4.9c0,0,2.7,1.7,3.7-1.4C63.1,113.1,65.3,107.8,68.9,107.1z"/>
	<g>
		<path class="st5" d="M106.9,302.8l-56.1,12.5l-16.1,3.3l3.6,12.7l58.6-9.9c18.5-3.9,6.6,6.3,6.6,6.3l-30.2,12.7L65,354.9
			l62.2-20.1l34.1-14.4L136.1,296L106.9,302.8z"/>
		<polygon class="st5" points="158.3,276.4 136.1,296 161.3,320.4 216.9,306.9 		"/>
	</g>
	<g>
		<path class="st1" d="M164,213.1l7.3,3.3l-0.6,1.4l-5.5-2.5l-2,4.5l5.1,2.2l-0.6,1.4l-5.1-2.2l-2.8,6.1l-1.7-0.8L164,213.1z"/>
		<path class="st1" d="M165.4,229.5c-0.6-0.3-0.7-0.9-0.4-1.5c0.3-0.6,1-0.8,1.5-0.5c0.6,0.3,0.7,0.9,0.4,1.5
			C166.7,229.6,166.1,229.8,165.4,229.5L165.4,229.5z"/>
		<path class="st1" d="M173.5,228.2l-2.9,3.1l-1.5-0.7l9.4-9.5l1.7,0.8l-1.5,13.3l-1.5-0.7l0.5-4.2L173.5,228.2z M177.8,228.8
			l0.4-3.8c0.1-0.8,0.3-1.6,0.4-2.4l0,0c-0.5,0.6-1,1.2-1.5,1.8l-2.7,2.8L177.8,228.8z"/>
		<path class="st1" d="M180.6,236.9c-0.6-0.3-0.7-0.9-0.4-1.5c0.3-0.6,1-0.8,1.5-0.5c0.6,0.3,0.7,0.9,0.4,1.5
			C181.8,237,181.2,237.4,180.6,236.9L180.6,236.9z"/>
		<path class="st1" d="M194.2,243.5c-1.5-0.9-3.1-1.7-4.3-2.7c-0.2-0.2-0.5-0.3-0.7-0.4c-2.9-0.9-4.8-3.7-3.8-7.6
			c1-3.9,4.1-5.8,7.4-4.9c3.4,0.9,4.8,4,3.9,7.7c-0.8,3.2-2.8,4.8-5,4.9v0.1c1.1,0.6,2.4,1.2,3.4,1.7L194.2,243.5z M189.4,239.2
			c2.6,0.6,4.5-1.2,5.2-4.1c0.6-2.5,0-5.3-2.6-6c-2.7-0.7-4.6,1.4-5.3,4.1C186.1,235.8,186.9,238.6,189.4,239.2L189.4,239.2z"/>
	</g>
	<g>
		<path class="st3" d="M267.5,200.5l-9.4,5.3c-1.4-0.8-7.1-4-11-6.2l-18.5,11.5l31.7,17.7l28.3-16.8L267.5,200.5z"/>
		<path class="st3" d="M253.1,67.2c-2.7-3.1-7.8-6.9-7.8-6.9c-7.8-6.5-13.1-1.7-13.1-1.7c-7.1,5.2-5.3,23.2-5.3,23.2L253.1,67.2z"/>
		<path class="st3" d="M245.6,127.6c1.3-1.5,0.9-3.9-0.8-4.9l-127.4-72c-2-1.1-4.5,0.2-4.8,2.5L111,99.8c-0.1,1.2,0.4,2.5,1.4,3.1
			c14.5,9.2,114.7,70.9,114.9,67.3c0.3-3.8,3.9-17.5,3.9-17.5C234.4,141.5,241.6,132.1,245.6,127.6z M124.2,85.2c0,0.6-0.5,1-1,1
			s-1-0.5-1-1v-7.6c0-0.6,0.5-1,1-1s1,0.5,1,1V85.2z M131.3,90.3c0,0.6-0.5,1-1,1s-1-0.5-1-1V76.8c0-0.6,0.5-1,1-1s1,0.5,1,1V90.3z
			 M137.4,94.9c0,0.6-0.5,1-1,1s-1-0.5-1-1v-9c0-0.6,0.5-1,1-1s1,0.5,1,1V94.9z M144.6,99.2c0,0.6-0.5,1-1,1s-1-0.5-1-1V93
			c0-0.6,0.5-1,1-1s1,0.5,1,1V99.2z M152.8,102.9c0.1,0.6-0.4,1.2-1.1,1.2c-0.6,0-1.2-0.5-0.9-1.2V88.2c-0.3-0.6,0.2-1.2,0.9-1.2
			c0.6,0,1.2,0.5,1.1,1.2V102.9z M161,106.7c-0.5,0.7-1.1,1.3-1.8,1.3s-1.3-0.6-1.2-1.3V89.2c-0.1-0.7,0.5-1.3,1.2-1.3
			s1.3,0.6,1.8,1.3V106.7z M167.1,111.3c0.4,0.6-0.1,1.2-0.8,1.2c-0.6,0-1.2-0.5-1.2-1.2V91.4c0-0.6,0.5-1.2,1.2-1.2
			c0.6,0,1.2,0.5,0.8,1.2V111.3z M174.3,114c0,0.6-0.5,1-1,1s-1-0.5-1-1V95.7c0-0.6,0.5-1,1-1s1,0.5,1,1V114z M181.4,118.7
			c0.3,0.6-0.2,1.2-0.9,1.2c-0.6,0-1.2-0.5-1.1-1.2V102c-0.1-0.6,0.4-1.2,1.1-1.2c0.6,0,1.2,0.5,0.9,1.2V118.7z M188.6,122.7
			c0,0.6-0.5,1-1,1s-1-0.5-1-1v-14c0-0.6,0.5-1,1-1s1,0.5,1,1V122.7z M195.7,127.2c0.1,0.7-0.5,1.3-1.2,1.3s-1.3-0.6-1.8-1.3v-10.7
			c0.5-0.7,1.1-1.3,1.8-1.3s1.3,0.6,1.2,1.3V127.2z M202.9,131.9c0,0.6-0.5,1-1,1s-1-0.5-1-1v-8.4c0-0.6,0.5-1,1-1s1,0.5,1,1V131.9z
			 M211.1,137.2c-0.1,0.7-0.7,1.3-1.4,1.3c-0.7,0-1.3-0.6-1.6-1.3v-9.3c0.3-0.7,0.9-1.3,1.6-1.3c0.7,0,1.3,0.6,1.4,1.3V137.2z
			 M218.2,139.5c0,0.6-0.5,1-1,1s-1-0.5-1-1v-9.8c0-0.6,0.5-1,1-1s1,0.5,1,1V139.5z M225.4,143.3c0,0.6-0.5,1-1,1s-1-0.5-1-1v-12.6
			c0-0.6,0.5-1,1-1s1,0.5,1,1V143.3z M230.5,147.2c-0.6,0-1-0.5-1-1v-7c0-0.6,0.5-1,1-1s1,0.5,1,1v7
			C231.5,146.8,231.1,147.2,230.5,147.2z"/>
		<path class="st3" d="M173.9,187.2c1.8,1.1,4.2-0.2,4.2-2.4l1.5-23.5c0-1-0.7-1.6-1.3-2.4l-30.2-18.4c-1.7-1.1-4.1,0.1-4.3,2.1
			l-0.5,24.2c-0.1,1,0.4,2,1.3,2.7L173.9,187.2z"/>
		<path class="st3" d="M189.5,165.3c-1.7-1.1-4.1,0.1-4.3,2.1l-0.5,24.2c-0.1,1,0.4,2,1.3,2.7l29.1,17.7c1.8,1.1,4.2-0.2,4.2-2.4
			l1.5-23.5c0-1-0.7-1.6-1.3-2.4L189.5,165.3z"/>
		<path class="st3" d="M85.8,209.3l-4.4-35.7c0,0-5.6-17.2-20.6-23.6c0,0-30.8-14.5-30.4-16.4c0,0-14.5-6.5-20.9,10.3
			s-7.9,33.3-7.9,33.3s-1.4,1.6,1.9,7.8l15.4,28.2c0,0,2.2-2.8,5.6,1.8c0,0,17.4,17.8,29.1,17.4c0,0,17.6,3.1,21.3-7
			c0,0,21.3,14.1,36.6,13.5c0,0,5.8-0.5,1.8-10.3C113.5,228.8,102.1,214.1,85.8,209.3z"/>
		<path class="st3" d="M176.9,224.2l-2.7,2.8l3.5,1.6l0.4-3.8c0.1-0.8,0.3-1.6,0.4-2.4l0,0C177.9,222.9,177.4,223.5,176.9,224.2z"/>
		<path class="st3" d="M191.9,229c-2.7-0.7-4.6,1.4-5.3,4.1c-0.7,2.6,0.1,5.3,2.6,5.9l0,0c2.6,0.6,4.5-1.2,5.2-4.1
			C195.1,232.5,194.5,229.7,191.9,229z"/>
		<path class="st3" d="M214.6,222.4L150.1,185c-3.2-1.9-7.2,0.1-7.5,3.8l-0.9,59.5c-0.1,1.8,0.7,4.2,2.3,5.2
			c0,0,62.3,35.7,65.4,37.5c3.1,1.7,7.2,3.5,7.8-4.6l-0.3-59.8C216.9,224.8,216,223.3,214.6,222.4z M167,228.8
			c-0.3,0.6-0.9,0.8-1.5,0.5l0,0c-0.6-0.3-0.7-0.9-0.4-1.5c0.3-0.6,1-0.8,1.5-0.5C167.1,227.4,167.3,228.2,167,228.8z M167.5,223.2
			l-5.1-2.2l-2.8,6.1l-1.7-0.8l6-13.5l7.3,3.3l-0.6,1.4l-5.5-2.5l-2,4.5l5.1,2.2L167.5,223.2z M177,234l0.5-4.2l-4.1-1.9l-2.9,3.1
			l-1.5-0.7l9.4-9.5l1.7,0.8l-1.5,13.3L177,234z M182.1,236.2c-0.3,0.6-0.9,0.8-1.5,0.5l0,0c-0.6-0.3-0.7-0.9-0.4-1.5
			c0.3-0.6,1-0.8,1.5-0.5C182.3,235,182.5,235.6,182.1,236.2z M196.6,235.2c-0.8,3.2-2.8,4.8-5,4.9v0.1c1.1,0.6,2.4,1.2,3.4,1.7
			l-0.8,1.2c-1.5-0.9-3.1-1.7-4.3-2.7c-0.2-0.2-0.5-0.3-0.7-0.4c-2.9-0.9-4.8-3.7-3.8-7.6s4.1-5.8,7.4-4.9
			C196.1,228.5,197.7,231.6,196.6,235.2z"/>
	</g>
	<path class="st1" d="M138.8,197.4c0,0-0.5-0.5-1.4-0.1C137.3,197.2,137.9,197.8,138.8,197.4z"/>
	<g>
		<path class="st2" d="M217.6,256.9c1.7-2.1,0.3-3.5,0.3-3.5l-3.8-2.4c-3-1.9-4,2-4,2s4.5,2,3.9,3.8c-2.6,3.8,0,5,0,5
			c1.4,1.6,3,0.7,3,0.7c0.2-0.1,2.2-1.8,2.2-1.8l-1.2-0.9C216.7,258.6,217.6,256.9,217.6,256.9z"/>
		<path class="st2" d="M238.5,22.6c-46.1-22.1-44.6,41.3-44.6,41.3L227,82c-1.9-34.3,16.2-23.2,16.3-23.2
			c39.1,26.9,7.1,63.1,7.1,63.1c-28.4,24.3-24.6,65.6-24.6,65.6l32.4,18.4c-2.4-29.1,14.7-48.7,14.7-48.7
			c19.5-18.4,20.5-31.5,20.5-31.5C302.8,48.2,238.5,22.6,238.5,22.6z"/>
		<g>
			<path class="st2" d="M194.3,115.3c-0.7,0-1.3,0.6-1.6,1.3v10.7c0.3,0.7,0.9,1.3,1.6,1.3c0.7,0,1.3-0.6,1.4-1.3v-10.7
				C195.5,115.9,195,115.3,194.3,115.3z"/>
			<polygon class="st2" points="228.5,211 228.2,247.7 260.1,267.2 260.4,228.8 			"/>
		</g>
		<path class="st2" d="M58.9,89.2c0,0-16.4-5.1-26.5,11.2c0,0-1.5,16.6,0.9,24.1c2.2,6.9,2.4,4.1,2.4,4.1s4.9,2.7,7.4,2.7
			c2.5,0-0.2,0,0.3,0c0.5,0,8.2-0.1,8.2-0.1l4.1-4.8l0.1-9.7l-0.6-2.4c0,0-2.8-9.7,4.2-4.8l-1.5,4.9c0,0,5,2.1,6.5-1.1
			c0,0-1.1-2.7,7.6-7.3C71.9,106.1,77.8,91.4,58.9,89.2z"/>
		<path class="st2" d="M203.2,298.1c-13.6-19.6-0.5-29.3-0.5-29.3c-16.8,4.2-8.9,24.5-5.2,29.3c12.6,16.6,21.7,7.6,21.7,7.6
			C210.2,307.5,203.2,298.1,203.2,298.1z"/>
		<path class="st2" d="M185.6,285.2c1.5-0.2,1.7-1.6,1.7-1.6C185.9,284.1,185.6,285.2,185.6,285.2z"/>
		<path class="st2" d="M185.2,266.7l2.5,0.7l0.6-2.9C185,263.9,185.2,266.7,185.2,266.7z"/>
		<path class="st2" d="M193.1,253.5c-1.3-0.5-3.5,2.2-3.5,2.2l1.9,2.8l3.1-2.1L193.1,253.5z"/>
		<path class="st2" d="M206.1,253.8c-1.8,0-2.5-4.5-2.5-4.5c-0.6-3.1-2.9-2.5-2.9-2.5l-3.5,1.7c1.7,0.5,2.1,3.8,2.1,3.8
			c1,3.9,1.9,3.1,1.8,3.1c-0.1,0,2.5,0.6,2.5,0.6C206.1,256.2,206.1,253.8,206.1,253.8z"/>
		<path class="st2" d="M241.2,295.2l-2,0.1c-2.9,0.5-3.3-1.6-3.3-1.6l-0.4-2.4c0.2-2.8,3.7-2.4,3.7-2.4c2.6-0.3,1.6-3.6,1.6-3.6
			l-1.1-6.5c-0.2-1.7-2.1-1.9-2.1-1.9l-3.1,0.4c-1.6,0.6-2.8-0.6-2.8-0.6l-2.4-4.2c-1.8-3,1.8-4.2,1.8-4.2c1.8-1.6-0.1-3.4-0.1-3.4
			l-4.6-5.3c-1.4-1.2-2.9-0.1-2.9-0.1l-2,1.5l5.6,6.3c1,2.5-1.4,3.3-1.4,3.3c-2.2,1.2-1.1,3.1-1.1,3.1l2,3.9
			c0.8,2.1,2.6,1.6,2.6,1.6l3.4-0.5c2.1-0.1,2.4,1.7,2.4,1.7l1.5,8.3c0,0-0.1,0-0.2,0c-1.3,0.5-1.7,2-1.7,2l-1.3,0.1
			c-2.5,0.2-2.3,2.3-2.3,2.3l0.2,1.4c0.2,2.4,2,2.4,2,2.4h2.7c2.9-0.4,2.9,2,2.9,2l0.2,7.2h2.3c2.1-0.1,2.1-2,2.1-2l-0.2-6.2
			C243.5,295.1,241.2,295.2,241.2,295.2z"/>
		<path class="st2" d="M238.9,313.2c-2.2-0.4-2.2-2.4-2.2-2.4v-3.7h-2c-1.9-0.1-2,1.8-2,1.8v3c-0.3,2.2,2.1,2.9,2.1,2.9
			c2,1.8,0.3,3.7,0.3,3.7l0.5,0.4c1.1,0.8,2.2-0.2,2.2-0.2l1.5-2C240.8,314.5,238.9,313.2,238.9,313.2z"/>
		<path class="st2" d="M227.9,318.5l-2.5,1.1l0.2,3.9h2.7c2.6-0.3,1.8-3.5,1.8-3.5L227.9,318.5z"/>
		<path class="st2" d="M217.2,319.1c-2.4-1.5-3.4,1-3.4,1l1.1,0.4c1.8,0.9,2.9-0.6,2.9-0.6C217.5,319.3,217.2,319.1,217.2,319.1z"/>
		<path class="st2" d="M200.7,310.8c0,0,1,1,2.5,0.2C203.2,311,202.3,310.2,200.7,310.8z"/>
		<path class="st2" d="M149.5,165.7c1.1-1.4,0.2-2.4,0.2-2.4l-2.6-1.6c-2-1.3-2.7,1.4-2.7,1.4s3.1,1.4,2.7,2.6c-1.7,2.6,0,3.4,0,3.4
			c0.9,1.1,2,0.5,2,0.5c0.1-0.1,1.5-1.2,1.5-1.2l-0.8-0.6C148.9,166.8,149.5,165.7,149.5,165.7z"/>
		<path class="st2" d="M138.9,193.8c-9.3-13.4-0.3-19.9-0.3-19.9c-11.5,2.9-6.1,16.8-3.6,19.9c8.6,11.2,14.7,5.1,14.7,5.1
			C143.8,200.2,138.9,193.8,138.9,193.8z"/>
		<path class="st2" d="M127.7,185c1-0.1,1.2-1.1,1.2-1.1C127.9,184.2,127.7,185,127.7,185z"/>
		<path class="st2" d="M127.5,172.3l1.6,0.5l0.4-1.9C127.4,170.4,127.5,172.3,127.5,172.3z"/>
		<path class="st2" d="M132.7,163.5c-0.9-0.3-2.4,1.5-2.4,1.5l1.3,1.8l2.1-1.4L132.7,163.5z"/>
		<path class="st2" d="M141.6,163.5c-1.2,0-1.6-3.1-1.6-3.1c-0.4-2.1-1.9-1.7-1.9-1.7l-2.4,1.1c1.1,0.3,1.4,2.6,1.4,2.6
			c0.7,2.7,1.3,2,1.2,2c-0.1,0,1.6,0.4,1.6,0.4C141.6,165.2,141.6,163.5,141.6,163.5z"/>
		<path class="st2" d="M165.6,191.6h-1c-2.1,0.3-2.4-1.2-2.4-1.2l-0.3-1.8c0.2-2,2.7-1.8,2.7-1.8c1.9-0.2,1.2-2.7,1.2-2.7l-0.9-4.9
			c-0.2-1.3-1.6-1.4-1.6-1.4l-2.2,0.3c-1.2,0.4-2-0.4-2-0.4l-1.8-3.1c-1.3-2.2,1.3-3.1,1.3-3.1c1.4-1.2-0.1-2.6-0.1-2.6l-3.4-3.9
			c-1.1-0.9-2.1-0.1-2.1-0.1l-1.6,1.1l4.1,4.7c0.8,1.8-1,2.4-1,2.4c-1.7,0.9-0.9,2.2-0.9,2.2l1.6,2.9c0.6,1.6,1.9,1.2,1.9,1.2
			l2.4-0.3c1.6-0.1,1.8,1.2,1.8,1.2l1.1,6.1c0,0-0.2,0-0.3,0c-1,0.4-1.3,1.5-1.3,1.5l-1,0.1c-1.8,0.1-1.7,1.7-1.7,1.7l0.1,1.1
			c0.2,1.7,1.5,1.7,1.5,1.7h2c1.9-0.3,1.9,1.3,1.9,1.3l0.2,4.8h1.6c1.5-0.1,1.5-1.3,1.5-1.3l-0.2-4.1
			C167.1,191.6,165.6,191.6,165.6,191.6z"/>
		<path class="st2" d="M164.6,203.9c-1.6-0.3-1.6-1.6-1.6-1.6v-2.5h-1.5c-1.3-0.1-1.5,1.2-1.5,1.2v2c-0.2,1.5,1.6,1.9,1.6,1.9
			c1.5,1.2,0.2,2.5,0.2,2.5l0.3,0.3c0.8,0.5,1.6-0.1,1.6-0.1l1.1-1.4C166,204.8,164.6,203.9,164.6,203.9z"/>
		<path class="st2" d="M156.7,207.7l-1.7,0.7l0.1,2.7h1.8c1.7-0.2,1.2-2.4,1.2-2.4L156.7,207.7z"/>
		<path class="st2" d="M149.2,207.9c-1.5-1-2.2,0.7-2.2,0.7l0.8,0.3c1.2,0.6,1.9-0.4,1.9-0.4C149.4,208.1,149.2,207.9,149.2,207.9z"
			/>
		<path class="st2" d="M137,202.4c0,0,0.7,0.7,1.6,0.2C138.7,202.6,138.1,202,137,202.4z"/>
		<path class="st2" d="M183.9,185.3c0.6-0.7,0.1-1.1,0.1-1.1l-1.2-0.8c-1-0.6-1.3,0.7-1.3,0.7s1.4,0.7,1.3,1.2c-0.8,1.2,0,1.6,0,1.6
			c0.4,0.5,0.9,0.2,0.9,0.2c0.1,0,0.7-0.6,0.7-0.6l-0.4-0.3C183.6,185.8,183.9,185.3,183.9,185.3z"/>
		<path class="st2" d="M178.7,198.5c-4.5-6.4-0.1-9.7-0.1-9.7c-5.5,1.4-3,8.1-1.7,9.7c4.2,5.5,7.2,2.5,7.2,2.5
			C181.1,201.7,178.7,198.5,178.7,198.5z"/>
		<path class="st2" d="M173,194.2c0.5-0.1,0.6-0.5,0.6-0.5C173.1,193.8,173,194.2,173,194.2z"/>
		<path class="st2" d="M173.3,188.3l0.8,0.2l0.2-0.9C173.1,187.4,173.3,189.1,173.3,188.3z"/>
		<path class="st2" d="M175.7,184.1c-0.4-0.1-1.1,0.7-1.1,0.7l0.6,0.9l1-0.7L175.7,184.1z"/>
		<path class="st2" d="M180.1,184.2c-0.6,0-0.8-1.4-0.8-1.4c-0.2-1-0.9-0.8-0.9-0.8l-1.1,0.6c0.6,0.2,0.7,1.2,0.7,1.2
			c0.3,1.3,0.6,1,0.6,1l0.8,0.2C180.1,185,180.1,184.2,180.1,184.2z"/>
		<path class="st2" d="M191.6,197.8h-0.7l-1.1-0.8l-0.1-0.8c0.1-0.9,1.2-0.8,1.2-0.8c0.8-0.1,0.5-1.2,0.5-1.2L191,192
			c-0.1-0.6-0.7-0.6-0.7-0.6l-1,0.1c-0.5,0.2-0.9-0.2-0.9-0.2l-0.8-1.4c-0.6-1,0.6-1.4,0.6-1.4c0.6-0.5,0-1.1,0-1.1l-1.5-1.7
			c-0.5-0.4-0.9,0-0.9,0L185,186l1.8,2.1c0.3,0.8-0.4,1-0.4,1c-0.7,0.4-0.4,1-0.4,1l0.7,1.2c0.3,0.7,0.8,0.5,0.8,0.5l1.1-0.2
			c0.7,0,0.8,0.6,0.8,0.6l0.5,2.8l0,0c-0.4,0.2-0.6,0.6-0.6,0.6H189c-0.8,0.1-0.8,0.8-0.8,0.8l0.1,0.5c0.1,0.8,0.7,0.8,0.7,0.8h0.9
			c1-0.1,1,0.6,1,0.6l0.1,2.4h0.8l0.7-0.5l-0.1-2C192.5,197.4,191.6,197.8,191.6,197.8z"/>
		<path class="st2" d="M191,203.6c-0.8-0.1-0.8-0.8-1.4-0.8v-0.9h-0.1c-0.6-0.3-0.7,0.3-0.9,0.3v1c0.1,0.7,1,0.9,1,0.9
			c0.7,0.6,0.1,1.2,0.1,1.2l0.2,0.1c0.4,0.3,0.8-0.1,0.8-0.1l0.5-0.7C191.7,204,191,203.6,191,203.6z"/>
		<path class="st2" d="M186.8,205.2l-0.8,0.4l0.1,1.3h0.9c0.8-0.1,0.6-1.1,0.6-1.1L186.8,205.2z"/>
		<path class="st2" d="M183.2,205.4c-0.7-0.5-1.1,0.3-1.1,0.3l0.4,0.1c0.6,0.3,0.9-0.2,0.9-0.2C183.4,205.4,183.2,205.4,183.2,205.4
			z"/>
		<path class="st2" d="M177.8,202.7c0,0,0.3,0.3,0.8,0.1C178.6,202.8,178.3,202.5,177.8,202.7z"/>
		<path class="st2" d="M129,50.2c0.9,0.2,1.1-0.4,1.1-0.4l0.2-1.4c0.2-1.1-1.1-0.9-1.1-0.9s0,1.6-0.6,1.7c-1.4-0.3-1.5,0.7-1.5,0.7
			c-0.3,0.6,0.2,1,0.2,1c0.1,0,0.8,0.4,0.8,0.4l0.1-0.5C128.3,50.2,129,50.2,129,50.2z"/>
		<path class="st2" d="M114.4,50.8c4.2-6.7,8.9-4,8.9-4c-3.5-4.6-8.6,0.5-9.6,2.2c-3.4,5.9,0.5,7.6,0.5,7.6
			C112.5,54.3,114.4,50.8,114.4,50.8z"/>
		<path class="st2" d="M116.1,43.9c0.2,0.4,0.7,0.3,0.7,0.3C116.8,44.9,116.2,44.4,116.1,43.9z"/>
		<path class="st2" d="M121.8,41.6l0.1,0.8l0.9-0.2C123,41.4,122.2,41.8,121.8,41.6z"/>
		<path class="st2" d="M126.8,42.3c0-0.5-1.1-0.7-1.1-0.7l-0.6,0.9l1,0.7L126.8,42.3z"/>
		<path class="st2" d="M128.4,46.3c-0.2-0.5,1-1.3,1-1.3c0.8-0.6,0.4-1.2,0.4-1.2L129,43c0.1,0.6-0.9,1.1-0.9,1.1
			c-1,0.8-0.7,1-0.7,0.9l0.1,0.8C127.7,46.6,128.4,46.3,128.4,46.3z"/>
		<path class="st2" d="M120.5,62.4l-0.3-0.6c-0.5-0.8,0.1-1.2,0.1-1.2l0.7-0.4c0.9-0.3,1.2,0.8,1.2,0.8c0.4,0.7,1.3,0,1.3,0l1.8-1.2
			c0.5-0.3,0.3-0.9,0.3-0.9l-0.5-0.8c-0.4-0.4-0.2-0.9-0.2-0.9l1-1.2c0.6-0.9,1.5,0,1.5,0c0.7,0.3,1-0.5,1-0.5l1-2
			c0.2-0.6-0.3-0.9-0.3-0.9l-0.7-0.4l-1.2,2.6c-0.6,0.6-1.1,0-1.1,0c-0.7-0.5-1.1,0-1.1,0l-0.9,1.1c-0.5,0.5-0.2,1-0.2,1l0.6,0.9
			c0.3,0.6-0.2,0.9-0.2,0.9L122,60l0,0c-0.3-0.3-0.8-0.3-0.8-0.3l-0.2-0.4c-0.4-0.7-1-0.4-1-0.4l-0.4,0.2c-0.7,0.4-0.5,0.9-0.5,0.9
			l0.4,0.8c0.5,0.8-0.2,1.1-0.2,1.1l-2.1,1l0.3,0.7c0.3,0.6,0.9,0.4,0.9,0.4l1.8-0.9C120.8,63,120.5,62.4,120.5,62.4z"/>
		<path class="st2" d="M114.6,64.2c-0.2-0.8,0.4-1,0.4-1l1.1-0.5l-0.3-0.7c-0.2-0.6-0.8-0.4-0.8-0.4l-0.9,0.4
			c-0.7,0.2-0.5,1.1-0.5,1.1c-0.3,0.9-1,0.6-1,0.6l-0.1,0.2c-0.1,0.5,0.4,0.7,0.4,0.7l0.8,0.2C114.4,65,114.6,64.2,114.6,64.2z"/>
		<path class="st2" d="M111.7,61.4l-0.7-0.6l-1.1,0.6l0.3,0.8c0.4,0.7,1.3,0.1,1.3,0.1L111.7,61.4z"/>
		<path class="st2" d="M109.5,58.1c0.2-0.9-0.7-0.9-0.7-0.9v0.4c0,0.7,0.5,0.8,0.5,0.8C109.5,58.2,109.5,58.1,109.5,58.1z"/>
		<path class="st2" d="M110.2,51.7c0,0-0.2,0.4,0.2,0.8C110.4,52.5,110.5,52.1,110.2,51.7z"/>
		<g>
			<path class="st1" d="M316.6,55.7c-13.7-35.4-49.8-50.8-49.8-50.8c-17.8-9.8-30.3-0.6-30.3-0.6c-4.9,2-19.6,11.8-26.7,16.5
				c24-12.9,60.8,26,60.8,26c29.3,32.1,22.8,75.8,22.8,75.8c-1.6,17-16.2,30.4-16.2,30.4c-22.7,21.2-19.3,53-19.3,53l30.5-17.5
				c-2.8-28.6,13.7-47.4,13.7-47.4C341.6,107.1,316.6,55.7,316.6,55.7z"/>
			<path class="st1" d="M209.9,20.8c-1.3,0.7-2.6,1.5-3.8,2.6C206.2,23.3,207.6,22.3,209.9,20.8z"/>
			<g>
				<path class="st1" d="M48.2,318.6c-4.2-1.5-14.1,1.6-14.1,1.6c-1.8,14.4-12.2,5.1-12.2,5.1l-0.5,8.4l7.5-0.1l1.6-1.1
					c14.1-0.4,17.6-9.8,17.6-9.8C51.3,319.7,48.2,318.6,48.2,318.6z"/>
				<path class="st1" d="M88.6,339.9c-2.9-0.5-17.6,1.8-17.6,1.8c-3.8,13.1-12.3,7-12.3,7c-2.9,5.5,0.3,7.6,0.3,7.6l6.6-0.3
					l-0.1-1.8l2.2,0.1c10.7-0.7,23.2-9,23.2-9C95,339.9,88.6,339.9,88.6,339.9z"/>
				<polygon class="st1" points="260.1,228.8 259.9,267.3 288.8,250.4 288.8,211.8 				"/>
			</g>
			<path class="st1" d="M57,234.3c0,0,7.9,30.2,3.1,58.1c0,0-2.9,48.6,3.6,56.6c0,0,5.1-1.1,6.3-6.6l1.6-112.8
				C71.6,229.6,70.5,232.5,57,234.3z"/>
			<path class="st1" d="M237.1,297l-3.3,0.1c-1,0-2.1-0.7-2.2-1.9l-0.3-2c-0.2-1.1,0.6-2.3,1.9-2.4l1.8-0.2c1.2-0.1,2.1-1.2,1.9-2.5
				l-1.5-8c-0.2-1.1-1.2-1.9-2.4-1.8l-3.5,0.5c-0.9,0.1-1.8-0.3-2.2-1.1l-2.4-4.5c-0.5-1-0.2-2.3,0.7-2.8l1-0.6
				c1.1-0.7,1.3-2.3,0.5-3.2l-5-5.7c-0.7-0.8-2-0.9-2.9-0.3l-2.3,1.8c-0.7,0.6-1.9,0.6-2.6,0l-1.1-0.9c-0.8-0.6-1-1.8-0.5-2.7
				l0.6-1.1c0.5-1,0.2-2.3-0.7-2.9l-3.8-2.4c-1.1-0.7-2.6-0.2-3.1,1l-0.4,1c-0.4,1-1.5,1.6-2.5,1.3l-1.9-0.4
				c-0.7-0.2-1.3-0.7-1.6-1.5l-1.2-4c-0.4-1.2-1.8-1.9-2.9-1.3l-2.4,1c-1.1,0.5-1.7,2-0.9,3l2.1,3.6l-3.1,2.2l-1.6-2.4
				c-0.7-1.1-2.4-1.2-3.3-0.3l-2.3,2.3c-0.9,0.9-0.8,2.5,0.2,3.2l2.7,2c0.7,0.5,1,1.3,0.8,2.3l-0.5,2.2l-4.5-1.1
				c-1.3-0.3-2.7,0.6-2.7,2.1l-0.1,5.4c0,0.9,0.5,1.8,1.5,2.1l4.4,1.5c0.9,0.3,1.5,1.1,1.5,2.2l-0.2,3.9c-0.1,1.1-0.9,2-2.1,2.1
				h-2.4c-1.5,0-2.4,1.3-2,2.8l2,6.4c0.3,0.9,1.2,1.7,2.3,1.6l4.4-0.4c0.8-0.1,1.7,0.3,2.1,1l2.4,4c0.5,0.8,0.4,1.8-0.2,2.5
				l-2.2,2.5c-0.7,0.8-0.6,2.2,0.1,2.9l4.3,4.1c0.8,0.8,2.2,0.8,3,0l1.3-1.3c0.8-0.8,2.1-0.8,3,0l2,2c0.5,0.5,0.7,1.3,0.5,2.2
				l-0.9,2.8c-0.3,1,0.2,2.3,1.2,2.7l4.7,1.8c1.2,0.5,2.6-0.3,2.9-1.6l0.1-0.6c0.2-1.1,1.2-1.9,2.4-1.7c1.1,0.1,1.9,1.1,1.9,2.2
				l-0.1,2.4c0,1.2,0.9,2.3,2.2,2.2l3.7-0.1c1.2,0,2.2-1,2.1-2.3l-0.2-3.4l2.5-1.1l3.5,2.5c0.9,0.6,2.2,0.5,2.9-0.4l1.7-2.1
				c0.9-1.1,0.4-2.8-0.9-3.3l-0.7-0.3c-0.8-0.3-1.3-1.1-1.3-2v-3.3c0-1.1,0.9-2.2,2.2-2.2h2.7c1.2,0,2.2-1,2.2-2.3l-0.3-6.6
				C239.3,297.9,238.3,297,237.1,297z M218.2,306.6c-7.3,3.7-17.3-1.5-22.4-11.7c-5.1-10.1-3.3-21.3,4-25s17.3,1.5,22.4,11.7
				C227.3,291.9,225.5,303,218.2,306.6z"/>
			<path class="st1" d="M163,192.4l-2.3,0.1c-0.7,0-1.3-0.5-1.4-1.2l-0.2-1.3c-0.1-0.8,0.4-1.5,1.2-1.6l1.2-0.1
				c0.8-0.1,1.4-0.8,1.2-1.6l-0.9-5.5c-0.1-0.7-0.8-1.3-1.6-1.1l-2.4,0.3c-0.6,0.1-1.2-0.2-1.4-0.7l-1.6-3c-0.3-0.7-0.1-1.5,0.5-2
				l0.7-0.4c0.7-0.5,0.9-1.5,0.3-2.2l-3.4-3.8c-0.5-0.6-1.3-0.6-1.9-0.2l-1.5,1.1c-0.5,0.4-1.2,0.4-1.7,0l-0.8-0.6
				c-0.5-0.4-0.7-1.2-0.4-1.9l0.4-0.8c0.4-0.7,0.2-1.5-0.5-2l-2.6-1.6c-0.7-0.5-1.7-0.1-2.2,0.7l-0.3,0.7c-0.3,0.6-0.9,1-1.6,0.9
				l-1.3-0.3c-0.5-0.1-0.9-0.5-1-1l-0.8-2.8c-0.2-0.8-1.1-1.2-1.9-0.9l-1.6,0.7c-0.8,0.3-1.1,1.3-0.6,2.1l1.4,2.5l-2.2,1.4l-1-1.5
				c-0.5-0.7-1.5-0.8-2.3-0.2l-1.5,1.5c-0.6,0.6-0.5,1.6,0.2,2.2l1.8,1.3c0.5,0.3,0.7,0.9,0.5,1.5l-0.4,1.4l-3-0.8
				c-0.9-0.2-1.8,0.4-1.8,1.3v3.6c0,0.6,0.4,1.1,0.9,1.3l3,1c0.6,0.2,1,0.8,0.9,1.4l-0.1,2.7c0,0.7-0.6,1.3-1.4,1.3h-1.7
				c-0.9,0-1.7,0.9-1.3,1.9l1.3,4.4c0.2,0.6,0.8,1.1,1.6,1l3-0.3c0.5-0.1,1.1,0.2,1.3,0.7l1.7,2.8c0.3,0.5,0.3,1.2-0.1,1.7l-1.4,1.7
				c-0.5,0.6-0.4,1.4,0.1,2l2.9,2.9c0.6,0.5,1.4,0.5,2.1,0l0.8-0.8c0.5-0.5,1.4-0.5,2.1,0l1.3,1.3c0.4,0.4,0.5,0.9,0.3,1.4l-0.6,1.9
				c-0.2,0.7,0.1,1.6,0.8,1.8l3.2,1.2c0.8,0.3,1.8-0.2,2-1l0.1-0.4c0.1-0.7,0.8-1.2,1.7-1.1c0.7,0.1,1.3,0.7,1.2,1.4l0.1,1.7
				c0,0.8,0.6,1.6,1.4,1.6h2.2c0.8,0,1.4-0.7,1.4-1.5l-0.2-2.4l1.7-0.7l2.4,1.6c0.6,0.4,1.5,0.3,1.9-0.3l1.1-1.4
				c0.6-0.7,0.3-1.9-0.6-2.3l-0.5-0.2c-0.5-0.2-0.9-0.7-0.9-1.3v-2.3c0-0.8,0.6-1.4,1.4-1.4h1.8c0.8,0,1.4-0.7,1.4-1.5l-0.2-4.5
				C164.5,193,163.8,192.4,163,192.4z M149.9,199.5c-5,2.5-11.8-1.1-15.2-8c-3.5-6.9-2.2-14.5,2.8-17c5-2.5,11.8,1.1,15.2,8
				C156,189.5,154.8,197.1,149.9,199.5z"/>
			<path class="st1" d="M182.4,206.3v-0.2c0,0,0.5-0.6,0.9-0.5c0.3,0,0.1,0.7,0.1,0.7v1c0,0.4,0.3,0.7,0.7,0.7h1.3
				c0.4,0,0.7-0.3,0.7-0.7l-0.1-1.1l0.8-0.4l1.1,0.8c0.3,0.2,0.7,0.2,0.9-0.1l0.5-0.7c0.3-0.4,0.1-0.9-0.3-1.1l-0.2-0.1
				c-0.3-0.1-0.4-0.4-0.4-0.6v-1.3c0,0,0.7-0.7,1.1-0.7h0.9c0.4,0,0.7-0.3,0.7-0.7l-0.1-2.1c0-0.4-0.7-1.3-0.7-1.3h-1.1
				c0,0-0.6,0.3-0.7-0.1l-0.1-0.6c-0.1-0.4,0.2-0.7,0.6-0.8l0.6-0.1c0.4,0,0.7-0.4,0.6-0.8l-0.4-2.6c-0.1-0.4-0.4-0.6-0.8-0.6
				l-1.1,0.2c-0.3,0-0.6-0.1-0.7-0.4l-0.8-1.4c-0.2-0.3-0.1-0.7,0.2-0.9l0.3-0.2c0.4-0.2,0.4-0.7,0.2-1l-1.6-1.8
				c-0.2-0.3-0.6-0.3-0.9-0.1L184,187c-0.2,0.2-0.6,0.2-0.8,0l-0.4-0.3c-0.3-0.2-0.3-0.6-0.2-0.9l0.2-0.4c0.2-0.3,0.1-0.7-0.2-0.9
				l-1.2-0.8c-0.4-0.2-0.8-0.1-1,0.3l-0.1,0.3c-0.1,0.3-0.5,0.5-0.8,0.4l-0.6-0.1c-0.2-0.1-0.4-0.2-0.5-0.5l-0.4-1.3
				c-0.1-0.4-0.6-0.6-0.9-0.4l-0.8,0.3c-0.4,0.2-0.5,0.6-0.3,1l0.7,1.2l-1,0.7l-0.5-0.8c-0.2-0.4-0.8-0.4-1.1-0.1l-0.7,0.7
				c-0.3,0.3-0.3,0.8,0.1,1l0.9,0.6c0.2,0.2,0.3,0.4,0.3,0.7l-0.2,0.7l-1.4-0.4c-0.4-0.1-0.9,0.2-0.6,0.6v1.7
				c-0.3,0.3-0.1,0.6,0.2,0.7l1.4,0.5c0.3,0.1,0.5,0.4,0.5,0.7l-0.1,1.3c0,0.4-0.3,0.6-0.7,1h-0.8c-0.5-0.4-0.8,0-0.6,0.5l0.6,2.1
				c0.1,0.3,0.4,0.5,0.7,0.5l1.4-0.1c0.3,0,0.5,0.1,0.7,0.3l0.8,1.3c0.1,0.3,0.1,0.6-0.1,0.8l-0.7,0.8c-0.2,0.3-0.2,0.7,0,0.9
				l1.4,1.3c0.3,0.3,0.7,0.3,1,0l0.4-0.4c0.3-0.3,0.7-0.3,1,0l0.6,0.6c0.2,0.2,0.2,0.4,0.2,0.7l-0.3,0.9c-0.1,0.3,0.1,0.7,0.4,0.8
				l1.5,0.6C182,207,182.4,206.3,182.4,206.3z M176.7,197.7c-1.6-3.4-1.1-7.1,1.3-8.3c2.5-1.2,5.7,0.5,7.4,3.9
				c1.6,3.4,1.1,7.1-1.3,8.3C181.7,202.8,178.3,201.1,176.7,197.7z"/>
			<path class="st1" d="M115.9,62.1l0.3,0.8c0.2,0.4,0.6,0.5,0.9,0.3l1.9-0.9c0.3-0.2,0.5-0.6,0.3-0.9l-0.4-1
				c-0.1-0.3,0-0.7,0.3-0.9l0.6-0.3c0.3-0.2,0.8-0.1,0.9,0.2l0.3,0.5c0.2,0.3,0.6,0.4,1,0.2l2.2-1.4c0.3-0.2,0.4-0.6,0.2-0.9l-0.6-1
				c-0.1-0.2-0.1-0.6,0.1-0.8l1-1.3c0.2-0.3,0.6-0.3,0.9-0.1l0.3,0.2c0.3,0.2,0.8,0.1,1-0.3l1-2.2c0.2-0.3,0-0.7-0.3-0.9l-0.8-0.5
				c-0.3-0.2-0.4-0.5-0.3-0.8l0.1-0.5c0.1-0.3,0.4-0.5,0.7-0.8h0.4c0.4,0.3,0.7,0.1,0.7-0.3l0.3-1c0.1-0.4-0.7-0.7-0.7-0.7h0.3
				c-0.3,0-0.6-0.2-0.7-0.6l-0.1-0.6c0-0.2,0-0.5,0.2-0.6l1.1-0.9c0.3-0.3,0.3-0.7,0-1.1l-0.6-0.6c-0.3-0.3-0.8-0.2-1.1,0.1
				l-0.8,1.2l-1.1-0.7l0.5-0.8c0.2-0.4,0.1-0.9-0.3-1.1l-1.1-0.4c-0.4-0.1-0.8,0.1-0.9,0.5l-0.2,1.1c-0.1,0.3-0.3,0.5-0.6,0.5
				l-0.7,0.1l-0.2-1.5c-0.1-0.4-0.5-0.7-0.9-0.5l-1.7,0.7c-0.3,0.1-0.4,0.4-0.4,0.7l0.1,1.6c0,0.3-0.2,0.6-0.4,0.7l-1.3,0.4
				c-0.3,0.1-0.7,0-0.9-0.4l-0.3-0.7c-0.2-0.4-0.7-0.5-1.2-0.2l-1.8,1.5c-0.2,0.2-0.3,0.6-0.2,0.9l0.7,1.3c0.1,0.2,0.1,0.5,0,0.7
				l-0.9,1.3c-0.2,0.2-0.5,0.3-0.8,0.3l-1.1-0.3c-0.3-0.1-0.7,0.1-0.8,0.4l-0.7,1.9c-0.1,0.3,0,0.7,0.4,0.9l0.5,0.2
				c0.3,0.1,0.5,0.5,0.4,0.9l-0.3,0.8c-0.1,0.2-0.3,0.4-0.6,0.4l-0.8,0.1c-0.4,0-0.6,0.3-0.6,0.7l0.1,1.7c0,0.4,0.4,0.7,0.8,0.6h0.2
				c0.4-0.1,0.7,0.1,0.8,0.5c0.1,0.3-0.1,0.7-0.4,0.8l-0.7,0.3c-0.4,0.1-0.5,0.6-0.4,0.9l0.5,1.2c0.2,0.4,0.6,0.5,0.9,0.3l1.1-0.5
				l0.7,0.6l-0.3,1.4c-0.1,0.4,0.1,0.7,0.5,0.8l0.8,0.2c0.4,0.1,0.9-0.2,0.9-0.7v-0.8c0,0-0.1-0.5,0.1-0.6l1-0.4
				C115.4,61.6,115.8,61.8,115.9,62.1z M113.9,56.9c-2-1.7-1.7-5.4,0.6-8.3c2.5-2.9,6-3.8,8.1-2c2,1.7,1.7,5.4-0.6,8.3
				C119.6,57.7,116,58.6,113.9,56.9z"/>
			<path class="st1" d="M134.5,233.5h-0.6c-0.3,0-0.6-0.2-0.7-0.6l-0.1-0.6c-0.1-0.4,0.2-0.7,0.6-0.8l0.6-0.1c0.4,0,0.7-0.4,0.6-0.8
				l-0.4-2.6c-0.1-0.4-0.4-0.6-0.8-0.6l-1.2,0.2c-0.3,0-0.6-0.1-0.7-0.4l-0.8-1.5c-0.2-0.3-0.1-0.7,0.2-0.9l0.3-0.2
				c0.4-0.2,0.4-0.7,0.2-1l-1.7-1.9c-0.2-0.3-0.6-0.3-0.9-0.1l-0.7,0.6c-0.2,0.2-0.6,0.2-0.8,0l-0.4-0.3c-0.3-0.2-0.3-0.6-0.2-0.9
				l0.2-0.4c0.2-0.3,0.1-0.7-0.2-0.9l-1.3-0.8c-0.4-0.2-0.8-0.1-1,0.3l-0.1,0.3c-0.1,0.3-0.5,0.5-0.8,0.4l-0.6-0.1
				c-0.2-0.1-0.4-0.2-0.5-0.5l-0.4-1.4c-0.1-0.4-0.6-0.6-0.9-0.4l-0.8,0.3c-0.4,0.2-0.5,0.6-0.3,1l0.7,1.3l-1,0.7l-0.5-0.8
				c-0.2-0.4-0.8-0.4-1.2-0.1l-0.7,0.7c-0.3,0.3-0.3,0.8,0.1,1l0.9,0.6c0.2,0.2,0.3,0.4,0.3,0.7l-0.2,0.7l-1.5-0.4
				c-0.4-0.1-0.9,0.2-0.9,0.6v1.8c0,0.3,0.2,0.6,0.5,0.7l1.5,0.5c0.3,0.1,0.5,0.4,0.5,0.7l-0.1,1.4c0,0.4-0.3,0.6-0.7,0.6h-1.1
				c0,0-0.8,0.8-0.6,1.4l0.6,2.1c0.1,0.3,0.4,0.5,0.7,0.5l1.4-0.1c0.3,0,0.5,0.1,0.7,0.3l0.8,1.3c0.1,0.3,0.1,0.6-0.1,0.8l-0.7,0.8
				c-0.2,0.3-0.2,0.7,0,0.9l1.4,1.3c0.3,0.3,0.7,0.3,1,0l0.4-0.4c0.3-0.3,0.7-0.3,1,0l0.6,0.6c0.2,0.2,0.2,0.4,0.2,0.7l-0.3,0.9
				c-0.1,0.3,0.1,0.7,0.4,0.8l1.5,0.6c0.4,0.1,0.8-0.1,1.4-0.5v-0.2c-0.4-0.4-0.1-0.6,0.3-0.5c0.3,0,0.7,0.7,0.7,0.7v0.4
				c0,0.4,0.3,0.7,0.7,0.7h1.3c0.4,0,0.7-0.3,0.7-0.7l-0.1-1.1l0.8-0.4l1.1,0.8c0.3,0.2,0.7,0.2,0.9-0.1l0.5-0.7
				c0.3-0.4,0.1-0.9-0.3-1.1l-0.2-0.1c-0.3-0.1-0.4-0.4-0.4-0.6v-1.3c0-0.4,0.3-0.7,0.7-0.7h0.8c0.4,0,0.7-0.3,0.7-0.7l-0.1-2
				C135.1,233.8,134.8,233.5,134.5,233.5z M128,237.1c-2.5,1.2-5.7-0.5-7.4-3.9c-1.6-3.4-1.1-7.1,1.3-8.3c2.5-1.2,5.7,0.5,7.4,3.9
				C131,232.2,130.5,235.9,128,237.1z"/>
		</g>
		<path class="st2" d="M127.8,220.7c0.6-0.7,0.1-1.1,0.1-1.1l-1.2-0.8c-1-0.6-1.3,0.7-1.3,0.7s1.4,0.7,1.3,1.2c-0.8,1.2,0,1.6,0,1.6
			c0.4,0.5,0.9,0.2,0.9,0.2c0.1,0,0.7-0.6,0.7-0.6l-0.4-0.3C127.5,221.3,127.8,220.7,127.8,220.7z"/>
		<path class="st2" d="M122.7,234.4c-4.5-6.4-0.1-9.7-0.1-9.7c-5.5,1.4-3,8.1-1.7,9.7c4.2,5.5,7.2,2.5,7.2,2.5
			C125.1,237.5,122.7,234.4,122.7,234.4z"/>
		<path class="st2" d="M117,230.1c0.5-0.1,0.6-0.5,0.6-0.5C117.1,229.7,117,230.1,117,230.1z"/>
		<path class="st2" d="M117.3,223.9l0.8,0.2l0.2-0.9C117.2,222.9,117.3,223.9,117.3,223.9z"/>
		<path class="st2" d="M119.6,219.6c-0.4-0.1-1.1,0.7-1.1,0.7l0.6,0.9l1-0.7L119.6,219.6z"/>
		<path class="st2" d="M124,219.7c-0.6,0-0.8-1.4-0.8-1.4c-0.2-1-0.9-0.8-0.9-0.8l-1.1,0.6c0.6,0.2,0.7,1.2,0.7,1.2
			c0.3,1.3,0.6,1,0.6,1l0.8,0.2C124,220.5,124,219.7,124,219.7z"/>
		<path class="st2" d="M135.6,233.5h-0.7l-1.1-0.8l-0.1-0.8c0.1-0.9,1.2-0.8,1.2-0.8c0.8-0.1,0.5-1.2,0.5-1.2l-0.4-2.1
			c-0.1-0.6-0.7-0.6-0.7-0.6l-1,0.1c-0.5,0.2-0.9-0.2-0.9-0.2l-0.8-1.4c-0.6-1,0.6-1.4,0.6-1.4c0.6-0.5,0-1.1,0-1.1l-1.5-1.7
			c-0.5-0.4-0.9,0-0.9,0l-0.7,0.5l1.8,2.1c0.3,0.8-0.4,1-0.4,1c-0.7,0.4-0.4,1-0.4,1l0.7,1.2c0.3,0.7,0.8,0.5,0.8,0.5l1.1-0.2
			c0.7,0,0.8,0.6,0.8,0.6l0.5,2.8l0,0c-0.4,0.2-0.6,0.6-0.6,0.6h-0.4c-0.8,0.1-0.8,0.8-0.8,0.8l0.1,0.5c0.1,0.8,0.7,0.8,0.7,0.8h0.9
			c1-0.1,1,0.6,1,0.6l0.1,2.4h0.8l0.7-0.5l-0.1-2C136.4,233.3,135.6,233.5,135.6,233.5z"/>
		<path class="st2" d="M135,239.4c-0.8-0.1-0.8-0.8-0.6-0.8v-0.9h-0.9c-0.6-0.3-0.7,0.3-0.1,0.3v1c-0.7,0.7,0.2,0.9,0.2,0.9
			c0.7,0.6,0.1,1.2,0.1,1.2l0.2,0.1c0.4,0.3,0.8-0.1,0.8-0.1l0.5-0.7C135.7,239.9,135,239.4,135,239.4z"/>
		<path class="st2" d="M131.2,241l-0.8,0.4l0.1,1.3h0.9c0.8-0.1,0.6-1.1,0.6-1.1L131.2,241z"/>
		<path class="st2" d="M127.6,241.1c-0.7-0.5-1.1,0.3-1.1,0.3l0.4,0.1c0.6,0.3,0.9-0.2,0.9-0.2C127.7,241.2,127.6,241.1,127.6,241.1
			z"/>
		<path class="st2" d="M121.8,238.6c0,0,0.3,0.3,0.8,0.1C122.6,238.6,122.3,238.4,121.8,238.6z"/>
		<g>
			<path class="st6" d="M19.9,194.8v0.2C20,195,20,194.9,19.9,194.8z"/>
			<path class="st6" d="M15.8,159.8l-0.5,15c0,0,4.3,17.6,4.5,19.9l-1.2-20.3L15.8,159.8z"/>
			<path class="st6" d="M58.9,190.3c0,0,4.3,37.8,9.4,40.8c0,0,5.6-2.2,6.2-4.4C74.6,226.7,60.1,190.5,58.9,190.3z"/>
		</g>
	</g>
	<path class="st1" d="M138.8,171.8"/>
	<path class="st0" d="M184.5,276.9v4.3c0,0,0.3,1.4,1.8,1.7l1.4,0.5l0.2-4.1l-0.1-0.5L184.5,276.9z"/>
	<path class="st2" d="M212.3,258.4"/>
	<path class="st7" d="M113.7,229.2l5.6-4.8c0,0,3.2-2,1.8,3.8l5,4.2c0,0,1.1,0.3,0.3,2.1c0,0,2.2,1-0.1,2.5c0,0,0,2.9-1.5,3.2
		c0,0-8,1.6-13-0.7C112,239.2,117.3,238.2,113.7,229.2z"/>
</g>
</svg>
