<?xml version="1.0" encoding="utf-8"?>
<!-- Generator: Adobe Illustrator 25.2.3, SVG Export Plug-In . SVG Version: 6.00 Build 0)  -->
<svg version="1.1" id="Layer_1" xmlns="http://www.w3.org/2000/svg" xmlns:xlink="http://www.w3.org/1999/xlink" x="0px" y="0px"
	 viewBox="0 0 356 356" style="enable-background:new 0 0 356 356;" xml:space="preserve">
<style type="text/css">
	.st0{fill:#F18563;}
</style>
<g>
	<g>
		<path class="st0" d="M208.5,138.7c-44.3-33.3-93.8,16.1-60.4,60.4C192.4,232.5,241.8,183.1,208.5,138.7z M178.3,195.7
			c-21,0-36.5-24.4-19.5-46.4c22-16.8,46.2-1.4,46.2,19.6C205,183.7,193,195.7,178.3,195.7L178.3,195.7z M230.7,126.1
			c0,5.3-4.3,9.6-9.6,9.6c-5.3,0-9.6-4.3-9.6-9.6s4.3-9.6,9.6-9.6S230.7,120.8,230.7,126.1z M258,135.9c-0.6-12.9-3.5-24.2-13-33.6
			c-9.4-9.4-20.8-12.3-33.6-13c-13.2-0.8-53-0.8-66.2,0c-12.8,0.6-24.2,3.5-33.6,12.9s-12.3,20.8-13,33.6c-0.8,13.2-0.8,53,0,66.2
			c0.6,12.9,3.5,24.2,13,33.6c9.4,9.4,20.8,12.3,33.6,13c13.2,0.8,53,0.8,66.2,0c12.9-0.6,24.2-3.5,33.6-13
			c9.4-9.4,12.3-20.8,13-33.6C258.7,188.8,258.7,149.1,258,135.9L258,135.9z M240.8,216.3c-2.8,7-8.2,12.4-15.3,15.3
			c-10.6,4.2-35.6,3.2-47.3,3.2s-36.8,0.9-47.3-3.2c-7-2.8-12.4-8.2-15.3-15.3c-4.2-10.6-3.2-35.6-3.2-47.3s-0.9-36.8,3.2-47.3
			c2.8-7,8.2-12.4,15.3-15.3c10.6-4.2,35.6-3.2,47.3-3.2s36.8-0.9,47.3,3.2c7,2.8,12.4,8.2,15.3,15.3c4.2,10.6,3.2,35.6,3.2,47.3
			S245,205.7,240.8,216.3z"/>
	</g>
</g>
</svg>
