<?xml version="1.0" encoding="utf-8"?>
<!-- Generator: Adobe Illustrator 25.2.3, SVG Export Plug-In . SVG Version: 6.00 Build 0)  -->
<svg version="1.1" id="Layer_1" xmlns="http://www.w3.org/2000/svg" xmlns:xlink="http://www.w3.org/1999/xlink" x="0px" y="0px"
	 viewBox="0 0 356 356" style="enable-background:new 0 0 356 356;" xml:space="preserve">
<style type="text/css">
	.st0{fill:#FAF8F8;}
</style>
<g>
	<g>
		<path class="st0" d="M154.2,174.1c18.7,0,33.8-15.1,33.8-33.8s-15.1-33.8-33.8-33.8s-33.8,15.1-33.8,33.8S135.6,174.1,154.2,174.1
			z M177.9,182.6h-4.4c-5.9,2.7-12.4,4.2-19.2,4.2s-13.4-1.5-19.2-4.2h-4.4c-19.6,0-35.5,15.9-35.5,35.5v11c0,7,5.7,12.7,12.7,12.7
			h72.5c-0.6-1.8-0.9-3.7-0.7-5.6l1.8-16.1l0.3-2.9l2.1-2.1l20.4-20.4C197.8,187.3,188.4,182.6,177.9,182.6z M189.8,220.9L188,237
			c-0.3,2.7,2,5,4.6,4.6l16.1-1.8l36.4-36.4l-18.9-18.9L189.8,220.9z M262.2,177.5l-10-10c-2.5-2.5-6.5-2.5-8.9,0l-10,10l-1.1,1.1
			l18.9,18.9l11-11C264.6,184,264.6,180,262.2,177.5z"/>
	</g>
</g>
</svg>
