<?xml version="1.0" encoding="utf-8"?>
<!-- Generator: Adobe Illustrator 25.2.3, SVG Export Plug-In . SVG Version: 6.00 Build 0)  -->
<svg version="1.1" id="Layer_1" xmlns="http://www.w3.org/2000/svg" xmlns:xlink="http://www.w3.org/1999/xlink" x="0px" y="0px"
	 viewBox="0 0 356 247.8" style="enable-background:new 0 0 356 247.8;" xml:space="preserve">
<style type="text/css">
	.st0{fill:#78C2A7;}
	.st1{fill:#58BEBC;}
	.st2{fill:#5ABEBD;}
	.st3{fill:#5CBEBA;}
	.st4{fill:#60BFB9;}
	.st5{fill:#5FC1C8;}
	.st6{fill:#62C1C7;}
	.st7{fill:#66C4D4;}
</style>
<g>
	<ellipse class="st0" cx="10.3" cy="10.5" rx="10.1" ry="9.3"/>
	<ellipse class="st1" cx="94.1" cy="10.5" rx="10.1" ry="9.3"/>
	<ellipse class="st2" cx="177.9" cy="10.5" rx="10.1" ry="9.3"/>
	<ellipse class="st3" cx="261.6" cy="10.5" rx="10.1" ry="9.3"/>
	<ellipse class="st4" cx="345.4" cy="10.5" rx="10.1" ry="9.3"/>
	<ellipse class="st1" cx="10.3" cy="84.5" rx="10.1" ry="9.3"/>
	<ellipse class="st2" cx="94.1" cy="84.5" rx="10.1" ry="9.3"/>
	<ellipse class="st3" cx="177.9" cy="84.5" rx="10.1" ry="9.3"/>
	<ellipse class="st4" cx="261.6" cy="84.5" rx="10.1" ry="9.3"/>
	<ellipse class="st5" cx="345.4" cy="84.5" rx="10.1" ry="9.3"/>
	<ellipse class="st2" cx="10.3" cy="164.7" rx="10.1" ry="9.3"/>
	<ellipse class="st3" cx="94.1" cy="164.7" rx="10.1" ry="9.3"/>
	<ellipse class="st4" cx="177.9" cy="164.7" rx="10.1" ry="9.3"/>
	<ellipse class="st5" cx="261.6" cy="164.7" rx="10.1" ry="9.3"/>
	<ellipse class="st6" cx="345.4" cy="164.7" rx="10.1" ry="9.3"/>
	<ellipse class="st3" cx="10.3" cy="238.7" rx="10.1" ry="9.3"/>
	<ellipse class="st4" cx="94.1" cy="238.7" rx="10.1" ry="9.3"/>
	<ellipse class="st5" cx="177.9" cy="238.7" rx="10.1" ry="9.3"/>
	<ellipse class="st6" cx="261.6" cy="238.7" rx="10.1" ry="9.3"/>
	<ellipse class="st7" cx="345.4" cy="238.7" rx="10.1" ry="9.3"/>
</g>
</svg>
