<?xml version="1.0" encoding="utf-8"?>
<!-- Generator: Adobe Illustrator 25.2.3, SVG Export Plug-In . SVG Version: 6.00 Build 0)  -->
<svg version="1.1" id="Layer_1" xmlns="http://www.w3.org/2000/svg" xmlns:xlink="http://www.w3.org/1999/xlink" x="0px" y="0px"
	 viewBox="0 0 26.8 20.7" style="enable-background:new 0 0 26.8 20.7;" xml:space="preserve">
<style type="text/css">
	.st0{fill:#FFFFFF;}
</style>
<g>
	<path class="st0" d="M0.1,18.5c0,1.2,1,2.2,2.2,2.2h22.2c1.2,0,2.2-1,2.2-2.2v-8.1H0.1V18.5z M9,15.4c0-0.3,0.2-0.6,0.6-0.6h6.3
		c0.3,0,0.6,0.2,0.6,0.6v1.9c0,0.3-0.2,0.6-0.6,0.6H9.5c-0.3,0-0.6-0.2-0.6-0.6V15.4z M3,15.4c0-0.3,0.2-0.6,0.6-0.6h3.3
		c0.3,0,0.6,0.2,0.6,0.6v1.9c0,0.3-0.2,0.6-0.6,0.6H3.6c-0.3,0-0.6-0.2-0.6-0.6V15.4z M26.7,2.3v2.2H0.1V2.3C0.1,1,1.1,0,2.3,0h22.2
		C25.7,0,26.7,1,26.7,2.3z"/>
</g>
</svg>
