<?xml version="1.0" encoding="utf-8"?>
<!-- Generator: Adobe Illustrator 25.2.3, SVG Export Plug-In . SVG Version: 6.00 Build 0)  -->
<svg version="1.1" id="Layer_1" xmlns="http://www.w3.org/2000/svg" xmlns:xlink="http://www.w3.org/1999/xlink" x="0px" y="0px"
	 viewBox="0 0 45.8 40.3" style="enable-background:new 0 0 45.8 40.3;" xml:space="preserve">
<style type="text/css">
	.st0{fill:#F08462;}
</style>
<g>
	<g>
		<g>
			<g>
				<path class="st0" d="M45,34.7L26.2,2.1c-1.4-2.5-5.1-2.5-6.5,0L0.8,34.7c-1.4,2.5,0.4,5.7,3.3,5.7h37.7
					C44.7,40.4,46.5,37.3,45,34.7z M22.9,35.3c-1.4,0-2.5-1.1-2.5-2.5c0-1.4,1.1-2.5,2.5-2.5s2.5,1.1,2.5,2.5
					C25.5,34.2,24.3,35.3,22.9,35.3z M25.9,16.7l-1,10c-0.1,0.6-0.6,1.1-1.2,1.1h-1.5c-0.6,0-1.2-0.5-1.2-1.1l-1-10
					c-0.1-0.7,0.4-1.3,1.1-1.4c0,0,0.1,0,0.1,0h3.5c0.7,0,1.3,0.6,1.3,1.3C25.9,16.6,25.9,16.6,25.9,16.7L25.9,16.7z"/>
			</g>
		</g>
	</g>
</g>
</svg>
