<?xml version="1.0" encoding="utf-8"?>
<!-- Generator: Adobe Illustrator 25.2.3, SVG Export Plug-In . SVG Version: 6.00 Build 0)  -->
<svg version="1.1" id="Layer_1" xmlns="http://www.w3.org/2000/svg" xmlns:xlink="http://www.w3.org/1999/xlink" x="0px" y="0px"
	 viewBox="0 0 356 356" style="enable-background:new 0 0 356 356;" xml:space="preserve">
<style type="text/css">
	.st0{fill:#F18563;}
</style>
<g>
	<g>
		<path class="st0" d="M236.4,164.4c0.1,1.2,0.1,2.5,0.1,3.7c0,37.8-28.7,81.3-81.3,81.3c-16.2,0-31.2-4.7-43.9-12.8
			c2.3,0.3,4.5,0.4,6.9,0.4c13.4,0,25.6-4.5,35.5-12.2c-12.6-0.3-23.1-8.5-26.7-19.8c1.8,0.3,3.5,0.4,5.4,0.4c2.6,0,5.1-0.4,7.5-1
			c-13.1-2.7-22.9-14.1-22.9-28v-0.4c3.8,2.1,8.2,3.4,12.9,3.6c-7.7-5.1-12.7-13.9-12.7-23.8c0-5.3,1.4-10.2,3.9-14.4
			c14.1,17.3,35.2,28.6,58.9,29.9c-0.4-2.1-0.7-4.3-0.7-6.5c0-15.7,12.7-28.6,28.6-28.6c8.2,0,15.6,3.4,20.9,9
			c6.5-1.2,12.6-3.6,18.1-6.9c-2.1,6.6-6.6,12.2-12.6,15.7c5.7-0.6,11.3-2.2,16.4-4.4C246.9,155.3,242,160.3,236.4,164.4
			L236.4,164.4z"/>
	</g>
</g>
</svg>
