<?xml version="1.0" encoding="utf-8"?>
<!-- Generator: Adobe Illustrator 25.2.3, SVG Export Plug-In . SVG Version: 6.00 Build 0)  -->
<svg version="1.1" id="Layer_1" xmlns="http://www.w3.org/2000/svg" xmlns:xlink="http://www.w3.org/1999/xlink" x="0px" y="0px"
	 viewBox="0 0 1213.6 33.1" style="enable-background:new 0 0 1213.6 33.1;" xml:space="preserve">
<style type="text/css">
	.st0{fill:#020203;}
	.st1{font-family:'MyriadPro-Regular';}
	.st2{font-size:10.7621px;}
	.st3{fill:#78C3A9;}
	.st4{fill:#FFFFFF;}
	.st5{font-family:'MyriadPro-Bold';}
	.st6{font-size:12.9736px;}
</style>
<text transform="matrix(1 0 0 1 244.8391 18.753)" class="st0 st1 st2">  </text>
<circle class="st3" cx="601.7" cy="16.3" r="15.5"/>
<circle class="st3" cx="368.4" cy="16.3" r="15.5"/>
<circle class="st3" cx="1068.1" cy="16.3" r="15.5"/>
<circle class="st3" cx="834.9" cy="16.3" r="15.5"/>
<path class="st3" d="M1212.6,15.7v1.6c0,1.9-1.6,3.5-3.5,3.5H3.1c-1.9,0-3.5-1.6-3.5-3.5v-1.6c0-1.9,1.6-3.5,3.5-3.5h1206
	C1211.1,12.2,1212.6,13.8,1212.6,15.7z"/>
<circle class="st3" cx="135.2" cy="16.3" r="15.5"/>
<text transform="matrix(1 0 0 1 130.9805 20.8988)" class="st4 st5 st6">1</text>
<g>
	<text transform="matrix(1 0 0 1 364.5222 20.8989)" class="st4 st5 st6">2</text>
</g>
<g>
	<text transform="matrix(1 0 0 1 598.0638 20.8989)" class="st4 st5 st6">3</text>
</g>
<g>
	<text transform="matrix(1 0 0 1 831.6054 20.8988)" class="st4 st5 st6">4</text>
</g>
<g>
	<text transform="matrix(1 0 0 1 1065.1471 20.8988)" class="st4 st5 st6">5</text>
</g>
</svg>
