<?xml version="1.0" encoding="UTF-8"?>
<svg xmlns="http://www.w3.org/2000/svg" xmlns:xlink="http://www.w3.org/1999/xlink" width="150pt" height="150pt" viewBox="0 0 150 150" version="1.1">
<g id="surface1">
<path style=" stroke:none;fill-rule:nonzero;fill:rgb(86.27451%,85.098039%,86.27451%);fill-opacity:1;" d="M 49.425781 75.675781 C 47.78125 76.515625 46.054688 77.402344 44.242188 78.246094 C 42.429688 79.128906 40.703125 79.886719 39.058594 80.5625 C 37.414062 81.234375 36.234375 81.574219 35.476562 81.574219 C 34.84375 81.574219 34.339844 81.445312 33.917969 81.195312 C 33.539062 80.941406 33.203125 80.605469 32.992188 80.183594 C 32.78125 79.761719 32.65625 79.296875 32.570312 78.835938 C 32.484375 78.371094 32.445312 77.90625 32.445312 77.484375 C 32.445312 76.8125 32.570312 76.011719 32.78125 75.085938 C 32.992188 74.199219 33.328125 73.355469 33.835938 72.554688 C 34.296875 71.753906 34.929688 71.082031 35.6875 70.535156 C 36.445312 69.984375 37.414062 69.691406 38.511719 69.691406 C 39.480469 69.691406 40.617188 69.859375 41.964844 70.195312 C 43.316406 70.535156 44.664062 70.953125 46.054688 71.375 C 47.445312 71.839844 48.75 72.304688 50.015625 72.765625 C 51.277344 73.230469 52.332031 73.609375 53.089844 73.863281 C 52.246094 74.242188 51.023438 74.832031 49.425781 75.675781 Z M 52.542969 80.730469 C 51.867188 82.121094 51.109375 83.722656 50.265625 85.449219 C 49.425781 87.175781 48.496094 88.988281 47.484375 90.886719 C 46.476562 92.78125 45.464844 94.464844 44.410156 96.023438 C 43.355469 97.542969 42.386719 98.804688 41.375 99.773438 C 40.40625 100.746094 39.523438 101.25 38.722656 101.25 C 37.878906 101.25 37.164062 100.996094 36.574219 100.449219 C 35.984375 99.902344 35.519531 99.3125 35.183594 98.59375 C 34.84375 97.878906 34.59375 97.121094 34.425781 96.320312 C 34.253906 95.519531 34.171875 94.886719 34.171875 94.425781 C 34.171875 92.484375 34.886719 90.675781 36.277344 89.074219 C 37.667969 87.472656 39.394531 85.996094 41.417969 84.605469 C 43.441406 83.257812 45.632812 81.996094 47.90625 80.855469 C 50.183594 79.71875 52.203125 78.664062 53.933594 77.65625 C 53.679688 78.328125 53.214844 79.339844 52.542969 80.730469 Z M 50.644531 68.34375 C 48.917969 67.753906 47.234375 67.035156 45.589844 66.277344 C 43.945312 65.519531 42.515625 64.636719 41.335938 63.707031 C 40.15625 62.738281 39.566406 61.726562 39.566406 60.632812 C 39.566406 60 39.734375 59.199219 40.070312 58.230469 C 40.40625 57.261719 40.914062 56.335938 41.546875 55.449219 C 42.175781 54.566406 42.894531 53.765625 43.734375 53.132812 C 44.535156 52.5 45.464844 52.164062 46.390625 52.164062 C 47.023438 52.164062 47.65625 52.542969 48.246094 53.257812 C 48.835938 54.015625 49.425781 54.945312 49.972656 56.125 C 50.519531 57.304688 51.066406 58.566406 51.613281 59.957031 C 52.164062 61.347656 52.625 62.738281 53.003906 64.046875 C 53.386719 65.351562 53.765625 66.574219 54.058594 67.625 C 54.394531 68.679688 54.605469 69.4375 54.773438 69.945312 C 53.765625 69.523438 52.375 68.976562 50.644531 68.34375 Z M 62.695312 109.972656 C 62.527344 111.023438 62.191406 111.996094 61.683594 112.921875 C 61.222656 113.804688 60.503906 114.605469 59.621094 115.238281 C 58.734375 115.871094 57.554688 116.207031 56.125 116.207031 C 54.691406 116.207031 53.46875 115.871094 52.414062 115.195312 C 51.40625 114.523438 50.519531 113.722656 49.84375 112.796875 C 49.171875 111.824219 48.625 110.816406 48.285156 109.675781 C 47.949219 108.539062 47.78125 107.484375 47.78125 106.558594 C 47.78125 104.410156 48.117188 102.09375 48.835938 99.691406 C 49.550781 97.289062 50.394531 94.886719 51.40625 92.484375 C 52.414062 90.085938 53.46875 87.765625 54.523438 85.492188 C 55.617188 83.257812 56.546875 81.195312 57.34375 79.296875 C 57.808594 81.53125 58.398438 83.765625 59.03125 86.082031 C 59.703125 88.398438 60.296875 90.757812 60.84375 93.117188 C 61.390625 95.476562 61.855469 97.835938 62.273438 100.195312 C 62.65625 102.554688 62.863281 104.875 62.863281 107.148438 C 62.992188 107.949219 62.90625 108.917969 62.695312 109.972656 Z M 66.613281 47.824219 C 65.855469 50.097656 65.015625 52.5 64.003906 55.027344 C 62.992188 57.554688 61.980469 59.957031 60.925781 62.273438 C 59.914062 64.507812 59.15625 66.320312 58.566406 67.667969 L 57.261719 63.328125 C 56.796875 61.769531 56.335938 60.210938 55.914062 58.695312 C 55.492188 57.175781 55.113281 55.617188 54.859375 54.058594 C 54.566406 52.5 54.4375 50.984375 54.4375 49.59375 C 54.4375 48.539062 54.691406 47.402344 55.15625 46.136719 C 55.617188 44.875 56.292969 43.734375 57.175781 42.683594 C 58.0625 41.628906 59.113281 40.746094 60.296875 40.027344 C 61.515625 39.3125 62.863281 38.976562 64.339844 38.976562 C 65.644531 38.976562 66.574219 39.3125 67.035156 40.027344 C 67.5 40.746094 67.753906 41.585938 67.753906 42.515625 C 67.753906 43.777344 67.375 45.546875 66.613281 47.824219 Z M 94.71875 104.832031 C 94.253906 106.09375 93.539062 107.234375 92.613281 108.285156 C 91.683594 109.339844 90.503906 110.140625 89.113281 110.730469 C 87.597656 111.40625 85.828125 111.699219 83.804688 111.65625 C 81.867188 111.613281 80.015625 111.023438 78.371094 109.972656 C 76.347656 108.664062 74.535156 106.855469 72.933594 104.664062 C 71.417969 102.554688 70.070312 100.238281 68.890625 97.625 C 67.710938 95.015625 66.65625 92.484375 65.730469 89.914062 C 64.804688 87.386719 64.003906 84.984375 63.328125 82.710938 C 62.65625 80.476562 62.023438 78.625 61.515625 77.191406 C 63.160156 77.949219 65.140625 78.792969 67.414062 79.761719 C 69.734375 80.730469 72.136719 81.824219 74.621094 82.964844 C 77.148438 84.144531 79.636719 85.363281 82.121094 86.714844 C 84.605469 88.0625 86.839844 89.496094 88.820312 90.96875 C 90.800781 92.445312 92.402344 94.046875 93.625 95.6875 C 94.84375 97.375 95.433594 99.058594 95.433594 100.828125 C 95.433594 102.21875 95.226562 103.566406 94.71875 104.832031 Z M 92.695312 47.863281 C 91.433594 49.425781 89.832031 51.023438 87.894531 52.667969 C 85.953125 54.3125 83.722656 55.914062 81.320312 57.515625 C 78.875 59.113281 76.476562 60.589844 74.074219 62.023438 C 71.671875 63.453125 69.394531 64.761719 67.289062 65.898438 C 65.183594 67.078125 63.496094 68.046875 62.191406 68.847656 C 62.863281 67.457031 63.664062 65.730469 64.59375 63.707031 C 65.519531 61.644531 66.574219 59.453125 67.753906 57.175781 C 68.933594 54.859375 70.238281 52.542969 71.628906 50.226562 C 73.019531 47.90625 74.535156 45.800781 76.179688 43.945312 C 77.824219 42.09375 79.59375 40.574219 81.488281 39.4375 C 83.386719 38.257812 85.449219 37.710938 87.597656 37.710938 C 89.703125 37.710938 91.390625 38.257812 92.65625 39.355469 C 93.875 40.449219 94.507812 41.839844 94.507812 43.523438 C 94.59375 44.832031 93.960938 46.304688 92.695312 47.863281 Z M 111.023438 73.355469 C 110.183594 74.832031 109.046875 76.054688 107.613281 77.105469 C 106.179688 78.117188 104.535156 78.917969 102.640625 79.507812 C 100.746094 80.054688 98.804688 80.351562 96.742188 80.351562 C 94.046875 80.351562 91.265625 80.097656 88.355469 79.550781 C 85.492188 79.003906 82.585938 78.371094 79.71875 77.613281 C 76.855469 76.855469 74.03125 76.011719 71.25 75.167969 C 68.511719 74.285156 65.941406 73.523438 63.539062 72.894531 C 64.972656 72.21875 66.65625 71.417969 68.679688 70.492188 C 70.660156 69.566406 72.765625 68.59375 75 67.542969 C 77.234375 66.53125 79.507812 65.476562 81.910156 64.464844 C 84.269531 63.453125 86.585938 62.527344 88.863281 61.683594 C 91.09375 60.886719 93.285156 60.210938 95.351562 59.703125 C 97.414062 59.199219 99.226562 58.945312 100.828125 58.945312 C 102.472656 58.945312 103.988281 59.199219 105.378906 59.746094 C 106.769531 60.296875 107.992188 60.96875 109.046875 61.855469 C 110.054688 62.738281 110.898438 63.75 111.445312 64.929688 C 112.035156 66.109375 112.332031 67.332031 112.332031 68.679688 C 112.289062 70.28125 111.867188 71.882812 111.023438 73.355469 Z M 111.023438 73.355469 "/>
</g>
</svg>
