<?xml version="1.0" encoding="utf-8"?>
<!-- Generator: Adobe Illustrator 25.2.3, SVG Export Plug-In . SVG Version: 6.00 Build 0)  -->
<svg version="1.1" id="Layer_1" xmlns="http://www.w3.org/2000/svg" xmlns:xlink="http://www.w3.org/1999/xlink" x="0px" y="0px"
	 viewBox="0 0 166 356" style="enable-background:new 0 0 166 356;" xml:space="preserve">
<style type="text/css">
	.st0{opacity:9.000000e-02;fill:#F18661;}
</style>
<g>
	<path class="st0" d="M40.4,114.9c5.5,4.4,11.9,8.3,19.4,11.8c7.5,3.5,15.2,6.7,23.1,9.5c7.9,2.8,14.2,5.3,19.1,7.5
		c-0.7-2.2-1.8-5.7-3.3-10.6c-1.5-4.9-3.1-10.3-4.9-16.4c-1.8-6.1-3.9-12.3-6.4-18.8C85,91.6,82.5,85.7,80,80.3
		c-2.5-5.3-5.2-9.7-8-13.1c-2.8-3.4-5.6-5.1-8.5-5.1c-4.4,0-8.4,1.5-12.2,4.4c-3.8,2.9-7.1,6.4-10,10.6c-2.9,4.1-5.2,8.4-6.7,12.8
		c-1.6,4.4-2.4,8-2.4,10.9C32.2,105.8,34.9,110.6,40.4,114.9z"/>
	<path class="st0" d="M107.1,92c1.9,7,4,14.1,6.2,21.3l0,0c2.1,6.8,11.5,7.4,14.3,0.9c0.8-1.9,1.7-3.8,2.6-5.8
		c4.7-10.7,9.4-21.8,14-33.3c4.6-11.5,8.6-22.5,12-33c3.4-10.4,5.1-18.6,5.1-24.4c0-4.4-1.1-8.2-3.3-11.5c-2.2-3.3-6.3-4.9-12.4-4.9
		c-6.8,0-13,1.6-18.5,4.9c-5.6,3.3-10.4,7.3-14.4,12.2c-4,4.9-7.1,10.1-9.3,15.8c-2.2,5.7-3.3,11-3.3,15.8c0,6.6,0.7,13.4,2,20.6
		C103.5,77.9,105.1,85,107.1,92z"/>
	<path class="st0" d="M146.2,116.5c-3,6.7,4.2,13.5,10.7,9.9c0.7-0.4,1.5-0.8,2.2-1.2c2.6-1.4,5.3-2.9,8-4.4V74.3
		c-1.9,3.5-3.8,7-5.6,10.5c-5.5,10.6-10.3,20.6-14.5,30.1L146.2,116.5z"/>
	<path class="st0" d="M160.4,148.1c-6.4,3-5.7,12.3,1.1,14.3c1.8,0.5,3.7,1.1,5.6,1.7V145c-0.5,0.2-1.1,0.5-1.6,0.7
		C163.7,146.5,162,147.3,160.4,148.1z"/>
	<path class="st0" d="M130.1,249.6c-2.5-10.8-5.3-21.6-8.4-32.2c-0.9-3.2-1.8-6.4-2.6-9.5c-1.8-6.9-11.3-7.7-14.3-1.2
		c-1.2,2.6-2.5,5.3-3.8,8c-5,10.3-9.8,21-14.4,32.1c-4.6,11.1-8.5,22.1-11.8,33.2c-3.3,11.1-4.9,21.6-4.9,31.5
		c0,4.4,0.8,9.2,2.4,14.4c1.6,5.2,3.9,10,7.1,14.4c3.1,4.4,7.1,8.1,11.8,11.1c4.7,3,10.4,4.6,16.9,4.6c6.5,0,11.9-1.5,16-4.4
		c4.1-2.9,7.3-6.4,9.4-10.6c2.2-4.1,3.7-8.6,4.5-13.5c0.8-4.9,1.3-9.4,1.3-13.5c0-10.4-0.9-21.1-2.7-31.9
		C134.9,271.2,132.7,260.4,130.1,249.6z"/>
	<path class="st0" d="M167,191.9c-2.5-1.1-5-2.2-7.4-3.2c-3.9-1.7-7.7-3.3-11.2-4.8c-6-2.6-12.3,3.1-10.3,9.4
		c0.9,2.8,1.8,5.8,2.8,8.9c3.1,10.3,6.8,21.3,11.1,33c4.2,11.7,9.1,23.4,14.5,35.3c0.2,0.4,0.3,0.7,0.5,1.1V191.9z"/>
	<path class="st0" d="M91.6,193.1c3-6.4,5.3-11.1,6.7-14c-8,4.6-17.2,9.5-27.6,14.8c-10.4,5.2-20.3,10.9-29.6,17.1
		c-9.3,6.2-17.2,13-23.6,20.4c-6.4,7.4-9.6,15.6-9.6,24.6c0,2.2,0.4,5.1,1.1,8.7c0.7,3.6,1.9,7.1,3.5,10.4c1.6,3.3,3.7,6.1,6.4,8.6
		c2.7,2.4,5.9,3.6,9.8,3.6c3.6,0,7.7-2.2,12.2-6.7c4.5-4.5,9.1-10.3,13.8-17.3c4.7-7,9.4-14.9,14-23.5c4.6-8.6,8.8-16.9,12.7-25
		C85.1,206.8,88.6,199.5,91.6,193.1z"/>
	<path class="st0" d="M29.7,192.4c7.5-3,15.4-6.6,23.8-10.6c8.4-4,16.3-8,23.8-11.8c7.5-3.9,13.1-6.7,16.7-8.4
		c-3.6-1.2-8.4-2.9-14.2-5.1c-5.8-2.2-11.9-4.3-18.2-6.4c-6.3-2.1-12.5-3.9-18.7-5.5c-6.2-1.6-11.4-2.4-15.8-2.4
		c-5.1,0-9.4,1.3-12.9,3.8c-3.5,2.5-6.4,5.6-8.5,9.3c-2.2,3.6-3.8,7.5-4.7,11.7c-1,4.1-1.5,7.8-1.5,10.9c0,1.9,0.2,4,0.5,6.2
		c0.4,2.2,1,4.3,2,6.2c1,1.9,2.4,3.5,4.2,4.7c1.8,1.2,4.2,1.8,7.1,1.8C16.7,196.9,22.2,195.4,29.7,192.4z"/>
</g>
</svg>
