<?xml version="1.0" encoding="utf-8"?>
<!-- Generator: Adobe Illustrator 25.2.3, SVG Export Plug-In . SVG Version: 6.00 Build 0)  -->
<svg version="1.1" id="Layer_1" xmlns="http://www.w3.org/2000/svg" xmlns:xlink="http://www.w3.org/1999/xlink" x="0px" y="0px"
	 viewBox="0 0 310.8 249.6" style="enable-background:new 0 0 310.8 249.6;" xml:space="preserve">
<style type="text/css">
	.st0{fill:#FFFFFF;}
</style>
<g>
	<g>
		<path class="st0" d="M109,125.3c34.2,0,61.9-27.7,61.9-61.9S143.3,1.5,109,1.5S47.1,29.2,47.1,63.4S74.8,125.3,109,125.3z
			 M152.4,140.8h-8.1c-10.7,4.9-22.7,7.7-35.3,7.7s-24.5-2.8-35.3-7.7h-8.1c-35.9,0-65,29.1-65,65V226c0,12.8,10.4,23.2,23.2,23.2
			h133c-1.2-3.3-1.6-6.8-1.3-10.3l3.3-29.5l0.6-5.4l3.8-3.8l37.4-37.4C188.9,149.4,171.7,140.8,152.4,140.8z M174.3,211.1l-3.3,29.5
			c-0.5,4.9,3.6,9.1,8.5,8.5l29.5-3.3l66.7-66.7L241,144.5L174.3,211.1z M306.9,131.6l-18.3-18.3c-4.5-4.5-11.9-4.5-16.4,0
			l-18.3,18.3l-2,2l34.7,34.7l20.2-20.2C311.4,143.4,311.4,136.1,306.9,131.6z"/>
	</g>
</g>
</svg>
