<?xml version="1.0" encoding="utf-8"?>
<!-- Generator: Adobe Illustrator 25.2.3, SVG Export Plug-In . SVG Version: 6.00 Build 0)  -->
<svg version="1.1" id="Layer_1" xmlns="http://www.w3.org/2000/svg" xmlns:xlink="http://www.w3.org/1999/xlink" x="0px" y="0px"
	 viewBox="0 0 490.3 343.2" style="enable-background:new 0 0 490.3 343.2;" xml:space="preserve">
<style type="text/css">
	.st0{fill:#9FBCE4;}
	.st1{fill:#3E907C;}
	.st2{fill:#194655;}
	.st3{fill:#EE765B;}
	.st4{fill:#B95842;}
	.st5{fill:#1A4655;}
	.st6{fill:#F18B80;}
	.st7{fill:#242856;}
	.st8{fill:#F4A492;}
	.st9{fill:#E94442;}
	.st10{fill:#FAE0B2;}
	.st11{fill:#F4A493;}
	.st12{fill:#36558B;}
	.st13{fill:#F7CC7F;}
	.st14{fill:#56BAA4;}
	.st15{fill:#BA2724;}
	.st16{fill:#113758;}
	.st17{fill:#88AFDD;}
	.st18{fill:#486EB5;}
	.st19{fill:#9EBEE5;}
	.st20{fill:#A0BCE4;}
</style>
<path class="st0" d="M230.2,148.5"/>
<g>
	<g>
		<polygon class="st1" points="150.4,339.4 144.1,339.4 142.4,319.7 152.1,319.7 		"/>
		<polygon class="st1" points="116.1,339.4 109.9,339.4 108.2,319.7 117.8,319.7 		"/>
		<polygon class="st2" points="178.3,339.4 172,339.4 170.3,319.7 180,319.7 		"/>
		<g>
			<g>
				<g>
					<rect x="144.6" y="46.5" class="st2" width="1.2" height="68"/>
				</g>
				<g>
					<g>
						<rect x="136" y="56.2" class="st2" width="2.8" height="131.1"/>
					</g>
					<path class="st2" d="M158.1,188.8c-9.9,0-18-2.6-18-5.7c0-0.6,0.3-1.2,0.8-1.7l-0.1,0h-7.2h0c0.5,0.5,0.8,1.1,0.8,1.7
						c0,4-11.3,5.8-18.2,5.7l0,0v1.3h42.5v-1.3l0,0C158.4,188.8,158.3,188.8,158.1,188.8z"/>
				</g>
				<path class="st2" d="M147.6,57.2h-18.5c-1.2,0-2.3-1-2.3-2.3v-2.7h23V55C149.8,56.2,148.8,57.2,147.6,57.2z"/>
				<path class="st3" d="M171.3,48.9c0,1.1-3.9,2.1-10.2,2.8c-21,2.4-56.3,0.6-56.3-2.8c0-0.1,21.7-47.8,21.7-47.8h23
					C149.6,1.1,171.3,48.8,171.3,48.9z"/>
			</g>
			<path class="st2" d="M147.2,115.2c0,1.2-0.9,2.1-2,2.1c-1.1,0-2-1-2-2.1c0-1.2,0.9-2.1,2-2.1C146.3,113.1,147.2,114,147.2,115.2z
				"/>
		</g>
		<rect x="76.6" y="190" class="st1" width="107.7" height="130.1"/>
		<rect x="153" y="190" class="st2" width="31.2" height="130.1"/>
		<rect x="79.6" y="232.6" class="st2" width="73.5" height="2.3"/>
		<rect x="79.6" y="268.6" class="st2" width="73.5" height="2.3"/>
		<g>
			<path class="st2" d="M375.2,339.4l-1.9-71.7c-0.1-2.5-1.4-4.6-3.3-5.5c-0.6-0.2-1.1-0.4-1.8-0.4c-0.1,0-0.1,0-0.2,0
				c-1.4,0.1-2.6,0.7-3.5,1.9c-0.9,1.2-1.4,2.7-1.4,4.3c0,0.1,0,0.3,0,0.4l6.1,70.9H375.2z"/>
			<path class="st2" d="M413.2,339.7L415,268c0.1-2.5,1.4-4.6,3.3-5.5c0.6-0.2,1.1-0.4,1.8-0.4c0.1,0,0.1,0,0.2,0
				c1.4,0,2.6,0.7,3.5,1.9c0.9,1.2,1.4,2.7,1.4,4.3c0,0.1,0,0.3,0,0.4l-6.1,70.9H413.2z"/>
			<path class="st4" d="M423.9,274.6h-62c-4.4,0-8.1-4.3-8.1-9.6l0,0c0-6.5,4.4-11.8,9.9-11.8H422c5.5,0,9.9,5.3,9.9,11.8l0,0
				C432,270.3,428.4,274.6,423.9,274.6z"/>
		</g>
		<g>
			<path class="st5" d="M486.8,339.4H25c-1,0-1.8,0.9-1.9,2.1c-0.1,1.3,0.8,2.4,1.8,2.4h461.9c1,0,1.9-1,1.9-2.2l0,0
				C488.7,340.4,487.8,339.4,486.8,339.4z"/>
		</g>
		<g>
			<path class="st3" d="M462.6,339.4c-0.2-1.1-0.9-1.9-1.8-1.9h-32.4c-0.9,0-1.6,0.8-1.8,1.9H462.6z"/>
			<path class="st6" d="M438.2,337.5l-9.9,0c0,0,2-4.6,5.4-6.9c3.5-2.3,9.5-2.2,9.5-2.2L438.2,337.5z"/>
			<path class="st4" d="M445.2,337.6c0,0,0.7-8.9-1.9-9.1c-2.6-0.3-5.1,9.1-5.1,9.1H445.2z"/>
		</g>
		<g>
			<path class="st6" d="M485.4,339.4c-0.1-4.5-3.5-8.2-7.7-8.2c-4.2,0-7.6,3.6-7.7,8.2H485.4z"/>
			<path class="st3" d="M486.3,339.4c-0.1-1.1-0.4-1.9-0.9-1.9h-16c-0.4,0-0.8,0.8-0.9,1.9H486.3z"/>
		</g>
		<g>
			<path class="st7" d="M200.8,86.2c7.3-1.2,14.1,2,19.2,8.3c11.7,14.4,2.7,23.7,6.6,42.6c-2.2,2.9-4.8,5.1-8.3,6.2
				c-16.5,5.5-35,2.4-47.4-12.5c-0.1-0.1-0.1-0.1-0.2-0.2c3.5-10.8,9.4-25.6,11.8-29.2C187.1,94.6,191.8,87.7,200.8,86.2z"/>
			<path class="st8" d="M200,126.3c0,0-0.1,0.4-0.2,1.2c-0.6,3.6-2.6,14.5-4.1,17.8c-1.9,4,4.4,22,12.6,20.5
				c2.5-0.5-1.4-9.7-0.6-14.2c0.5-2.5,1.9-10.4,3.1-16.7c0.9-4.9,1.6-8.9,1.6-8.9L200,126.3z"/>
			<path class="st3" d="M199.8,127.5c-0.1,0.3-0.1,0.8-0.2,1.2c0.9,1.8,2,3.4,3.5,4.8c2.5,2.4,5,3.4,7.3,3.3
				c0.1-0.7,0.3-1.4,0.4-2.1c0.9-4.9,1.6-8.9,1.6-8.9l-12.4,0.3C200,126.3,199.9,126.7,199.8,127.5z"/>
			<path class="st8" d="M208.5,94.2c0,0-5,0.8-8.7,5.9c-3.6,5.2-7.6,21.1,1.5,29.8c9.1,8.7,18-1.2,19.4-11.6S221.8,93.8,208.5,94.2z
				"/>
			<path class="st8" d="M222.1,118.2c-1.1,2.3-2.9,3.6-4.1,2.9c-1.2-0.7-1.2-3.2-0.1-5.5c1.1-2.3,2.9-3.6,4-2.9
				C223.1,113.5,223.2,115.9,222.1,118.2z"/>
			<path class="st7" d="M210.1,93.9c0,0-7.8,15.2-13.4,15.9s-6.3,8.8-6.3,8.8s2-18.6,7.5-22.2C203.4,92.8,210.1,93.9,210.1,93.9z"/>
			<path class="st8" d="M198.5,113.4c0.5,2.7-0.5,5.2-2,5.5c-1.6,0.4-3.2-1.6-3.7-4.2c-0.5-2.7,0.5-5.2,2-5.5
				C196.4,108.8,198.1,110.7,198.5,113.4z"/>
			<path class="st9" d="M151.4,157.9l1.5-0.9c9.1-5.5,20-1,24.5,10.2l33.4,82.6c4.1,10.1,13.4,15.2,22.3,12.2l60.9-21
				c8.2-2.8,16.7,3.2,18.9,13.4l0,0l-100.4,40.7L151.4,157.9z"/>
			<path class="st6" d="M386.3,241c0,0,49.3-3.4,51.3,0.2c1.9,3.6-16.9,8.8-18.6,10.1c-15.1,11.3-13.8,4.3-17.1,3.4
				c-3.4-1-12.6-1.5-12.6-1.5L386.3,241z"/>
			<path class="st10" d="M217.3,265.3c0,0,1.8,3.9,3.5,4.9c6.2,3.6,18.3-1.9,18.3-1.9l75.8-20.9l80.3,6.4c0,0,2.8-11.7,1.4-16.5
				L323,218.9l-84.5,10.2L217.3,265.3z"/>
			<path class="st9" d="M312.9,256L312.9,256c-0.3-2.7-0.7-5.4-2.1-7.4c-3.7-5.3-10.7-7.4-16.7-5.5l-72.5,26.6
				c-0.6,0.2-1.3,0.1-1.8-0.4c-0.7-0.7-1.7-1.5-1.8-1.4c-3.2,3.6-5.1,26.8-5.1,26.8l0.1,0.2L312.9,256z"/>
			<path class="st11" d="M387,248.3c0,0,7.8,2.8,14.3,6c2.8,1.4,6.2,4.4,7.3,4.6c5.5,1,6.3-2.8,8.1-6.9c1.1-2.6,6.4-9.9,9.7-14.9
				c2-2.9,3.1-6.9,1.9-8.1c-3.4-3.5-9.8,7.1-15.7,10.2c-3.1,1.7-6.7,0.8-10.3,0.2c-4.2-0.8-10-4-10-4L387,248.3z"/>
			<g>
				<path class="st12" d="M208.2,304.4c-2.5,0-4.9-1.6-6.1-4.5l-56.8-131.8c-1.8-4.1-0.4-9.1,3-11.2c3.4-2.1,7.5-0.5,9.3,3.5
					l56.9,131.8c1.8,4.1,0.4,9.1-3,11.2C210.3,304.1,209.3,304.4,208.2,304.4z"/>
			</g>
			<g>
				<path class="st12" d="M318.5,257.6c-1.1-4.6-5.1-7.2-9-5.8c-1.1,0.4-102.2,35.7-104,36.3l5.8,15.9l102.3-35.7
					C317.5,266.9,319.7,262.1,318.5,257.6z"/>
				<path class="st12" d="M199.4,339.4l14.1-41c0.1-0.2,0.1-0.5,0.2-0.7c1-4-0.9-8.3-4.3-9.5c-3.4-1.2-7,1.1-8,5.1l-11.6,45.6
					c0,0.2-0.1,0.3-0.1,0.5L199.4,339.4z"/>
			</g>
			<path class="st13" d="M240.9,228.6c0,0,51.2-34.7,71.5-37.7c7.7-1.1,80.6,43.7,80.6,43.7l-7.6,15.7c0,0-44.4-13.5-58.1-20.1
				c-3.9-1.9-14.6-10.1-14.6-10.1L240.9,228.6z"/>
			<path class="st6" d="M206.8,153.7c0,0,44.4,39,48.8,39.7c3.2,0.5,35.9-11.4,35.9-11.4l-6.1,14.6c0,0-26.8,18-36.4,17.5
				c-11.2-0.6-37.7-27.1-37.7-27.1L206.8,153.7z"/>
			<path class="st1" d="M243,185.6c0,0-10.4,17.8-10.6,22.6l-21.9-19.6l-3.6-34.9L243,185.6z"/>
			<path class="st14" d="M183.8,143.9c0,0-5.4,17.6-3.2,38.8c2.2,21.3,36.6,86.3,36.6,86.3s7.3-1.4,12.8-9.1
				c2.3-3.2,10.8-31.3,10.8-31.3s-10.8-12.6-11.8-21c-1-8.3-2-17.2-4.9-30.1C221.2,164.6,194.2,138.1,183.8,143.9z"/>
			<g>
				<path class="st12" d="M183.9,243.3l96.8-7l7.4,12.3c1.1,59.3,1.3,82.3,1.3,90.8h9.4c0.5-9.6,1.6-33.4,3.7-92.9
					c0,0-14.9-17.6-18.7-21c-90.7,0.4-100.4,0.5-100.4,0.5c-4.2,0-7.4,4.2-7.2,9.1C176.5,239.9,179.9,243.5,183.9,243.3z"/>
			</g>
			<path class="st8" d="M218.8,176.2L203,204.3c0,0-2.4-18.9-4.3-39.2c-7.3,1.2-13.8,3.5-20.2,7.8c3.1,19.8,13,52.8,22.1,56.8
				c7.1,3.1,20.2-38.1,20.2-38.1L218.8,176.2z"/>
			<path class="st1" d="M198.8,158.2c-1.1-6.2-2.4-12.5-8-14.5c-3.5-1.2-7.5-0.1-10.2,2.7c-3.3,3.2-4.3,8.5-4.2,13.4
				c0,11.2,3,22.2,5.8,33.1c6.4-4.2,12.2-2.9,19.5-4.1C202.3,178.8,200.3,166.3,198.8,158.2z"/>
			<g>
				<path class="st4" d="M228.4,187.9h2.7l-0.3-3.4h-2.3c-1.1,0-2-1.5-2-3.4v-3.4c0-1.9,0.9-3.4,2-3.4h3V171h-3c-2.2,0-4,3-4,6.7
					v3.4C224.5,184.8,226.2,187.9,228.4,187.9z"/>
			</g>
			<path class="st4" d="M246.7,170.5v16.1c0,3.7-2.5,6.7-5.6,6.7h-4.8c-3.1,0-5.6-3-5.6-6.7v-18.1h16L246.7,170.5L246.7,170.5z"/>
			<path class="st8" d="M226.2,171c1.4,0,4.4,2.1,4.8,3.8c0.4,1.8-0.4,3.8-0.3,5c0.1,1.1,0.3,2.9,0,4.4c-0.1,0.4-1.9,2.8-2.1,3.6
				c-0.2,0.9-8,4.3-8,4.3l-1.9-15.8C218.7,176.3,220.4,171.1,226.2,171z"/>
			<path class="st15" d="M266.3,146.2l-10.8,54.4c-0.3,1.3,0.1,2.6,0.9,2.9l16.6,6.3l10.1-48.3c0,0-10.7-12.1-14.7-16.6
				C267.6,144,266.6,144.7,266.3,146.2z"/>
			<path class="st10" d="M257.8,198.3l9.4-47.3c0.3-1.6,1.4-2.3,2.1-1.4c3.2,3.7,8.2,9.3,11.7,13.3l-9.1,43.4l-13.3-5
				C257.9,200.9,257.5,199.6,257.8,198.3z"/>
			<path class="st9" d="M278.3,140.8l-22.4,66.8c-0.5,1.5,0,3.1,1,3.3l24.4,3.9l18-52.7l-18.3-22.6
				C280.3,138.5,278.8,139.2,278.3,140.8z"/>
			<path class="st6" d="M295.3,181.3c0,0,0.2-5.6-1.7-4.1c-1.8,1.5-1.6,4.8-2,5.5c-0.5,0.7-1.6,1.8-1.8,4c-0.3,2.3-1.6,3.8-1.8,5.3
				c-0.2,1.5-0.1,2.7-0.1,2.7s6-0.9,6.2-3.9C294.3,187.7,295.3,181.3,295.3,181.3z"/>
		</g>
		<g>
			<g>
				<g>
					<g>
						<path class="st10" d="M22,250.2c-0.1,1.4,0.7,2.6,1.8,2.7c1.1,0.2,2.2-0.8,2.3-2.2c0.1-1.4-0.7-2.6-1.8-2.7
							C23.2,247.9,22.1,248.8,22,250.2z"/>
						<path class="st3" d="M25.1,251.8c-0.8,1.4-2.6,0.6-2.5-1.1c0.1-0.9,0.7-1.5,1.5-1.4C25.1,249.5,25.6,250.8,25.1,251.8
							L25.1,251.8z"/>
					</g>
					<g>
						<path class="st10" d="M11.7,253.9c0.7,1,0.6,2.6-0.2,3.5c-0.9,0.9-2.2,0.7-2.9-0.3c-0.7-1-0.6-2.6,0.2-3.5
							C9.6,252.7,10.9,252.9,11.7,253.9z"/>
						<path class="st3" d="M11.2,257c-0.6,0.6-1.4,0.5-1.9-0.2c-0.4-0.5-0.4-1.3-0.1-1.9c0.1-0.1,0.2-0.2,0.3-0.3
							c0.3-0.3,0.6-0.4,1-0.4C11.7,254.4,12.1,256.1,11.2,257z"/>
					</g>
					<g>
						<path class="st10" d="M20.9,250.1c0,1.4-0.9,2.5-2.1,2.5c-1.1,0-2.1-1.1-2.1-2.5c0-1.4,0.9-2.5,2.1-2.5
							C20,247.7,20.9,248.7,20.9,250.1z"/>
						<path class="st3" d="M19,252.2c-1.1,0-1.7-1.4-1.1-2.5c0.7-1.3,2.5-0.7,2.5,0.9C20.3,251.5,19.7,252.2,19,252.2z"/>
					</g>
					<g>
						<path class="st10" d="M30.1,254.4c-0.7,1-2,1.2-2.9,0.3c-0.9-0.9-1-2.4-0.3-3.4c0.7-1,2-1.2,2.9-0.3
							C30.8,251.7,30.9,253.3,30.1,254.4z"/>
						<path class="st3" d="M29.3,254.2c-0.5,0.7-1.3,0.8-1.9,0.2c-0.6-0.6-0.7-1.6-0.2-2.3c0.5-0.7,1.3-0.8,1.9-0.2
							C29.7,252.5,29.8,253.5,29.3,254.2z"/>
					</g>
					<g>
						<path class="st10" d="M14.5,282.7c0.5-1.2,0.1-2.7-0.9-3.3c-1-0.6-2.3-0.1-2.8,1.1c-0.5,1.2-0.1,2.7,0.9,3.3
							C12.8,284.4,14,283.9,14.5,282.7z"/>
						<path class="st3" d="M14,282.1c-0.4,0.7-1.1,0.9-1.7,0.6c-0.7-0.4-1-1.5-0.5-2.3c0.4-0.7,1.1-0.9,1.7-0.6
							C14.2,280.2,14.4,281.3,14,282.1L14,282.1z"/>
					</g>
					<g>
						<path class="st10" d="M7.6,274.4c1.1-0.5,1.5-2,1.1-3.2c-0.5-1.3-1.7-1.8-2.7-1.3s-1.5,2-1.1,3.2
							C5.3,274.3,6.6,274.9,7.6,274.4z"/>
						<path class="st3" d="M8.3,272.9c-0.6,1.1-1.9,0.9-2.4-0.2c-0.3-0.8,0-1.8,0.7-2.1C7.8,269.9,9,271.6,8.3,272.9L8.3,272.9z"/>
					</g>
					<g>
						<path class="st10" d="M6.8,262.7c1.1,0.4,2.3-0.4,2.6-1.7c0.3-1.3-0.3-2.7-1.4-3.1c-1.1-0.4-2.3,0.4-2.6,1.7
							C5.1,261,5.7,262.3,6.8,262.7z"/>
						<path class="st3" d="M6.6,261.3c-0.2-0.4-0.2-0.8-0.1-1.2c0.3-1.4,1.9-1.5,2.5-0.3c0.2,0.4,0.2,0.8,0.1,1.2
							C8.7,262.4,7.2,262.5,6.6,261.3z"/>
					</g>
					<g>
						<path class="st10" d="M8.1,275.5c1-0.7,2.3-0.3,2.8,0.9c0.6,1.2,0.2,2.7-0.8,3.3c-1,0.7-2.3,0.3-2.8-0.9
							C6.8,277.7,7.1,276.2,8.1,275.5z"/>
						<path class="st3" d="M9.1,278.9c-1.1-0.4-1.4-2.2-0.3-2.9c0.6-0.4,1.5-0.2,1.8,0.6C11.2,277.8,10.2,279.2,9.1,278.9z"/>
					</g>
					<g>
						<path class="st10" d="M12.5,253.2c0.6,1.1,1.9,1.5,2.9,0.7c1-0.8,1.2-2.3,0.6-3.4c-0.6-1.1-1.9-1.5-2.9-0.7
							C12.1,250.5,11.9,252,12.5,253.2z"/>
						<path class="st3" d="M15.1,253.6c-0.6,0.5-1.5,0.3-1.9-0.5s-0.2-1.7,0.4-2.2c0.6-0.5,1.5-0.3,1.9,0.5c0.3,0.5,0.3,1.2,0,1.8
							C15.5,253.2,15.4,253.4,15.1,253.6z"/>
					</g>
					<g>
						<path class="st10" d="M6.6,263.9c1.1,0.2,1.9,1.5,1.7,2.9c-0.2,1.3-1.3,2.2-2.4,2c-1.1-0.2-1.9-1.5-1.7-2.9
							C4.4,264.6,5.4,263.7,6.6,263.9z"/>
						<path class="st3" d="M6.4,267.9c-1-0.2-1.4-1.5-0.9-2.5c0.3-0.5,0.8-0.8,1.4-0.7c0.7,0.2,1.2,1,1.1,1.8
							C7.8,267.5,7.1,268.1,6.4,267.9z"/>
					</g>
					<path class="st3" d="M27.3,254.7l0.3,0.3L14,279.8l-0.3-0.3l6.1-11.1l-8.9,7.9l-0.2-0.4l9.3-8.2l-11.1,4l-0.1-0.4l10.6-3.8
						l-11.1-0.8l0-0.5l11.6,0.8l-10.6-5.4l0.2-0.4l10.2,5.2l-8.1-9.1l0.3-0.3l8.4,9.5l-5.2-12.3l0.3-0.2l5,11.8L19,252.6l0.4-0.1
						l1.3,13.7l2.6-13.4l0.4,0.1l-2.5,12.9L27.3,254.7z"/>
				</g>
				<g>
					<polygon class="st3" points="64,299.7 63,301.4 19.4,267.3 20.3,265.6 					"/>
				</g>
			</g>
			<g>
				<g>
					<g>
						<path class="st10" d="M43,187.3c-1.1,1.9-0.8,4.5,0.8,5.8c1.6,1.3,3.7,0.9,4.9-1c1.1-1.9,0.8-4.5-0.8-5.8
							C46.3,185,44.1,185.4,43,187.3z"/>
						<path class="st3" d="M46.4,192.7c-2.1,1.3-4.3-1.7-2.9-3.9c0.7-1.2,2.1-1.5,3.2-0.6C48.1,189.3,47.9,191.8,46.4,192.7
							L46.4,192.7z"/>
					</g>
					<g>
						<path class="st10" d="M25.1,182.7c0.4,2.3-0.9,4.4-2.8,4.9c-1.9,0.4-3.7-1-4.1-3.3c-0.4-2.3,0.9-4.4,2.8-4.9
							C22.9,179,24.8,180.4,25.1,182.7z"/>
						<path class="st3" d="M22.3,186.9c-1.2,0.3-2.4-0.7-2.7-2.1c-0.2-1.2,0.3-2.4,1.2-2.9c0.2-0.1,0.4-0.2,0.6-0.3
							c0.6-0.1,1.2,0,1.7,0.4C24.9,183.4,24.3,186.5,22.3,186.9z"/>
					</g>
					<g>
						<path class="st10" d="M41.5,186.2c-0.9,2-3.1,2.8-4.7,1.7c-1.7-1.1-2.3-3.6-1.4-5.7c0.9-2,3.1-2.8,4.7-1.7
							C41.8,181.6,42.5,184.2,41.5,186.2z"/>
						<path class="st3" d="M37.1,187.3c-1.6-1-1.6-3.7,0-4.7c2-1.3,4.1,1.4,3.1,3.7C39.6,187.5,38.2,188,37.1,187.3z"/>
					</g>
					<g>
						<path class="st10" d="M52.2,201.4c-1.8,0.8-3.8-0.2-4.5-2.4c-0.7-2.2,0.2-4.5,2-5.4c1.8-0.8,3.8,0.2,4.5,2.4
							C54.9,198.2,54,200.6,52.2,201.4z"/>
						<path class="st3" d="M51.1,200.4c-1.2,0.5-2.5-0.2-2.9-1.5c-0.5-1.4,0.1-3,1.3-3.5c1.2-0.5,2.5,0.2,2.9,1.5
							C52.9,198.3,52.3,199.9,51.1,200.4z"/>
					</g>
					<g>
						<path class="st10" d="M9.5,228.2c1.6-1.3,2-3.9,0.9-5.8s-3.2-2.4-4.9-1.1c-1.6,1.3-2,3.9-0.9,5.8C5.8,229,7.9,229.5,9.5,228.2
							z"/>
						<path class="st3" d="M9.2,226.8c-1,0.6-2.3,0.3-2.9-0.9c-0.8-1.3-0.4-3.2,0.8-3.9c1-0.6,2.3-0.3,2.9,0.9
							C10.8,224.2,10.4,226,9.2,226.8L9.2,226.8z"/>
					</g>
					<g>
						<path class="st10" d="M5,209.1c1.9,0.2,3.6-1.5,3.8-3.7c0.2-2.3-1.2-4.3-3.2-4.5s-3.6,1.5-3.8,3.7
							C1.7,206.8,3.1,208.9,5,209.1z"/>
						<path class="st3" d="M7.1,207.5c-1.6,1-3.5-0.5-3.3-2.7c0.1-1.5,1.2-2.6,2.5-2.4C8.5,202.7,9.1,206.3,7.1,207.5L7.1,207.5z"/>
					</g>
					<g>
						<path class="st10" d="M11.9,191c1.4,1.7,3.5,1.7,4.9,0.1c1.4-1.6,1.4-4.2,0.1-5.9c-1.4-1.7-3.5-1.7-4.9-0.1
							C10.5,186.7,10.5,189.4,11.9,191z"/>
						<path class="st3" d="M12.5,188.7c0-0.7,0.2-1.4,0.7-1.9c1.4-1.7,3.8-0.4,3.8,2c0,0.7-0.2,1.4-0.7,1.9
							C14.9,192.4,12.5,191.1,12.5,188.7z"/>
					</g>
					<g>
						<path class="st10" d="M4.9,211.2c1.9,0,3.5,1.8,3.6,4.1c0,2.3-1.5,4.2-3.4,4.2c-1.9,0-3.5-1.8-3.6-4.1
							C1.5,213.1,3,211.2,4.9,211.2z"/>
						<path class="st3" d="M4.1,217.2c-1.5-1.7-0.5-4.6,1.5-4.6c1.3,0,2.3,1.2,2.3,2.6C8,217.6,5.6,218.8,4.1,217.2z"/>
					</g>
					<g>
						<path class="st10" d="M26.9,182.4c0.1,2.3,1.8,4,3.7,3.8s3.4-2.2,3.2-4.5c-0.1-2.3-1.8-4-3.7-3.8
							C28.2,178.1,26.7,180.1,26.9,182.4z"/>
						<path class="st3" d="M30.5,185.6c-1.2,0.1-2.3-1-2.4-2.5c-0.1-1.5,0.8-2.8,2.1-2.9c1.2-0.1,2.3,1,2.4,2.5
							c0.1,1.1-0.4,2.1-1.2,2.6C31.3,185.3,31,185.6,30.5,185.6z"/>
					</g>
					<g>
						<path class="st10" d="M10.7,192.6c1.5,1.4,1.8,4,0.5,5.9c-1.2,1.8-3.4,2.1-4.9,0.6c-1.5-1.4-1.8-4-0.5-5.9
							C7,191.4,9.2,191.1,10.7,192.6z"/>
						<path class="st3" d="M7.7,198.3c-1.3-1.2-1.1-3.6,0.4-4.5c0.8-0.5,1.8-0.4,2.5,0.3c1,0.9,1.1,2.6,0.3,3.8
							C10.1,199.1,8.6,199.3,7.7,198.3z"/>
					</g>
					<path class="st3" d="M47.8,199.2l0.3,0.7l-37.3,23.4l-0.3-0.7l16.6-10.5l-18.6,3l-0.1-0.8l19.4-3.1l-19.2-4.9l0.1-0.8l18.4,4.7
						l-15.9-12l0.4-0.7l16.5,12.5l-12-18.4l0.5-0.5l11.6,17.7l-5.7-21.4l0.6-0.2l5.9,22.3l0.7-23.3l0.7,0l-0.7,22.4l7.2-20.7
						l0.6,0.3l-7.5,21.6l13.1-17.3l0.5,0.5l-12.6,16.6L47.8,199.2z"/>
				</g>
				<g>
					<polygon class="st3" points="71.1,301.6 68.5,303.2 27.4,210.1 29.9,208.6 					"/>
				</g>
			</g>
			<g>
				<g>
					<path class="st12" d="M66.5,304.3c0,0,28.6-25.3,32.5-36.2c3.9-10.9-4.2-9.7-4.2-9.7s11.5-19.5,8.5-25.9
						c-3.1-6.4-9.5,1.8-9.5,1.8s5.4-26.4,0.7-27.9c-8.7-2.7-15.8,25.7-15.8,25.7s0.6-11.8-4.8-10.2c-8.2,2.4-3.8,27.8-3.8,27.8
						s-2.6-4.5-7.1-0.2C55,257.1,66.5,304.3,66.5,304.3z"/>
				</g>
				<path class="st16" d="M61.8,250c4.5-4.3,8.3-0.4,8.3-0.4s-4.3-25.4,3.8-27.8c5.4-1.6,4.8,10.2,4.8,10.2s7.1-28.4,15.8-25.7
					l-28.3,97.8C65,298.1,54.3,257.2,61.8,250z"/>
			</g>
			<g>
				<path class="st17" d="M66.5,303.4c0,0,29.3,0,35.4-6.1c6-6.1-1.4-6.5-1.4-6.5s14-8.9,13.8-14.8c-0.2-5.9-4.9-4.7-4.9-4.7
					s9.7-10.3,7.7-15.4c-3.1-7.7-16.9,6.9-16.9,6.9s1.1-5.9-3.2-7.1c-6.5-1.9-13.1,20.1-13.1,20.1s3.1-9.9-1.4-8.8
					C74.5,269,66.5,303.4,66.5,303.4z"/>
			</g>
			<g>
				<g>
					<path class="st12" d="M65.3,305.3c0,0-26-26.5-29.2-37.1c-3.2-10.6,4.4-8.9,4.4-8.9s-10-19.4-6.8-25.3c3.2-5.9,8.9,2.4,8.9,2.4
						s-3.7-25.5,0.8-26.5c8.4-2,13.7,25.5,13.7,25.5s0-11.3,5.1-9.4c7.7,2.9,2.3,26.7,2.3,26.7s2.8-8.9,6.9-4.5
						C78.7,256.1,65.3,305.3,65.3,305.3z"/>
				</g>
				<path class="st18" d="M72.3,247c-4.7-3.3-7,1.1-7,1.1s4.6-19.2-3.1-22.1c-5.1-1.9-5.1,9.4-5.1,9.4s-5.3-27.5-13.7-25.5l22,95.1
					C66.9,299.2,78,251,72.3,247z"/>
			</g>
			<g>
				<g>
					<path class="st19" d="M62.7,301.5c0,0-28.6,0-32.6-0.5c-4-0.6,0.4-4.8,0.4-4.8s-8.9,0.4-10.2-2.2c-1.4-2.6,2.3-3.6,2.3-3.6
						s-8.9-3.1-8.4-5.3c0.8-4.2,10.6-1.5,10.6-1.5s-3.6-2.1-2.2-4c2.2-3,11.7,5.1,11.7,5.1s-3.6-8.1-1.5-9.1
						C36.6,273.8,62.7,301.5,62.7,301.5z"/>
				</g>
			</g>
			<path class="st13" d="M42.1,339.8h47.6c6.1-6.6,9.7-15.7,9.6-25.6c-0.1-5-0.9-9.4-2.8-13.7l-61.3,0.8c-1.7,4.4-2.6,9.2-2.5,14.2
				C32.8,325,36.3,333.6,42.1,339.8z"/>
		</g>
		<g>
			<path class="st19" d="M239.1,156.1L239.1,156.1C239.1,156.1,239.1,156.1,239.1,156.1z"/>
		</g>
		<g>
			<path class="st10" d="M71.9,189.4h31.6c2.8,0,5.1-2.9,5.1-6.5l0,0c0-3.6-2.3-6.5-5.1-6.5H71.9l0,0c2.4,3.6,2.5,8.9,0.2,12.7
				L71.9,189.4z"/>
			<path class="st3" d="M108.1,182.9L108.1,182.9c0-3.6-2.3-6.5-5.1-6.5H71.3c-0.1,0-0.3-0.2-0.3-0.3l0,0c0-0.2,0.1-0.3,0.3-0.3
				h50.3c3.1,0,5.7,3.2,5.7,7.2l0,0c0,4-2.5,7.2-5.7,7.2H71.3c-0.1,0-0.3-0.1-0.3-0.3l0,0c0-0.2,0.1-0.3,0.3-0.3H103
				C105.8,189.4,108.1,186.4,108.1,182.9z"/>
		</g>
	</g>
</g>
<g>
	<path class="st20" d="M240.7,140.2"/>
</g>
<g>
	<path class="st20" d="M237.3,93.6c3.5,0.8,1.8,5,0.9,6.6c-0.2,0.5-0.1,1,0.3,1.3c12.6,9.7,4,17.4,0.5,19.9
		c-0.5,0.4-0.5,1.3,0.1,1.7l1,0.6c0.3,0.2,0.8,0.2,1.1,0c14.6-10.1,3.1-21.1,0-23.7c-0.4-0.3-0.5-0.9-0.2-1.3
		c2.8-4.4-0.8-6.9-2.6-7.8c-0.5-0.2-1,0-1.3,0.4l-0.4,0.7C236.3,92.6,236.6,93.4,237.3,93.6z"/>
	<path class="st20" d="M240.2,122.6"/>
	<path class="st20" d="M237.9,129.4l1,25.6c0.1,4.3,1.2,4.2,1.3-0.2l0.8-25.7c0.1-3.7-0.4-7.2-1-7.2h-1.2
		C238.2,121.9,237.7,125.6,237.9,129.4z"/>
</g>
</svg>
