<?xml version="1.0" encoding="utf-8"?>
<!-- Generator: Adobe Illustrator 25.2.3, SVG Export Plug-In . SVG Version: 6.00 Build 0)  -->
<svg version="1.1" id="Layer_1" xmlns="http://www.w3.org/2000/svg" xmlns:xlink="http://www.w3.org/1999/xlink" x="0px" y="0px"
	 viewBox="0 0 490.3 343.2" style="enable-background:new 0 0 490.3 343.2;" xml:space="preserve">
<style type="text/css">
	.st0{fill:#5BFF7A;}
	.st1{fill:#9FBCE4;}
	.st2{fill:#3E907C;}
	.st3{fill:#194655;}
	.st4{fill:#EE765B;}
	.st5{fill:#B95842;}
	.st6{fill:#1A4655;}
	.st7{fill:#F18B80;}
	.st8{fill:#242856;}
	.st9{fill:#F4A492;}
	.st10{fill:#E94442;}
	.st11{fill:#FAE0B2;}
	.st12{fill:#F4A493;}
	.st13{fill:#36558B;}
	.st14{fill:#F7CC7F;}
	.st15{fill:#56BAA4;}
	.st16{fill:#BA2724;}
	.st17{fill:#113758;}
	.st18{fill:#88AFDD;}
	.st19{fill:#486EB5;}
	.st20{fill:#9EBEE5;}
	.st21{fill:#9DBBE3;}
</style>
<rect x="1" y="0.9" class="st0" width="489" height="343"/>
<path class="st1" d="M260,148.5"/>
<g>
	<g>
		<polygon class="st2" points="338.1,319.7 347.8,319.7 346.1,339.4 339.8,339.4 		"/>
		<polygon class="st2" points="372.4,319.7 382,319.7 380.3,339.4 374.1,339.4 		"/>
		<polygon class="st3" points="310.2,319.7 319.9,319.7 318.2,339.4 311.9,339.4 		"/>
		<g>
			<g>
				<g>
					<rect x="344.4" y="46.5" class="st3" width="1.2" height="68"/>
				</g>
				<g>
					<g>
						<rect x="351.4" y="56.2" class="st3" width="2.8" height="131.1"/>
					</g>
					<path class="st3" d="M331.5,188.8L331.5,188.8v1.3H374v-1.3l0,0c-6.9,0.1-18.2-1.7-18.2-5.7c0-0.6,0.3-1.2,0.8-1.7l0,0h-7.2
						h-0.1c0.5,0.5,0.8,1.1,0.8,1.7c0,3.1-8.1,5.7-18,5.7C331.9,188.8,331.8,188.8,331.5,188.8z"/>
				</g>
				<path class="st3" d="M340.4,55v-2.8h23v2.7c0,1.3-1.1,2.3-2.3,2.3h-18.5C341.4,57.2,340.4,56.2,340.4,55z"/>
				<path class="st4" d="M340.7,1.1h23c0,0,21.7,47.7,21.7,47.8c0,3.4-35.3,5.2-56.3,2.8c-6.3-0.7-10.2-1.7-10.2-2.8
					C318.9,48.8,340.6,1.1,340.7,1.1z"/>
			</g>
			<path class="st3" d="M345,113.1c1.1,0,2,0.9,2,2.1c0,1.1-0.9,2.1-2,2.1s-2-0.9-2-2.1S343.9,113.1,345,113.1z"/>
		</g>
		<rect x="305.9" y="190" class="st2" width="107.7" height="130.1"/>
		<rect x="306" y="190" class="st3" width="31.2" height="130.1"/>
		<rect x="337.1" y="232.6" class="st3" width="73.5" height="2.3"/>
		<rect x="337.1" y="268.6" class="st3" width="73.5" height="2.3"/>
		<g>
			<path class="st3" d="M115,339.3h6l6.1-70.9c0-0.1,0-0.3,0-0.4c0-1.6-0.5-3.1-1.4-4.3c-0.9-1.2-2.1-1.8-3.5-1.9
				c-0.1,0-0.1,0-0.2,0c-0.7,0-1.2,0.2-1.8,0.4c-1.9,0.9-3.2,3-3.3,5.5l-1.9,71.7V339.3z"/>
			<path class="st3" d="M77,339.6h-5.9L65,268.7c0-0.1,0-0.3,0-0.4c0-1.6,0.5-3.1,1.4-4.3c0.9-1.2,2.1-1.9,3.5-1.9
				c0.1,0,0.1,0,0.2,0c0.7,0,1.2,0.2,1.8,0.4c1.9,0.9,3.2,3,3.3,5.5l1.8,71.7V339.6z"/>
			<path class="st5" d="M58.3,265L58.3,265c0-6.5,4.4-11.8,9.9-11.8h58.3c5.5,0,9.9,5.3,9.9,11.8l0,0c0,5.3-3.7,9.6-8.1,9.6h-62
				C61.8,274.6,58.2,270.3,58.3,265z"/>
		</g>
		<g>
			<path class="st6" d="M1.5,341.7L1.5,341.7c0,1.2,0.9,2.2,1.9,2.2h461.9c1,0,1.9-1.1,1.8-2.4c-0.1-1.2-0.9-2.1-1.9-2.1H3.4
				C2.4,339.4,1.5,340.4,1.5,341.7z"/>
		</g>
		<g>
			<path class="st4" d="M63.6,339.4c-0.2-1.1-0.9-1.9-1.8-1.9H29.4c-0.9,0-1.6,0.8-1.8,1.9H63.6z"/>
			<path class="st7" d="M47,328.4c0,0,6-0.1,9.5,2.2c3.4,2.3,5.4,6.9,5.4,6.9H52L47,328.4z"/>
			<path class="st5" d="M52,337.6c0,0-2.5-9.4-5.1-9.1c-2.6,0.2-1.9,9.1-1.9,9.1H52z"/>
		</g>
		<g>
			<path class="st7" d="M20.2,339.4c-0.1-4.6-3.5-8.2-7.7-8.2s-7.6,3.7-7.7,8.2H20.2z"/>
			<path class="st4" d="M21.7,339.4c-0.1-1.1-0.5-1.9-0.9-1.9h-16c-0.5,0-0.8,0.8-0.9,1.9H21.7z"/>
		</g>
		<g>
			<path class="st8" d="M307.7,101.4c2.4,3.6,8.3,18.4,11.8,29.2c-0.1,0.1-0.1,0.1-0.2,0.2c-12.4,14.9-30.9,18-47.4,12.5
				c-3.5-1.1-6.1-3.3-8.3-6.2c3.9-18.9-5.1-28.2,6.6-42.6c5.1-6.3,11.9-9.5,19.2-8.3C298.4,87.7,303.1,94.6,307.7,101.4z"/>
			<path class="st9" d="M277.8,126c0,0,0.7,4,1.6,8.9c1.2,6.3,2.6,14.2,3.1,16.7c0.8,4.5-3.1,13.7-0.6,14.2
				c8.2,1.5,14.5-16.5,12.6-20.5c-1.5-3.3-3.5-14.2-4.1-17.8c-0.1-0.8-0.2-1.2-0.2-1.2L277.8,126z"/>
			<path class="st4" d="M290.2,126.1l-12.4-0.3c0,0,0.7,4,1.6,8.9c0.1,0.7,0.3,1.4,0.4,2.1c2.3,0.1,4.8-0.9,7.3-3.3
				c1.5-1.4,2.6-3,3.5-4.8c-0.1-0.4-0.1-0.9-0.2-1.2C290.3,126.7,290.2,126.3,290.2,126.1z"/>
			<path class="st9" d="M269.5,118.3c1.4,10.4,10.3,20.3,19.4,11.6s5.1-24.6,1.5-29.8c-3.7-5.1-8.7-5.9-8.7-5.9
				C268.4,93.8,268.1,107.9,269.5,118.3z"/>
			<path class="st9" d="M268.3,112.7c1.1-0.7,2.9,0.6,4,2.9s1.1,4.8-0.1,5.5s-3-0.6-4.1-2.9C267,115.9,267.1,113.5,268.3,112.7z"/>
			<path class="st8" d="M292.3,96.4c5.5,3.6,7.5,22.2,7.5,22.2s-0.7-8.1-6.3-8.8c-5.6-0.7-13.4-15.9-13.4-15.9
				S286.8,92.8,292.3,96.4z"/>
			<path class="st9" d="M295.4,109.2c1.5,0.3,2.5,2.8,2,5.5c-0.5,2.6-2.1,4.6-3.7,4.2c-1.5-0.3-2.5-2.8-2-5.5
				C292.1,110.7,293.8,108.8,295.4,109.2z"/>
			<path class="st10" d="M277.7,295.1l-100.4-40.7l0,0c2.2-10.2,10.7-16.2,18.9-13.4l60.9,21c8.9,3,18.2-2.1,22.3-12.2l33.4-82.6
				c4.5-11.2,15.4-15.7,24.5-10.2l1.5,0.9L277.7,295.1z"/>
			<path class="st7" d="M100.9,253.2c0,0-9.2,0.5-12.6,1.5c-3.3,0.9-2,7.9-17.1-3.4c-1.7-1.3-20.5-6.5-18.6-10.1
				c2-3.6,51.3-0.2,51.3-0.2L100.9,253.2z"/>
			<path class="st11" d="M251.7,229.1l-84.5-10.2l-73.6,18.4c-1.4,4.8,1.4,16.5,1.4,16.5l80.3-6.4l75.8,20.9c0,0,12.1,5.5,18.3,1.9
				c1.7-1,3.5-4.9,3.5-4.9L251.7,229.1z"/>
			<path class="st10" d="M277.2,294.9l0.1-0.2c0,0-1.9-23.2-5.1-26.8c-0.1-0.1-1.1,0.7-1.8,1.4c-0.5,0.5-1.2,0.6-1.8,0.4l-72.5-26.6
				c-6-1.9-13,0.2-16.7,5.5c-1.4,2-1.8,4.7-2.1,7.4l0,0L277.2,294.9z"/>
			<path class="st12" d="M97.8,234.7c0,0-5.4,3.7-9.5,4.9c-3.5,1-7.1,2.2-10.3,0.8c-6.2-2.5-13.6-12.4-16.6-8.6
				c-1,1.3,0.4,5.2,2.7,7.9c3.8,4.6,9.7,11.4,11.1,13.9c2.1,3.9,3.3,7.7,8.7,6.1c1.1-0.3,4.1-3.7,6.8-5.3c6.2-3.7,13.7-7.3,13.7-7.3
				L97.8,234.7z"/>
			<g>
				<path class="st13" d="M278.7,303.4c-3.4-2.1-4.8-7.1-3-11.2l56.9-131.8c1.8-4,5.9-5.6,9.3-3.5c3.4,2.1,4.8,7.1,3,11.2
					l-56.8,131.8c-1.2,2.9-3.6,4.5-6.1,4.5C280.9,304.4,279.9,304.1,278.7,303.4z"/>
			</g>
			<g>
				<path class="st13" d="M176.6,268.3L278.9,304l5.8-15.9c-1.8-0.6-102.9-35.9-104-36.3c-3.9-1.4-7.9,1.2-9,5.8
					C170.5,262.1,172.7,266.9,176.6,268.3z"/>
				<path class="st13" d="M300.5,339.4c0-0.2-0.1-0.3-0.1-0.5l-11.6-45.6c-1-4-4.6-6.3-8-5.1c-3.4,1.2-5.3,5.5-4.3,9.5
					c0.1,0.2,0.1,0.5,0.2,0.7l14.1,41H300.5z"/>
			</g>
			<path class="st14" d="M177.5,220.1c0,0-10.7,8.2-14.6,10.1c-13.7,6.6-58.1,20.1-58.1,20.1l-7.6-15.7c0,0,72.9-44.8,80.6-43.7
				c20.3,3,71.5,37.7,71.5,37.7L177.5,220.1z"/>
			<path class="st7" d="M278.9,187c0,0-26.5,26.5-37.7,27.1c-9.6,0.5-36.4-17.5-36.4-17.5l-6.1-14.6c0,0,32.7,11.9,35.9,11.4
				c4.4-0.7,48.8-39.7,48.8-39.7L278.9,187z"/>
			<path class="st2" d="M283.3,153.7l-3.6,34.9l-21.9,19.6c-0.2-4.8-10.6-22.6-10.6-22.6L283.3,153.7z"/>
			<path class="st15" d="M266.1,177.5c-2.9,12.9-3.9,21.8-4.9,30.1c-1,8.4-11.8,21-11.8,21s8.5,28.1,10.8,31.3
				c5.5,7.7,12.8,9.1,12.8,9.1s34.4-65,36.6-86.3c2.2-21.2-3.2-38.8-3.2-38.8C296,138.1,269,164.6,266.1,177.5z"/>
			<g>
				<path class="st13" d="M314,235.1c0.2-4.9-3-9.1-7.2-9.1c0,0-9.7-0.1-100.4-0.5c-3.8,3.4-18.7,21-18.7,21
					c2.1,59.5,3.2,83.3,3.7,92.9h9.4c0-8.5,0.2-31.5,1.3-90.8l7.4-12.3l96.8,7C310.3,243.5,313.7,239.9,314,235.1z"/>
			</g>
			<path class="st9" d="M269.4,191.6c0,0,13.1,41.2,20.2,38.1c9.1-4,19-37,22.1-56.8c-6.4-4.3-12.9-6.6-20.2-7.8
				c-1.9,20.3-4.3,39.2-4.3,39.2l-15.8-28.1L269.4,191.6z"/>
			<path class="st2" d="M288.5,188.8c7.3,1.2,13.1-0.1,19.5,4.1c2.8-10.9,5.8-21.9,5.8-33.1c0.1-4.9-0.9-10.2-4.2-13.4
				c-2.7-2.8-6.7-3.9-10.2-2.7c-5.6,2-6.9,8.3-8,14.5C289.9,166.3,287.9,178.8,288.5,188.8z"/>
			<g>
				<path class="st5" d="M265.7,181.1v-3.4c0-3.7-1.8-6.7-4-6.7h-3v3.3h3c1.1,0,2,1.5,2,3.4v3.4c0,1.9-0.9,3.4-2,3.4h-2.3l-0.3,3.4
					h2.7C264,187.9,265.7,184.8,265.7,181.1z"/>
			</g>
			<path class="st5" d="M243.5,170.5l0-2h16v18.1c0,3.7-2.5,6.7-5.6,6.7h-4.8c-3.1,0-5.6-3-5.6-6.7V170.5L243.5,170.5z"/>
			<path class="st9" d="M271.5,176.3l-1.9,15.8c0,0-7.8-3.4-8-4.3c-0.2-0.8-2-3.2-2.1-3.6c-0.3-1.5-0.1-3.3,0-4.4
				c0.1-1.2-0.7-3.2-0.3-5c0.4-1.7,3.4-3.8,4.8-3.8C269.8,171.1,271.5,176.3,271.5,176.3z"/>
			<path class="st16" d="M221.8,144.9c-4,4.5-14.7,16.6-14.7,16.6l10.1,48.3l16.6-6.3c0.8-0.3,1.2-1.6,0.9-2.9l-10.8-54.4
				C223.6,144.7,222.6,144,221.8,144.9z"/>
			<path class="st11" d="M231.6,201.3l-13.3,5l-9.1-43.4c3.5-4,8.5-9.6,11.7-13.3c0.7-0.9,1.8-0.2,2.1,1.4l9.4,47.3
				C232.7,199.6,232.3,200.9,231.6,201.3z"/>
			<path class="st10" d="M209.2,139.5l-18.3,22.6l18,52.7l24.4-3.9c1-0.2,1.5-1.8,1-3.3l-22.4-66.8
				C211.4,139.2,209.9,138.5,209.2,139.5z"/>
			<path class="st7" d="M196.1,190.8c0.2,3,6.2,3.9,6.2,3.9s0.1-1.2-0.1-2.7c-0.2-1.5-1.5-3-1.8-5.3c-0.2-2.2-1.3-3.3-1.8-4
				c-0.4-0.7-0.2-4-2-5.5c-1.9-1.5-1.7,4.1-1.7,4.1S195.9,187.7,196.1,190.8z"/>
		</g>
		<g>
			<g>
				<g>
					<g>
						<path class="st11" d="M465.9,248c-1.1,0.1-1.9,1.3-1.8,2.7s1.2,2.4,2.3,2.2c1.1-0.1,1.9-1.3,1.8-2.7S467,247.9,465.9,248z"/>
						<path class="st4" d="M465.1,251.8c-0.5-1,0-2.3,1-2.5c0.8-0.1,1.4,0.5,1.5,1.4C467.7,252.4,465.9,253.2,465.1,251.8
							L465.1,251.8z"/>
					</g>
					<g>
						<path class="st11" d="M481.4,253.6c0.8,0.9,0.9,2.5,0.2,3.5c-0.7,1-2,1.2-2.9,0.3c-0.8-0.9-0.9-2.5-0.2-3.5
							C479.3,252.9,480.6,252.7,481.4,253.6z"/>
						<path class="st4" d="M479.7,254.2c0.4,0,0.7,0.1,1,0.4c0.1,0.1,0.2,0.2,0.3,0.3c0.3,0.6,0.3,1.4-0.1,1.9
							c-0.5,0.7-1.3,0.8-1.9,0.2C478.1,256.1,478.5,254.4,479.7,254.2z"/>
					</g>
					<g>
						<path class="st11" d="M471.4,247.6c1.2,0,2.1,1.1,2.1,2.5s-1,2.5-2.1,2.5c-1.2,0-2.1-1.1-2.1-2.5
							C469.3,248.7,470.2,247.7,471.4,247.6z"/>
						<path class="st4" d="M469.8,250.6c0-1.6,1.8-2.2,2.5-0.9c0.6,1.1,0,2.5-1.1,2.5C470.5,252.2,469.9,251.5,469.8,250.6z"/>
					</g>
					<g>
						<path class="st11" d="M460.4,251c0.9-0.9,2.2-0.7,2.9,0.3c0.7,1,0.6,2.5-0.3,3.4c-0.9,0.9-2.2,0.7-2.9-0.3
							C459.3,253.3,459.4,251.7,460.4,251z"/>
						<path class="st4" d="M461.1,251.9c0.6-0.6,1.4-0.5,1.9,0.2s0.4,1.7-0.2,2.3s-1.4,0.5-1.9-0.2S460.5,252.5,461.1,251.9z"/>
					</g>
					<g>
						<path class="st11" d="M478.5,283.8c1-0.6,1.4-2.1,0.9-3.3s-1.8-1.7-2.8-1.1c-1,0.6-1.4,2.1-0.9,3.3
							C476.2,283.9,477.4,284.4,478.5,283.8z"/>
						<path class="st4" d="M476.2,282.1c-0.4-0.8-0.2-1.9,0.5-2.3c0.6-0.3,1.3-0.1,1.7,0.6c0.5,0.8,0.2,1.9-0.5,2.3
							C477.3,283,476.6,282.8,476.2,282.1L476.2,282.1z"/>
					</g>
					<g>
						<path class="st11" d="M485.3,273.1c0.4-1.2-0.1-2.7-1.1-3.2s-2.2,0-2.7,1.3c-0.4,1.2,0,2.7,1.1,3.2
							C483.6,274.9,484.9,274.3,485.3,273.1z"/>
						<path class="st4" d="M481.9,272.9c-0.7-1.3,0.5-3,1.7-2.3c0.7,0.3,1,1.3,0.7,2.1C483.8,273.8,482.5,274,481.9,272.9
							L481.9,272.9z"/>
					</g>
					<g>
						<path class="st11" d="M484.8,259.6c-0.3-1.3-1.5-2.1-2.6-1.7s-1.7,1.8-1.4,3.1c0.3,1.3,1.5,2.1,2.6,1.7
							C484.5,262.3,485.1,261,484.8,259.6z"/>
						<path class="st4" d="M481.1,261c-0.1-0.4-0.1-0.8,0.1-1.2c0.6-1.2,2.2-1.1,2.5,0.3c0.1,0.4,0.1,0.8-0.1,1.2
							C483,262.5,481.5,262.4,481.1,261z"/>
					</g>
					<g>
						<path class="st11" d="M482.9,278.8c-0.5,1.2-1.8,1.6-2.8,0.9c-1-0.6-1.4-2.1-0.8-3.3c0.5-1.2,1.8-1.6,2.8-0.9
							S483.4,277.7,482.9,278.8z"/>
						<path class="st4" d="M479.6,276.6c0.3-0.8,1.2-1,1.8-0.6c1.1,0.7,0.8,2.5-0.3,2.9C480,279.2,479,277.8,479.6,276.6z"/>
					</g>
					<g>
						<path class="st11" d="M477.1,249.8c-1-0.8-2.3-0.4-2.9,0.7c-0.6,1.1-0.4,2.6,0.6,3.4s2.3,0.4,2.9-0.7
							C478.3,252,478.1,250.5,477.1,249.8z"/>
						<path class="st4" d="M474.7,253.2c-0.3-0.6-0.3-1.3,0-1.8c0.4-0.8,1.3-1,1.9-0.5s0.8,1.4,0.4,2.2c-0.4,0.8-1.3,1-1.9,0.5
							C474.8,253.4,474.7,253.2,474.7,253.2z"/>
					</g>
					<g>
						<path class="st11" d="M486,265.9c0.2,1.4-0.6,2.7-1.7,2.9s-2.2-0.7-2.4-2c-0.2-1.4,0.6-2.7,1.7-2.9
							C484.8,263.7,485.8,264.6,486,265.9z"/>
						<path class="st4" d="M482.2,266.5c-0.1-0.8,0.4-1.6,1.1-1.8c0.6-0.1,1.1,0.2,1.4,0.7c0.5,1,0.1,2.3-0.9,2.5
							C483.1,268.1,482.4,267.5,482.2,266.5z"/>
					</g>
					<path class="st4" d="M469,265.8l-2.5-12.9l0.4-0.1l2.6,13.4l1.3-13.7l0.4,0.1l-1.4,13.2l5-11.8l0.3,0.2l-5.2,12.3l8.4-9.5
						l0.3,0.3l-8.1,9.1l10.2-5.2l0.2,0.4l-10.6,5.4l11.6-0.8v0.5l-11.1,0.8l10.6,3.8l-0.1,0.4l-11.1-4l9.3,8.2l-0.2,0.4l-8.9-7.9
						l6.1,11.1l-0.3,0.3L462.6,255l0.3-0.3L469,265.8z"/>
				</g>
				<g>
					<polygon class="st4" points="469.9,265.6 470.8,267.3 427.2,301.4 426.2,299.7 					"/>
				</g>
			</g>
			<g>
				<g>
					<g>
						<path class="st11" d="M442.3,186.3c-1.6,1.3-1.9,3.9-0.8,5.8c1.2,1.9,3.3,2.3,4.9,1c1.6-1.3,1.9-3.9,0.8-5.8
							C446.1,185.4,443.9,185,442.3,186.3z"/>
						<path class="st4" d="M443.8,192.7c-1.5-0.9-1.7-3.4-0.3-4.5c1.1-0.9,2.5-0.6,3.2,0.6C448.1,191,445.9,194,443.8,192.7
							L443.8,192.7z"/>
					</g>
					<g>
						<path class="st11" d="M469.2,179.4c1.9,0.5,3.2,2.6,2.8,4.9c-0.4,2.3-2.2,3.7-4.1,3.3c-1.9-0.5-3.2-2.6-2.8-4.9
							C465.4,180.4,467.3,179,469.2,179.4z"/>
						<path class="st4" d="M467.1,182c0.5-0.4,1.1-0.5,1.7-0.4c0.2,0.1,0.4,0.2,0.6,0.3c0.9,0.5,1.4,1.7,1.2,2.9
							c-0.3,1.4-1.5,2.4-2.7,2.1C465.9,186.5,465.3,183.4,467.1,182z"/>
					</g>
					<g>
						<path class="st11" d="M450.1,180.5c1.6-1.1,3.8-0.3,4.7,1.7c0.9,2.1,0.3,4.6-1.4,5.7c-1.6,1.1-3.8,0.3-4.7-1.7
							C447.7,184.2,448.4,181.6,450.1,180.5z"/>
						<path class="st4" d="M450,186.3c-1-2.3,1.1-5,3.1-3.7c1.6,1,1.6,3.7,0,4.7C452,188,450.6,187.5,450,186.3z"/>
					</g>
					<g>
						<path class="st11" d="M436,196c0.7-2.2,2.7-3.2,4.5-2.4c1.8,0.9,2.7,3.2,2,5.4c-0.7,2.2-2.7,3.2-4.5,2.4
							C436.2,200.6,435.3,198.2,436,196z"/>
						<path class="st4" d="M437.8,196.9c0.4-1.3,1.7-2,2.9-1.5s1.8,2.1,1.3,3.5c-0.4,1.3-1.7,2-2.9,1.5
							C437.9,199.9,437.3,198.3,437.8,196.9z"/>
					</g>
					<g>
						<path class="st11" d="M485.6,227.1c1.1-1.9,0.7-4.5-0.9-5.8c-1.7-1.3-3.8-0.8-4.9,1.1s-0.7,4.5,0.9,5.8S484.4,229,485.6,227.1
							z"/>
						<path class="st4" d="M481,226.8c-1.2-0.8-1.6-2.6-0.8-3.9c0.6-1.2,1.9-1.5,2.9-0.9c1.2,0.7,1.6,2.6,0.8,3.9
							C483.3,227.1,482,227.4,481,226.8L481,226.8z"/>
					</g>
					<g>
						<path class="st11" d="M488.4,204.6c-0.2-2.2-1.8-3.9-3.8-3.7s-3.4,2.2-3.2,4.5c0.2,2.2,1.9,3.9,3.8,3.7
							C487.1,208.9,488.5,206.8,488.4,204.6z"/>
						<path class="st4" d="M483.1,207.5c-2-1.2-1.4-4.8,0.8-5.1c1.3-0.2,2.4,0.9,2.5,2.4C486.6,207,484.7,208.5,483.1,207.5
							L483.1,207.5z"/>
					</g>
					<g>
						<path class="st11" d="M478.2,185.1c-1.4-1.6-3.5-1.6-4.9,0.1c-1.3,1.7-1.3,4.3,0.1,5.9c1.4,1.6,3.5,1.6,4.9-0.1
							C479.7,189.4,479.7,186.7,478.2,185.1z"/>
						<path class="st4" d="M473.9,190.7c-0.5-0.5-0.7-1.2-0.7-1.9c0-2.4,2.4-3.7,3.8-2c0.5,0.5,0.7,1.2,0.7,1.9
							C477.7,191.1,475.3,192.4,473.9,190.7z"/>
					</g>
					<g>
						<path class="st11" d="M488.7,215.4c-0.1,2.3-1.7,4.1-3.6,4.1s-3.4-1.9-3.4-4.2c0.1-2.3,1.7-4.1,3.6-4.1
							S488.7,213.1,488.7,215.4z"/>
						<path class="st4" d="M482.3,215.2c0-1.4,1-2.6,2.3-2.6c2,0,3,2.9,1.5,4.6C484.6,218.8,482.2,217.6,482.3,215.2z"/>
					</g>
					<g>
						<path class="st11" d="M460.1,177.9c-1.9-0.2-3.6,1.5-3.7,3.8c-0.2,2.3,1.3,4.3,3.2,4.5s3.6-1.5,3.7-3.8
							C463.5,180.1,462,178.1,460.1,177.9z"/>
						<path class="st4" d="M458.8,185.3c-0.8-0.5-1.3-1.5-1.2-2.6c0.1-1.5,1.2-2.6,2.4-2.5c1.3,0.1,2.2,1.4,2.1,2.9
							s-1.2,2.6-2.4,2.5C459.2,185.6,458.9,185.3,458.8,185.3z"/>
					</g>
					<g>
						<path class="st11" d="M484.4,193.2c1.3,1.9,1,4.5-0.5,5.9c-1.5,1.5-3.7,1.2-4.9-0.6c-1.3-1.9-1-4.5,0.5-5.9
							C481,191.1,483.2,191.4,484.4,193.2z"/>
						<path class="st4" d="M479.3,197.9c-0.8-1.2-0.7-2.9,0.3-3.8c0.7-0.7,1.7-0.8,2.5-0.3c1.5,0.9,1.7,3.3,0.4,4.5
							C481.6,199.3,480.1,199.1,479.3,197.9z"/>
					</g>
					<path class="st4" d="M459.2,209.6L446.6,193l0.5-0.5l13.1,17.3l-7.5-21.6l0.6-0.3l7.2,20.7l-0.7-22.4h0.7l0.7,23.3l5.9-22.3
						l0.6,0.2l-5.7,21.4l11.6-17.7l0.5,0.5l-12,18.4l16.5-12.5l0.4,0.7l-15.9,12l18.4-4.7l0.1,0.8l-19.2,4.9l19.4,3.1l-0.1,0.8
						l-18.6-3l16.6,10.5l-0.3,0.7l-37.3-23.4l0.3-0.7L459.2,209.6z"/>
				</g>
				<g>
					<polygon class="st4" points="460.3,208.6 462.8,210.1 421.7,303.2 419.1,301.6 					"/>
				</g>
			</g>
			<g>
				<g>
					<path class="st13" d="M427.2,249.5c-4.5-4.3-7.1,0.2-7.1,0.2s4.4-25.4-3.8-27.8c-5.4-1.6-4.8,10.2-4.8,10.2
						s-7.1-28.4-15.8-25.7c-4.7,1.5,0.7,27.9,0.7,27.9s-6.4-8.2-9.5-1.8c-3,6.4,8.5,25.9,8.5,25.9s-8.1-1.2-4.2,9.7
						c3.9,10.9,32.5,36.2,32.5,36.2S435.2,257.1,427.2,249.5z"/>
				</g>
				<path class="st17" d="M424,304.1l-28.3-97.8c8.7-2.7,15.8,25.7,15.8,25.7s-0.6-11.8,4.8-10.2c8.1,2.4,3.8,27.8,3.8,27.8
					s3.8-3.9,8.3,0.4C435.9,257.2,425.2,298.1,424,304.1z"/>
			</g>
			<g>
				<path class="st18" d="M407.7,267c-4.5-1.1-1.4,8.8-1.4,8.8s-6.6-22-13.1-20.1c-4.3,1.2-3.2,7.1-3.2,7.1s-13.8-14.6-16.9-6.9
					c-2,5.1,7.7,15.4,7.7,15.4s-4.7-1.2-4.9,4.7c-0.2,5.9,13.8,14.8,13.8,14.8s-7.4,0.4-1.4,6.5c6.1,6.1,35.4,6.1,35.4,6.1
					S415.7,269,407.7,267z"/>
			</g>
			<g>
				<g>
					<path class="st13" d="M418.8,248.2c4.1-4.4,6.9,4.5,6.9,4.5s-5.4-23.8,2.3-26.7c5.1-1.9,5.1,9.4,5.1,9.4s5.3-27.5,13.7-25.5
						c4.5,1,0.8,26.5,0.8,26.5s5.7-8.3,8.9-2.4c3.2,5.9-6.8,25.3-6.8,25.3s7.6-1.7,4.4,8.9s-29.2,37.1-29.2,37.1
						S411.5,256.1,418.8,248.2z"/>
				</g>
				<path class="st19" d="M424.8,305l22-95.1c-8.4-2-13.7,25.5-13.7,25.5s0-11.3-5.1-9.4c-7.7,2.9-3.1,22.1-3.1,22.1s-2.3-4.4-7-1.1
					C412.2,251,423.3,299.2,424.8,305z"/>
			</g>
			<g>
				<g>
					<path class="st20" d="M457.4,275.6c2.1,1-1.5,9.1-1.5,9.1s9.5-8.1,11.7-5.1c1.4,1.9-2.2,4-2.2,4s9.8-2.7,10.6,1.5
						c0.5,2.2-8.4,5.3-8.4,5.3s3.7,1,2.3,3.6c-1.3,2.6-10.2,2.2-10.2,2.2s4.4,4.2,0.4,4.8c-4,0.5-32.6,0.5-32.6,0.5
						S453.6,273.8,457.4,275.6z"/>
				</g>
			</g>
			<path class="st14" d="M457.5,315.5c0.1-5-0.8-9.8-2.5-14.2l-61.3-0.8c-1.9,4.3-2.7,8.7-2.8,13.7c-0.1,9.9,3.5,19,9.6,25.6h47.6
				C453.9,333.6,457.4,325,457.5,315.5z"/>
		</g>
		<g>
			<path class="st20" d="M251.1,153.1L251.1,153.1L251.1,153.1z"/>
		</g>
		<g>
			<path class="st11" d="M418.1,189.1c-2.3-3.8-2.2-9.1,0.2-12.7l0,0h-31.6c-2.8,0-5.1,2.9-5.1,6.5l0,0c0,3.6,2.3,6.5,5.1,6.5h31.6
				L418.1,189.1z"/>
			<path class="st4" d="M387.2,189.6h31.7c0.2,0,0.3,0.1,0.3,0.3l0,0c0,0.2-0.2,0.3-0.3,0.3h-50.3c-3.2,0-5.7-3.2-5.7-7.2l0,0
				c0-4,2.6-7.2,5.7-7.2h50.3c0.2,0,0.3,0.1,0.3,0.3l0,0c0,0.1-0.2,0.3-0.3,0.3h-31.7c-2.8,0-5.1,2.9-5.1,6.5l0,0
				C382.1,186.4,384.4,189.4,387.2,189.6z"/>
		</g>
	</g>
</g>
<path class="st21" d="M251.9,123.9c-3.5,0.8-1.8,5-0.9,6.7c0.2,0.5,0.1,1-0.3,1.3c-12.6,9.7-4,17.4-0.5,19.9
	c0.5,0.4,0.5,1.3-0.1,1.7l-1,0.6c-0.3,0.2-0.8,0.2-1.1,0c-14.6-10.1-3.1-21.1,0-23.7c0.4-0.3,0.5-0.9,0.2-1.3
	c-2.8-4.4,0.9-6.9,2.6-7.7c0.5-0.2,1,0,1.3,0.4l0.4,0.7C252.9,123.1,252.6,123.9,251.9,123.9z"/>
<path class="st21" d="M251.3,154.5l-1,7.1c-0.1,1.3-1.2,1.2-1.3,0l-0.8-7.1c-0.1-1,0.4-2,1-2h1.1C251,152.5,251.5,153.5,251.3,154.5
	z"/>
</svg>
